G04 EAGLE Gerber RS-274X export*
G75*
%MOMM*%
%FSLAX34Y34*%
%LPD*%
%INSilkscreen Bottom*%
%IPPOS*%
%AMOC8*
5,1,8,0,0,1.08239X$1,22.5*%
G01*
%ADD10C,0.508000*%


D10*
X111900Y303350D02*
X111902Y303228D01*
X111908Y303106D01*
X111918Y302984D01*
X111931Y302863D01*
X111949Y302742D01*
X111970Y302622D01*
X111996Y302502D01*
X112025Y302384D01*
X112057Y302266D01*
X112094Y302149D01*
X112134Y302034D01*
X112178Y301920D01*
X112226Y301808D01*
X112277Y301697D01*
X112332Y301588D01*
X112390Y301480D01*
X112452Y301375D01*
X112517Y301272D01*
X112585Y301170D01*
X112657Y301071D01*
X112731Y300975D01*
X112809Y300880D01*
X112890Y300789D01*
X112973Y300699D01*
X113059Y300613D01*
X113149Y300530D01*
X113240Y300449D01*
X113335Y300371D01*
X113431Y300297D01*
X113530Y300225D01*
X113632Y300157D01*
X113735Y300092D01*
X113840Y300030D01*
X113948Y299972D01*
X114057Y299917D01*
X114168Y299866D01*
X114280Y299818D01*
X114394Y299774D01*
X114509Y299734D01*
X114626Y299697D01*
X114744Y299665D01*
X114862Y299636D01*
X114982Y299610D01*
X115102Y299589D01*
X115223Y299571D01*
X115344Y299558D01*
X115466Y299548D01*
X115588Y299542D01*
X115710Y299540D01*
X115832Y299542D01*
X115954Y299548D01*
X116076Y299558D01*
X116197Y299571D01*
X116318Y299589D01*
X116438Y299610D01*
X116558Y299636D01*
X116676Y299665D01*
X116794Y299697D01*
X116911Y299734D01*
X117026Y299774D01*
X117140Y299818D01*
X117252Y299866D01*
X117363Y299917D01*
X117472Y299972D01*
X117580Y300030D01*
X117685Y300092D01*
X117788Y300157D01*
X117890Y300225D01*
X117989Y300297D01*
X118085Y300371D01*
X118180Y300449D01*
X118271Y300530D01*
X118361Y300613D01*
X118447Y300699D01*
X118530Y300789D01*
X118611Y300880D01*
X118689Y300975D01*
X118763Y301071D01*
X118835Y301170D01*
X118903Y301272D01*
X118968Y301375D01*
X119030Y301480D01*
X119088Y301588D01*
X119143Y301697D01*
X119194Y301808D01*
X119242Y301920D01*
X119286Y302034D01*
X119326Y302149D01*
X119363Y302266D01*
X119395Y302384D01*
X119424Y302502D01*
X119450Y302622D01*
X119471Y302742D01*
X119489Y302863D01*
X119502Y302984D01*
X119512Y303106D01*
X119518Y303228D01*
X119520Y303350D01*
X119518Y303472D01*
X119512Y303594D01*
X119502Y303716D01*
X119489Y303837D01*
X119471Y303958D01*
X119450Y304078D01*
X119424Y304198D01*
X119395Y304316D01*
X119363Y304434D01*
X119326Y304551D01*
X119286Y304666D01*
X119242Y304780D01*
X119194Y304892D01*
X119143Y305003D01*
X119088Y305112D01*
X119030Y305220D01*
X118968Y305325D01*
X118903Y305428D01*
X118835Y305530D01*
X118763Y305629D01*
X118689Y305725D01*
X118611Y305820D01*
X118530Y305911D01*
X118447Y306001D01*
X118361Y306087D01*
X118271Y306170D01*
X118180Y306251D01*
X118085Y306329D01*
X117989Y306403D01*
X117890Y306475D01*
X117788Y306543D01*
X117685Y306608D01*
X117580Y306670D01*
X117472Y306728D01*
X117363Y306783D01*
X117252Y306834D01*
X117140Y306882D01*
X117026Y306926D01*
X116911Y306966D01*
X116794Y307003D01*
X116676Y307035D01*
X116558Y307064D01*
X116438Y307090D01*
X116318Y307111D01*
X116197Y307129D01*
X116076Y307142D01*
X115954Y307152D01*
X115832Y307158D01*
X115710Y307160D01*
X115588Y307158D01*
X115466Y307152D01*
X115344Y307142D01*
X115223Y307129D01*
X115102Y307111D01*
X114982Y307090D01*
X114862Y307064D01*
X114744Y307035D01*
X114626Y307003D01*
X114509Y306966D01*
X114394Y306926D01*
X114280Y306882D01*
X114168Y306834D01*
X114057Y306783D01*
X113948Y306728D01*
X113840Y306670D01*
X113735Y306608D01*
X113632Y306543D01*
X113530Y306475D01*
X113431Y306403D01*
X113335Y306329D01*
X113240Y306251D01*
X113149Y306170D01*
X113059Y306087D01*
X112973Y306001D01*
X112890Y305911D01*
X112809Y305820D01*
X112731Y305725D01*
X112657Y305629D01*
X112585Y305530D01*
X112517Y305428D01*
X112452Y305325D01*
X112390Y305220D01*
X112332Y305112D01*
X112277Y305003D01*
X112226Y304892D01*
X112178Y304780D01*
X112134Y304666D01*
X112094Y304551D01*
X112057Y304434D01*
X112025Y304316D01*
X111996Y304198D01*
X111970Y304078D01*
X111949Y303958D01*
X111931Y303837D01*
X111918Y303716D01*
X111908Y303594D01*
X111902Y303472D01*
X111900Y303350D01*
X145100Y275400D02*
X145102Y275278D01*
X145108Y275156D01*
X145118Y275034D01*
X145131Y274913D01*
X145149Y274792D01*
X145170Y274672D01*
X145196Y274552D01*
X145225Y274434D01*
X145257Y274316D01*
X145294Y274199D01*
X145334Y274084D01*
X145378Y273970D01*
X145426Y273858D01*
X145477Y273747D01*
X145532Y273638D01*
X145590Y273530D01*
X145652Y273425D01*
X145717Y273322D01*
X145785Y273220D01*
X145857Y273121D01*
X145931Y273025D01*
X146009Y272930D01*
X146090Y272839D01*
X146173Y272749D01*
X146259Y272663D01*
X146349Y272580D01*
X146440Y272499D01*
X146535Y272421D01*
X146631Y272347D01*
X146730Y272275D01*
X146832Y272207D01*
X146935Y272142D01*
X147040Y272080D01*
X147148Y272022D01*
X147257Y271967D01*
X147368Y271916D01*
X147480Y271868D01*
X147594Y271824D01*
X147709Y271784D01*
X147826Y271747D01*
X147944Y271715D01*
X148062Y271686D01*
X148182Y271660D01*
X148302Y271639D01*
X148423Y271621D01*
X148544Y271608D01*
X148666Y271598D01*
X148788Y271592D01*
X148910Y271590D01*
X149032Y271592D01*
X149154Y271598D01*
X149276Y271608D01*
X149397Y271621D01*
X149518Y271639D01*
X149638Y271660D01*
X149758Y271686D01*
X149876Y271715D01*
X149994Y271747D01*
X150111Y271784D01*
X150226Y271824D01*
X150340Y271868D01*
X150452Y271916D01*
X150563Y271967D01*
X150672Y272022D01*
X150780Y272080D01*
X150885Y272142D01*
X150988Y272207D01*
X151090Y272275D01*
X151189Y272347D01*
X151285Y272421D01*
X151380Y272499D01*
X151471Y272580D01*
X151561Y272663D01*
X151647Y272749D01*
X151730Y272839D01*
X151811Y272930D01*
X151889Y273025D01*
X151963Y273121D01*
X152035Y273220D01*
X152103Y273322D01*
X152168Y273425D01*
X152230Y273530D01*
X152288Y273638D01*
X152343Y273747D01*
X152394Y273858D01*
X152442Y273970D01*
X152486Y274084D01*
X152526Y274199D01*
X152563Y274316D01*
X152595Y274434D01*
X152624Y274552D01*
X152650Y274672D01*
X152671Y274792D01*
X152689Y274913D01*
X152702Y275034D01*
X152712Y275156D01*
X152718Y275278D01*
X152720Y275400D01*
X152718Y275522D01*
X152712Y275644D01*
X152702Y275766D01*
X152689Y275887D01*
X152671Y276008D01*
X152650Y276128D01*
X152624Y276248D01*
X152595Y276366D01*
X152563Y276484D01*
X152526Y276601D01*
X152486Y276716D01*
X152442Y276830D01*
X152394Y276942D01*
X152343Y277053D01*
X152288Y277162D01*
X152230Y277270D01*
X152168Y277375D01*
X152103Y277478D01*
X152035Y277580D01*
X151963Y277679D01*
X151889Y277775D01*
X151811Y277870D01*
X151730Y277961D01*
X151647Y278051D01*
X151561Y278137D01*
X151471Y278220D01*
X151380Y278301D01*
X151285Y278379D01*
X151189Y278453D01*
X151090Y278525D01*
X150988Y278593D01*
X150885Y278658D01*
X150780Y278720D01*
X150672Y278778D01*
X150563Y278833D01*
X150452Y278884D01*
X150340Y278932D01*
X150226Y278976D01*
X150111Y279016D01*
X149994Y279053D01*
X149876Y279085D01*
X149758Y279114D01*
X149638Y279140D01*
X149518Y279161D01*
X149397Y279179D01*
X149276Y279192D01*
X149154Y279202D01*
X149032Y279208D01*
X148910Y279210D01*
X148788Y279208D01*
X148666Y279202D01*
X148544Y279192D01*
X148423Y279179D01*
X148302Y279161D01*
X148182Y279140D01*
X148062Y279114D01*
X147944Y279085D01*
X147826Y279053D01*
X147709Y279016D01*
X147594Y278976D01*
X147480Y278932D01*
X147368Y278884D01*
X147257Y278833D01*
X147148Y278778D01*
X147040Y278720D01*
X146935Y278658D01*
X146832Y278593D01*
X146730Y278525D01*
X146631Y278453D01*
X146535Y278379D01*
X146440Y278301D01*
X146349Y278220D01*
X146259Y278137D01*
X146173Y278051D01*
X146090Y277961D01*
X146009Y277870D01*
X145931Y277775D01*
X145857Y277679D01*
X145785Y277580D01*
X145717Y277478D01*
X145652Y277375D01*
X145590Y277270D01*
X145532Y277162D01*
X145477Y277053D01*
X145426Y276942D01*
X145378Y276830D01*
X145334Y276716D01*
X145294Y276601D01*
X145257Y276484D01*
X145225Y276366D01*
X145196Y276248D01*
X145170Y276128D01*
X145149Y276008D01*
X145131Y275887D01*
X145118Y275766D01*
X145108Y275644D01*
X145102Y275522D01*
X145100Y275400D01*
X145700Y224600D02*
X145702Y224478D01*
X145708Y224356D01*
X145718Y224234D01*
X145731Y224113D01*
X145749Y223992D01*
X145770Y223872D01*
X145796Y223752D01*
X145825Y223634D01*
X145857Y223516D01*
X145894Y223399D01*
X145934Y223284D01*
X145978Y223170D01*
X146026Y223058D01*
X146077Y222947D01*
X146132Y222838D01*
X146190Y222730D01*
X146252Y222625D01*
X146317Y222522D01*
X146385Y222420D01*
X146457Y222321D01*
X146531Y222225D01*
X146609Y222130D01*
X146690Y222039D01*
X146773Y221949D01*
X146859Y221863D01*
X146949Y221780D01*
X147040Y221699D01*
X147135Y221621D01*
X147231Y221547D01*
X147330Y221475D01*
X147432Y221407D01*
X147535Y221342D01*
X147640Y221280D01*
X147748Y221222D01*
X147857Y221167D01*
X147968Y221116D01*
X148080Y221068D01*
X148194Y221024D01*
X148309Y220984D01*
X148426Y220947D01*
X148544Y220915D01*
X148662Y220886D01*
X148782Y220860D01*
X148902Y220839D01*
X149023Y220821D01*
X149144Y220808D01*
X149266Y220798D01*
X149388Y220792D01*
X149510Y220790D01*
X149632Y220792D01*
X149754Y220798D01*
X149876Y220808D01*
X149997Y220821D01*
X150118Y220839D01*
X150238Y220860D01*
X150358Y220886D01*
X150476Y220915D01*
X150594Y220947D01*
X150711Y220984D01*
X150826Y221024D01*
X150940Y221068D01*
X151052Y221116D01*
X151163Y221167D01*
X151272Y221222D01*
X151380Y221280D01*
X151485Y221342D01*
X151588Y221407D01*
X151690Y221475D01*
X151789Y221547D01*
X151885Y221621D01*
X151980Y221699D01*
X152071Y221780D01*
X152161Y221863D01*
X152247Y221949D01*
X152330Y222039D01*
X152411Y222130D01*
X152489Y222225D01*
X152563Y222321D01*
X152635Y222420D01*
X152703Y222522D01*
X152768Y222625D01*
X152830Y222730D01*
X152888Y222838D01*
X152943Y222947D01*
X152994Y223058D01*
X153042Y223170D01*
X153086Y223284D01*
X153126Y223399D01*
X153163Y223516D01*
X153195Y223634D01*
X153224Y223752D01*
X153250Y223872D01*
X153271Y223992D01*
X153289Y224113D01*
X153302Y224234D01*
X153312Y224356D01*
X153318Y224478D01*
X153320Y224600D01*
X153318Y224722D01*
X153312Y224844D01*
X153302Y224966D01*
X153289Y225087D01*
X153271Y225208D01*
X153250Y225328D01*
X153224Y225448D01*
X153195Y225566D01*
X153163Y225684D01*
X153126Y225801D01*
X153086Y225916D01*
X153042Y226030D01*
X152994Y226142D01*
X152943Y226253D01*
X152888Y226362D01*
X152830Y226470D01*
X152768Y226575D01*
X152703Y226678D01*
X152635Y226780D01*
X152563Y226879D01*
X152489Y226975D01*
X152411Y227070D01*
X152330Y227161D01*
X152247Y227251D01*
X152161Y227337D01*
X152071Y227420D01*
X151980Y227501D01*
X151885Y227579D01*
X151789Y227653D01*
X151690Y227725D01*
X151588Y227793D01*
X151485Y227858D01*
X151380Y227920D01*
X151272Y227978D01*
X151163Y228033D01*
X151052Y228084D01*
X150940Y228132D01*
X150826Y228176D01*
X150711Y228216D01*
X150594Y228253D01*
X150476Y228285D01*
X150358Y228314D01*
X150238Y228340D01*
X150118Y228361D01*
X149997Y228379D01*
X149876Y228392D01*
X149754Y228402D01*
X149632Y228408D01*
X149510Y228410D01*
X149388Y228408D01*
X149266Y228402D01*
X149144Y228392D01*
X149023Y228379D01*
X148902Y228361D01*
X148782Y228340D01*
X148662Y228314D01*
X148544Y228285D01*
X148426Y228253D01*
X148309Y228216D01*
X148194Y228176D01*
X148080Y228132D01*
X147968Y228084D01*
X147857Y228033D01*
X147748Y227978D01*
X147640Y227920D01*
X147535Y227858D01*
X147432Y227793D01*
X147330Y227725D01*
X147231Y227653D01*
X147135Y227579D01*
X147040Y227501D01*
X146949Y227420D01*
X146859Y227337D01*
X146773Y227251D01*
X146690Y227161D01*
X146609Y227070D01*
X146531Y226975D01*
X146457Y226879D01*
X146385Y226780D01*
X146317Y226678D01*
X146252Y226575D01*
X146190Y226470D01*
X146132Y226362D01*
X146077Y226253D01*
X146026Y226142D01*
X145978Y226030D01*
X145934Y225916D01*
X145894Y225801D01*
X145857Y225684D01*
X145825Y225566D01*
X145796Y225448D01*
X145770Y225328D01*
X145749Y225208D01*
X145731Y225087D01*
X145718Y224966D01*
X145708Y224844D01*
X145702Y224722D01*
X145700Y224600D01*
X77120Y250000D02*
X77118Y249878D01*
X77112Y249756D01*
X77102Y249634D01*
X77089Y249513D01*
X77071Y249392D01*
X77050Y249272D01*
X77024Y249152D01*
X76995Y249034D01*
X76963Y248916D01*
X76926Y248799D01*
X76886Y248684D01*
X76842Y248570D01*
X76794Y248458D01*
X76743Y248347D01*
X76688Y248238D01*
X76630Y248130D01*
X76568Y248025D01*
X76503Y247922D01*
X76435Y247820D01*
X76363Y247721D01*
X76289Y247625D01*
X76211Y247530D01*
X76130Y247439D01*
X76047Y247349D01*
X75961Y247263D01*
X75871Y247180D01*
X75780Y247099D01*
X75685Y247021D01*
X75589Y246947D01*
X75490Y246875D01*
X75388Y246807D01*
X75285Y246742D01*
X75180Y246680D01*
X75072Y246622D01*
X74963Y246567D01*
X74852Y246516D01*
X74740Y246468D01*
X74626Y246424D01*
X74511Y246384D01*
X74394Y246347D01*
X74276Y246315D01*
X74158Y246286D01*
X74038Y246260D01*
X73918Y246239D01*
X73797Y246221D01*
X73676Y246208D01*
X73554Y246198D01*
X73432Y246192D01*
X73310Y246190D01*
X73188Y246192D01*
X73066Y246198D01*
X72944Y246208D01*
X72823Y246221D01*
X72702Y246239D01*
X72582Y246260D01*
X72462Y246286D01*
X72344Y246315D01*
X72226Y246347D01*
X72109Y246384D01*
X71994Y246424D01*
X71880Y246468D01*
X71768Y246516D01*
X71657Y246567D01*
X71548Y246622D01*
X71440Y246680D01*
X71335Y246742D01*
X71232Y246807D01*
X71130Y246875D01*
X71031Y246947D01*
X70935Y247021D01*
X70840Y247099D01*
X70749Y247180D01*
X70659Y247263D01*
X70573Y247349D01*
X70490Y247439D01*
X70409Y247530D01*
X70331Y247625D01*
X70257Y247721D01*
X70185Y247820D01*
X70117Y247922D01*
X70052Y248025D01*
X69990Y248130D01*
X69932Y248238D01*
X69877Y248347D01*
X69826Y248458D01*
X69778Y248570D01*
X69734Y248684D01*
X69694Y248799D01*
X69657Y248916D01*
X69625Y249034D01*
X69596Y249152D01*
X69570Y249272D01*
X69549Y249392D01*
X69531Y249513D01*
X69518Y249634D01*
X69508Y249756D01*
X69502Y249878D01*
X69500Y250000D01*
X69502Y250122D01*
X69508Y250244D01*
X69518Y250366D01*
X69531Y250487D01*
X69549Y250608D01*
X69570Y250728D01*
X69596Y250848D01*
X69625Y250966D01*
X69657Y251084D01*
X69694Y251201D01*
X69734Y251316D01*
X69778Y251430D01*
X69826Y251542D01*
X69877Y251653D01*
X69932Y251762D01*
X69990Y251870D01*
X70052Y251975D01*
X70117Y252078D01*
X70185Y252180D01*
X70257Y252279D01*
X70331Y252375D01*
X70409Y252470D01*
X70490Y252561D01*
X70573Y252651D01*
X70659Y252737D01*
X70749Y252820D01*
X70840Y252901D01*
X70935Y252979D01*
X71031Y253053D01*
X71130Y253125D01*
X71232Y253193D01*
X71335Y253258D01*
X71440Y253320D01*
X71548Y253378D01*
X71657Y253433D01*
X71768Y253484D01*
X71880Y253532D01*
X71994Y253576D01*
X72109Y253616D01*
X72226Y253653D01*
X72344Y253685D01*
X72462Y253714D01*
X72582Y253740D01*
X72702Y253761D01*
X72823Y253779D01*
X72944Y253792D01*
X73066Y253802D01*
X73188Y253808D01*
X73310Y253810D01*
X73432Y253808D01*
X73554Y253802D01*
X73676Y253792D01*
X73797Y253779D01*
X73918Y253761D01*
X74038Y253740D01*
X74158Y253714D01*
X74276Y253685D01*
X74394Y253653D01*
X74511Y253616D01*
X74626Y253576D01*
X74740Y253532D01*
X74852Y253484D01*
X74963Y253433D01*
X75072Y253378D01*
X75180Y253320D01*
X75285Y253258D01*
X75388Y253193D01*
X75490Y253125D01*
X75589Y253053D01*
X75685Y252979D01*
X75780Y252901D01*
X75871Y252820D01*
X75961Y252737D01*
X76047Y252651D01*
X76130Y252561D01*
X76211Y252470D01*
X76289Y252375D01*
X76363Y252279D01*
X76435Y252180D01*
X76503Y252078D01*
X76568Y251975D01*
X76630Y251870D01*
X76688Y251762D01*
X76743Y251653D01*
X76794Y251542D01*
X76842Y251430D01*
X76886Y251316D01*
X76926Y251201D01*
X76963Y251084D01*
X76995Y250966D01*
X77024Y250848D01*
X77050Y250728D01*
X77071Y250608D01*
X77089Y250487D01*
X77102Y250366D01*
X77112Y250244D01*
X77118Y250122D01*
X77120Y250000D01*
X111900Y196650D02*
X111902Y196528D01*
X111908Y196406D01*
X111918Y196284D01*
X111931Y196163D01*
X111949Y196042D01*
X111970Y195922D01*
X111996Y195802D01*
X112025Y195684D01*
X112057Y195566D01*
X112094Y195449D01*
X112134Y195334D01*
X112178Y195220D01*
X112226Y195108D01*
X112277Y194997D01*
X112332Y194888D01*
X112390Y194780D01*
X112452Y194675D01*
X112517Y194572D01*
X112585Y194470D01*
X112657Y194371D01*
X112731Y194275D01*
X112809Y194180D01*
X112890Y194089D01*
X112973Y193999D01*
X113059Y193913D01*
X113149Y193830D01*
X113240Y193749D01*
X113335Y193671D01*
X113431Y193597D01*
X113530Y193525D01*
X113632Y193457D01*
X113735Y193392D01*
X113840Y193330D01*
X113948Y193272D01*
X114057Y193217D01*
X114168Y193166D01*
X114280Y193118D01*
X114394Y193074D01*
X114509Y193034D01*
X114626Y192997D01*
X114744Y192965D01*
X114862Y192936D01*
X114982Y192910D01*
X115102Y192889D01*
X115223Y192871D01*
X115344Y192858D01*
X115466Y192848D01*
X115588Y192842D01*
X115710Y192840D01*
X115832Y192842D01*
X115954Y192848D01*
X116076Y192858D01*
X116197Y192871D01*
X116318Y192889D01*
X116438Y192910D01*
X116558Y192936D01*
X116676Y192965D01*
X116794Y192997D01*
X116911Y193034D01*
X117026Y193074D01*
X117140Y193118D01*
X117252Y193166D01*
X117363Y193217D01*
X117472Y193272D01*
X117580Y193330D01*
X117685Y193392D01*
X117788Y193457D01*
X117890Y193525D01*
X117989Y193597D01*
X118085Y193671D01*
X118180Y193749D01*
X118271Y193830D01*
X118361Y193913D01*
X118447Y193999D01*
X118530Y194089D01*
X118611Y194180D01*
X118689Y194275D01*
X118763Y194371D01*
X118835Y194470D01*
X118903Y194572D01*
X118968Y194675D01*
X119030Y194780D01*
X119088Y194888D01*
X119143Y194997D01*
X119194Y195108D01*
X119242Y195220D01*
X119286Y195334D01*
X119326Y195449D01*
X119363Y195566D01*
X119395Y195684D01*
X119424Y195802D01*
X119450Y195922D01*
X119471Y196042D01*
X119489Y196163D01*
X119502Y196284D01*
X119512Y196406D01*
X119518Y196528D01*
X119520Y196650D01*
X119518Y196772D01*
X119512Y196894D01*
X119502Y197016D01*
X119489Y197137D01*
X119471Y197258D01*
X119450Y197378D01*
X119424Y197498D01*
X119395Y197616D01*
X119363Y197734D01*
X119326Y197851D01*
X119286Y197966D01*
X119242Y198080D01*
X119194Y198192D01*
X119143Y198303D01*
X119088Y198412D01*
X119030Y198520D01*
X118968Y198625D01*
X118903Y198728D01*
X118835Y198830D01*
X118763Y198929D01*
X118689Y199025D01*
X118611Y199120D01*
X118530Y199211D01*
X118447Y199301D01*
X118361Y199387D01*
X118271Y199470D01*
X118180Y199551D01*
X118085Y199629D01*
X117989Y199703D01*
X117890Y199775D01*
X117788Y199843D01*
X117685Y199908D01*
X117580Y199970D01*
X117472Y200028D01*
X117363Y200083D01*
X117252Y200134D01*
X117140Y200182D01*
X117026Y200226D01*
X116911Y200266D01*
X116794Y200303D01*
X116676Y200335D01*
X116558Y200364D01*
X116438Y200390D01*
X116318Y200411D01*
X116197Y200429D01*
X116076Y200442D01*
X115954Y200452D01*
X115832Y200458D01*
X115710Y200460D01*
X115588Y200458D01*
X115466Y200452D01*
X115344Y200442D01*
X115223Y200429D01*
X115102Y200411D01*
X114982Y200390D01*
X114862Y200364D01*
X114744Y200335D01*
X114626Y200303D01*
X114509Y200266D01*
X114394Y200226D01*
X114280Y200182D01*
X114168Y200134D01*
X114057Y200083D01*
X113948Y200028D01*
X113840Y199970D01*
X113735Y199908D01*
X113632Y199843D01*
X113530Y199775D01*
X113431Y199703D01*
X113335Y199629D01*
X113240Y199551D01*
X113149Y199470D01*
X113059Y199387D01*
X112973Y199301D01*
X112890Y199211D01*
X112809Y199120D01*
X112731Y199025D01*
X112657Y198929D01*
X112585Y198830D01*
X112517Y198728D01*
X112452Y198625D01*
X112390Y198520D01*
X112332Y198412D01*
X112277Y198303D01*
X112226Y198192D01*
X112178Y198080D01*
X112134Y197966D01*
X112094Y197851D01*
X112057Y197734D01*
X112025Y197616D01*
X111996Y197498D01*
X111970Y197378D01*
X111949Y197258D01*
X111931Y197137D01*
X111918Y197016D01*
X111908Y196894D01*
X111902Y196772D01*
X111900Y196650D01*
M02*
