%TF.GenerationSoftware,KiCad,Pcbnew,9.0.5*%
%TF.CreationDate,2026-01-09T12:03:12-06:00*%
%TF.ProjectId,dreamV1_0,64726561-6d56-4315-9f30-2e6b69636164,1*%
%TF.SameCoordinates,Original*%
%TF.FileFunction,Paste,Top*%
%TF.FilePolarity,Positive*%
%FSLAX46Y46*%
G04 Gerber Fmt 4.6, Leading zero omitted, Abs format (unit mm)*
G04 Created by KiCad (PCBNEW 9.0.5) date 2026-01-09 12:03:12*
%MOMM*%
%LPD*%
G01*
G04 APERTURE LIST*
G04 Aperture macros list*
%AMRoundRect*
0 Rectangle with rounded corners*
0 $1 Rounding radius*
0 $2 $3 $4 $5 $6 $7 $8 $9 X,Y pos of 4 corners*
0 Add a 4 corners polygon primitive as box body*
4,1,4,$2,$3,$4,$5,$6,$7,$8,$9,$2,$3,0*
0 Add four circle primitives for the rounded corners*
1,1,$1+$1,$2,$3*
1,1,$1+$1,$4,$5*
1,1,$1+$1,$6,$7*
1,1,$1+$1,$8,$9*
0 Add four rect primitives between the rounded corners*
20,1,$1+$1,$2,$3,$4,$5,0*
20,1,$1+$1,$4,$5,$6,$7,0*
20,1,$1+$1,$6,$7,$8,$9,0*
20,1,$1+$1,$8,$9,$2,$3,0*%
G04 Aperture macros list end*
%ADD10R,0.700000X3.600000*%
%ADD11R,1.500000X2.300000*%
%ADD12RoundRect,0.150000X-0.512500X-0.150000X0.512500X-0.150000X0.512500X0.150000X-0.512500X0.150000X0*%
%ADD13R,0.350000X0.500000*%
%ADD14RoundRect,0.225000X0.250000X-0.225000X0.250000X0.225000X-0.250000X0.225000X-0.250000X-0.225000X0*%
%ADD15R,0.600000X1.550000*%
%ADD16R,1.200000X2.000000*%
%ADD17RoundRect,0.200000X0.275000X-0.200000X0.275000X0.200000X-0.275000X0.200000X-0.275000X-0.200000X0*%
%ADD18R,0.660400X1.549400*%
%ADD19R,1.193800X1.854200*%
%ADD20RoundRect,0.250000X-0.475000X0.250000X-0.475000X-0.250000X0.475000X-0.250000X0.475000X0.250000X0*%
%ADD21RoundRect,0.100000X-0.225000X-0.100000X0.225000X-0.100000X0.225000X0.100000X-0.225000X0.100000X0*%
%ADD22RoundRect,0.125000X-0.537500X-0.125000X0.537500X-0.125000X0.537500X0.125000X-0.537500X0.125000X0*%
%ADD23R,0.800000X0.500000*%
%ADD24R,0.800000X0.400000*%
%ADD25R,1.651000X1.000000*%
%ADD26R,1.020000X1.040000*%
%ADD27R,1.070000X3.270000*%
%ADD28RoundRect,0.225000X-0.250000X0.225000X-0.250000X-0.225000X0.250000X-0.225000X0.250000X0.225000X0*%
%ADD29RoundRect,0.197500X-1.402500X-0.592500X1.402500X-0.592500X1.402500X0.592500X-1.402500X0.592500X0*%
G04 APERTURE END LIST*
D10*
%TO.C,J3*%
X109000000Y-124950000D03*
X107500000Y-124950000D03*
X106000000Y-124950000D03*
X104500000Y-124950000D03*
X103000000Y-124950000D03*
D11*
X111050000Y-127000000D03*
X100950000Y-127000000D03*
%TD*%
D12*
%TO.C,U1*%
X53862500Y-116050000D03*
X53862500Y-117000000D03*
X53862500Y-117950000D03*
X56137500Y-117950000D03*
X56137500Y-116050000D03*
%TD*%
D13*
%TO.C,U2*%
X77025000Y-125975000D03*
X77675000Y-125975000D03*
X78325000Y-125975000D03*
X78975000Y-125975000D03*
X78975000Y-128025000D03*
X78325000Y-128025000D03*
X77675000Y-128025000D03*
X77025000Y-128025000D03*
%TD*%
D14*
%TO.C,C6*%
X96000000Y-85061050D03*
X96000000Y-83511050D03*
%TD*%
D15*
%TO.C,J4*%
X119500000Y-124489000D03*
X118500000Y-124489000D03*
X117500000Y-124489000D03*
X116500000Y-124489000D03*
D16*
X120800000Y-126914000D03*
X115200000Y-126914000D03*
%TD*%
D17*
%TO.C,R2*%
X70000000Y-117825000D03*
X70000000Y-116175000D03*
%TD*%
D18*
%TO.C,J7*%
X92500000Y-66000000D03*
X91500000Y-66000000D03*
X90499999Y-66000000D03*
X89500001Y-66000000D03*
X88500000Y-66000000D03*
X87500000Y-66000000D03*
D19*
X86200000Y-68525014D03*
X93800000Y-68525014D03*
%TD*%
D20*
%TO.C,C4*%
X103000000Y-114050000D03*
X103000000Y-115950000D03*
%TD*%
D21*
%TO.C,Q1*%
X64746667Y-116350000D03*
X64746667Y-117000000D03*
X64746667Y-117650000D03*
X66646667Y-117650000D03*
X66646667Y-117000000D03*
X66646667Y-116350000D03*
%TD*%
D22*
%TO.C,U3*%
X107530000Y-114100000D03*
X107530000Y-114750000D03*
X107530000Y-115400000D03*
X107530000Y-116050000D03*
X109805000Y-116050000D03*
X109805000Y-115400000D03*
X109805000Y-114750000D03*
X109805000Y-114100000D03*
%TD*%
D15*
%TO.C,J2*%
X69500000Y-124489000D03*
X68500000Y-124489000D03*
X67500000Y-124489000D03*
X66500000Y-124489000D03*
D16*
X70800000Y-126914000D03*
X65200000Y-126914000D03*
%TD*%
D23*
%TO.C,R5*%
X122100000Y-113800000D03*
D24*
X122100000Y-114600000D03*
X122100000Y-115400000D03*
D23*
X122100000Y-116200000D03*
X123900000Y-116200000D03*
D24*
X123900000Y-115400000D03*
X123900000Y-114600000D03*
D23*
X123900000Y-113800000D03*
%TD*%
D25*
%TO.C,D1*%
X92577000Y-91600000D03*
X92577000Y-88400000D03*
X87423000Y-88400000D03*
X87423000Y-91600000D03*
%TD*%
D15*
%TO.C,J9*%
X127500000Y-74489000D03*
X126500000Y-74489000D03*
X125500000Y-74489000D03*
X124500000Y-74489000D03*
D16*
X128800000Y-76914000D03*
X123200000Y-76914000D03*
%TD*%
D23*
%TO.C,R1*%
X59773333Y-115800000D03*
D24*
X59773333Y-116600000D03*
X59773333Y-117400000D03*
D23*
X59773333Y-118200000D03*
X61573333Y-118200000D03*
D24*
X61573333Y-117400000D03*
X61573333Y-116600000D03*
D23*
X61573333Y-115800000D03*
%TD*%
D26*
%TO.C,R8*%
X95000000Y-90470000D03*
X95000000Y-89000000D03*
%TD*%
D20*
%TO.C,C2*%
X74000000Y-121100000D03*
X74000000Y-123000000D03*
%TD*%
%TO.C,C3*%
X78000000Y-121050000D03*
X78000000Y-122950000D03*
%TD*%
D27*
%TO.C,R4*%
X91055000Y-115000000D03*
X84945000Y-115000000D03*
%TD*%
D28*
%TO.C,C5*%
X114085000Y-114225000D03*
X114085000Y-115775000D03*
%TD*%
D17*
%TO.C,R3*%
X118182500Y-115825000D03*
X118182500Y-114175000D03*
%TD*%
D15*
%TO.C,J6*%
X55500000Y-74489000D03*
X54500000Y-74489000D03*
X53500000Y-74489000D03*
X52500000Y-74489000D03*
D16*
X56800000Y-76914000D03*
X51200000Y-76914000D03*
%TD*%
D29*
%TO.C,C7*%
X92495000Y-83000000D03*
X87505000Y-83000000D03*
%TD*%
D14*
%TO.C,C1*%
X74000000Y-127775000D03*
X74000000Y-126225000D03*
%TD*%
D15*
%TO.C,J8*%
X97500000Y-107489000D03*
X96500000Y-107489000D03*
X95500000Y-107489000D03*
X94500000Y-107489000D03*
D16*
X98800000Y-109914000D03*
X93200000Y-109914000D03*
%TD*%
M02*
