%TF.GenerationSoftware,KiCad,Pcbnew,9.0.5*%
%TF.CreationDate,2026-01-09T12:04:02-06:00*%
%TF.ProjectId,dreamV1_0,64726561-6d56-4315-9f30-2e6b69636164,1*%
%TF.SameCoordinates,Original*%
%TF.FileFunction,Plated,1,2,PTH,Drill*%
%TF.FilePolarity,Positive*%
%FSLAX46Y46*%
G04 Gerber Fmt 4.6, Leading zero omitted, Abs format (unit mm)*
G04 Created by KiCad (PCBNEW 9.0.5) date 2026-01-09 12:04:02*
%MOMM*%
%LPD*%
G01*
G04 APERTURE LIST*
%TA.AperFunction,ViaDrill*%
%ADD10C,0.300000*%
%TD*%
%TA.AperFunction,ViaDrill*%
%ADD11C,0.600000*%
%TD*%
%TA.AperFunction,ComponentDrill*%
%ADD12C,0.700000*%
%TD*%
%TA.AperFunction,ComponentDrill*%
%ADD13C,0.800000*%
%TD*%
%TA.AperFunction,ComponentDrill*%
%ADD14C,1.000000*%
%TD*%
G04 APERTURE END LIST*
D10*
X84048800Y-99288800D03*
X89281200Y-100000000D03*
X90754400Y-100000000D03*
X92886976Y-99995002D03*
X96037600Y-103505200D03*
D11*
X57460000Y-89962000D03*
X58090000Y-115875000D03*
X58344000Y-78664000D03*
X62662000Y-118046000D03*
X63170000Y-120320000D03*
X63586008Y-116250000D03*
X64541600Y-115189200D03*
X65710000Y-119050000D03*
X66726000Y-120320000D03*
X68504000Y-86792000D03*
X70980000Y-84188000D03*
X71552000Y-115875000D03*
X72568000Y-109398000D03*
X77851200Y-94285000D03*
X78425000Y-124892000D03*
X79172000Y-94285000D03*
X79934000Y-124892000D03*
X81712000Y-83744000D03*
X82524800Y-81254800D03*
X84709200Y-79680000D03*
X94500000Y-112686400D03*
X95428000Y-111799000D03*
X96190000Y-65202000D03*
X96444000Y-117780000D03*
X97460000Y-91364000D03*
X97612400Y-98780800D03*
X97612400Y-105283200D03*
X97663200Y-102946400D03*
X98018800Y-117780000D03*
X98730000Y-93154000D03*
X99111000Y-113300000D03*
X99977669Y-93881669D03*
X100508000Y-114986000D03*
X101524000Y-110922000D03*
X105994400Y-114000000D03*
X106096000Y-121590000D03*
X107518400Y-120066000D03*
X108842499Y-116173110D03*
X108890000Y-96190000D03*
X108890000Y-97460000D03*
X109000000Y-119050000D03*
X111368027Y-114850000D03*
X112204000Y-117030000D03*
X112446000Y-114071600D03*
X116560800Y-121590000D03*
X117526000Y-120320000D03*
X119304000Y-117030000D03*
X120980400Y-115341600D03*
X122100000Y-119050000D03*
X122113981Y-112688000D03*
X123726669Y-117030000D03*
X125146000Y-113850000D03*
X126466800Y-79832400D03*
X127432000Y-78664000D03*
D12*
%TO.C,J11*%
X87600000Y-97850000D03*
X87600000Y-102150000D03*
X92400000Y-97850000D03*
X92400000Y-102150000D03*
D13*
%TO.C,IC1*%
X88200000Y-121400000D03*
X88200000Y-125000000D03*
X91800000Y-121400000D03*
X91800000Y-125000000D03*
%TO.C,S1*%
X104920000Y-59920000D03*
X104920000Y-65000000D03*
X110000000Y-59920000D03*
X110000000Y-65000000D03*
D14*
%TO.C,J5*%
X54920000Y-83480000D03*
X54920000Y-86020000D03*
X57460000Y-83480000D03*
X57460000Y-86020000D03*
X60000000Y-83480000D03*
X60000000Y-86020000D03*
X62540000Y-83480000D03*
X62540000Y-86020000D03*
X65080000Y-83480000D03*
X65080000Y-86020000D03*
%TO.C,J1*%
X65900000Y-74460000D03*
X65900000Y-77000000D03*
X68440000Y-74460000D03*
X68440000Y-77000000D03*
X70980000Y-74460000D03*
X70980000Y-77000000D03*
X73520000Y-74460000D03*
X73520000Y-77000000D03*
X76060000Y-74460000D03*
X76060000Y-77000000D03*
X78600000Y-74460000D03*
X78600000Y-77000000D03*
X81140000Y-74460000D03*
X81140000Y-77000000D03*
X83680000Y-74460000D03*
X83680000Y-77000000D03*
X86220000Y-74460000D03*
X86220000Y-77000000D03*
X88760000Y-74460000D03*
X88760000Y-77000000D03*
X91300000Y-74460000D03*
X91300000Y-77000000D03*
X93840000Y-74460000D03*
X93840000Y-77000000D03*
X96380000Y-74460000D03*
X96380000Y-77000000D03*
X98920000Y-74460000D03*
X98920000Y-77000000D03*
X101460000Y-74460000D03*
X101460000Y-77000000D03*
X104000000Y-74460000D03*
X104000000Y-77000000D03*
X106540000Y-74460000D03*
X106540000Y-77000000D03*
X109080000Y-74460000D03*
X109080000Y-77000000D03*
X111620000Y-74460000D03*
X111620000Y-77000000D03*
X114160000Y-74460000D03*
X114160000Y-77000000D03*
M02*
