%TF.GenerationSoftware,KiCad,Pcbnew,9.0.5*%
%TF.CreationDate,2026-01-09T12:03:12-06:00*%
%TF.ProjectId,dreamV1_0,64726561-6d56-4315-9f30-2e6b69636164,1*%
%TF.SameCoordinates,Original*%
%TF.FileFunction,Soldermask,Bot*%
%TF.FilePolarity,Negative*%
%FSLAX46Y46*%
G04 Gerber Fmt 4.6, Leading zero omitted, Abs format (unit mm)*
G04 Created by KiCad (PCBNEW 9.0.5) date 2026-01-09 12:03:12*
%MOMM*%
%LPD*%
G01*
G04 APERTURE LIST*
G04 Aperture macros list*
%AMRoundRect*
0 Rectangle with rounded corners*
0 $1 Rounding radius*
0 $2 $3 $4 $5 $6 $7 $8 $9 X,Y pos of 4 corners*
0 Add a 4 corners polygon primitive as box body*
4,1,4,$2,$3,$4,$5,$6,$7,$8,$9,$2,$3,0*
0 Add four circle primitives for the rounded corners*
1,1,$1+$1,$2,$3*
1,1,$1+$1,$4,$5*
1,1,$1+$1,$6,$7*
1,1,$1+$1,$8,$9*
0 Add four rect primitives between the rounded corners*
20,1,$1+$1,$2,$3,$4,$5,0*
20,1,$1+$1,$4,$5,$6,$7,0*
20,1,$1+$1,$6,$7,$8,$9,0*
20,1,$1+$1,$8,$9,$2,$3,0*%
G04 Aperture macros list end*
%ADD10RoundRect,0.102000X-0.754000X-0.754000X0.754000X-0.754000X0.754000X0.754000X-0.754000X0.754000X0*%
%ADD11C,1.712000*%
%ADD12C,1.300000*%
%ADD13R,1.700000X1.700000*%
%ADD14O,1.700000X1.700000*%
%ADD15R,0.762000X0.558800*%
%ADD16C,0.660000*%
%ADD17C,0.580000*%
%ADD18RoundRect,0.102000X0.410000X0.275000X-0.410000X0.275000X-0.410000X-0.275000X0.410000X-0.275000X0*%
%ADD19C,1.304000*%
%ADD20RoundRect,0.102000X0.557560X-0.129814X-0.242900X0.518386X-0.557560X0.129814X0.242900X-0.518386X0*%
%ADD21RoundRect,0.102000X0.242900X0.518386X-0.557560X-0.129814X-0.242900X-0.518386X0.557560X0.129814X0*%
%ADD22RoundRect,0.102000X0.150000X0.425000X-0.150000X0.425000X-0.150000X-0.425000X0.150000X-0.425000X0*%
G04 APERTURE END LIST*
D10*
%TO.C,J5*%
X65080000Y-86020000D03*
D11*
X65080000Y-83480000D03*
X62540000Y-86020000D03*
X62540000Y-83480000D03*
X60000000Y-86020000D03*
X60000000Y-83480000D03*
X57460000Y-86020000D03*
X57460000Y-83480000D03*
X54920000Y-86020000D03*
X54920000Y-83480000D03*
%TD*%
D12*
%TO.C,S1*%
X110000000Y-65000000D03*
X110000000Y-59920000D03*
X104920000Y-65000000D03*
X104920000Y-59920000D03*
%TD*%
%TO.C,IC1*%
X91800000Y-125000000D03*
X91800000Y-121400000D03*
X88200000Y-121400000D03*
X88200000Y-125000000D03*
%TD*%
D13*
%TO.C,J1*%
X65900000Y-77000000D03*
D14*
X65900000Y-74460000D03*
X68440000Y-77000000D03*
X68440000Y-74460000D03*
X70980000Y-77000000D03*
X70980000Y-74460000D03*
X73520000Y-77000000D03*
X73520000Y-74460000D03*
X76060000Y-77000000D03*
X76060000Y-74460000D03*
X78600000Y-77000000D03*
X78600000Y-74460000D03*
X81140000Y-77000000D03*
X81140000Y-74460000D03*
X83680000Y-77000000D03*
X83680000Y-74460000D03*
X86220000Y-77000000D03*
X86220000Y-74460000D03*
X88760000Y-77000000D03*
X88760000Y-74460000D03*
X91300000Y-77000000D03*
X91300000Y-74460000D03*
X93840000Y-77000000D03*
X93840000Y-74460000D03*
X96380000Y-77000000D03*
X96380000Y-74460000D03*
X98920000Y-77000000D03*
X98920000Y-74460000D03*
X101460000Y-77000000D03*
X101460000Y-74460000D03*
X104000000Y-77000000D03*
X104000000Y-74460000D03*
X106540000Y-77000000D03*
X106540000Y-74460000D03*
X109080000Y-77000000D03*
X109080000Y-74460000D03*
X111620000Y-77000000D03*
X111620000Y-74460000D03*
X114160000Y-77000000D03*
X114160000Y-74460000D03*
%TD*%
D15*
%TO.C,R7*%
X96000000Y-100326900D03*
X96000000Y-101673100D03*
%TD*%
%TO.C,R6*%
X84000000Y-101673100D03*
X84000000Y-100326900D03*
%TD*%
D16*
%TO.C,J11*%
X93750000Y-100000000D03*
D17*
X86250000Y-100000000D03*
D18*
X91200000Y-97850000D03*
X90000000Y-97850000D03*
X88800000Y-97850000D03*
X91200000Y-102150000D03*
X90000000Y-102150000D03*
X88800000Y-102150000D03*
D19*
X92400000Y-97850000D03*
X87600000Y-97850000D03*
X92400000Y-102150000D03*
X87600000Y-102150000D03*
D20*
X93770000Y-99000000D03*
D21*
X86230000Y-99000000D03*
X93770000Y-101000000D03*
D20*
X86230000Y-101000000D03*
D22*
X92750000Y-99170000D03*
X92250000Y-99170000D03*
X91750000Y-99170000D03*
X91250000Y-99170000D03*
X90750000Y-99170000D03*
X90250000Y-99170000D03*
X89750000Y-99170000D03*
X89250000Y-99170000D03*
X88750000Y-99170000D03*
X88250000Y-99170000D03*
X87750000Y-99170000D03*
X87250000Y-99170000D03*
X87250000Y-100830000D03*
X87750000Y-100830000D03*
X88250000Y-100830000D03*
X88750000Y-100830000D03*
X89250000Y-100830000D03*
X89750000Y-100830000D03*
X90250000Y-100830000D03*
X90750000Y-100830000D03*
X91250000Y-100830000D03*
X91750000Y-100830000D03*
X92250000Y-100830000D03*
X92750000Y-100830000D03*
%TD*%
M02*
