G04 EAGLE Gerber RS-274X export*
G75*
%MOMM*%
%FSLAX34Y34*%
%LPD*%
%INSilkscreen Top*%
%IPPOS*%
%AMOC8*
5,1,8,0,0,1.08239X$1,22.5*%
G01*
%ADD10C,0.508000*%
%ADD11C,0.076200*%
%ADD12C,0.200000*%
%ADD13C,0.127000*%
%ADD14C,0.101600*%
%ADD15C,0.203200*%


D10*
X111900Y303350D02*
X111902Y303228D01*
X111908Y303106D01*
X111918Y302984D01*
X111931Y302863D01*
X111949Y302742D01*
X111970Y302622D01*
X111996Y302502D01*
X112025Y302384D01*
X112057Y302266D01*
X112094Y302149D01*
X112134Y302034D01*
X112178Y301920D01*
X112226Y301808D01*
X112277Y301697D01*
X112332Y301588D01*
X112390Y301480D01*
X112452Y301375D01*
X112517Y301272D01*
X112585Y301170D01*
X112657Y301071D01*
X112731Y300975D01*
X112809Y300880D01*
X112890Y300789D01*
X112973Y300699D01*
X113059Y300613D01*
X113149Y300530D01*
X113240Y300449D01*
X113335Y300371D01*
X113431Y300297D01*
X113530Y300225D01*
X113632Y300157D01*
X113735Y300092D01*
X113840Y300030D01*
X113948Y299972D01*
X114057Y299917D01*
X114168Y299866D01*
X114280Y299818D01*
X114394Y299774D01*
X114509Y299734D01*
X114626Y299697D01*
X114744Y299665D01*
X114862Y299636D01*
X114982Y299610D01*
X115102Y299589D01*
X115223Y299571D01*
X115344Y299558D01*
X115466Y299548D01*
X115588Y299542D01*
X115710Y299540D01*
X115832Y299542D01*
X115954Y299548D01*
X116076Y299558D01*
X116197Y299571D01*
X116318Y299589D01*
X116438Y299610D01*
X116558Y299636D01*
X116676Y299665D01*
X116794Y299697D01*
X116911Y299734D01*
X117026Y299774D01*
X117140Y299818D01*
X117252Y299866D01*
X117363Y299917D01*
X117472Y299972D01*
X117580Y300030D01*
X117685Y300092D01*
X117788Y300157D01*
X117890Y300225D01*
X117989Y300297D01*
X118085Y300371D01*
X118180Y300449D01*
X118271Y300530D01*
X118361Y300613D01*
X118447Y300699D01*
X118530Y300789D01*
X118611Y300880D01*
X118689Y300975D01*
X118763Y301071D01*
X118835Y301170D01*
X118903Y301272D01*
X118968Y301375D01*
X119030Y301480D01*
X119088Y301588D01*
X119143Y301697D01*
X119194Y301808D01*
X119242Y301920D01*
X119286Y302034D01*
X119326Y302149D01*
X119363Y302266D01*
X119395Y302384D01*
X119424Y302502D01*
X119450Y302622D01*
X119471Y302742D01*
X119489Y302863D01*
X119502Y302984D01*
X119512Y303106D01*
X119518Y303228D01*
X119520Y303350D01*
X119518Y303472D01*
X119512Y303594D01*
X119502Y303716D01*
X119489Y303837D01*
X119471Y303958D01*
X119450Y304078D01*
X119424Y304198D01*
X119395Y304316D01*
X119363Y304434D01*
X119326Y304551D01*
X119286Y304666D01*
X119242Y304780D01*
X119194Y304892D01*
X119143Y305003D01*
X119088Y305112D01*
X119030Y305220D01*
X118968Y305325D01*
X118903Y305428D01*
X118835Y305530D01*
X118763Y305629D01*
X118689Y305725D01*
X118611Y305820D01*
X118530Y305911D01*
X118447Y306001D01*
X118361Y306087D01*
X118271Y306170D01*
X118180Y306251D01*
X118085Y306329D01*
X117989Y306403D01*
X117890Y306475D01*
X117788Y306543D01*
X117685Y306608D01*
X117580Y306670D01*
X117472Y306728D01*
X117363Y306783D01*
X117252Y306834D01*
X117140Y306882D01*
X117026Y306926D01*
X116911Y306966D01*
X116794Y307003D01*
X116676Y307035D01*
X116558Y307064D01*
X116438Y307090D01*
X116318Y307111D01*
X116197Y307129D01*
X116076Y307142D01*
X115954Y307152D01*
X115832Y307158D01*
X115710Y307160D01*
X115588Y307158D01*
X115466Y307152D01*
X115344Y307142D01*
X115223Y307129D01*
X115102Y307111D01*
X114982Y307090D01*
X114862Y307064D01*
X114744Y307035D01*
X114626Y307003D01*
X114509Y306966D01*
X114394Y306926D01*
X114280Y306882D01*
X114168Y306834D01*
X114057Y306783D01*
X113948Y306728D01*
X113840Y306670D01*
X113735Y306608D01*
X113632Y306543D01*
X113530Y306475D01*
X113431Y306403D01*
X113335Y306329D01*
X113240Y306251D01*
X113149Y306170D01*
X113059Y306087D01*
X112973Y306001D01*
X112890Y305911D01*
X112809Y305820D01*
X112731Y305725D01*
X112657Y305629D01*
X112585Y305530D01*
X112517Y305428D01*
X112452Y305325D01*
X112390Y305220D01*
X112332Y305112D01*
X112277Y305003D01*
X112226Y304892D01*
X112178Y304780D01*
X112134Y304666D01*
X112094Y304551D01*
X112057Y304434D01*
X112025Y304316D01*
X111996Y304198D01*
X111970Y304078D01*
X111949Y303958D01*
X111931Y303837D01*
X111918Y303716D01*
X111908Y303594D01*
X111902Y303472D01*
X111900Y303350D01*
D11*
X191594Y330034D02*
X191594Y339319D01*
X191594Y330034D02*
X191592Y329932D01*
X191586Y329831D01*
X191576Y329730D01*
X191563Y329629D01*
X191545Y329529D01*
X191524Y329430D01*
X191499Y329331D01*
X191470Y329234D01*
X191438Y329137D01*
X191402Y329042D01*
X191362Y328949D01*
X191319Y328857D01*
X191272Y328767D01*
X191221Y328678D01*
X191168Y328592D01*
X191111Y328508D01*
X191051Y328426D01*
X190988Y328346D01*
X190922Y328269D01*
X190853Y328194D01*
X190781Y328122D01*
X190706Y328053D01*
X190629Y327987D01*
X190549Y327924D01*
X190467Y327864D01*
X190383Y327807D01*
X190297Y327754D01*
X190208Y327703D01*
X190118Y327656D01*
X190026Y327613D01*
X189933Y327573D01*
X189838Y327537D01*
X189741Y327505D01*
X189644Y327476D01*
X189545Y327451D01*
X189446Y327430D01*
X189346Y327412D01*
X189245Y327399D01*
X189144Y327389D01*
X189043Y327383D01*
X188941Y327381D01*
X187615Y327381D01*
X196732Y336666D02*
X200049Y339319D01*
X200049Y327381D01*
X203365Y327381D02*
X196732Y327381D01*
D10*
X152720Y275400D02*
X152718Y275278D01*
X152712Y275156D01*
X152702Y275034D01*
X152689Y274913D01*
X152671Y274792D01*
X152650Y274672D01*
X152624Y274552D01*
X152595Y274434D01*
X152563Y274316D01*
X152526Y274199D01*
X152486Y274084D01*
X152442Y273970D01*
X152394Y273858D01*
X152343Y273747D01*
X152288Y273638D01*
X152230Y273530D01*
X152168Y273425D01*
X152103Y273322D01*
X152035Y273220D01*
X151963Y273121D01*
X151889Y273025D01*
X151811Y272930D01*
X151730Y272839D01*
X151647Y272749D01*
X151561Y272663D01*
X151471Y272580D01*
X151380Y272499D01*
X151285Y272421D01*
X151189Y272347D01*
X151090Y272275D01*
X150988Y272207D01*
X150885Y272142D01*
X150780Y272080D01*
X150672Y272022D01*
X150563Y271967D01*
X150452Y271916D01*
X150340Y271868D01*
X150226Y271824D01*
X150111Y271784D01*
X149994Y271747D01*
X149876Y271715D01*
X149758Y271686D01*
X149638Y271660D01*
X149518Y271639D01*
X149397Y271621D01*
X149276Y271608D01*
X149154Y271598D01*
X149032Y271592D01*
X148910Y271590D01*
X148788Y271592D01*
X148666Y271598D01*
X148544Y271608D01*
X148423Y271621D01*
X148302Y271639D01*
X148182Y271660D01*
X148062Y271686D01*
X147944Y271715D01*
X147826Y271747D01*
X147709Y271784D01*
X147594Y271824D01*
X147480Y271868D01*
X147368Y271916D01*
X147257Y271967D01*
X147148Y272022D01*
X147040Y272080D01*
X146935Y272142D01*
X146832Y272207D01*
X146730Y272275D01*
X146631Y272347D01*
X146535Y272421D01*
X146440Y272499D01*
X146349Y272580D01*
X146259Y272663D01*
X146173Y272749D01*
X146090Y272839D01*
X146009Y272930D01*
X145931Y273025D01*
X145857Y273121D01*
X145785Y273220D01*
X145717Y273322D01*
X145652Y273425D01*
X145590Y273530D01*
X145532Y273638D01*
X145477Y273747D01*
X145426Y273858D01*
X145378Y273970D01*
X145334Y274084D01*
X145294Y274199D01*
X145257Y274316D01*
X145225Y274434D01*
X145196Y274552D01*
X145170Y274672D01*
X145149Y274792D01*
X145131Y274913D01*
X145118Y275034D01*
X145108Y275156D01*
X145102Y275278D01*
X145100Y275400D01*
X145102Y275522D01*
X145108Y275644D01*
X145118Y275766D01*
X145131Y275887D01*
X145149Y276008D01*
X145170Y276128D01*
X145196Y276248D01*
X145225Y276366D01*
X145257Y276484D01*
X145294Y276601D01*
X145334Y276716D01*
X145378Y276830D01*
X145426Y276942D01*
X145477Y277053D01*
X145532Y277162D01*
X145590Y277270D01*
X145652Y277375D01*
X145717Y277478D01*
X145785Y277580D01*
X145857Y277679D01*
X145931Y277775D01*
X146009Y277870D01*
X146090Y277961D01*
X146173Y278051D01*
X146259Y278137D01*
X146349Y278220D01*
X146440Y278301D01*
X146535Y278379D01*
X146631Y278453D01*
X146730Y278525D01*
X146832Y278593D01*
X146935Y278658D01*
X147040Y278720D01*
X147148Y278778D01*
X147257Y278833D01*
X147368Y278884D01*
X147480Y278932D01*
X147594Y278976D01*
X147709Y279016D01*
X147826Y279053D01*
X147944Y279085D01*
X148062Y279114D01*
X148182Y279140D01*
X148302Y279161D01*
X148423Y279179D01*
X148544Y279192D01*
X148666Y279202D01*
X148788Y279208D01*
X148910Y279210D01*
X149032Y279208D01*
X149154Y279202D01*
X149276Y279192D01*
X149397Y279179D01*
X149518Y279161D01*
X149638Y279140D01*
X149758Y279114D01*
X149876Y279085D01*
X149994Y279053D01*
X150111Y279016D01*
X150226Y278976D01*
X150340Y278932D01*
X150452Y278884D01*
X150563Y278833D01*
X150672Y278778D01*
X150780Y278720D01*
X150885Y278658D01*
X150988Y278593D01*
X151090Y278525D01*
X151189Y278453D01*
X151285Y278379D01*
X151380Y278301D01*
X151471Y278220D01*
X151561Y278137D01*
X151647Y278051D01*
X151730Y277961D01*
X151811Y277870D01*
X151889Y277775D01*
X151963Y277679D01*
X152035Y277580D01*
X152103Y277478D01*
X152168Y277375D01*
X152230Y277270D01*
X152288Y277162D01*
X152343Y277053D01*
X152394Y276942D01*
X152442Y276830D01*
X152486Y276716D01*
X152526Y276601D01*
X152563Y276484D01*
X152595Y276366D01*
X152624Y276248D01*
X152650Y276128D01*
X152671Y276008D01*
X152689Y275887D01*
X152702Y275766D01*
X152712Y275644D01*
X152718Y275522D01*
X152720Y275400D01*
D11*
X214794Y282084D02*
X214794Y291369D01*
X214794Y282084D02*
X214792Y281982D01*
X214786Y281881D01*
X214776Y281780D01*
X214763Y281679D01*
X214745Y281579D01*
X214724Y281480D01*
X214699Y281381D01*
X214670Y281284D01*
X214638Y281187D01*
X214602Y281092D01*
X214562Y280999D01*
X214519Y280907D01*
X214472Y280817D01*
X214421Y280728D01*
X214368Y280642D01*
X214311Y280558D01*
X214251Y280476D01*
X214188Y280396D01*
X214122Y280319D01*
X214053Y280244D01*
X213981Y280172D01*
X213906Y280103D01*
X213829Y280037D01*
X213749Y279974D01*
X213667Y279914D01*
X213583Y279857D01*
X213497Y279804D01*
X213408Y279753D01*
X213318Y279706D01*
X213226Y279663D01*
X213133Y279623D01*
X213038Y279587D01*
X212941Y279555D01*
X212844Y279526D01*
X212745Y279501D01*
X212646Y279480D01*
X212546Y279462D01*
X212445Y279449D01*
X212344Y279439D01*
X212243Y279433D01*
X212141Y279431D01*
X210815Y279431D01*
X223580Y291370D02*
X223687Y291368D01*
X223793Y291362D01*
X223899Y291353D01*
X224005Y291340D01*
X224110Y291323D01*
X224215Y291302D01*
X224318Y291277D01*
X224421Y291249D01*
X224523Y291217D01*
X224623Y291182D01*
X224722Y291143D01*
X224820Y291100D01*
X224916Y291054D01*
X225011Y291005D01*
X225103Y290952D01*
X225194Y290896D01*
X225282Y290837D01*
X225369Y290775D01*
X225453Y290709D01*
X225535Y290641D01*
X225614Y290570D01*
X225691Y290496D01*
X225765Y290419D01*
X225836Y290340D01*
X225904Y290258D01*
X225970Y290174D01*
X226032Y290087D01*
X226091Y289999D01*
X226147Y289908D01*
X226200Y289816D01*
X226249Y289721D01*
X226295Y289625D01*
X226338Y289527D01*
X226377Y289428D01*
X226412Y289328D01*
X226444Y289226D01*
X226472Y289123D01*
X226497Y289020D01*
X226518Y288915D01*
X226535Y288810D01*
X226548Y288704D01*
X226557Y288598D01*
X226563Y288492D01*
X226565Y288385D01*
X223580Y291369D02*
X223459Y291367D01*
X223339Y291361D01*
X223219Y291352D01*
X223099Y291339D01*
X222980Y291322D01*
X222861Y291301D01*
X222743Y291277D01*
X222626Y291248D01*
X222510Y291217D01*
X222394Y291181D01*
X222280Y291142D01*
X222168Y291099D01*
X222056Y291053D01*
X221946Y291004D01*
X221838Y290950D01*
X221732Y290894D01*
X221627Y290834D01*
X221524Y290771D01*
X221424Y290705D01*
X221325Y290636D01*
X221229Y290563D01*
X221135Y290488D01*
X221043Y290410D01*
X220954Y290328D01*
X220867Y290244D01*
X220784Y290158D01*
X220702Y290069D01*
X220624Y289977D01*
X220549Y289883D01*
X220477Y289786D01*
X220407Y289688D01*
X220341Y289587D01*
X220278Y289484D01*
X220219Y289379D01*
X220162Y289273D01*
X220109Y289164D01*
X220060Y289055D01*
X220014Y288943D01*
X219971Y288830D01*
X219933Y288716D01*
X225570Y286063D02*
X225650Y286143D01*
X225728Y286225D01*
X225802Y286309D01*
X225874Y286397D01*
X225942Y286487D01*
X226008Y286579D01*
X226070Y286673D01*
X226128Y286769D01*
X226183Y286868D01*
X226235Y286968D01*
X226283Y287070D01*
X226328Y287174D01*
X226368Y287279D01*
X226405Y287386D01*
X226439Y287494D01*
X226468Y287603D01*
X226494Y287713D01*
X226515Y287824D01*
X226533Y287935D01*
X226547Y288047D01*
X226557Y288159D01*
X226563Y288272D01*
X226565Y288385D01*
X225570Y286063D02*
X219932Y279431D01*
X226565Y279431D01*
D10*
X153320Y224600D02*
X153318Y224478D01*
X153312Y224356D01*
X153302Y224234D01*
X153289Y224113D01*
X153271Y223992D01*
X153250Y223872D01*
X153224Y223752D01*
X153195Y223634D01*
X153163Y223516D01*
X153126Y223399D01*
X153086Y223284D01*
X153042Y223170D01*
X152994Y223058D01*
X152943Y222947D01*
X152888Y222838D01*
X152830Y222730D01*
X152768Y222625D01*
X152703Y222522D01*
X152635Y222420D01*
X152563Y222321D01*
X152489Y222225D01*
X152411Y222130D01*
X152330Y222039D01*
X152247Y221949D01*
X152161Y221863D01*
X152071Y221780D01*
X151980Y221699D01*
X151885Y221621D01*
X151789Y221547D01*
X151690Y221475D01*
X151588Y221407D01*
X151485Y221342D01*
X151380Y221280D01*
X151272Y221222D01*
X151163Y221167D01*
X151052Y221116D01*
X150940Y221068D01*
X150826Y221024D01*
X150711Y220984D01*
X150594Y220947D01*
X150476Y220915D01*
X150358Y220886D01*
X150238Y220860D01*
X150118Y220839D01*
X149997Y220821D01*
X149876Y220808D01*
X149754Y220798D01*
X149632Y220792D01*
X149510Y220790D01*
X149388Y220792D01*
X149266Y220798D01*
X149144Y220808D01*
X149023Y220821D01*
X148902Y220839D01*
X148782Y220860D01*
X148662Y220886D01*
X148544Y220915D01*
X148426Y220947D01*
X148309Y220984D01*
X148194Y221024D01*
X148080Y221068D01*
X147968Y221116D01*
X147857Y221167D01*
X147748Y221222D01*
X147640Y221280D01*
X147535Y221342D01*
X147432Y221407D01*
X147330Y221475D01*
X147231Y221547D01*
X147135Y221621D01*
X147040Y221699D01*
X146949Y221780D01*
X146859Y221863D01*
X146773Y221949D01*
X146690Y222039D01*
X146609Y222130D01*
X146531Y222225D01*
X146457Y222321D01*
X146385Y222420D01*
X146317Y222522D01*
X146252Y222625D01*
X146190Y222730D01*
X146132Y222838D01*
X146077Y222947D01*
X146026Y223058D01*
X145978Y223170D01*
X145934Y223284D01*
X145894Y223399D01*
X145857Y223516D01*
X145825Y223634D01*
X145796Y223752D01*
X145770Y223872D01*
X145749Y223992D01*
X145731Y224113D01*
X145718Y224234D01*
X145708Y224356D01*
X145702Y224478D01*
X145700Y224600D01*
X145702Y224722D01*
X145708Y224844D01*
X145718Y224966D01*
X145731Y225087D01*
X145749Y225208D01*
X145770Y225328D01*
X145796Y225448D01*
X145825Y225566D01*
X145857Y225684D01*
X145894Y225801D01*
X145934Y225916D01*
X145978Y226030D01*
X146026Y226142D01*
X146077Y226253D01*
X146132Y226362D01*
X146190Y226470D01*
X146252Y226575D01*
X146317Y226678D01*
X146385Y226780D01*
X146457Y226879D01*
X146531Y226975D01*
X146609Y227070D01*
X146690Y227161D01*
X146773Y227251D01*
X146859Y227337D01*
X146949Y227420D01*
X147040Y227501D01*
X147135Y227579D01*
X147231Y227653D01*
X147330Y227725D01*
X147432Y227793D01*
X147535Y227858D01*
X147640Y227920D01*
X147748Y227978D01*
X147857Y228033D01*
X147968Y228084D01*
X148080Y228132D01*
X148194Y228176D01*
X148309Y228216D01*
X148426Y228253D01*
X148544Y228285D01*
X148662Y228314D01*
X148782Y228340D01*
X148902Y228361D01*
X149023Y228379D01*
X149144Y228392D01*
X149266Y228402D01*
X149388Y228408D01*
X149510Y228410D01*
X149632Y228408D01*
X149754Y228402D01*
X149876Y228392D01*
X149997Y228379D01*
X150118Y228361D01*
X150238Y228340D01*
X150358Y228314D01*
X150476Y228285D01*
X150594Y228253D01*
X150711Y228216D01*
X150826Y228176D01*
X150940Y228132D01*
X151052Y228084D01*
X151163Y228033D01*
X151272Y227978D01*
X151380Y227920D01*
X151485Y227858D01*
X151588Y227793D01*
X151690Y227725D01*
X151789Y227653D01*
X151885Y227579D01*
X151980Y227501D01*
X152071Y227420D01*
X152161Y227337D01*
X152247Y227251D01*
X152330Y227161D01*
X152411Y227070D01*
X152489Y226975D01*
X152563Y226879D01*
X152635Y226780D01*
X152703Y226678D01*
X152768Y226575D01*
X152830Y226470D01*
X152888Y226362D01*
X152943Y226253D01*
X152994Y226142D01*
X153042Y226030D01*
X153086Y225916D01*
X153126Y225801D01*
X153163Y225684D01*
X153195Y225566D01*
X153224Y225448D01*
X153250Y225328D01*
X153271Y225208D01*
X153289Y225087D01*
X153302Y224966D01*
X153312Y224844D01*
X153318Y224722D01*
X153320Y224600D01*
D11*
X215394Y220569D02*
X215394Y211284D01*
X215392Y211182D01*
X215386Y211081D01*
X215376Y210980D01*
X215363Y210879D01*
X215345Y210779D01*
X215324Y210680D01*
X215299Y210581D01*
X215270Y210484D01*
X215238Y210387D01*
X215202Y210292D01*
X215162Y210199D01*
X215119Y210107D01*
X215072Y210017D01*
X215021Y209928D01*
X214968Y209842D01*
X214911Y209758D01*
X214851Y209676D01*
X214788Y209596D01*
X214722Y209519D01*
X214653Y209444D01*
X214581Y209372D01*
X214506Y209303D01*
X214429Y209237D01*
X214349Y209174D01*
X214267Y209114D01*
X214183Y209057D01*
X214097Y209004D01*
X214008Y208953D01*
X213918Y208906D01*
X213826Y208863D01*
X213733Y208823D01*
X213638Y208787D01*
X213541Y208755D01*
X213444Y208726D01*
X213345Y208701D01*
X213246Y208680D01*
X213146Y208662D01*
X213045Y208649D01*
X212944Y208639D01*
X212843Y208633D01*
X212741Y208631D01*
X211415Y208631D01*
X220532Y208631D02*
X223849Y208631D01*
X223963Y208633D01*
X224078Y208639D01*
X224192Y208649D01*
X224305Y208663D01*
X224419Y208680D01*
X224531Y208702D01*
X224643Y208727D01*
X224753Y208757D01*
X224863Y208790D01*
X224971Y208827D01*
X225078Y208867D01*
X225184Y208912D01*
X225288Y208959D01*
X225390Y209011D01*
X225490Y209066D01*
X225589Y209124D01*
X225685Y209186D01*
X225780Y209251D01*
X225871Y209319D01*
X225961Y209391D01*
X226048Y209465D01*
X226132Y209542D01*
X226214Y209623D01*
X226293Y209706D01*
X226369Y209791D01*
X226442Y209880D01*
X226511Y209970D01*
X226578Y210063D01*
X226641Y210159D01*
X226701Y210256D01*
X226758Y210356D01*
X226811Y210457D01*
X226861Y210560D01*
X226907Y210665D01*
X226950Y210771D01*
X226988Y210879D01*
X227023Y210988D01*
X227054Y211098D01*
X227082Y211209D01*
X227105Y211321D01*
X227125Y211434D01*
X227141Y211547D01*
X227153Y211661D01*
X227161Y211775D01*
X227165Y211890D01*
X227165Y212004D01*
X227161Y212119D01*
X227153Y212233D01*
X227141Y212347D01*
X227125Y212460D01*
X227105Y212573D01*
X227082Y212685D01*
X227054Y212796D01*
X227023Y212906D01*
X226988Y213015D01*
X226950Y213123D01*
X226907Y213229D01*
X226861Y213334D01*
X226811Y213437D01*
X226758Y213538D01*
X226701Y213638D01*
X226641Y213735D01*
X226578Y213831D01*
X226511Y213924D01*
X226442Y214014D01*
X226369Y214103D01*
X226293Y214188D01*
X226214Y214271D01*
X226132Y214352D01*
X226048Y214429D01*
X225961Y214503D01*
X225871Y214575D01*
X225780Y214643D01*
X225685Y214708D01*
X225589Y214770D01*
X225490Y214828D01*
X225390Y214883D01*
X225288Y214935D01*
X225184Y214982D01*
X225078Y215027D01*
X224971Y215067D01*
X224863Y215104D01*
X224753Y215137D01*
X224643Y215167D01*
X224531Y215192D01*
X224419Y215214D01*
X224305Y215231D01*
X224192Y215245D01*
X224078Y215255D01*
X223963Y215261D01*
X223849Y215263D01*
X224512Y220569D02*
X220532Y220569D01*
X224512Y220569D02*
X224614Y220567D01*
X224715Y220561D01*
X224816Y220551D01*
X224917Y220538D01*
X225017Y220520D01*
X225116Y220499D01*
X225215Y220474D01*
X225312Y220445D01*
X225409Y220413D01*
X225504Y220377D01*
X225597Y220337D01*
X225689Y220294D01*
X225779Y220247D01*
X225868Y220196D01*
X225954Y220143D01*
X226038Y220086D01*
X226120Y220026D01*
X226200Y219963D01*
X226277Y219897D01*
X226352Y219828D01*
X226424Y219756D01*
X226493Y219681D01*
X226559Y219604D01*
X226622Y219524D01*
X226682Y219442D01*
X226739Y219358D01*
X226792Y219272D01*
X226843Y219183D01*
X226890Y219093D01*
X226933Y219001D01*
X226973Y218908D01*
X227009Y218813D01*
X227041Y218716D01*
X227070Y218619D01*
X227095Y218520D01*
X227116Y218421D01*
X227134Y218321D01*
X227147Y218220D01*
X227157Y218119D01*
X227163Y218018D01*
X227165Y217916D01*
X227163Y217814D01*
X227157Y217713D01*
X227147Y217612D01*
X227134Y217511D01*
X227116Y217411D01*
X227095Y217312D01*
X227070Y217213D01*
X227041Y217116D01*
X227009Y217019D01*
X226973Y216924D01*
X226933Y216831D01*
X226890Y216739D01*
X226843Y216649D01*
X226792Y216560D01*
X226739Y216474D01*
X226682Y216390D01*
X226622Y216308D01*
X226559Y216228D01*
X226493Y216151D01*
X226424Y216076D01*
X226352Y216004D01*
X226277Y215935D01*
X226200Y215869D01*
X226120Y215806D01*
X226038Y215746D01*
X225954Y215689D01*
X225868Y215636D01*
X225779Y215585D01*
X225689Y215538D01*
X225597Y215495D01*
X225504Y215455D01*
X225409Y215419D01*
X225312Y215387D01*
X225215Y215358D01*
X225116Y215333D01*
X225017Y215312D01*
X224917Y215294D01*
X224816Y215281D01*
X224715Y215271D01*
X224614Y215265D01*
X224512Y215263D01*
X221859Y215263D01*
D10*
X77120Y250000D02*
X77118Y249878D01*
X77112Y249756D01*
X77102Y249634D01*
X77089Y249513D01*
X77071Y249392D01*
X77050Y249272D01*
X77024Y249152D01*
X76995Y249034D01*
X76963Y248916D01*
X76926Y248799D01*
X76886Y248684D01*
X76842Y248570D01*
X76794Y248458D01*
X76743Y248347D01*
X76688Y248238D01*
X76630Y248130D01*
X76568Y248025D01*
X76503Y247922D01*
X76435Y247820D01*
X76363Y247721D01*
X76289Y247625D01*
X76211Y247530D01*
X76130Y247439D01*
X76047Y247349D01*
X75961Y247263D01*
X75871Y247180D01*
X75780Y247099D01*
X75685Y247021D01*
X75589Y246947D01*
X75490Y246875D01*
X75388Y246807D01*
X75285Y246742D01*
X75180Y246680D01*
X75072Y246622D01*
X74963Y246567D01*
X74852Y246516D01*
X74740Y246468D01*
X74626Y246424D01*
X74511Y246384D01*
X74394Y246347D01*
X74276Y246315D01*
X74158Y246286D01*
X74038Y246260D01*
X73918Y246239D01*
X73797Y246221D01*
X73676Y246208D01*
X73554Y246198D01*
X73432Y246192D01*
X73310Y246190D01*
X73188Y246192D01*
X73066Y246198D01*
X72944Y246208D01*
X72823Y246221D01*
X72702Y246239D01*
X72582Y246260D01*
X72462Y246286D01*
X72344Y246315D01*
X72226Y246347D01*
X72109Y246384D01*
X71994Y246424D01*
X71880Y246468D01*
X71768Y246516D01*
X71657Y246567D01*
X71548Y246622D01*
X71440Y246680D01*
X71335Y246742D01*
X71232Y246807D01*
X71130Y246875D01*
X71031Y246947D01*
X70935Y247021D01*
X70840Y247099D01*
X70749Y247180D01*
X70659Y247263D01*
X70573Y247349D01*
X70490Y247439D01*
X70409Y247530D01*
X70331Y247625D01*
X70257Y247721D01*
X70185Y247820D01*
X70117Y247922D01*
X70052Y248025D01*
X69990Y248130D01*
X69932Y248238D01*
X69877Y248347D01*
X69826Y248458D01*
X69778Y248570D01*
X69734Y248684D01*
X69694Y248799D01*
X69657Y248916D01*
X69625Y249034D01*
X69596Y249152D01*
X69570Y249272D01*
X69549Y249392D01*
X69531Y249513D01*
X69518Y249634D01*
X69508Y249756D01*
X69502Y249878D01*
X69500Y250000D01*
X69502Y250122D01*
X69508Y250244D01*
X69518Y250366D01*
X69531Y250487D01*
X69549Y250608D01*
X69570Y250728D01*
X69596Y250848D01*
X69625Y250966D01*
X69657Y251084D01*
X69694Y251201D01*
X69734Y251316D01*
X69778Y251430D01*
X69826Y251542D01*
X69877Y251653D01*
X69932Y251762D01*
X69990Y251870D01*
X70052Y251975D01*
X70117Y252078D01*
X70185Y252180D01*
X70257Y252279D01*
X70331Y252375D01*
X70409Y252470D01*
X70490Y252561D01*
X70573Y252651D01*
X70659Y252737D01*
X70749Y252820D01*
X70840Y252901D01*
X70935Y252979D01*
X71031Y253053D01*
X71130Y253125D01*
X71232Y253193D01*
X71335Y253258D01*
X71440Y253320D01*
X71548Y253378D01*
X71657Y253433D01*
X71768Y253484D01*
X71880Y253532D01*
X71994Y253576D01*
X72109Y253616D01*
X72226Y253653D01*
X72344Y253685D01*
X72462Y253714D01*
X72582Y253740D01*
X72702Y253761D01*
X72823Y253779D01*
X72944Y253792D01*
X73066Y253802D01*
X73188Y253808D01*
X73310Y253810D01*
X73432Y253808D01*
X73554Y253802D01*
X73676Y253792D01*
X73797Y253779D01*
X73918Y253761D01*
X74038Y253740D01*
X74158Y253714D01*
X74276Y253685D01*
X74394Y253653D01*
X74511Y253616D01*
X74626Y253576D01*
X74740Y253532D01*
X74852Y253484D01*
X74963Y253433D01*
X75072Y253378D01*
X75180Y253320D01*
X75285Y253258D01*
X75388Y253193D01*
X75490Y253125D01*
X75589Y253053D01*
X75685Y252979D01*
X75780Y252901D01*
X75871Y252820D01*
X75961Y252737D01*
X76047Y252651D01*
X76130Y252561D01*
X76211Y252470D01*
X76289Y252375D01*
X76363Y252279D01*
X76435Y252180D01*
X76503Y252078D01*
X76568Y251975D01*
X76630Y251870D01*
X76688Y251762D01*
X76743Y251653D01*
X76794Y251542D01*
X76842Y251430D01*
X76886Y251316D01*
X76926Y251201D01*
X76963Y251084D01*
X76995Y250966D01*
X77024Y250848D01*
X77050Y250728D01*
X77071Y250608D01*
X77089Y250487D01*
X77102Y250366D01*
X77112Y250244D01*
X77118Y250122D01*
X77120Y250000D01*
D11*
X129194Y266684D02*
X129194Y275969D01*
X129194Y266684D02*
X129192Y266582D01*
X129186Y266481D01*
X129176Y266380D01*
X129163Y266279D01*
X129145Y266179D01*
X129124Y266080D01*
X129099Y265981D01*
X129070Y265884D01*
X129038Y265787D01*
X129002Y265692D01*
X128962Y265599D01*
X128919Y265507D01*
X128872Y265417D01*
X128821Y265328D01*
X128768Y265242D01*
X128711Y265158D01*
X128651Y265076D01*
X128588Y264996D01*
X128522Y264919D01*
X128453Y264844D01*
X128381Y264772D01*
X128306Y264703D01*
X128229Y264637D01*
X128149Y264574D01*
X128067Y264514D01*
X127983Y264457D01*
X127897Y264404D01*
X127808Y264353D01*
X127718Y264306D01*
X127626Y264263D01*
X127533Y264223D01*
X127438Y264187D01*
X127341Y264155D01*
X127244Y264126D01*
X127145Y264101D01*
X127046Y264080D01*
X126946Y264062D01*
X126845Y264049D01*
X126744Y264039D01*
X126643Y264033D01*
X126541Y264031D01*
X125215Y264031D01*
X134332Y266684D02*
X136985Y275969D01*
X134332Y266684D02*
X140965Y266684D01*
X138975Y269337D02*
X138975Y264031D01*
D10*
X119520Y196650D02*
X119518Y196528D01*
X119512Y196406D01*
X119502Y196284D01*
X119489Y196163D01*
X119471Y196042D01*
X119450Y195922D01*
X119424Y195802D01*
X119395Y195684D01*
X119363Y195566D01*
X119326Y195449D01*
X119286Y195334D01*
X119242Y195220D01*
X119194Y195108D01*
X119143Y194997D01*
X119088Y194888D01*
X119030Y194780D01*
X118968Y194675D01*
X118903Y194572D01*
X118835Y194470D01*
X118763Y194371D01*
X118689Y194275D01*
X118611Y194180D01*
X118530Y194089D01*
X118447Y193999D01*
X118361Y193913D01*
X118271Y193830D01*
X118180Y193749D01*
X118085Y193671D01*
X117989Y193597D01*
X117890Y193525D01*
X117788Y193457D01*
X117685Y193392D01*
X117580Y193330D01*
X117472Y193272D01*
X117363Y193217D01*
X117252Y193166D01*
X117140Y193118D01*
X117026Y193074D01*
X116911Y193034D01*
X116794Y192997D01*
X116676Y192965D01*
X116558Y192936D01*
X116438Y192910D01*
X116318Y192889D01*
X116197Y192871D01*
X116076Y192858D01*
X115954Y192848D01*
X115832Y192842D01*
X115710Y192840D01*
X115588Y192842D01*
X115466Y192848D01*
X115344Y192858D01*
X115223Y192871D01*
X115102Y192889D01*
X114982Y192910D01*
X114862Y192936D01*
X114744Y192965D01*
X114626Y192997D01*
X114509Y193034D01*
X114394Y193074D01*
X114280Y193118D01*
X114168Y193166D01*
X114057Y193217D01*
X113948Y193272D01*
X113840Y193330D01*
X113735Y193392D01*
X113632Y193457D01*
X113530Y193525D01*
X113431Y193597D01*
X113335Y193671D01*
X113240Y193749D01*
X113149Y193830D01*
X113059Y193913D01*
X112973Y193999D01*
X112890Y194089D01*
X112809Y194180D01*
X112731Y194275D01*
X112657Y194371D01*
X112585Y194470D01*
X112517Y194572D01*
X112452Y194675D01*
X112390Y194780D01*
X112332Y194888D01*
X112277Y194997D01*
X112226Y195108D01*
X112178Y195220D01*
X112134Y195334D01*
X112094Y195449D01*
X112057Y195566D01*
X112025Y195684D01*
X111996Y195802D01*
X111970Y195922D01*
X111949Y196042D01*
X111931Y196163D01*
X111918Y196284D01*
X111908Y196406D01*
X111902Y196528D01*
X111900Y196650D01*
X111902Y196772D01*
X111908Y196894D01*
X111918Y197016D01*
X111931Y197137D01*
X111949Y197258D01*
X111970Y197378D01*
X111996Y197498D01*
X112025Y197616D01*
X112057Y197734D01*
X112094Y197851D01*
X112134Y197966D01*
X112178Y198080D01*
X112226Y198192D01*
X112277Y198303D01*
X112332Y198412D01*
X112390Y198520D01*
X112452Y198625D01*
X112517Y198728D01*
X112585Y198830D01*
X112657Y198929D01*
X112731Y199025D01*
X112809Y199120D01*
X112890Y199211D01*
X112973Y199301D01*
X113059Y199387D01*
X113149Y199470D01*
X113240Y199551D01*
X113335Y199629D01*
X113431Y199703D01*
X113530Y199775D01*
X113632Y199843D01*
X113735Y199908D01*
X113840Y199970D01*
X113948Y200028D01*
X114057Y200083D01*
X114168Y200134D01*
X114280Y200182D01*
X114394Y200226D01*
X114509Y200266D01*
X114626Y200303D01*
X114744Y200335D01*
X114862Y200364D01*
X114982Y200390D01*
X115102Y200411D01*
X115223Y200429D01*
X115344Y200442D01*
X115466Y200452D01*
X115588Y200458D01*
X115710Y200460D01*
X115832Y200458D01*
X115954Y200452D01*
X116076Y200442D01*
X116197Y200429D01*
X116318Y200411D01*
X116438Y200390D01*
X116558Y200364D01*
X116676Y200335D01*
X116794Y200303D01*
X116911Y200266D01*
X117026Y200226D01*
X117140Y200182D01*
X117252Y200134D01*
X117363Y200083D01*
X117472Y200028D01*
X117580Y199970D01*
X117685Y199908D01*
X117788Y199843D01*
X117890Y199775D01*
X117989Y199703D01*
X118085Y199629D01*
X118180Y199551D01*
X118271Y199470D01*
X118361Y199387D01*
X118447Y199301D01*
X118530Y199211D01*
X118611Y199120D01*
X118689Y199025D01*
X118763Y198929D01*
X118835Y198830D01*
X118903Y198728D01*
X118968Y198625D01*
X119030Y198520D01*
X119088Y198412D01*
X119143Y198303D01*
X119194Y198192D01*
X119242Y198080D01*
X119286Y197966D01*
X119326Y197851D01*
X119363Y197734D01*
X119395Y197616D01*
X119424Y197498D01*
X119450Y197378D01*
X119471Y197258D01*
X119489Y197137D01*
X119502Y197016D01*
X119512Y196894D01*
X119518Y196772D01*
X119520Y196650D01*
D11*
X101594Y223334D02*
X101594Y232619D01*
X101594Y223334D02*
X101592Y223232D01*
X101586Y223131D01*
X101576Y223030D01*
X101563Y222929D01*
X101545Y222829D01*
X101524Y222730D01*
X101499Y222631D01*
X101470Y222534D01*
X101438Y222437D01*
X101402Y222342D01*
X101362Y222249D01*
X101319Y222157D01*
X101272Y222067D01*
X101221Y221978D01*
X101168Y221892D01*
X101111Y221808D01*
X101051Y221726D01*
X100988Y221646D01*
X100922Y221569D01*
X100853Y221494D01*
X100781Y221422D01*
X100706Y221353D01*
X100629Y221287D01*
X100549Y221224D01*
X100467Y221164D01*
X100383Y221107D01*
X100297Y221054D01*
X100208Y221003D01*
X100118Y220956D01*
X100026Y220913D01*
X99933Y220873D01*
X99838Y220837D01*
X99741Y220805D01*
X99644Y220776D01*
X99545Y220751D01*
X99446Y220730D01*
X99346Y220712D01*
X99245Y220699D01*
X99144Y220689D01*
X99043Y220683D01*
X98941Y220681D01*
X97615Y220681D01*
X106732Y220681D02*
X110712Y220681D01*
X110814Y220683D01*
X110915Y220689D01*
X111016Y220699D01*
X111117Y220712D01*
X111217Y220730D01*
X111316Y220751D01*
X111415Y220776D01*
X111512Y220805D01*
X111609Y220837D01*
X111704Y220873D01*
X111797Y220913D01*
X111889Y220956D01*
X111979Y221003D01*
X112068Y221054D01*
X112154Y221107D01*
X112238Y221164D01*
X112320Y221224D01*
X112400Y221287D01*
X112477Y221353D01*
X112552Y221422D01*
X112624Y221494D01*
X112693Y221569D01*
X112759Y221646D01*
X112822Y221726D01*
X112882Y221808D01*
X112939Y221892D01*
X112992Y221978D01*
X113043Y222067D01*
X113090Y222157D01*
X113133Y222249D01*
X113173Y222342D01*
X113209Y222437D01*
X113241Y222534D01*
X113270Y222631D01*
X113295Y222729D01*
X113316Y222829D01*
X113334Y222929D01*
X113347Y223030D01*
X113357Y223131D01*
X113363Y223232D01*
X113365Y223334D01*
X113365Y224660D01*
X113363Y224762D01*
X113357Y224863D01*
X113347Y224964D01*
X113334Y225065D01*
X113316Y225165D01*
X113295Y225264D01*
X113270Y225363D01*
X113241Y225460D01*
X113209Y225557D01*
X113173Y225652D01*
X113133Y225745D01*
X113090Y225837D01*
X113043Y225927D01*
X112992Y226016D01*
X112939Y226102D01*
X112882Y226186D01*
X112822Y226268D01*
X112759Y226348D01*
X112693Y226425D01*
X112624Y226500D01*
X112552Y226572D01*
X112477Y226641D01*
X112400Y226707D01*
X112320Y226770D01*
X112238Y226830D01*
X112154Y226887D01*
X112068Y226940D01*
X111979Y226991D01*
X111889Y227038D01*
X111797Y227081D01*
X111704Y227121D01*
X111609Y227157D01*
X111512Y227189D01*
X111415Y227218D01*
X111316Y227243D01*
X111217Y227264D01*
X111117Y227282D01*
X111016Y227295D01*
X110915Y227305D01*
X110814Y227311D01*
X110712Y227313D01*
X106732Y227313D01*
X106732Y232619D01*
X113365Y232619D01*
D12*
X182700Y82700D02*
X182702Y82763D01*
X182708Y82825D01*
X182718Y82887D01*
X182731Y82949D01*
X182749Y83009D01*
X182770Y83068D01*
X182795Y83126D01*
X182824Y83182D01*
X182856Y83236D01*
X182891Y83288D01*
X182929Y83337D01*
X182971Y83385D01*
X183015Y83429D01*
X183063Y83471D01*
X183112Y83509D01*
X183164Y83544D01*
X183218Y83576D01*
X183274Y83605D01*
X183332Y83630D01*
X183391Y83651D01*
X183451Y83669D01*
X183513Y83682D01*
X183575Y83692D01*
X183637Y83698D01*
X183700Y83700D01*
X183763Y83698D01*
X183825Y83692D01*
X183887Y83682D01*
X183949Y83669D01*
X184009Y83651D01*
X184068Y83630D01*
X184126Y83605D01*
X184182Y83576D01*
X184236Y83544D01*
X184288Y83509D01*
X184337Y83471D01*
X184385Y83429D01*
X184429Y83385D01*
X184471Y83337D01*
X184509Y83288D01*
X184544Y83236D01*
X184576Y83182D01*
X184605Y83126D01*
X184630Y83068D01*
X184651Y83009D01*
X184669Y82949D01*
X184682Y82887D01*
X184692Y82825D01*
X184698Y82763D01*
X184700Y82700D01*
X184698Y82637D01*
X184692Y82575D01*
X184682Y82513D01*
X184669Y82451D01*
X184651Y82391D01*
X184630Y82332D01*
X184605Y82274D01*
X184576Y82218D01*
X184544Y82164D01*
X184509Y82112D01*
X184471Y82063D01*
X184429Y82015D01*
X184385Y81971D01*
X184337Y81929D01*
X184288Y81891D01*
X184236Y81856D01*
X184182Y81824D01*
X184126Y81795D01*
X184068Y81770D01*
X184009Y81749D01*
X183949Y81731D01*
X183887Y81718D01*
X183825Y81708D01*
X183763Y81702D01*
X183700Y81700D01*
X183637Y81702D01*
X183575Y81708D01*
X183513Y81718D01*
X183451Y81731D01*
X183391Y81749D01*
X183332Y81770D01*
X183274Y81795D01*
X183218Y81824D01*
X183164Y81856D01*
X183112Y81891D01*
X183063Y81929D01*
X183015Y81971D01*
X182971Y82015D01*
X182929Y82063D01*
X182891Y82112D01*
X182856Y82164D01*
X182824Y82218D01*
X182795Y82274D01*
X182770Y82332D01*
X182749Y82391D01*
X182731Y82451D01*
X182718Y82513D01*
X182708Y82575D01*
X182702Y82637D01*
X182700Y82700D01*
D13*
X178100Y44600D02*
X101900Y44600D01*
X101900Y95400D01*
X178100Y95400D01*
X178100Y44600D01*
D14*
X165428Y39492D02*
X165428Y30404D01*
X165427Y30404D02*
X165425Y30305D01*
X165419Y30205D01*
X165410Y30106D01*
X165397Y30008D01*
X165380Y29910D01*
X165359Y29812D01*
X165334Y29716D01*
X165306Y29621D01*
X165274Y29527D01*
X165239Y29434D01*
X165200Y29342D01*
X165157Y29252D01*
X165112Y29164D01*
X165062Y29077D01*
X165010Y28993D01*
X164954Y28910D01*
X164896Y28830D01*
X164834Y28752D01*
X164769Y28677D01*
X164701Y28604D01*
X164631Y28534D01*
X164558Y28466D01*
X164483Y28401D01*
X164405Y28339D01*
X164325Y28281D01*
X164242Y28225D01*
X164158Y28173D01*
X164071Y28123D01*
X163983Y28078D01*
X163893Y28035D01*
X163801Y27996D01*
X163708Y27961D01*
X163614Y27929D01*
X163519Y27901D01*
X163423Y27876D01*
X163325Y27855D01*
X163227Y27838D01*
X163129Y27825D01*
X163030Y27816D01*
X162930Y27810D01*
X162831Y27808D01*
X161533Y27808D01*
X170701Y34299D02*
X174596Y34299D01*
X174695Y34297D01*
X174795Y34291D01*
X174894Y34282D01*
X174992Y34269D01*
X175090Y34252D01*
X175188Y34231D01*
X175284Y34206D01*
X175379Y34178D01*
X175473Y34146D01*
X175566Y34111D01*
X175658Y34072D01*
X175748Y34029D01*
X175836Y33984D01*
X175923Y33934D01*
X176007Y33882D01*
X176090Y33826D01*
X176170Y33768D01*
X176248Y33706D01*
X176323Y33641D01*
X176396Y33573D01*
X176466Y33503D01*
X176534Y33430D01*
X176599Y33355D01*
X176661Y33277D01*
X176719Y33197D01*
X176775Y33114D01*
X176827Y33030D01*
X176877Y32943D01*
X176922Y32855D01*
X176965Y32765D01*
X177004Y32673D01*
X177039Y32580D01*
X177071Y32486D01*
X177099Y32391D01*
X177124Y32295D01*
X177145Y32197D01*
X177162Y32099D01*
X177175Y32001D01*
X177184Y31902D01*
X177190Y31802D01*
X177192Y31703D01*
X177192Y31054D01*
X177190Y30941D01*
X177184Y30828D01*
X177174Y30715D01*
X177160Y30602D01*
X177143Y30490D01*
X177121Y30379D01*
X177096Y30269D01*
X177066Y30159D01*
X177033Y30051D01*
X176996Y29944D01*
X176956Y29838D01*
X176911Y29734D01*
X176863Y29631D01*
X176812Y29530D01*
X176757Y29431D01*
X176699Y29334D01*
X176637Y29239D01*
X176572Y29146D01*
X176504Y29056D01*
X176433Y28968D01*
X176358Y28882D01*
X176281Y28799D01*
X176201Y28719D01*
X176118Y28642D01*
X176032Y28567D01*
X175944Y28496D01*
X175854Y28428D01*
X175761Y28363D01*
X175666Y28301D01*
X175569Y28243D01*
X175470Y28188D01*
X175369Y28137D01*
X175266Y28089D01*
X175162Y28044D01*
X175056Y28004D01*
X174949Y27967D01*
X174841Y27934D01*
X174731Y27904D01*
X174621Y27879D01*
X174510Y27857D01*
X174398Y27840D01*
X174285Y27826D01*
X174172Y27816D01*
X174059Y27810D01*
X173946Y27808D01*
X173833Y27810D01*
X173720Y27816D01*
X173607Y27826D01*
X173494Y27840D01*
X173382Y27857D01*
X173271Y27879D01*
X173161Y27904D01*
X173051Y27934D01*
X172943Y27967D01*
X172836Y28004D01*
X172730Y28044D01*
X172626Y28089D01*
X172523Y28137D01*
X172422Y28188D01*
X172323Y28243D01*
X172226Y28301D01*
X172131Y28363D01*
X172038Y28428D01*
X171948Y28496D01*
X171860Y28567D01*
X171774Y28642D01*
X171691Y28719D01*
X171611Y28799D01*
X171534Y28882D01*
X171459Y28968D01*
X171388Y29056D01*
X171320Y29146D01*
X171255Y29239D01*
X171193Y29334D01*
X171135Y29431D01*
X171080Y29530D01*
X171029Y29631D01*
X170981Y29734D01*
X170936Y29838D01*
X170896Y29944D01*
X170859Y30051D01*
X170826Y30159D01*
X170796Y30269D01*
X170771Y30379D01*
X170749Y30490D01*
X170732Y30602D01*
X170718Y30715D01*
X170708Y30828D01*
X170702Y30941D01*
X170700Y31054D01*
X170701Y31054D02*
X170701Y34299D01*
X170703Y34442D01*
X170709Y34585D01*
X170719Y34728D01*
X170733Y34870D01*
X170750Y35012D01*
X170772Y35154D01*
X170797Y35295D01*
X170827Y35435D01*
X170860Y35574D01*
X170897Y35712D01*
X170938Y35849D01*
X170982Y35985D01*
X171031Y36120D01*
X171083Y36253D01*
X171138Y36385D01*
X171198Y36515D01*
X171261Y36644D01*
X171327Y36771D01*
X171397Y36895D01*
X171470Y37018D01*
X171547Y37139D01*
X171627Y37258D01*
X171710Y37374D01*
X171796Y37489D01*
X171885Y37600D01*
X171978Y37710D01*
X172073Y37816D01*
X172172Y37920D01*
X172273Y38021D01*
X172377Y38120D01*
X172483Y38215D01*
X172593Y38308D01*
X172704Y38397D01*
X172819Y38483D01*
X172935Y38566D01*
X173054Y38646D01*
X173175Y38723D01*
X173297Y38796D01*
X173422Y38866D01*
X173549Y38932D01*
X173678Y38995D01*
X173808Y39055D01*
X173940Y39110D01*
X174073Y39162D01*
X174208Y39211D01*
X174344Y39255D01*
X174481Y39296D01*
X174619Y39333D01*
X174758Y39366D01*
X174898Y39396D01*
X175039Y39421D01*
X175181Y39443D01*
X175323Y39460D01*
X175465Y39474D01*
X175608Y39484D01*
X175751Y39490D01*
X175894Y39492D01*
D15*
X22500Y10000D02*
X22505Y10429D01*
X22521Y10859D01*
X22547Y11287D01*
X22584Y11715D01*
X22632Y12142D01*
X22689Y12568D01*
X22758Y12992D01*
X22836Y13414D01*
X22925Y13834D01*
X23024Y14252D01*
X23134Y14667D01*
X23254Y15080D01*
X23383Y15489D01*
X23523Y15896D01*
X23673Y16298D01*
X23832Y16697D01*
X24001Y17092D01*
X24180Y17482D01*
X24369Y17868D01*
X24566Y18249D01*
X24773Y18626D01*
X24990Y18997D01*
X25215Y19362D01*
X25449Y19722D01*
X25692Y20077D01*
X25944Y20425D01*
X26204Y20767D01*
X26472Y21102D01*
X26749Y21431D01*
X27033Y21752D01*
X27326Y22067D01*
X27626Y22374D01*
X27933Y22674D01*
X28248Y22967D01*
X28569Y23251D01*
X28898Y23528D01*
X29233Y23796D01*
X29575Y24056D01*
X29923Y24308D01*
X30278Y24551D01*
X30638Y24785D01*
X31003Y25010D01*
X31374Y25227D01*
X31751Y25434D01*
X32132Y25631D01*
X32518Y25820D01*
X32908Y25999D01*
X33303Y26168D01*
X33702Y26327D01*
X34104Y26477D01*
X34511Y26617D01*
X34920Y26746D01*
X35333Y26866D01*
X35748Y26976D01*
X36166Y27075D01*
X36586Y27164D01*
X37008Y27242D01*
X37432Y27311D01*
X37858Y27368D01*
X38285Y27416D01*
X38713Y27453D01*
X39141Y27479D01*
X39571Y27495D01*
X40000Y27500D01*
X40429Y27495D01*
X40859Y27479D01*
X41287Y27453D01*
X41715Y27416D01*
X42142Y27368D01*
X42568Y27311D01*
X42992Y27242D01*
X43414Y27164D01*
X43834Y27075D01*
X44252Y26976D01*
X44667Y26866D01*
X45080Y26746D01*
X45489Y26617D01*
X45896Y26477D01*
X46298Y26327D01*
X46697Y26168D01*
X47092Y25999D01*
X47482Y25820D01*
X47868Y25631D01*
X48249Y25434D01*
X48626Y25227D01*
X48997Y25010D01*
X49362Y24785D01*
X49722Y24551D01*
X50077Y24308D01*
X50425Y24056D01*
X50767Y23796D01*
X51102Y23528D01*
X51431Y23251D01*
X51752Y22967D01*
X52067Y22674D01*
X52374Y22374D01*
X52674Y22067D01*
X52967Y21752D01*
X53251Y21431D01*
X53528Y21102D01*
X53796Y20767D01*
X54056Y20425D01*
X54308Y20077D01*
X54551Y19722D01*
X54785Y19362D01*
X55010Y18997D01*
X55227Y18626D01*
X55434Y18249D01*
X55631Y17868D01*
X55820Y17482D01*
X55999Y17092D01*
X56168Y16697D01*
X56327Y16298D01*
X56477Y15896D01*
X56617Y15489D01*
X56746Y15080D01*
X56866Y14667D01*
X56976Y14252D01*
X57075Y13834D01*
X57164Y13414D01*
X57242Y12992D01*
X57311Y12568D01*
X57368Y12142D01*
X57416Y11715D01*
X57453Y11287D01*
X57479Y10859D01*
X57495Y10429D01*
X57500Y10000D01*
X57495Y9571D01*
X57479Y9141D01*
X57453Y8713D01*
X57416Y8285D01*
X57368Y7858D01*
X57311Y7432D01*
X57242Y7008D01*
X57164Y6586D01*
X57075Y6166D01*
X56976Y5748D01*
X56866Y5333D01*
X56746Y4920D01*
X56617Y4511D01*
X56477Y4104D01*
X56327Y3702D01*
X56168Y3303D01*
X55999Y2908D01*
X55820Y2518D01*
X55631Y2132D01*
X55434Y1751D01*
X55227Y1374D01*
X55010Y1003D01*
X54785Y638D01*
X54551Y278D01*
X54308Y-77D01*
X54056Y-425D01*
X53796Y-767D01*
X53528Y-1102D01*
X53251Y-1431D01*
X52967Y-1752D01*
X52674Y-2067D01*
X52374Y-2374D01*
X52067Y-2674D01*
X51752Y-2967D01*
X51431Y-3251D01*
X51102Y-3528D01*
X50767Y-3796D01*
X50425Y-4056D01*
X50077Y-4308D01*
X49722Y-4551D01*
X49362Y-4785D01*
X48997Y-5010D01*
X48626Y-5227D01*
X48249Y-5434D01*
X47868Y-5631D01*
X47482Y-5820D01*
X47092Y-5999D01*
X46697Y-6168D01*
X46298Y-6327D01*
X45896Y-6477D01*
X45489Y-6617D01*
X45080Y-6746D01*
X44667Y-6866D01*
X44252Y-6976D01*
X43834Y-7075D01*
X43414Y-7164D01*
X42992Y-7242D01*
X42568Y-7311D01*
X42142Y-7368D01*
X41715Y-7416D01*
X41287Y-7453D01*
X40859Y-7479D01*
X40429Y-7495D01*
X40000Y-7500D01*
X39571Y-7495D01*
X39141Y-7479D01*
X38713Y-7453D01*
X38285Y-7416D01*
X37858Y-7368D01*
X37432Y-7311D01*
X37008Y-7242D01*
X36586Y-7164D01*
X36166Y-7075D01*
X35748Y-6976D01*
X35333Y-6866D01*
X34920Y-6746D01*
X34511Y-6617D01*
X34104Y-6477D01*
X33702Y-6327D01*
X33303Y-6168D01*
X32908Y-5999D01*
X32518Y-5820D01*
X32132Y-5631D01*
X31751Y-5434D01*
X31374Y-5227D01*
X31003Y-5010D01*
X30638Y-4785D01*
X30278Y-4551D01*
X29923Y-4308D01*
X29575Y-4056D01*
X29233Y-3796D01*
X28898Y-3528D01*
X28569Y-3251D01*
X28248Y-2967D01*
X27933Y-2674D01*
X27626Y-2374D01*
X27326Y-2067D01*
X27033Y-1752D01*
X26749Y-1431D01*
X26472Y-1102D01*
X26204Y-767D01*
X25944Y-425D01*
X25692Y-77D01*
X25449Y278D01*
X25215Y638D01*
X24990Y1003D01*
X24773Y1374D01*
X24566Y1751D01*
X24369Y2132D01*
X24180Y2518D01*
X24001Y2908D01*
X23832Y3303D01*
X23673Y3702D01*
X23523Y4104D01*
X23383Y4511D01*
X23254Y4920D01*
X23134Y5333D01*
X23024Y5748D01*
X22925Y6166D01*
X22836Y6586D01*
X22758Y7008D01*
X22689Y7432D01*
X22632Y7858D01*
X22584Y8285D01*
X22547Y8713D01*
X22521Y9141D01*
X22505Y9571D01*
X22500Y10000D01*
X202500Y10000D02*
X202505Y10429D01*
X202521Y10859D01*
X202547Y11287D01*
X202584Y11715D01*
X202632Y12142D01*
X202689Y12568D01*
X202758Y12992D01*
X202836Y13414D01*
X202925Y13834D01*
X203024Y14252D01*
X203134Y14667D01*
X203254Y15080D01*
X203383Y15489D01*
X203523Y15896D01*
X203673Y16298D01*
X203832Y16697D01*
X204001Y17092D01*
X204180Y17482D01*
X204369Y17868D01*
X204566Y18249D01*
X204773Y18626D01*
X204990Y18997D01*
X205215Y19362D01*
X205449Y19722D01*
X205692Y20077D01*
X205944Y20425D01*
X206204Y20767D01*
X206472Y21102D01*
X206749Y21431D01*
X207033Y21752D01*
X207326Y22067D01*
X207626Y22374D01*
X207933Y22674D01*
X208248Y22967D01*
X208569Y23251D01*
X208898Y23528D01*
X209233Y23796D01*
X209575Y24056D01*
X209923Y24308D01*
X210278Y24551D01*
X210638Y24785D01*
X211003Y25010D01*
X211374Y25227D01*
X211751Y25434D01*
X212132Y25631D01*
X212518Y25820D01*
X212908Y25999D01*
X213303Y26168D01*
X213702Y26327D01*
X214104Y26477D01*
X214511Y26617D01*
X214920Y26746D01*
X215333Y26866D01*
X215748Y26976D01*
X216166Y27075D01*
X216586Y27164D01*
X217008Y27242D01*
X217432Y27311D01*
X217858Y27368D01*
X218285Y27416D01*
X218713Y27453D01*
X219141Y27479D01*
X219571Y27495D01*
X220000Y27500D01*
X220429Y27495D01*
X220859Y27479D01*
X221287Y27453D01*
X221715Y27416D01*
X222142Y27368D01*
X222568Y27311D01*
X222992Y27242D01*
X223414Y27164D01*
X223834Y27075D01*
X224252Y26976D01*
X224667Y26866D01*
X225080Y26746D01*
X225489Y26617D01*
X225896Y26477D01*
X226298Y26327D01*
X226697Y26168D01*
X227092Y25999D01*
X227482Y25820D01*
X227868Y25631D01*
X228249Y25434D01*
X228626Y25227D01*
X228997Y25010D01*
X229362Y24785D01*
X229722Y24551D01*
X230077Y24308D01*
X230425Y24056D01*
X230767Y23796D01*
X231102Y23528D01*
X231431Y23251D01*
X231752Y22967D01*
X232067Y22674D01*
X232374Y22374D01*
X232674Y22067D01*
X232967Y21752D01*
X233251Y21431D01*
X233528Y21102D01*
X233796Y20767D01*
X234056Y20425D01*
X234308Y20077D01*
X234551Y19722D01*
X234785Y19362D01*
X235010Y18997D01*
X235227Y18626D01*
X235434Y18249D01*
X235631Y17868D01*
X235820Y17482D01*
X235999Y17092D01*
X236168Y16697D01*
X236327Y16298D01*
X236477Y15896D01*
X236617Y15489D01*
X236746Y15080D01*
X236866Y14667D01*
X236976Y14252D01*
X237075Y13834D01*
X237164Y13414D01*
X237242Y12992D01*
X237311Y12568D01*
X237368Y12142D01*
X237416Y11715D01*
X237453Y11287D01*
X237479Y10859D01*
X237495Y10429D01*
X237500Y10000D01*
X237495Y9571D01*
X237479Y9141D01*
X237453Y8713D01*
X237416Y8285D01*
X237368Y7858D01*
X237311Y7432D01*
X237242Y7008D01*
X237164Y6586D01*
X237075Y6166D01*
X236976Y5748D01*
X236866Y5333D01*
X236746Y4920D01*
X236617Y4511D01*
X236477Y4104D01*
X236327Y3702D01*
X236168Y3303D01*
X235999Y2908D01*
X235820Y2518D01*
X235631Y2132D01*
X235434Y1751D01*
X235227Y1374D01*
X235010Y1003D01*
X234785Y638D01*
X234551Y278D01*
X234308Y-77D01*
X234056Y-425D01*
X233796Y-767D01*
X233528Y-1102D01*
X233251Y-1431D01*
X232967Y-1752D01*
X232674Y-2067D01*
X232374Y-2374D01*
X232067Y-2674D01*
X231752Y-2967D01*
X231431Y-3251D01*
X231102Y-3528D01*
X230767Y-3796D01*
X230425Y-4056D01*
X230077Y-4308D01*
X229722Y-4551D01*
X229362Y-4785D01*
X228997Y-5010D01*
X228626Y-5227D01*
X228249Y-5434D01*
X227868Y-5631D01*
X227482Y-5820D01*
X227092Y-5999D01*
X226697Y-6168D01*
X226298Y-6327D01*
X225896Y-6477D01*
X225489Y-6617D01*
X225080Y-6746D01*
X224667Y-6866D01*
X224252Y-6976D01*
X223834Y-7075D01*
X223414Y-7164D01*
X222992Y-7242D01*
X222568Y-7311D01*
X222142Y-7368D01*
X221715Y-7416D01*
X221287Y-7453D01*
X220859Y-7479D01*
X220429Y-7495D01*
X220000Y-7500D01*
X219571Y-7495D01*
X219141Y-7479D01*
X218713Y-7453D01*
X218285Y-7416D01*
X217858Y-7368D01*
X217432Y-7311D01*
X217008Y-7242D01*
X216586Y-7164D01*
X216166Y-7075D01*
X215748Y-6976D01*
X215333Y-6866D01*
X214920Y-6746D01*
X214511Y-6617D01*
X214104Y-6477D01*
X213702Y-6327D01*
X213303Y-6168D01*
X212908Y-5999D01*
X212518Y-5820D01*
X212132Y-5631D01*
X211751Y-5434D01*
X211374Y-5227D01*
X211003Y-5010D01*
X210638Y-4785D01*
X210278Y-4551D01*
X209923Y-4308D01*
X209575Y-4056D01*
X209233Y-3796D01*
X208898Y-3528D01*
X208569Y-3251D01*
X208248Y-2967D01*
X207933Y-2674D01*
X207626Y-2374D01*
X207326Y-2067D01*
X207033Y-1752D01*
X206749Y-1431D01*
X206472Y-1102D01*
X206204Y-767D01*
X205944Y-425D01*
X205692Y-77D01*
X205449Y278D01*
X205215Y638D01*
X204990Y1003D01*
X204773Y1374D01*
X204566Y1751D01*
X204369Y2132D01*
X204180Y2518D01*
X204001Y2908D01*
X203832Y3303D01*
X203673Y3702D01*
X203523Y4104D01*
X203383Y4511D01*
X203254Y4920D01*
X203134Y5333D01*
X203024Y5748D01*
X202925Y6166D01*
X202836Y6586D01*
X202758Y7008D01*
X202689Y7432D01*
X202632Y7858D01*
X202584Y8285D01*
X202547Y8713D01*
X202521Y9141D01*
X202505Y9571D01*
X202500Y10000D01*
X22500Y340000D02*
X22505Y340429D01*
X22521Y340859D01*
X22547Y341287D01*
X22584Y341715D01*
X22632Y342142D01*
X22689Y342568D01*
X22758Y342992D01*
X22836Y343414D01*
X22925Y343834D01*
X23024Y344252D01*
X23134Y344667D01*
X23254Y345080D01*
X23383Y345489D01*
X23523Y345896D01*
X23673Y346298D01*
X23832Y346697D01*
X24001Y347092D01*
X24180Y347482D01*
X24369Y347868D01*
X24566Y348249D01*
X24773Y348626D01*
X24990Y348997D01*
X25215Y349362D01*
X25449Y349722D01*
X25692Y350077D01*
X25944Y350425D01*
X26204Y350767D01*
X26472Y351102D01*
X26749Y351431D01*
X27033Y351752D01*
X27326Y352067D01*
X27626Y352374D01*
X27933Y352674D01*
X28248Y352967D01*
X28569Y353251D01*
X28898Y353528D01*
X29233Y353796D01*
X29575Y354056D01*
X29923Y354308D01*
X30278Y354551D01*
X30638Y354785D01*
X31003Y355010D01*
X31374Y355227D01*
X31751Y355434D01*
X32132Y355631D01*
X32518Y355820D01*
X32908Y355999D01*
X33303Y356168D01*
X33702Y356327D01*
X34104Y356477D01*
X34511Y356617D01*
X34920Y356746D01*
X35333Y356866D01*
X35748Y356976D01*
X36166Y357075D01*
X36586Y357164D01*
X37008Y357242D01*
X37432Y357311D01*
X37858Y357368D01*
X38285Y357416D01*
X38713Y357453D01*
X39141Y357479D01*
X39571Y357495D01*
X40000Y357500D01*
X40429Y357495D01*
X40859Y357479D01*
X41287Y357453D01*
X41715Y357416D01*
X42142Y357368D01*
X42568Y357311D01*
X42992Y357242D01*
X43414Y357164D01*
X43834Y357075D01*
X44252Y356976D01*
X44667Y356866D01*
X45080Y356746D01*
X45489Y356617D01*
X45896Y356477D01*
X46298Y356327D01*
X46697Y356168D01*
X47092Y355999D01*
X47482Y355820D01*
X47868Y355631D01*
X48249Y355434D01*
X48626Y355227D01*
X48997Y355010D01*
X49362Y354785D01*
X49722Y354551D01*
X50077Y354308D01*
X50425Y354056D01*
X50767Y353796D01*
X51102Y353528D01*
X51431Y353251D01*
X51752Y352967D01*
X52067Y352674D01*
X52374Y352374D01*
X52674Y352067D01*
X52967Y351752D01*
X53251Y351431D01*
X53528Y351102D01*
X53796Y350767D01*
X54056Y350425D01*
X54308Y350077D01*
X54551Y349722D01*
X54785Y349362D01*
X55010Y348997D01*
X55227Y348626D01*
X55434Y348249D01*
X55631Y347868D01*
X55820Y347482D01*
X55999Y347092D01*
X56168Y346697D01*
X56327Y346298D01*
X56477Y345896D01*
X56617Y345489D01*
X56746Y345080D01*
X56866Y344667D01*
X56976Y344252D01*
X57075Y343834D01*
X57164Y343414D01*
X57242Y342992D01*
X57311Y342568D01*
X57368Y342142D01*
X57416Y341715D01*
X57453Y341287D01*
X57479Y340859D01*
X57495Y340429D01*
X57500Y340000D01*
X57495Y339571D01*
X57479Y339141D01*
X57453Y338713D01*
X57416Y338285D01*
X57368Y337858D01*
X57311Y337432D01*
X57242Y337008D01*
X57164Y336586D01*
X57075Y336166D01*
X56976Y335748D01*
X56866Y335333D01*
X56746Y334920D01*
X56617Y334511D01*
X56477Y334104D01*
X56327Y333702D01*
X56168Y333303D01*
X55999Y332908D01*
X55820Y332518D01*
X55631Y332132D01*
X55434Y331751D01*
X55227Y331374D01*
X55010Y331003D01*
X54785Y330638D01*
X54551Y330278D01*
X54308Y329923D01*
X54056Y329575D01*
X53796Y329233D01*
X53528Y328898D01*
X53251Y328569D01*
X52967Y328248D01*
X52674Y327933D01*
X52374Y327626D01*
X52067Y327326D01*
X51752Y327033D01*
X51431Y326749D01*
X51102Y326472D01*
X50767Y326204D01*
X50425Y325944D01*
X50077Y325692D01*
X49722Y325449D01*
X49362Y325215D01*
X48997Y324990D01*
X48626Y324773D01*
X48249Y324566D01*
X47868Y324369D01*
X47482Y324180D01*
X47092Y324001D01*
X46697Y323832D01*
X46298Y323673D01*
X45896Y323523D01*
X45489Y323383D01*
X45080Y323254D01*
X44667Y323134D01*
X44252Y323024D01*
X43834Y322925D01*
X43414Y322836D01*
X42992Y322758D01*
X42568Y322689D01*
X42142Y322632D01*
X41715Y322584D01*
X41287Y322547D01*
X40859Y322521D01*
X40429Y322505D01*
X40000Y322500D01*
X39571Y322505D01*
X39141Y322521D01*
X38713Y322547D01*
X38285Y322584D01*
X37858Y322632D01*
X37432Y322689D01*
X37008Y322758D01*
X36586Y322836D01*
X36166Y322925D01*
X35748Y323024D01*
X35333Y323134D01*
X34920Y323254D01*
X34511Y323383D01*
X34104Y323523D01*
X33702Y323673D01*
X33303Y323832D01*
X32908Y324001D01*
X32518Y324180D01*
X32132Y324369D01*
X31751Y324566D01*
X31374Y324773D01*
X31003Y324990D01*
X30638Y325215D01*
X30278Y325449D01*
X29923Y325692D01*
X29575Y325944D01*
X29233Y326204D01*
X28898Y326472D01*
X28569Y326749D01*
X28248Y327033D01*
X27933Y327326D01*
X27626Y327626D01*
X27326Y327933D01*
X27033Y328248D01*
X26749Y328569D01*
X26472Y328898D01*
X26204Y329233D01*
X25944Y329575D01*
X25692Y329923D01*
X25449Y330278D01*
X25215Y330638D01*
X24990Y331003D01*
X24773Y331374D01*
X24566Y331751D01*
X24369Y332132D01*
X24180Y332518D01*
X24001Y332908D01*
X23832Y333303D01*
X23673Y333702D01*
X23523Y334104D01*
X23383Y334511D01*
X23254Y334920D01*
X23134Y335333D01*
X23024Y335748D01*
X22925Y336166D01*
X22836Y336586D01*
X22758Y337008D01*
X22689Y337432D01*
X22632Y337858D01*
X22584Y338285D01*
X22547Y338713D01*
X22521Y339141D01*
X22505Y339571D01*
X22500Y340000D01*
X202500Y340000D02*
X202505Y340429D01*
X202521Y340859D01*
X202547Y341287D01*
X202584Y341715D01*
X202632Y342142D01*
X202689Y342568D01*
X202758Y342992D01*
X202836Y343414D01*
X202925Y343834D01*
X203024Y344252D01*
X203134Y344667D01*
X203254Y345080D01*
X203383Y345489D01*
X203523Y345896D01*
X203673Y346298D01*
X203832Y346697D01*
X204001Y347092D01*
X204180Y347482D01*
X204369Y347868D01*
X204566Y348249D01*
X204773Y348626D01*
X204990Y348997D01*
X205215Y349362D01*
X205449Y349722D01*
X205692Y350077D01*
X205944Y350425D01*
X206204Y350767D01*
X206472Y351102D01*
X206749Y351431D01*
X207033Y351752D01*
X207326Y352067D01*
X207626Y352374D01*
X207933Y352674D01*
X208248Y352967D01*
X208569Y353251D01*
X208898Y353528D01*
X209233Y353796D01*
X209575Y354056D01*
X209923Y354308D01*
X210278Y354551D01*
X210638Y354785D01*
X211003Y355010D01*
X211374Y355227D01*
X211751Y355434D01*
X212132Y355631D01*
X212518Y355820D01*
X212908Y355999D01*
X213303Y356168D01*
X213702Y356327D01*
X214104Y356477D01*
X214511Y356617D01*
X214920Y356746D01*
X215333Y356866D01*
X215748Y356976D01*
X216166Y357075D01*
X216586Y357164D01*
X217008Y357242D01*
X217432Y357311D01*
X217858Y357368D01*
X218285Y357416D01*
X218713Y357453D01*
X219141Y357479D01*
X219571Y357495D01*
X220000Y357500D01*
X220429Y357495D01*
X220859Y357479D01*
X221287Y357453D01*
X221715Y357416D01*
X222142Y357368D01*
X222568Y357311D01*
X222992Y357242D01*
X223414Y357164D01*
X223834Y357075D01*
X224252Y356976D01*
X224667Y356866D01*
X225080Y356746D01*
X225489Y356617D01*
X225896Y356477D01*
X226298Y356327D01*
X226697Y356168D01*
X227092Y355999D01*
X227482Y355820D01*
X227868Y355631D01*
X228249Y355434D01*
X228626Y355227D01*
X228997Y355010D01*
X229362Y354785D01*
X229722Y354551D01*
X230077Y354308D01*
X230425Y354056D01*
X230767Y353796D01*
X231102Y353528D01*
X231431Y353251D01*
X231752Y352967D01*
X232067Y352674D01*
X232374Y352374D01*
X232674Y352067D01*
X232967Y351752D01*
X233251Y351431D01*
X233528Y351102D01*
X233796Y350767D01*
X234056Y350425D01*
X234308Y350077D01*
X234551Y349722D01*
X234785Y349362D01*
X235010Y348997D01*
X235227Y348626D01*
X235434Y348249D01*
X235631Y347868D01*
X235820Y347482D01*
X235999Y347092D01*
X236168Y346697D01*
X236327Y346298D01*
X236477Y345896D01*
X236617Y345489D01*
X236746Y345080D01*
X236866Y344667D01*
X236976Y344252D01*
X237075Y343834D01*
X237164Y343414D01*
X237242Y342992D01*
X237311Y342568D01*
X237368Y342142D01*
X237416Y341715D01*
X237453Y341287D01*
X237479Y340859D01*
X237495Y340429D01*
X237500Y340000D01*
X237495Y339571D01*
X237479Y339141D01*
X237453Y338713D01*
X237416Y338285D01*
X237368Y337858D01*
X237311Y337432D01*
X237242Y337008D01*
X237164Y336586D01*
X237075Y336166D01*
X236976Y335748D01*
X236866Y335333D01*
X236746Y334920D01*
X236617Y334511D01*
X236477Y334104D01*
X236327Y333702D01*
X236168Y333303D01*
X235999Y332908D01*
X235820Y332518D01*
X235631Y332132D01*
X235434Y331751D01*
X235227Y331374D01*
X235010Y331003D01*
X234785Y330638D01*
X234551Y330278D01*
X234308Y329923D01*
X234056Y329575D01*
X233796Y329233D01*
X233528Y328898D01*
X233251Y328569D01*
X232967Y328248D01*
X232674Y327933D01*
X232374Y327626D01*
X232067Y327326D01*
X231752Y327033D01*
X231431Y326749D01*
X231102Y326472D01*
X230767Y326204D01*
X230425Y325944D01*
X230077Y325692D01*
X229722Y325449D01*
X229362Y325215D01*
X228997Y324990D01*
X228626Y324773D01*
X228249Y324566D01*
X227868Y324369D01*
X227482Y324180D01*
X227092Y324001D01*
X226697Y323832D01*
X226298Y323673D01*
X225896Y323523D01*
X225489Y323383D01*
X225080Y323254D01*
X224667Y323134D01*
X224252Y323024D01*
X223834Y322925D01*
X223414Y322836D01*
X222992Y322758D01*
X222568Y322689D01*
X222142Y322632D01*
X221715Y322584D01*
X221287Y322547D01*
X220859Y322521D01*
X220429Y322505D01*
X220000Y322500D01*
X219571Y322505D01*
X219141Y322521D01*
X218713Y322547D01*
X218285Y322584D01*
X217858Y322632D01*
X217432Y322689D01*
X217008Y322758D01*
X216586Y322836D01*
X216166Y322925D01*
X215748Y323024D01*
X215333Y323134D01*
X214920Y323254D01*
X214511Y323383D01*
X214104Y323523D01*
X213702Y323673D01*
X213303Y323832D01*
X212908Y324001D01*
X212518Y324180D01*
X212132Y324369D01*
X211751Y324566D01*
X211374Y324773D01*
X211003Y324990D01*
X210638Y325215D01*
X210278Y325449D01*
X209923Y325692D01*
X209575Y325944D01*
X209233Y326204D01*
X208898Y326472D01*
X208569Y326749D01*
X208248Y327033D01*
X207933Y327326D01*
X207626Y327626D01*
X207326Y327933D01*
X207033Y328248D01*
X206749Y328569D01*
X206472Y328898D01*
X206204Y329233D01*
X205944Y329575D01*
X205692Y329923D01*
X205449Y330278D01*
X205215Y330638D01*
X204990Y331003D01*
X204773Y331374D01*
X204566Y331751D01*
X204369Y332132D01*
X204180Y332518D01*
X204001Y332908D01*
X203832Y333303D01*
X203673Y333702D01*
X203523Y334104D01*
X203383Y334511D01*
X203254Y334920D01*
X203134Y335333D01*
X203024Y335748D01*
X202925Y336166D01*
X202836Y336586D01*
X202758Y337008D01*
X202689Y337432D01*
X202632Y337858D01*
X202584Y338285D01*
X202547Y338713D01*
X202521Y339141D01*
X202505Y339571D01*
X202500Y340000D01*
M02*
