G04 EAGLE Gerber RS-274X export*
G75*
%MOMM*%
%FSLAX34Y34*%
%LPD*%
%INSilkscreen Bottom*%
%IPPOS*%
%AMOC8*
5,1,8,0,0,1.08239X$1,22.5*%
G01*
%ADD10C,0.508000*%


D10*
X118400Y300000D02*
X118402Y299878D01*
X118408Y299756D01*
X118418Y299634D01*
X118431Y299513D01*
X118449Y299392D01*
X118470Y299272D01*
X118496Y299152D01*
X118525Y299034D01*
X118557Y298916D01*
X118594Y298799D01*
X118634Y298684D01*
X118678Y298570D01*
X118726Y298458D01*
X118777Y298347D01*
X118832Y298238D01*
X118890Y298130D01*
X118952Y298025D01*
X119017Y297922D01*
X119085Y297820D01*
X119157Y297721D01*
X119231Y297625D01*
X119309Y297530D01*
X119390Y297439D01*
X119473Y297349D01*
X119559Y297263D01*
X119649Y297180D01*
X119740Y297099D01*
X119835Y297021D01*
X119931Y296947D01*
X120030Y296875D01*
X120132Y296807D01*
X120235Y296742D01*
X120340Y296680D01*
X120448Y296622D01*
X120557Y296567D01*
X120668Y296516D01*
X120780Y296468D01*
X120894Y296424D01*
X121009Y296384D01*
X121126Y296347D01*
X121244Y296315D01*
X121362Y296286D01*
X121482Y296260D01*
X121602Y296239D01*
X121723Y296221D01*
X121844Y296208D01*
X121966Y296198D01*
X122088Y296192D01*
X122210Y296190D01*
X122332Y296192D01*
X122454Y296198D01*
X122576Y296208D01*
X122697Y296221D01*
X122818Y296239D01*
X122938Y296260D01*
X123058Y296286D01*
X123176Y296315D01*
X123294Y296347D01*
X123411Y296384D01*
X123526Y296424D01*
X123640Y296468D01*
X123752Y296516D01*
X123863Y296567D01*
X123972Y296622D01*
X124080Y296680D01*
X124185Y296742D01*
X124288Y296807D01*
X124390Y296875D01*
X124489Y296947D01*
X124585Y297021D01*
X124680Y297099D01*
X124771Y297180D01*
X124861Y297263D01*
X124947Y297349D01*
X125030Y297439D01*
X125111Y297530D01*
X125189Y297625D01*
X125263Y297721D01*
X125335Y297820D01*
X125403Y297922D01*
X125468Y298025D01*
X125530Y298130D01*
X125588Y298238D01*
X125643Y298347D01*
X125694Y298458D01*
X125742Y298570D01*
X125786Y298684D01*
X125826Y298799D01*
X125863Y298916D01*
X125895Y299034D01*
X125924Y299152D01*
X125950Y299272D01*
X125971Y299392D01*
X125989Y299513D01*
X126002Y299634D01*
X126012Y299756D01*
X126018Y299878D01*
X126020Y300000D01*
X126018Y300122D01*
X126012Y300244D01*
X126002Y300366D01*
X125989Y300487D01*
X125971Y300608D01*
X125950Y300728D01*
X125924Y300848D01*
X125895Y300966D01*
X125863Y301084D01*
X125826Y301201D01*
X125786Y301316D01*
X125742Y301430D01*
X125694Y301542D01*
X125643Y301653D01*
X125588Y301762D01*
X125530Y301870D01*
X125468Y301975D01*
X125403Y302078D01*
X125335Y302180D01*
X125263Y302279D01*
X125189Y302375D01*
X125111Y302470D01*
X125030Y302561D01*
X124947Y302651D01*
X124861Y302737D01*
X124771Y302820D01*
X124680Y302901D01*
X124585Y302979D01*
X124489Y303053D01*
X124390Y303125D01*
X124288Y303193D01*
X124185Y303258D01*
X124080Y303320D01*
X123972Y303378D01*
X123863Y303433D01*
X123752Y303484D01*
X123640Y303532D01*
X123526Y303576D01*
X123411Y303616D01*
X123294Y303653D01*
X123176Y303685D01*
X123058Y303714D01*
X122938Y303740D01*
X122818Y303761D01*
X122697Y303779D01*
X122576Y303792D01*
X122454Y303802D01*
X122332Y303808D01*
X122210Y303810D01*
X122088Y303808D01*
X121966Y303802D01*
X121844Y303792D01*
X121723Y303779D01*
X121602Y303761D01*
X121482Y303740D01*
X121362Y303714D01*
X121244Y303685D01*
X121126Y303653D01*
X121009Y303616D01*
X120894Y303576D01*
X120780Y303532D01*
X120668Y303484D01*
X120557Y303433D01*
X120448Y303378D01*
X120340Y303320D01*
X120235Y303258D01*
X120132Y303193D01*
X120030Y303125D01*
X119931Y303053D01*
X119835Y302979D01*
X119740Y302901D01*
X119649Y302820D01*
X119559Y302737D01*
X119473Y302651D01*
X119390Y302561D01*
X119309Y302470D01*
X119231Y302375D01*
X119157Y302279D01*
X119085Y302180D01*
X119017Y302078D01*
X118952Y301975D01*
X118890Y301870D01*
X118832Y301762D01*
X118777Y301653D01*
X118726Y301542D01*
X118678Y301430D01*
X118634Y301316D01*
X118594Y301201D01*
X118557Y301084D01*
X118525Y300966D01*
X118496Y300848D01*
X118470Y300728D01*
X118449Y300608D01*
X118431Y300487D01*
X118418Y300366D01*
X118408Y300244D01*
X118402Y300122D01*
X118400Y300000D01*
X29520Y260000D02*
X29518Y259878D01*
X29512Y259756D01*
X29502Y259634D01*
X29489Y259513D01*
X29471Y259392D01*
X29450Y259272D01*
X29424Y259152D01*
X29395Y259034D01*
X29363Y258916D01*
X29326Y258799D01*
X29286Y258684D01*
X29242Y258570D01*
X29194Y258458D01*
X29143Y258347D01*
X29088Y258238D01*
X29030Y258130D01*
X28968Y258025D01*
X28903Y257922D01*
X28835Y257820D01*
X28763Y257721D01*
X28689Y257625D01*
X28611Y257530D01*
X28530Y257439D01*
X28447Y257349D01*
X28361Y257263D01*
X28271Y257180D01*
X28180Y257099D01*
X28085Y257021D01*
X27989Y256947D01*
X27890Y256875D01*
X27788Y256807D01*
X27685Y256742D01*
X27580Y256680D01*
X27472Y256622D01*
X27363Y256567D01*
X27252Y256516D01*
X27140Y256468D01*
X27026Y256424D01*
X26911Y256384D01*
X26794Y256347D01*
X26676Y256315D01*
X26558Y256286D01*
X26438Y256260D01*
X26318Y256239D01*
X26197Y256221D01*
X26076Y256208D01*
X25954Y256198D01*
X25832Y256192D01*
X25710Y256190D01*
X25588Y256192D01*
X25466Y256198D01*
X25344Y256208D01*
X25223Y256221D01*
X25102Y256239D01*
X24982Y256260D01*
X24862Y256286D01*
X24744Y256315D01*
X24626Y256347D01*
X24509Y256384D01*
X24394Y256424D01*
X24280Y256468D01*
X24168Y256516D01*
X24057Y256567D01*
X23948Y256622D01*
X23840Y256680D01*
X23735Y256742D01*
X23632Y256807D01*
X23530Y256875D01*
X23431Y256947D01*
X23335Y257021D01*
X23240Y257099D01*
X23149Y257180D01*
X23059Y257263D01*
X22973Y257349D01*
X22890Y257439D01*
X22809Y257530D01*
X22731Y257625D01*
X22657Y257721D01*
X22585Y257820D01*
X22517Y257922D01*
X22452Y258025D01*
X22390Y258130D01*
X22332Y258238D01*
X22277Y258347D01*
X22226Y258458D01*
X22178Y258570D01*
X22134Y258684D01*
X22094Y258799D01*
X22057Y258916D01*
X22025Y259034D01*
X21996Y259152D01*
X21970Y259272D01*
X21949Y259392D01*
X21931Y259513D01*
X21918Y259634D01*
X21908Y259756D01*
X21902Y259878D01*
X21900Y260000D01*
X21902Y260122D01*
X21908Y260244D01*
X21918Y260366D01*
X21931Y260487D01*
X21949Y260608D01*
X21970Y260728D01*
X21996Y260848D01*
X22025Y260966D01*
X22057Y261084D01*
X22094Y261201D01*
X22134Y261316D01*
X22178Y261430D01*
X22226Y261542D01*
X22277Y261653D01*
X22332Y261762D01*
X22390Y261870D01*
X22452Y261975D01*
X22517Y262078D01*
X22585Y262180D01*
X22657Y262279D01*
X22731Y262375D01*
X22809Y262470D01*
X22890Y262561D01*
X22973Y262651D01*
X23059Y262737D01*
X23149Y262820D01*
X23240Y262901D01*
X23335Y262979D01*
X23431Y263053D01*
X23530Y263125D01*
X23632Y263193D01*
X23735Y263258D01*
X23840Y263320D01*
X23948Y263378D01*
X24057Y263433D01*
X24168Y263484D01*
X24280Y263532D01*
X24394Y263576D01*
X24509Y263616D01*
X24626Y263653D01*
X24744Y263685D01*
X24862Y263714D01*
X24982Y263740D01*
X25102Y263761D01*
X25223Y263779D01*
X25344Y263792D01*
X25466Y263802D01*
X25588Y263808D01*
X25710Y263810D01*
X25832Y263808D01*
X25954Y263802D01*
X26076Y263792D01*
X26197Y263779D01*
X26318Y263761D01*
X26438Y263740D01*
X26558Y263714D01*
X26676Y263685D01*
X26794Y263653D01*
X26911Y263616D01*
X27026Y263576D01*
X27140Y263532D01*
X27252Y263484D01*
X27363Y263433D01*
X27472Y263378D01*
X27580Y263320D01*
X27685Y263258D01*
X27788Y263193D01*
X27890Y263125D01*
X27989Y263053D01*
X28085Y262979D01*
X28180Y262901D01*
X28271Y262820D01*
X28361Y262737D01*
X28447Y262651D01*
X28530Y262561D01*
X28611Y262470D01*
X28689Y262375D01*
X28763Y262279D01*
X28835Y262180D01*
X28903Y262078D01*
X28968Y261975D01*
X29030Y261870D01*
X29088Y261762D01*
X29143Y261653D01*
X29194Y261542D01*
X29242Y261430D01*
X29286Y261316D01*
X29326Y261201D01*
X29363Y261084D01*
X29395Y260966D01*
X29424Y260848D01*
X29450Y260728D01*
X29471Y260608D01*
X29489Y260487D01*
X29502Y260366D01*
X29512Y260244D01*
X29518Y260122D01*
X29520Y260000D01*
X29520Y340000D02*
X29518Y339878D01*
X29512Y339756D01*
X29502Y339634D01*
X29489Y339513D01*
X29471Y339392D01*
X29450Y339272D01*
X29424Y339152D01*
X29395Y339034D01*
X29363Y338916D01*
X29326Y338799D01*
X29286Y338684D01*
X29242Y338570D01*
X29194Y338458D01*
X29143Y338347D01*
X29088Y338238D01*
X29030Y338130D01*
X28968Y338025D01*
X28903Y337922D01*
X28835Y337820D01*
X28763Y337721D01*
X28689Y337625D01*
X28611Y337530D01*
X28530Y337439D01*
X28447Y337349D01*
X28361Y337263D01*
X28271Y337180D01*
X28180Y337099D01*
X28085Y337021D01*
X27989Y336947D01*
X27890Y336875D01*
X27788Y336807D01*
X27685Y336742D01*
X27580Y336680D01*
X27472Y336622D01*
X27363Y336567D01*
X27252Y336516D01*
X27140Y336468D01*
X27026Y336424D01*
X26911Y336384D01*
X26794Y336347D01*
X26676Y336315D01*
X26558Y336286D01*
X26438Y336260D01*
X26318Y336239D01*
X26197Y336221D01*
X26076Y336208D01*
X25954Y336198D01*
X25832Y336192D01*
X25710Y336190D01*
X25588Y336192D01*
X25466Y336198D01*
X25344Y336208D01*
X25223Y336221D01*
X25102Y336239D01*
X24982Y336260D01*
X24862Y336286D01*
X24744Y336315D01*
X24626Y336347D01*
X24509Y336384D01*
X24394Y336424D01*
X24280Y336468D01*
X24168Y336516D01*
X24057Y336567D01*
X23948Y336622D01*
X23840Y336680D01*
X23735Y336742D01*
X23632Y336807D01*
X23530Y336875D01*
X23431Y336947D01*
X23335Y337021D01*
X23240Y337099D01*
X23149Y337180D01*
X23059Y337263D01*
X22973Y337349D01*
X22890Y337439D01*
X22809Y337530D01*
X22731Y337625D01*
X22657Y337721D01*
X22585Y337820D01*
X22517Y337922D01*
X22452Y338025D01*
X22390Y338130D01*
X22332Y338238D01*
X22277Y338347D01*
X22226Y338458D01*
X22178Y338570D01*
X22134Y338684D01*
X22094Y338799D01*
X22057Y338916D01*
X22025Y339034D01*
X21996Y339152D01*
X21970Y339272D01*
X21949Y339392D01*
X21931Y339513D01*
X21918Y339634D01*
X21908Y339756D01*
X21902Y339878D01*
X21900Y340000D01*
X21902Y340122D01*
X21908Y340244D01*
X21918Y340366D01*
X21931Y340487D01*
X21949Y340608D01*
X21970Y340728D01*
X21996Y340848D01*
X22025Y340966D01*
X22057Y341084D01*
X22094Y341201D01*
X22134Y341316D01*
X22178Y341430D01*
X22226Y341542D01*
X22277Y341653D01*
X22332Y341762D01*
X22390Y341870D01*
X22452Y341975D01*
X22517Y342078D01*
X22585Y342180D01*
X22657Y342279D01*
X22731Y342375D01*
X22809Y342470D01*
X22890Y342561D01*
X22973Y342651D01*
X23059Y342737D01*
X23149Y342820D01*
X23240Y342901D01*
X23335Y342979D01*
X23431Y343053D01*
X23530Y343125D01*
X23632Y343193D01*
X23735Y343258D01*
X23840Y343320D01*
X23948Y343378D01*
X24057Y343433D01*
X24168Y343484D01*
X24280Y343532D01*
X24394Y343576D01*
X24509Y343616D01*
X24626Y343653D01*
X24744Y343685D01*
X24862Y343714D01*
X24982Y343740D01*
X25102Y343761D01*
X25223Y343779D01*
X25344Y343792D01*
X25466Y343802D01*
X25588Y343808D01*
X25710Y343810D01*
X25832Y343808D01*
X25954Y343802D01*
X26076Y343792D01*
X26197Y343779D01*
X26318Y343761D01*
X26438Y343740D01*
X26558Y343714D01*
X26676Y343685D01*
X26794Y343653D01*
X26911Y343616D01*
X27026Y343576D01*
X27140Y343532D01*
X27252Y343484D01*
X27363Y343433D01*
X27472Y343378D01*
X27580Y343320D01*
X27685Y343258D01*
X27788Y343193D01*
X27890Y343125D01*
X27989Y343053D01*
X28085Y342979D01*
X28180Y342901D01*
X28271Y342820D01*
X28361Y342737D01*
X28447Y342651D01*
X28530Y342561D01*
X28611Y342470D01*
X28689Y342375D01*
X28763Y342279D01*
X28835Y342180D01*
X28903Y342078D01*
X28968Y341975D01*
X29030Y341870D01*
X29088Y341762D01*
X29143Y341653D01*
X29194Y341542D01*
X29242Y341430D01*
X29286Y341316D01*
X29326Y341201D01*
X29363Y341084D01*
X29395Y340966D01*
X29424Y340848D01*
X29450Y340728D01*
X29471Y340608D01*
X29489Y340487D01*
X29502Y340366D01*
X29512Y340244D01*
X29518Y340122D01*
X29520Y340000D01*
X101900Y340000D02*
X101902Y339878D01*
X101908Y339756D01*
X101918Y339634D01*
X101931Y339513D01*
X101949Y339392D01*
X101970Y339272D01*
X101996Y339152D01*
X102025Y339034D01*
X102057Y338916D01*
X102094Y338799D01*
X102134Y338684D01*
X102178Y338570D01*
X102226Y338458D01*
X102277Y338347D01*
X102332Y338238D01*
X102390Y338130D01*
X102452Y338025D01*
X102517Y337922D01*
X102585Y337820D01*
X102657Y337721D01*
X102731Y337625D01*
X102809Y337530D01*
X102890Y337439D01*
X102973Y337349D01*
X103059Y337263D01*
X103149Y337180D01*
X103240Y337099D01*
X103335Y337021D01*
X103431Y336947D01*
X103530Y336875D01*
X103632Y336807D01*
X103735Y336742D01*
X103840Y336680D01*
X103948Y336622D01*
X104057Y336567D01*
X104168Y336516D01*
X104280Y336468D01*
X104394Y336424D01*
X104509Y336384D01*
X104626Y336347D01*
X104744Y336315D01*
X104862Y336286D01*
X104982Y336260D01*
X105102Y336239D01*
X105223Y336221D01*
X105344Y336208D01*
X105466Y336198D01*
X105588Y336192D01*
X105710Y336190D01*
X105832Y336192D01*
X105954Y336198D01*
X106076Y336208D01*
X106197Y336221D01*
X106318Y336239D01*
X106438Y336260D01*
X106558Y336286D01*
X106676Y336315D01*
X106794Y336347D01*
X106911Y336384D01*
X107026Y336424D01*
X107140Y336468D01*
X107252Y336516D01*
X107363Y336567D01*
X107472Y336622D01*
X107580Y336680D01*
X107685Y336742D01*
X107788Y336807D01*
X107890Y336875D01*
X107989Y336947D01*
X108085Y337021D01*
X108180Y337099D01*
X108271Y337180D01*
X108361Y337263D01*
X108447Y337349D01*
X108530Y337439D01*
X108611Y337530D01*
X108689Y337625D01*
X108763Y337721D01*
X108835Y337820D01*
X108903Y337922D01*
X108968Y338025D01*
X109030Y338130D01*
X109088Y338238D01*
X109143Y338347D01*
X109194Y338458D01*
X109242Y338570D01*
X109286Y338684D01*
X109326Y338799D01*
X109363Y338916D01*
X109395Y339034D01*
X109424Y339152D01*
X109450Y339272D01*
X109471Y339392D01*
X109489Y339513D01*
X109502Y339634D01*
X109512Y339756D01*
X109518Y339878D01*
X109520Y340000D01*
X109518Y340122D01*
X109512Y340244D01*
X109502Y340366D01*
X109489Y340487D01*
X109471Y340608D01*
X109450Y340728D01*
X109424Y340848D01*
X109395Y340966D01*
X109363Y341084D01*
X109326Y341201D01*
X109286Y341316D01*
X109242Y341430D01*
X109194Y341542D01*
X109143Y341653D01*
X109088Y341762D01*
X109030Y341870D01*
X108968Y341975D01*
X108903Y342078D01*
X108835Y342180D01*
X108763Y342279D01*
X108689Y342375D01*
X108611Y342470D01*
X108530Y342561D01*
X108447Y342651D01*
X108361Y342737D01*
X108271Y342820D01*
X108180Y342901D01*
X108085Y342979D01*
X107989Y343053D01*
X107890Y343125D01*
X107788Y343193D01*
X107685Y343258D01*
X107580Y343320D01*
X107472Y343378D01*
X107363Y343433D01*
X107252Y343484D01*
X107140Y343532D01*
X107026Y343576D01*
X106911Y343616D01*
X106794Y343653D01*
X106676Y343685D01*
X106558Y343714D01*
X106438Y343740D01*
X106318Y343761D01*
X106197Y343779D01*
X106076Y343792D01*
X105954Y343802D01*
X105832Y343808D01*
X105710Y343810D01*
X105588Y343808D01*
X105466Y343802D01*
X105344Y343792D01*
X105223Y343779D01*
X105102Y343761D01*
X104982Y343740D01*
X104862Y343714D01*
X104744Y343685D01*
X104626Y343653D01*
X104509Y343616D01*
X104394Y343576D01*
X104280Y343532D01*
X104168Y343484D01*
X104057Y343433D01*
X103948Y343378D01*
X103840Y343320D01*
X103735Y343258D01*
X103632Y343193D01*
X103530Y343125D01*
X103431Y343053D01*
X103335Y342979D01*
X103240Y342901D01*
X103149Y342820D01*
X103059Y342737D01*
X102973Y342651D01*
X102890Y342561D01*
X102809Y342470D01*
X102731Y342375D01*
X102657Y342279D01*
X102585Y342180D01*
X102517Y342078D01*
X102452Y341975D01*
X102390Y341870D01*
X102332Y341762D01*
X102277Y341653D01*
X102226Y341542D01*
X102178Y341430D01*
X102134Y341316D01*
X102094Y341201D01*
X102057Y341084D01*
X102025Y340966D01*
X101996Y340848D01*
X101970Y340728D01*
X101949Y340608D01*
X101931Y340487D01*
X101918Y340366D01*
X101908Y340244D01*
X101902Y340122D01*
X101900Y340000D01*
X101900Y260000D02*
X101902Y259878D01*
X101908Y259756D01*
X101918Y259634D01*
X101931Y259513D01*
X101949Y259392D01*
X101970Y259272D01*
X101996Y259152D01*
X102025Y259034D01*
X102057Y258916D01*
X102094Y258799D01*
X102134Y258684D01*
X102178Y258570D01*
X102226Y258458D01*
X102277Y258347D01*
X102332Y258238D01*
X102390Y258130D01*
X102452Y258025D01*
X102517Y257922D01*
X102585Y257820D01*
X102657Y257721D01*
X102731Y257625D01*
X102809Y257530D01*
X102890Y257439D01*
X102973Y257349D01*
X103059Y257263D01*
X103149Y257180D01*
X103240Y257099D01*
X103335Y257021D01*
X103431Y256947D01*
X103530Y256875D01*
X103632Y256807D01*
X103735Y256742D01*
X103840Y256680D01*
X103948Y256622D01*
X104057Y256567D01*
X104168Y256516D01*
X104280Y256468D01*
X104394Y256424D01*
X104509Y256384D01*
X104626Y256347D01*
X104744Y256315D01*
X104862Y256286D01*
X104982Y256260D01*
X105102Y256239D01*
X105223Y256221D01*
X105344Y256208D01*
X105466Y256198D01*
X105588Y256192D01*
X105710Y256190D01*
X105832Y256192D01*
X105954Y256198D01*
X106076Y256208D01*
X106197Y256221D01*
X106318Y256239D01*
X106438Y256260D01*
X106558Y256286D01*
X106676Y256315D01*
X106794Y256347D01*
X106911Y256384D01*
X107026Y256424D01*
X107140Y256468D01*
X107252Y256516D01*
X107363Y256567D01*
X107472Y256622D01*
X107580Y256680D01*
X107685Y256742D01*
X107788Y256807D01*
X107890Y256875D01*
X107989Y256947D01*
X108085Y257021D01*
X108180Y257099D01*
X108271Y257180D01*
X108361Y257263D01*
X108447Y257349D01*
X108530Y257439D01*
X108611Y257530D01*
X108689Y257625D01*
X108763Y257721D01*
X108835Y257820D01*
X108903Y257922D01*
X108968Y258025D01*
X109030Y258130D01*
X109088Y258238D01*
X109143Y258347D01*
X109194Y258458D01*
X109242Y258570D01*
X109286Y258684D01*
X109326Y258799D01*
X109363Y258916D01*
X109395Y259034D01*
X109424Y259152D01*
X109450Y259272D01*
X109471Y259392D01*
X109489Y259513D01*
X109502Y259634D01*
X109512Y259756D01*
X109518Y259878D01*
X109520Y260000D01*
X109518Y260122D01*
X109512Y260244D01*
X109502Y260366D01*
X109489Y260487D01*
X109471Y260608D01*
X109450Y260728D01*
X109424Y260848D01*
X109395Y260966D01*
X109363Y261084D01*
X109326Y261201D01*
X109286Y261316D01*
X109242Y261430D01*
X109194Y261542D01*
X109143Y261653D01*
X109088Y261762D01*
X109030Y261870D01*
X108968Y261975D01*
X108903Y262078D01*
X108835Y262180D01*
X108763Y262279D01*
X108689Y262375D01*
X108611Y262470D01*
X108530Y262561D01*
X108447Y262651D01*
X108361Y262737D01*
X108271Y262820D01*
X108180Y262901D01*
X108085Y262979D01*
X107989Y263053D01*
X107890Y263125D01*
X107788Y263193D01*
X107685Y263258D01*
X107580Y263320D01*
X107472Y263378D01*
X107363Y263433D01*
X107252Y263484D01*
X107140Y263532D01*
X107026Y263576D01*
X106911Y263616D01*
X106794Y263653D01*
X106676Y263685D01*
X106558Y263714D01*
X106438Y263740D01*
X106318Y263761D01*
X106197Y263779D01*
X106076Y263792D01*
X105954Y263802D01*
X105832Y263808D01*
X105710Y263810D01*
X105588Y263808D01*
X105466Y263802D01*
X105344Y263792D01*
X105223Y263779D01*
X105102Y263761D01*
X104982Y263740D01*
X104862Y263714D01*
X104744Y263685D01*
X104626Y263653D01*
X104509Y263616D01*
X104394Y263576D01*
X104280Y263532D01*
X104168Y263484D01*
X104057Y263433D01*
X103948Y263378D01*
X103840Y263320D01*
X103735Y263258D01*
X103632Y263193D01*
X103530Y263125D01*
X103431Y263053D01*
X103335Y262979D01*
X103240Y262901D01*
X103149Y262820D01*
X103059Y262737D01*
X102973Y262651D01*
X102890Y262561D01*
X102809Y262470D01*
X102731Y262375D01*
X102657Y262279D01*
X102585Y262180D01*
X102517Y262078D01*
X102452Y261975D01*
X102390Y261870D01*
X102332Y261762D01*
X102277Y261653D01*
X102226Y261542D01*
X102178Y261430D01*
X102134Y261316D01*
X102094Y261201D01*
X102057Y261084D01*
X102025Y260966D01*
X101996Y260848D01*
X101970Y260728D01*
X101949Y260608D01*
X101931Y260487D01*
X101918Y260366D01*
X101908Y260244D01*
X101902Y260122D01*
X101900Y260000D01*
M02*
