%TF.GenerationSoftware,KiCad,Pcbnew,10.0.3*%
%TF.CreationDate,2026-07-02T15:33:54-05:00*%
%TF.ProjectId,Dream_V3,44726561-6d5f-4563-932e-6b696361645f,rev?*%
%TF.SameCoordinates,Original*%
%TF.FileFunction,Paste,Top*%
%TF.FilePolarity,Positive*%
%FSLAX46Y46*%
G04 Gerber Fmt 4.6, Leading zero omitted, Abs format (unit mm)*
G04 Created by KiCad (PCBNEW 10.0.3) date 2026-07-02 15:33:54*
%MOMM*%
%LPD*%
G01*
G04 APERTURE LIST*
G04 Aperture macros list*
%AMRoundRect*
0 Rectangle with rounded corners*
0 $1 Rounding radius*
0 $2 $3 $4 $5 $6 $7 $8 $9 X,Y pos of 4 corners*
0 Add a 4 corners polygon primitive as box body*
4,1,4,$2,$3,$4,$5,$6,$7,$8,$9,$2,$3,0*
0 Add four circle primitives for the rounded corners*
1,1,$1+$1,$2,$3*
1,1,$1+$1,$4,$5*
1,1,$1+$1,$6,$7*
1,1,$1+$1,$8,$9*
0 Add four rect primitives between the rounded corners*
20,1,$1+$1,$2,$3,$4,$5,0*
20,1,$1+$1,$4,$5,$6,$7,0*
20,1,$1+$1,$6,$7,$8,$9,0*
20,1,$1+$1,$8,$9,$2,$3,0*%
G04 Aperture macros list end*
%ADD10RoundRect,0.225000X-0.225000X-0.250000X0.225000X-0.250000X0.225000X0.250000X-0.225000X0.250000X0*%
%ADD11RoundRect,0.100000X-0.225000X-0.100000X0.225000X-0.100000X0.225000X0.100000X-0.225000X0.100000X0*%
%ADD12R,1.000000X1.651000*%
%ADD13R,0.600000X1.550000*%
%ADD14R,1.200000X2.000000*%
%ADD15RoundRect,0.150000X-0.150000X0.512500X-0.150000X-0.512500X0.150000X-0.512500X0.150000X0.512500X0*%
%ADD16R,0.500000X0.350000*%
%ADD17R,1.020000X1.040000*%
%ADD18R,1.200000X1.800000*%
%ADD19RoundRect,0.100000X0.225000X0.100000X-0.225000X0.100000X-0.225000X-0.100000X0.225000X-0.100000X0*%
%ADD20RoundRect,0.135000X0.135000X0.185000X-0.135000X0.185000X-0.135000X-0.185000X0.135000X-0.185000X0*%
%ADD21RoundRect,0.200000X-0.275000X0.200000X-0.275000X-0.200000X0.275000X-0.200000X0.275000X0.200000X0*%
%ADD22R,1.040000X1.020000*%
%ADD23RoundRect,0.200000X0.275000X-0.200000X0.275000X0.200000X-0.275000X0.200000X-0.275000X-0.200000X0*%
%ADD24R,0.700000X3.600000*%
%ADD25R,1.500000X2.300000*%
%ADD26RoundRect,0.250000X0.475000X-0.250000X0.475000X0.250000X-0.475000X0.250000X-0.475000X-0.250000X0*%
%ADD27R,0.500000X0.800000*%
%ADD28R,0.400000X0.800000*%
%ADD29RoundRect,0.250000X0.250000X0.475000X-0.250000X0.475000X-0.250000X-0.475000X0.250000X-0.475000X0*%
%ADD30R,0.800000X0.500000*%
%ADD31R,0.800000X0.400000*%
%ADD32RoundRect,0.250000X0.450000X-0.262500X0.450000X0.262500X-0.450000X0.262500X-0.450000X-0.262500X0*%
%ADD33RoundRect,0.225000X0.225000X0.250000X-0.225000X0.250000X-0.225000X-0.250000X0.225000X-0.250000X0*%
%ADD34RoundRect,0.125000X0.125000X-0.537500X0.125000X0.537500X-0.125000X0.537500X-0.125000X-0.537500X0*%
G04 APERTURE END LIST*
D10*
%TO.C,C6*%
X100500000Y-74000000D03*
X102050000Y-74000000D03*
%TD*%
D11*
%TO.C,Q2*%
X102050000Y-85350000D03*
X102050000Y-86000000D03*
X102050000Y-86650000D03*
X103950000Y-86650000D03*
X103950000Y-86000000D03*
X103950000Y-85350000D03*
%TD*%
D12*
%TO.C,D1*%
X90463500Y-61412500D03*
X93663500Y-61412500D03*
X93663500Y-56258500D03*
X90463500Y-56258500D03*
%TD*%
D13*
%TO.C,J6*%
X91000000Y-33511000D03*
X92000000Y-33511000D03*
X93000000Y-33511000D03*
X94000000Y-33511000D03*
D14*
X89700000Y-31086000D03*
X95300000Y-31086000D03*
%TD*%
D15*
%TO.C,U1*%
X91950000Y-78362500D03*
X91000000Y-78362500D03*
X90050000Y-80637500D03*
X91950000Y-80637500D03*
X90050000Y-78362500D03*
%TD*%
D16*
%TO.C,U5*%
X81500000Y-94450000D03*
X81500000Y-93800000D03*
X81500000Y-93150000D03*
X81500000Y-92500000D03*
X83550000Y-92500000D03*
X83550000Y-93150000D03*
X83550000Y-93800000D03*
X83550000Y-94450000D03*
%TD*%
D13*
%TO.C,J4*%
X66500000Y-37511000D03*
X67500000Y-37511000D03*
X68500000Y-37511000D03*
X69500000Y-37511000D03*
D14*
X65200000Y-35086000D03*
X70800000Y-35086000D03*
%TD*%
D17*
%TO.C,R6*%
X86000000Y-53265000D03*
X86000000Y-54735000D03*
%TD*%
D13*
%TO.C,J7*%
X78000000Y-34282500D03*
X79000000Y-34282500D03*
X80000000Y-34282500D03*
X81000000Y-34282500D03*
X82000000Y-34282500D03*
X83000000Y-34282500D03*
D18*
X76700000Y-31757500D03*
X84300000Y-31757500D03*
%TD*%
D13*
%TO.C,J9*%
X66500000Y-31511000D03*
X67500000Y-31511000D03*
X68500000Y-31511000D03*
X69500000Y-31511000D03*
D14*
X65200000Y-29086000D03*
X70800000Y-29086000D03*
%TD*%
D19*
%TO.C,Q1*%
X83950000Y-87650000D03*
X83950000Y-87000000D03*
X83950000Y-86350000D03*
X82050000Y-86350000D03*
X82050000Y-87000000D03*
X82050000Y-87650000D03*
%TD*%
D20*
%TO.C,R12*%
X101510000Y-79500000D03*
X100490000Y-79500000D03*
%TD*%
D21*
%TO.C,R7*%
X88500000Y-53175000D03*
X88500000Y-54825000D03*
%TD*%
D22*
%TO.C,R8*%
X97765000Y-53500000D03*
X99235000Y-53500000D03*
%TD*%
D23*
%TO.C,R10*%
X100529004Y-90789070D03*
X100529004Y-89139070D03*
%TD*%
D24*
%TO.C,J3*%
X116000000Y-94950000D03*
X114500000Y-94950000D03*
X113000000Y-94950000D03*
X111500000Y-94950000D03*
X110000000Y-94950000D03*
D25*
X118050000Y-97000000D03*
X107950000Y-97000000D03*
%TD*%
D26*
%TO.C,C2*%
X86000000Y-75950000D03*
X86000000Y-74050000D03*
%TD*%
D27*
%TO.C,R5*%
X100200000Y-56100000D03*
D28*
X99400000Y-56100000D03*
X98600000Y-56100000D03*
D27*
X97800000Y-56100000D03*
X97800000Y-57900000D03*
D28*
X98600000Y-57900000D03*
X99400000Y-57900000D03*
D27*
X100200000Y-57900000D03*
%TD*%
D29*
%TO.C,C3*%
X86950000Y-79500000D03*
X85050000Y-79500000D03*
%TD*%
D30*
%TO.C,R13*%
X106600000Y-84800000D03*
D31*
X106600000Y-85600000D03*
X106600000Y-86400000D03*
D30*
X106600000Y-87200000D03*
X108400000Y-87200000D03*
D31*
X108400000Y-86400000D03*
X108400000Y-85600000D03*
D30*
X108400000Y-84800000D03*
%TD*%
D32*
%TO.C,R4*%
X98000000Y-86912500D03*
X98000000Y-85087500D03*
%TD*%
D30*
%TO.C,R2*%
X88700000Y-74000000D03*
D31*
X88700000Y-74800000D03*
X88700000Y-75600000D03*
D30*
X88700000Y-76400000D03*
X90500000Y-76400000D03*
D31*
X90500000Y-75600000D03*
X90500000Y-74800000D03*
D30*
X90500000Y-74000000D03*
%TD*%
%TO.C,R1*%
X78000000Y-85700000D03*
D31*
X78000000Y-86500000D03*
X78000000Y-87300000D03*
D30*
X78000000Y-88100000D03*
X79800000Y-88100000D03*
D31*
X79800000Y-87300000D03*
X79800000Y-86500000D03*
D30*
X79800000Y-85700000D03*
%TD*%
D16*
%TO.C,U2*%
X101000000Y-92550000D03*
X101000000Y-93200000D03*
X101000000Y-93850000D03*
X101000000Y-94500000D03*
X98950000Y-94500000D03*
X98950000Y-93850000D03*
X98950000Y-93200000D03*
X98950000Y-92550000D03*
%TD*%
D33*
%TO.C,C1*%
X87050000Y-82500000D03*
X85500000Y-82500000D03*
%TD*%
%TO.C,C8*%
X100775000Y-83000000D03*
X99225000Y-83000000D03*
%TD*%
D13*
%TO.C,J2*%
X116500000Y-37511000D03*
X117500000Y-37511000D03*
X118500000Y-37511000D03*
X119500000Y-37511000D03*
D14*
X115200000Y-35086000D03*
X120800000Y-35086000D03*
%TD*%
D13*
%TO.C,J8*%
X116500000Y-31511000D03*
X117500000Y-31511000D03*
X118500000Y-31511000D03*
X119500000Y-31511000D03*
D14*
X115200000Y-29086000D03*
X120800000Y-29086000D03*
%TD*%
D23*
%TO.C,R9*%
X81500000Y-90825000D03*
X81500000Y-89175000D03*
%TD*%
%TO.C,R3*%
X98000000Y-90325000D03*
X98000000Y-88675000D03*
%TD*%
D20*
%TO.C,R11*%
X101510000Y-77000000D03*
X100490000Y-77000000D03*
%TD*%
D34*
%TO.C,U3*%
X94525000Y-80637500D03*
X95175000Y-80637500D03*
X95825000Y-80637500D03*
X96475000Y-80637500D03*
X96475000Y-78362500D03*
X95825000Y-78362500D03*
X95175000Y-78362500D03*
X94525000Y-78362500D03*
%TD*%
M02*
