%TF.GenerationSoftware,KiCad,Pcbnew,10.0.3*%
%TF.CreationDate,2026-07-02T15:33:54-05:00*%
%TF.ProjectId,Dream_V3,44726561-6d5f-4563-932e-6b696361645f,rev?*%
%TF.SameCoordinates,Original*%
%TF.FileFunction,Soldermask,Top*%
%TF.FilePolarity,Negative*%
%FSLAX46Y46*%
G04 Gerber Fmt 4.6, Leading zero omitted, Abs format (unit mm)*
G04 Created by KiCad (PCBNEW 10.0.3) date 2026-07-02 15:33:54*
%MOMM*%
%LPD*%
G01*
G04 APERTURE LIST*
G04 Aperture macros list*
%AMRoundRect*
0 Rectangle with rounded corners*
0 $1 Rounding radius*
0 $2 $3 $4 $5 $6 $7 $8 $9 X,Y pos of 4 corners*
0 Add a 4 corners polygon primitive as box body*
4,1,4,$2,$3,$4,$5,$6,$7,$8,$9,$2,$3,0*
0 Add four circle primitives for the rounded corners*
1,1,$1+$1,$2,$3*
1,1,$1+$1,$4,$5*
1,1,$1+$1,$6,$7*
1,1,$1+$1,$8,$9*
0 Add four rect primitives between the rounded corners*
20,1,$1+$1,$2,$3,$4,$5,0*
20,1,$1+$1,$4,$5,$6,$7,0*
20,1,$1+$1,$6,$7,$8,$9,0*
20,1,$1+$1,$8,$9,$2,$3,0*%
G04 Aperture macros list end*
%ADD10C,0.010000*%
%ADD11RoundRect,0.225000X-0.225000X-0.250000X0.225000X-0.250000X0.225000X0.250000X-0.225000X0.250000X0*%
%ADD12RoundRect,0.100000X-0.225000X-0.100000X0.225000X-0.100000X0.225000X0.100000X-0.225000X0.100000X0*%
%ADD13R,1.000000X1.651000*%
%ADD14C,1.600000*%
%ADD15RoundRect,0.250000X-0.550000X-0.550000X0.550000X-0.550000X0.550000X0.550000X-0.550000X0.550000X0*%
%ADD16RoundRect,0.102000X-0.754000X-0.754000X0.754000X-0.754000X0.754000X0.754000X-0.754000X0.754000X0*%
%ADD17C,1.712000*%
%ADD18R,0.600000X1.550000*%
%ADD19R,1.200000X2.000000*%
%ADD20R,1.000000X0.500000*%
%ADD21RoundRect,0.150000X-0.150000X0.512500X-0.150000X-0.512500X0.150000X-0.512500X0.150000X0.512500X0*%
%ADD22R,0.500000X0.350000*%
%ADD23RoundRect,0.102000X-0.510000X0.520000X-0.510000X-0.520000X0.510000X-0.520000X0.510000X0.520000X0*%
%ADD24RoundRect,0.100000X0.225000X0.100000X-0.225000X0.100000X-0.225000X-0.100000X0.225000X-0.100000X0*%
%ADD25RoundRect,0.135000X0.135000X0.185000X-0.135000X0.185000X-0.135000X-0.185000X0.135000X-0.185000X0*%
%ADD26RoundRect,0.200000X-0.275000X0.200000X-0.275000X-0.200000X0.275000X-0.200000X0.275000X0.200000X0*%
%ADD27RoundRect,0.102000X-0.520000X-0.510000X0.520000X-0.510000X0.520000X0.510000X-0.520000X0.510000X0*%
%ADD28RoundRect,0.200000X0.275000X-0.200000X0.275000X0.200000X-0.275000X0.200000X-0.275000X-0.200000X0*%
%ADD29O,2.200000X3.500000*%
%ADD30R,1.500000X2.500000*%
%ADD31O,1.500000X2.500000*%
%ADD32RoundRect,0.102000X0.350000X1.800000X-0.350000X1.800000X-0.350000X-1.800000X0.350000X-1.800000X0*%
%ADD33RoundRect,0.102000X0.750000X1.150000X-0.750000X1.150000X-0.750000X-1.150000X0.750000X-1.150000X0*%
%ADD34RoundRect,0.250000X0.475000X-0.250000X0.475000X0.250000X-0.475000X0.250000X-0.475000X-0.250000X0*%
%ADD35R,0.500000X0.800000*%
%ADD36R,0.400000X0.800000*%
%ADD37R,1.270000X0.635000*%
%ADD38RoundRect,0.250000X0.250000X0.475000X-0.250000X0.475000X-0.250000X-0.475000X0.250000X-0.475000X0*%
%ADD39R,0.800000X0.500000*%
%ADD40R,0.800000X0.400000*%
%ADD41RoundRect,0.250000X0.450000X-0.262500X0.450000X0.262500X-0.450000X0.262500X-0.450000X-0.262500X0*%
%ADD42RoundRect,0.225000X0.225000X0.250000X-0.225000X0.250000X-0.225000X-0.250000X0.225000X-0.250000X0*%
%ADD43C,1.000000*%
%ADD44RoundRect,0.125000X0.125000X-0.537500X0.125000X0.537500X-0.125000X0.537500X-0.125000X-0.537500X0*%
%ADD45R,1.700000X1.700000*%
%ADD46C,1.700000*%
%ADD47C,0.500000*%
%ADD48C,1.304000*%
G04 APERTURE END LIST*
D10*
%TO.C,J7*%
X77376200Y-32733700D02*
X76023800Y-32733700D01*
X76023800Y-30781300D01*
X77376200Y-30781300D01*
X77376200Y-32733700D01*
G36*
X77376200Y-32733700D02*
G01*
X76023800Y-32733700D01*
X76023800Y-30781300D01*
X77376200Y-30781300D01*
X77376200Y-32733700D01*
G37*
X78376200Y-35133700D02*
X77623800Y-35133700D01*
X77623800Y-33431300D01*
X78376200Y-33431300D01*
X78376200Y-35133700D01*
G36*
X78376200Y-35133700D02*
G01*
X77623800Y-35133700D01*
X77623800Y-33431300D01*
X78376200Y-33431300D01*
X78376200Y-35133700D01*
G37*
X79376200Y-35133700D02*
X78623800Y-35133700D01*
X78623800Y-33431300D01*
X79376200Y-33431300D01*
X79376200Y-35133700D01*
G36*
X79376200Y-35133700D02*
G01*
X78623800Y-35133700D01*
X78623800Y-33431300D01*
X79376200Y-33431300D01*
X79376200Y-35133700D01*
G37*
X80376200Y-35133700D02*
X79623800Y-35133700D01*
X79623800Y-33431300D01*
X80376200Y-33431300D01*
X80376200Y-35133700D01*
G36*
X80376200Y-35133700D02*
G01*
X79623800Y-35133700D01*
X79623800Y-33431300D01*
X80376200Y-33431300D01*
X80376200Y-35133700D01*
G37*
X81376200Y-35133700D02*
X80623800Y-35133700D01*
X80623800Y-33431300D01*
X81376200Y-33431300D01*
X81376200Y-35133700D01*
G36*
X81376200Y-35133700D02*
G01*
X80623800Y-35133700D01*
X80623800Y-33431300D01*
X81376200Y-33431300D01*
X81376200Y-35133700D01*
G37*
X82376200Y-35133700D02*
X81623800Y-35133700D01*
X81623800Y-33431300D01*
X82376200Y-33431300D01*
X82376200Y-35133700D01*
G36*
X82376200Y-35133700D02*
G01*
X81623800Y-35133700D01*
X81623800Y-33431300D01*
X82376200Y-33431300D01*
X82376200Y-35133700D01*
G37*
X83376200Y-35133700D02*
X82623800Y-35133700D01*
X82623800Y-33431300D01*
X83376200Y-33431300D01*
X83376200Y-35133700D01*
G36*
X83376200Y-35133700D02*
G01*
X82623800Y-35133700D01*
X82623800Y-33431300D01*
X83376200Y-33431300D01*
X83376200Y-35133700D01*
G37*
X84976200Y-32733700D02*
X83623800Y-32733700D01*
X83623800Y-30781300D01*
X84976200Y-30781300D01*
X84976200Y-32733700D01*
G36*
X84976200Y-32733700D02*
G01*
X83623800Y-32733700D01*
X83623800Y-30781300D01*
X84976200Y-30781300D01*
X84976200Y-32733700D01*
G37*
%TD*%
D11*
%TO.C,C6*%
X100500000Y-74000000D03*
X102050000Y-74000000D03*
%TD*%
D12*
%TO.C,Q2*%
X102050000Y-85350000D03*
X102050000Y-86000000D03*
X102050000Y-86650000D03*
X103950000Y-86650000D03*
X103950000Y-86000000D03*
X103950000Y-85350000D03*
%TD*%
D13*
%TO.C,D1*%
X90463500Y-61412500D03*
X93663500Y-61412500D03*
X93663500Y-56258500D03*
X90463500Y-56258500D03*
%TD*%
D14*
%TO.C,C7*%
X102317621Y-69412500D03*
D15*
X99817621Y-69412500D03*
%TD*%
D16*
%TO.C,J5*%
X65660000Y-57000000D03*
D17*
X65660000Y-54460000D03*
X63120000Y-57000000D03*
X63120000Y-54460000D03*
X60580000Y-57000000D03*
X60580000Y-54460000D03*
X58040000Y-57000000D03*
X58040000Y-54460000D03*
X55500000Y-57000000D03*
X55500000Y-54460000D03*
%TD*%
D18*
%TO.C,J6*%
X91000000Y-33511000D03*
X92000000Y-33511000D03*
X93000000Y-33511000D03*
X94000000Y-33511000D03*
D19*
X89700000Y-31086000D03*
X95300000Y-31086000D03*
%TD*%
D20*
%TO.C,JP3*%
X93000000Y-76000000D03*
X93000000Y-75000000D03*
%TD*%
D21*
%TO.C,U1*%
X91950000Y-78362500D03*
X91000000Y-78362500D03*
X90050000Y-80637500D03*
X91950000Y-80637500D03*
X90050000Y-78362500D03*
%TD*%
D22*
%TO.C,U5*%
X81500000Y-94450000D03*
X81500000Y-93800000D03*
X81500000Y-93150000D03*
X81500000Y-92500000D03*
X83550000Y-92500000D03*
X83550000Y-93150000D03*
X83550000Y-93800000D03*
X83550000Y-94450000D03*
%TD*%
D18*
%TO.C,J4*%
X66500000Y-37511000D03*
X67500000Y-37511000D03*
X68500000Y-37511000D03*
X69500000Y-37511000D03*
D19*
X65200000Y-35086000D03*
X70800000Y-35086000D03*
%TD*%
D23*
%TO.C,R6*%
X86000000Y-53265000D03*
X86000000Y-54735000D03*
%TD*%
D18*
%TO.C,J9*%
X66500000Y-31511000D03*
X67500000Y-31511000D03*
X68500000Y-31511000D03*
X69500000Y-31511000D03*
D19*
X65200000Y-29086000D03*
X70800000Y-29086000D03*
%TD*%
D24*
%TO.C,Q1*%
X83950000Y-87650000D03*
X83950000Y-87000000D03*
X83950000Y-86350000D03*
X82050000Y-86350000D03*
X82050000Y-87000000D03*
X82050000Y-87650000D03*
%TD*%
D25*
%TO.C,R12*%
X101510000Y-79500000D03*
X100490000Y-79500000D03*
%TD*%
D26*
%TO.C,R7*%
X88500000Y-53175000D03*
X88500000Y-54825000D03*
%TD*%
D27*
%TO.C,R8*%
X97765000Y-53500000D03*
X99235000Y-53500000D03*
%TD*%
D28*
%TO.C,R10*%
X100529004Y-90789070D03*
X100529004Y-89139070D03*
%TD*%
D29*
%TO.C,S1*%
X121100000Y-21500000D03*
X112900000Y-21500000D03*
D30*
X119000000Y-21500000D03*
D31*
X117000000Y-21500000D03*
X115000000Y-21500000D03*
%TD*%
D32*
%TO.C,J3*%
X116000000Y-94950000D03*
X114500000Y-94950000D03*
X113000000Y-94950000D03*
X111500000Y-94950000D03*
X110000000Y-94950000D03*
D33*
X118050000Y-97000000D03*
X107950000Y-97000000D03*
%TD*%
D34*
%TO.C,C2*%
X86000000Y-75950000D03*
X86000000Y-74050000D03*
%TD*%
D35*
%TO.C,R5*%
X100200000Y-56100000D03*
D36*
X99400000Y-56100000D03*
X98600000Y-56100000D03*
D35*
X97800000Y-56100000D03*
X97800000Y-57900000D03*
D36*
X98600000Y-57900000D03*
X99400000Y-57900000D03*
D35*
X100200000Y-57900000D03*
%TD*%
D37*
%TO.C,JP4*%
X103000000Y-90093600D03*
X103000000Y-90906400D03*
%TD*%
D20*
%TO.C,JP2*%
X95500000Y-76000000D03*
X95500000Y-75000000D03*
%TD*%
D38*
%TO.C,C3*%
X86950000Y-79500000D03*
X85050000Y-79500000D03*
%TD*%
D39*
%TO.C,R13*%
X106600000Y-84800000D03*
D40*
X106600000Y-85600000D03*
X106600000Y-86400000D03*
D39*
X106600000Y-87200000D03*
X108400000Y-87200000D03*
D40*
X108400000Y-86400000D03*
X108400000Y-85600000D03*
D39*
X108400000Y-84800000D03*
%TD*%
D41*
%TO.C,R4*%
X98000000Y-86912500D03*
X98000000Y-85087500D03*
%TD*%
D39*
%TO.C,R2*%
X88700000Y-74000000D03*
D40*
X88700000Y-74800000D03*
X88700000Y-75600000D03*
D39*
X88700000Y-76400000D03*
X90500000Y-76400000D03*
D40*
X90500000Y-75600000D03*
X90500000Y-74800000D03*
D39*
X90500000Y-74000000D03*
%TD*%
%TO.C,R1*%
X78000000Y-85700000D03*
D40*
X78000000Y-86500000D03*
X78000000Y-87300000D03*
D39*
X78000000Y-88100000D03*
X79800000Y-88100000D03*
D40*
X79800000Y-87300000D03*
X79800000Y-86500000D03*
D39*
X79800000Y-85700000D03*
%TD*%
D22*
%TO.C,U2*%
X101000000Y-92550000D03*
X101000000Y-93200000D03*
X101000000Y-93850000D03*
X101000000Y-94500000D03*
X98950000Y-94500000D03*
X98950000Y-93850000D03*
X98950000Y-93200000D03*
X98950000Y-92550000D03*
%TD*%
D42*
%TO.C,C1*%
X87050000Y-82500000D03*
X85500000Y-82500000D03*
%TD*%
%TO.C,C8*%
X100775000Y-83000000D03*
X99225000Y-83000000D03*
%TD*%
D18*
%TO.C,J2*%
X116500000Y-37511000D03*
X117500000Y-37511000D03*
X118500000Y-37511000D03*
X119500000Y-37511000D03*
D19*
X115200000Y-35086000D03*
X120800000Y-35086000D03*
%TD*%
D43*
%TO.C,IC1*%
X92795000Y-91295000D03*
X92795000Y-87705000D03*
X89205000Y-87705000D03*
X89205000Y-91295000D03*
%TD*%
D18*
%TO.C,J8*%
X116500000Y-31511000D03*
X117500000Y-31511000D03*
X118500000Y-31511000D03*
X119500000Y-31511000D03*
D19*
X115200000Y-29086000D03*
X120800000Y-29086000D03*
%TD*%
D28*
%TO.C,R9*%
X81500000Y-90825000D03*
X81500000Y-89175000D03*
%TD*%
D37*
%TO.C,JP1*%
X84000000Y-90000000D03*
X84000000Y-91000000D03*
%TD*%
D28*
%TO.C,R3*%
X98000000Y-90325000D03*
X98000000Y-88675000D03*
%TD*%
D25*
%TO.C,R11*%
X101510000Y-77000000D03*
X100490000Y-77000000D03*
%TD*%
D44*
%TO.C,U3*%
X94525000Y-80637500D03*
X95175000Y-80637500D03*
X95825000Y-80637500D03*
X96475000Y-80637500D03*
X96475000Y-78362500D03*
X95825000Y-78362500D03*
X95175000Y-78362500D03*
X94525000Y-78362500D03*
%TD*%
D45*
%TO.C,J1*%
X118660000Y-44960000D03*
D46*
X118660000Y-47500000D03*
X116120000Y-44960000D03*
X116120000Y-47500000D03*
X113580000Y-44960000D03*
X113580000Y-47500000D03*
X111040000Y-44960000D03*
X111040000Y-47500000D03*
X108500000Y-44960000D03*
X108500000Y-47500000D03*
X105960000Y-44960000D03*
X105960000Y-47500000D03*
X103420000Y-44960000D03*
X103420000Y-47500000D03*
X100880000Y-44960000D03*
X100880000Y-47500000D03*
X98340000Y-44960000D03*
X98340000Y-47500000D03*
X95800000Y-44960000D03*
X95800000Y-47500000D03*
X93260000Y-44960000D03*
X93260000Y-47500000D03*
X90720000Y-44960000D03*
X90720000Y-47500000D03*
X88180000Y-44960000D03*
X88180000Y-47500000D03*
X85640000Y-44960000D03*
X85640000Y-47500000D03*
X83100000Y-44960000D03*
X83100000Y-47500000D03*
X80560000Y-44960000D03*
X80560000Y-47500000D03*
X78020000Y-44960000D03*
X78020000Y-47500000D03*
X75480000Y-44960000D03*
X75480000Y-47500000D03*
X72940000Y-44960000D03*
X72940000Y-47500000D03*
X70400000Y-44960000D03*
X70400000Y-47500000D03*
%TD*%
D47*
%TO.C,J11*%
X95943500Y-68912500D03*
X88443500Y-68912500D03*
D48*
X94593500Y-66762500D03*
X89793500Y-66762500D03*
X94593500Y-71062500D03*
X89793500Y-71062500D03*
%TD*%
M02*
