G04 EAGLE Gerber RS-274X export*
G75*
%MOMM*%
%FSLAX34Y34*%
%LPD*%
%INBottom Copper*%
%IPPOS*%
%AMOC8*
5,1,8,0,0,1.08239X$1,22.5*%
G01*
%ADD10R,1.168400X1.600200*%
%ADD11C,3.516000*%
%ADD12R,1.308000X1.308000*%
%ADD13C,1.308000*%
%ADD14R,1.605000X1.605000*%
%ADD15C,1.605000*%
%ADD16C,0.254000*%
%ADD17C,0.800100*%
%ADD18C,0.906400*%

G36*
X224146Y-1254D02*
X224146Y-1254D01*
X224265Y-1247D01*
X224303Y-1234D01*
X224344Y-1229D01*
X224454Y-1186D01*
X224567Y-1149D01*
X224602Y-1127D01*
X224639Y-1112D01*
X224735Y-1043D01*
X224836Y-979D01*
X224864Y-949D01*
X224897Y-926D01*
X224973Y-834D01*
X225054Y-747D01*
X225074Y-712D01*
X225099Y-681D01*
X225150Y-573D01*
X225208Y-469D01*
X225218Y-429D01*
X225235Y-393D01*
X225257Y-276D01*
X225287Y-161D01*
X225291Y-101D01*
X225295Y-81D01*
X225293Y-60D01*
X225297Y0D01*
X225297Y1368D01*
X227558Y3629D01*
X227603Y3687D01*
X227655Y3738D01*
X227700Y3812D01*
X227753Y3880D01*
X227782Y3947D01*
X227820Y4010D01*
X227845Y4093D01*
X227880Y4172D01*
X227891Y4244D01*
X227912Y4314D01*
X227916Y4401D01*
X227930Y4486D01*
X227923Y4559D01*
X227926Y4632D01*
X227908Y4717D01*
X227900Y4803D01*
X227875Y4872D01*
X227860Y4943D01*
X227821Y5021D01*
X227792Y5102D01*
X227751Y5163D01*
X227719Y5228D01*
X227662Y5294D01*
X227614Y5365D01*
X227559Y5414D01*
X227511Y5469D01*
X227440Y5518D01*
X227375Y5576D01*
X227310Y5609D01*
X227250Y5651D01*
X227169Y5681D01*
X227092Y5721D01*
X227021Y5737D01*
X226952Y5762D01*
X226794Y5789D01*
X222379Y6253D01*
X217730Y8937D01*
X217727Y8938D01*
X217725Y8940D01*
X217602Y9000D01*
X217501Y9068D01*
X217492Y9074D01*
X217488Y9076D01*
X217480Y9081D01*
X215129Y10439D01*
X212384Y14216D01*
X212371Y14230D01*
X212361Y14247D01*
X212255Y14368D01*
X212182Y14441D01*
X212162Y14475D01*
X212137Y14540D01*
X212050Y14676D01*
X210208Y17211D01*
X209358Y21213D01*
X209346Y21247D01*
X209341Y21282D01*
X209289Y21435D01*
X209241Y21549D01*
X209241Y21627D01*
X209235Y21679D01*
X209237Y21731D01*
X209214Y21891D01*
X208468Y25400D01*
X209214Y28909D01*
X209218Y28962D01*
X209231Y29012D01*
X209237Y29102D01*
X209239Y29112D01*
X209238Y29123D01*
X209241Y29173D01*
X209241Y29251D01*
X209289Y29365D01*
X209298Y29400D01*
X209314Y29432D01*
X209358Y29587D01*
X210208Y33589D01*
X212050Y36124D01*
X212084Y36185D01*
X212125Y36240D01*
X212186Y36363D01*
X212255Y36432D01*
X212267Y36448D01*
X212282Y36460D01*
X212384Y36584D01*
X215129Y40361D01*
X217480Y41719D01*
X217549Y41771D01*
X217579Y41789D01*
X217581Y41789D01*
X217583Y41791D01*
X217585Y41791D01*
X217730Y41863D01*
X222379Y44547D01*
X230704Y45422D01*
X238666Y42835D01*
X244887Y37234D01*
X248292Y29586D01*
X248292Y27427D01*
X248310Y27290D01*
X248323Y27151D01*
X248330Y27132D01*
X248332Y27112D01*
X248383Y26983D01*
X248430Y26852D01*
X248442Y26835D01*
X248449Y26816D01*
X248531Y26704D01*
X248609Y26589D01*
X248624Y26575D01*
X248636Y26559D01*
X248743Y26470D01*
X248848Y26378D01*
X248866Y26369D01*
X248881Y26356D01*
X249007Y26297D01*
X249131Y26234D01*
X249151Y26229D01*
X249169Y26221D01*
X249305Y26194D01*
X249441Y26164D01*
X249461Y26165D01*
X249481Y26161D01*
X249620Y26169D01*
X249759Y26174D01*
X249778Y26179D01*
X249799Y26181D01*
X249931Y26223D01*
X250064Y26262D01*
X250082Y26272D01*
X250101Y26279D01*
X250219Y26353D01*
X250338Y26424D01*
X250359Y26442D01*
X250370Y26449D01*
X250384Y26464D01*
X250459Y26530D01*
X252632Y28703D01*
X254000Y28703D01*
X254118Y28718D01*
X254237Y28725D01*
X254275Y28738D01*
X254316Y28743D01*
X254426Y28786D01*
X254539Y28823D01*
X254574Y28845D01*
X254611Y28860D01*
X254707Y28929D01*
X254808Y28993D01*
X254836Y29023D01*
X254869Y29046D01*
X254945Y29138D01*
X255026Y29225D01*
X255046Y29260D01*
X255071Y29291D01*
X255122Y29399D01*
X255180Y29503D01*
X255190Y29543D01*
X255207Y29579D01*
X255229Y29696D01*
X255259Y29811D01*
X255263Y29871D01*
X255267Y29891D01*
X255265Y29912D01*
X255269Y29972D01*
X255269Y274828D01*
X255254Y274946D01*
X255247Y275065D01*
X255234Y275103D01*
X255229Y275144D01*
X255186Y275254D01*
X255149Y275367D01*
X255127Y275402D01*
X255112Y275439D01*
X255043Y275535D01*
X254979Y275636D01*
X254949Y275664D01*
X254926Y275697D01*
X254834Y275773D01*
X254747Y275854D01*
X254712Y275874D01*
X254681Y275899D01*
X254573Y275950D01*
X254469Y276008D01*
X254429Y276018D01*
X254393Y276035D01*
X254276Y276057D01*
X254161Y276087D01*
X254101Y276091D01*
X254081Y276095D01*
X254060Y276093D01*
X254000Y276097D01*
X252632Y276097D01*
X250459Y278270D01*
X250349Y278355D01*
X250242Y278444D01*
X250224Y278453D01*
X250208Y278465D01*
X250080Y278520D01*
X249955Y278579D01*
X249935Y278583D01*
X249916Y278591D01*
X249778Y278613D01*
X249642Y278639D01*
X249622Y278638D01*
X249602Y278641D01*
X249463Y278628D01*
X249325Y278619D01*
X249306Y278613D01*
X249285Y278611D01*
X249154Y278564D01*
X249022Y278521D01*
X249005Y278511D01*
X248986Y278504D01*
X248871Y278426D01*
X248754Y278351D01*
X248740Y278337D01*
X248723Y278325D01*
X248631Y278221D01*
X248536Y278120D01*
X248526Y278102D01*
X248512Y278087D01*
X248449Y277963D01*
X248382Y277841D01*
X248377Y277822D01*
X248368Y277804D01*
X248337Y277668D01*
X248303Y277533D01*
X248301Y277505D01*
X248298Y277493D01*
X248299Y277473D01*
X248292Y277373D01*
X248292Y275214D01*
X244887Y267566D01*
X238666Y261965D01*
X230704Y259378D01*
X222379Y260253D01*
X217730Y262937D01*
X217727Y262938D01*
X217725Y262940D01*
X217602Y263000D01*
X217501Y263068D01*
X217492Y263074D01*
X217488Y263076D01*
X217480Y263081D01*
X215129Y264439D01*
X212384Y268216D01*
X212371Y268230D01*
X212361Y268247D01*
X212255Y268368D01*
X212182Y268441D01*
X212162Y268475D01*
X212137Y268540D01*
X212050Y268676D01*
X210208Y271211D01*
X209358Y275213D01*
X209346Y275247D01*
X209341Y275282D01*
X209289Y275435D01*
X209241Y275549D01*
X209241Y275627D01*
X209235Y275679D01*
X209237Y275731D01*
X209214Y275891D01*
X208468Y279400D01*
X209214Y282909D01*
X209218Y282962D01*
X209231Y283012D01*
X209241Y283173D01*
X209241Y283251D01*
X209289Y283365D01*
X209298Y283400D01*
X209314Y283432D01*
X209358Y283587D01*
X210208Y287589D01*
X212050Y290124D01*
X212084Y290185D01*
X212125Y290240D01*
X212186Y290363D01*
X212255Y290432D01*
X212267Y290448D01*
X212282Y290460D01*
X212384Y290584D01*
X215129Y294361D01*
X217480Y295719D01*
X217549Y295771D01*
X217579Y295789D01*
X217581Y295789D01*
X217583Y295791D01*
X217585Y295791D01*
X217730Y295863D01*
X222379Y298547D01*
X226794Y299011D01*
X226865Y299028D01*
X226937Y299035D01*
X227019Y299064D01*
X227103Y299084D01*
X227168Y299117D01*
X227237Y299142D01*
X227308Y299191D01*
X227385Y299231D01*
X227439Y299280D01*
X227500Y299321D01*
X227557Y299386D01*
X227621Y299444D01*
X227662Y299504D01*
X227710Y299559D01*
X227750Y299636D01*
X227798Y299708D01*
X227822Y299777D01*
X227855Y299842D01*
X227874Y299927D01*
X227902Y300009D01*
X227908Y300081D01*
X227924Y300153D01*
X227922Y300239D01*
X227929Y300326D01*
X227917Y300397D01*
X227915Y300471D01*
X227891Y300554D01*
X227876Y300639D01*
X227847Y300706D01*
X227826Y300776D01*
X227782Y300851D01*
X227747Y300930D01*
X227702Y300987D01*
X227665Y301050D01*
X227558Y301171D01*
X225297Y303432D01*
X225297Y304800D01*
X225282Y304918D01*
X225275Y305037D01*
X225262Y305075D01*
X225257Y305116D01*
X225214Y305226D01*
X225177Y305339D01*
X225155Y305374D01*
X225140Y305411D01*
X225071Y305507D01*
X225007Y305608D01*
X224977Y305636D01*
X224954Y305669D01*
X224862Y305745D01*
X224775Y305826D01*
X224740Y305846D01*
X224709Y305871D01*
X224601Y305922D01*
X224497Y305980D01*
X224457Y305990D01*
X224421Y306007D01*
X224304Y306029D01*
X224189Y306059D01*
X224129Y306063D01*
X224109Y306067D01*
X224088Y306065D01*
X224028Y306069D01*
X29972Y306069D01*
X29854Y306054D01*
X29735Y306047D01*
X29697Y306034D01*
X29656Y306029D01*
X29546Y305986D01*
X29433Y305949D01*
X29398Y305927D01*
X29361Y305912D01*
X29265Y305843D01*
X29164Y305779D01*
X29136Y305749D01*
X29103Y305726D01*
X29027Y305634D01*
X28946Y305547D01*
X28926Y305512D01*
X28901Y305481D01*
X28850Y305373D01*
X28792Y305269D01*
X28782Y305229D01*
X28765Y305193D01*
X28743Y305076D01*
X28713Y304961D01*
X28709Y304901D01*
X28705Y304881D01*
X28707Y304860D01*
X28703Y304800D01*
X28703Y303432D01*
X26847Y301576D01*
X26786Y301498D01*
X26718Y301425D01*
X26689Y301372D01*
X26652Y301325D01*
X26612Y301234D01*
X26565Y301147D01*
X26550Y301088D01*
X26526Y301033D01*
X26510Y300935D01*
X26485Y300839D01*
X26485Y300778D01*
X26476Y300719D01*
X26485Y300620D01*
X26485Y300521D01*
X26500Y300462D01*
X26506Y300402D01*
X26539Y300309D01*
X26564Y300213D01*
X26593Y300160D01*
X26613Y300103D01*
X26669Y300021D01*
X26717Y299934D01*
X26758Y299890D01*
X26792Y299840D01*
X26866Y299774D01*
X26934Y299702D01*
X26985Y299669D01*
X27030Y299629D01*
X27119Y299584D01*
X27203Y299531D01*
X27295Y299494D01*
X27313Y299485D01*
X27326Y299482D01*
X27352Y299472D01*
X35466Y296835D01*
X41687Y291234D01*
X45092Y283586D01*
X45092Y275214D01*
X41687Y267566D01*
X35466Y261965D01*
X27504Y259378D01*
X19179Y260253D01*
X14530Y262937D01*
X14527Y262938D01*
X14525Y262940D01*
X14402Y263000D01*
X14301Y263068D01*
X14292Y263074D01*
X14288Y263076D01*
X14280Y263081D01*
X11929Y264439D01*
X9184Y268216D01*
X9171Y268230D01*
X9161Y268247D01*
X9055Y268368D01*
X8982Y268441D01*
X8962Y268475D01*
X8937Y268540D01*
X8850Y268676D01*
X7008Y271211D01*
X6158Y275213D01*
X6146Y275247D01*
X6141Y275282D01*
X6089Y275435D01*
X6041Y275549D01*
X6041Y275627D01*
X6035Y275679D01*
X6037Y275731D01*
X6014Y275891D01*
X5649Y277606D01*
X5647Y277612D01*
X5646Y277618D01*
X5594Y277764D01*
X5544Y277906D01*
X5541Y277911D01*
X5539Y277917D01*
X5453Y278044D01*
X5369Y278171D01*
X5364Y278175D01*
X5360Y278181D01*
X5246Y278281D01*
X5132Y278384D01*
X5127Y278387D01*
X5122Y278391D01*
X4987Y278460D01*
X4850Y278531D01*
X4844Y278533D01*
X4838Y278536D01*
X4690Y278569D01*
X4541Y278604D01*
X4534Y278604D01*
X4528Y278605D01*
X4375Y278601D01*
X4223Y278598D01*
X4217Y278596D01*
X4210Y278596D01*
X4063Y278553D01*
X3917Y278512D01*
X3911Y278509D01*
X3905Y278507D01*
X3774Y278430D01*
X3641Y278353D01*
X3636Y278349D01*
X3631Y278346D01*
X3510Y278239D01*
X1368Y276097D01*
X0Y276097D01*
X-118Y276082D01*
X-237Y276075D01*
X-275Y276062D01*
X-316Y276057D01*
X-426Y276014D01*
X-539Y275977D01*
X-574Y275955D01*
X-611Y275940D01*
X-707Y275871D01*
X-808Y275807D01*
X-836Y275777D01*
X-869Y275754D01*
X-945Y275662D01*
X-1026Y275575D01*
X-1046Y275540D01*
X-1071Y275509D01*
X-1122Y275401D01*
X-1180Y275297D01*
X-1190Y275257D01*
X-1207Y275221D01*
X-1229Y275104D01*
X-1259Y274989D01*
X-1263Y274929D01*
X-1267Y274909D01*
X-1265Y274888D01*
X-1269Y274828D01*
X-1269Y29972D01*
X-1254Y29854D01*
X-1247Y29735D01*
X-1234Y29697D01*
X-1229Y29656D01*
X-1186Y29546D01*
X-1149Y29433D01*
X-1127Y29398D01*
X-1112Y29361D01*
X-1043Y29265D01*
X-979Y29164D01*
X-949Y29136D01*
X-926Y29103D01*
X-834Y29027D01*
X-747Y28946D01*
X-712Y28926D01*
X-681Y28901D01*
X-573Y28850D01*
X-469Y28792D01*
X-429Y28782D01*
X-393Y28765D01*
X-276Y28743D01*
X-161Y28713D01*
X-101Y28709D01*
X-81Y28705D01*
X-60Y28707D01*
X0Y28703D01*
X1368Y28703D01*
X3510Y26561D01*
X3515Y26557D01*
X3519Y26552D01*
X3640Y26460D01*
X3761Y26366D01*
X3767Y26363D01*
X3772Y26359D01*
X3912Y26300D01*
X4053Y26239D01*
X4060Y26238D01*
X4065Y26236D01*
X4215Y26214D01*
X4367Y26190D01*
X4374Y26190D01*
X4380Y26189D01*
X4530Y26205D01*
X4684Y26219D01*
X4690Y26222D01*
X4696Y26222D01*
X4839Y26275D01*
X4983Y26327D01*
X4988Y26331D01*
X4994Y26333D01*
X5120Y26420D01*
X5246Y26506D01*
X5251Y26510D01*
X5256Y26514D01*
X5356Y26630D01*
X5457Y26744D01*
X5460Y26750D01*
X5464Y26755D01*
X5532Y26891D01*
X5601Y27027D01*
X5603Y27034D01*
X5606Y27039D01*
X5649Y27194D01*
X6014Y28909D01*
X6018Y28962D01*
X6031Y29012D01*
X6037Y29102D01*
X6039Y29112D01*
X6038Y29123D01*
X6041Y29173D01*
X6041Y29251D01*
X6089Y29365D01*
X6098Y29400D01*
X6114Y29432D01*
X6158Y29587D01*
X7008Y33589D01*
X8850Y36124D01*
X8884Y36185D01*
X8925Y36240D01*
X8986Y36363D01*
X9055Y36432D01*
X9067Y36448D01*
X9082Y36460D01*
X9184Y36584D01*
X11929Y40361D01*
X14280Y41719D01*
X14349Y41771D01*
X14379Y41789D01*
X14381Y41789D01*
X14383Y41791D01*
X14385Y41791D01*
X14530Y41863D01*
X19179Y44547D01*
X27504Y45422D01*
X35466Y42835D01*
X41687Y37234D01*
X45092Y29586D01*
X45092Y21214D01*
X41687Y13566D01*
X35466Y7965D01*
X27352Y5328D01*
X27262Y5286D01*
X27169Y5253D01*
X27119Y5219D01*
X27064Y5193D01*
X26988Y5130D01*
X26906Y5074D01*
X26866Y5029D01*
X26819Y4990D01*
X26761Y4910D01*
X26695Y4836D01*
X26668Y4782D01*
X26632Y4733D01*
X26596Y4641D01*
X26551Y4552D01*
X26537Y4494D01*
X26515Y4438D01*
X26503Y4339D01*
X26481Y4242D01*
X26483Y4182D01*
X26475Y4122D01*
X26488Y4024D01*
X26491Y3924D01*
X26507Y3866D01*
X26515Y3806D01*
X26551Y3714D01*
X26579Y3619D01*
X26610Y3567D01*
X26632Y3511D01*
X26690Y3430D01*
X26741Y3345D01*
X26807Y3270D01*
X26818Y3253D01*
X26828Y3245D01*
X26847Y3224D01*
X28703Y1368D01*
X28703Y0D01*
X28718Y-118D01*
X28725Y-237D01*
X28738Y-275D01*
X28743Y-316D01*
X28786Y-426D01*
X28823Y-539D01*
X28845Y-574D01*
X28860Y-611D01*
X28929Y-707D01*
X28993Y-808D01*
X29023Y-836D01*
X29046Y-869D01*
X29138Y-945D01*
X29225Y-1026D01*
X29260Y-1046D01*
X29291Y-1071D01*
X29399Y-1122D01*
X29503Y-1180D01*
X29543Y-1190D01*
X29579Y-1207D01*
X29696Y-1229D01*
X29811Y-1259D01*
X29871Y-1263D01*
X29891Y-1267D01*
X29912Y-1265D01*
X29972Y-1269D01*
X224028Y-1269D01*
X224146Y-1254D01*
G37*
%LPC*%
G36*
X182895Y45759D02*
X182895Y45759D01*
X180575Y46720D01*
X178800Y48495D01*
X177839Y50815D01*
X177839Y53325D01*
X178800Y55645D01*
X180575Y57420D01*
X182895Y58381D01*
X185405Y58381D01*
X187725Y57420D01*
X189400Y55744D01*
X189479Y55684D01*
X189551Y55616D01*
X189604Y55587D01*
X189652Y55550D01*
X189742Y55510D01*
X189829Y55462D01*
X189888Y55447D01*
X189943Y55423D01*
X190041Y55408D01*
X190137Y55383D01*
X190237Y55377D01*
X190257Y55373D01*
X190270Y55375D01*
X190298Y55373D01*
X191770Y55373D01*
X191888Y55388D01*
X192007Y55395D01*
X192045Y55408D01*
X192086Y55413D01*
X192196Y55456D01*
X192309Y55493D01*
X192344Y55515D01*
X192381Y55530D01*
X192477Y55599D01*
X192578Y55663D01*
X192606Y55693D01*
X192639Y55716D01*
X192715Y55808D01*
X192796Y55895D01*
X192816Y55930D01*
X192841Y55961D01*
X192892Y56069D01*
X192950Y56173D01*
X192960Y56213D01*
X192977Y56249D01*
X192999Y56366D01*
X193029Y56481D01*
X193033Y56541D01*
X193037Y56561D01*
X193035Y56582D01*
X193039Y56642D01*
X193039Y64210D01*
X193022Y64348D01*
X193009Y64487D01*
X193002Y64506D01*
X192999Y64526D01*
X192948Y64655D01*
X192901Y64786D01*
X192890Y64803D01*
X192882Y64822D01*
X192801Y64934D01*
X192723Y65049D01*
X192707Y65062D01*
X192696Y65079D01*
X192588Y65168D01*
X192484Y65260D01*
X192466Y65269D01*
X192451Y65282D01*
X192325Y65341D01*
X192201Y65404D01*
X192181Y65409D01*
X192163Y65417D01*
X192027Y65443D01*
X191891Y65474D01*
X191870Y65473D01*
X191851Y65477D01*
X191712Y65468D01*
X191573Y65464D01*
X191553Y65458D01*
X191533Y65457D01*
X191401Y65414D01*
X191267Y65376D01*
X191250Y65365D01*
X191231Y65359D01*
X191113Y65285D01*
X190993Y65214D01*
X190972Y65196D01*
X190962Y65189D01*
X190948Y65174D01*
X190873Y65108D01*
X188995Y63230D01*
X186675Y62269D01*
X184165Y62269D01*
X181845Y63230D01*
X180070Y65005D01*
X179109Y67325D01*
X179109Y69835D01*
X180070Y72155D01*
X181845Y73930D01*
X184165Y74891D01*
X186534Y74891D01*
X186632Y74903D01*
X186731Y74906D01*
X186790Y74923D01*
X186850Y74931D01*
X186942Y74967D01*
X187037Y74995D01*
X187089Y75025D01*
X187145Y75048D01*
X187225Y75106D01*
X187311Y75156D01*
X187386Y75222D01*
X187403Y75234D01*
X187411Y75244D01*
X187432Y75262D01*
X192668Y80498D01*
X192728Y80577D01*
X192796Y80649D01*
X192825Y80702D01*
X192862Y80750D01*
X192902Y80841D01*
X192950Y80927D01*
X192965Y80986D01*
X192989Y81041D01*
X193004Y81139D01*
X193029Y81235D01*
X193035Y81335D01*
X193039Y81356D01*
X193037Y81368D01*
X193039Y81396D01*
X193039Y87478D01*
X194081Y88520D01*
X207239Y88520D01*
X207383Y88376D01*
X207477Y88303D01*
X207566Y88224D01*
X207602Y88206D01*
X207634Y88181D01*
X207743Y88134D01*
X207849Y88080D01*
X207889Y88071D01*
X207926Y88055D01*
X208043Y88036D01*
X208159Y88010D01*
X208200Y88011D01*
X208240Y88005D01*
X208359Y88016D01*
X208477Y88020D01*
X208516Y88031D01*
X208556Y88035D01*
X208669Y88075D01*
X208783Y88108D01*
X208818Y88129D01*
X208856Y88142D01*
X208954Y88209D01*
X209057Y88270D01*
X209102Y88309D01*
X209119Y88321D01*
X209132Y88336D01*
X209178Y88376D01*
X209321Y88520D01*
X216408Y88520D01*
X216526Y88535D01*
X216645Y88542D01*
X216683Y88555D01*
X216724Y88560D01*
X216834Y88603D01*
X216947Y88640D01*
X216982Y88662D01*
X217019Y88677D01*
X217115Y88746D01*
X217216Y88810D01*
X217244Y88840D01*
X217277Y88863D01*
X217353Y88955D01*
X217434Y89042D01*
X217454Y89077D01*
X217479Y89108D01*
X217530Y89216D01*
X217588Y89320D01*
X217598Y89360D01*
X217615Y89396D01*
X217637Y89513D01*
X217667Y89628D01*
X217671Y89688D01*
X217675Y89708D01*
X217673Y89729D01*
X217677Y89789D01*
X217677Y91124D01*
X217665Y91222D01*
X217662Y91321D01*
X217645Y91379D01*
X217637Y91439D01*
X217601Y91532D01*
X217573Y91627D01*
X217543Y91679D01*
X217520Y91735D01*
X217462Y91815D01*
X217412Y91901D01*
X217346Y91976D01*
X217334Y91992D01*
X217324Y92000D01*
X217306Y92021D01*
X216081Y93246D01*
X215201Y95370D01*
X215201Y97670D01*
X216081Y99794D01*
X217706Y101419D01*
X219830Y102299D01*
X222130Y102299D01*
X224254Y101419D01*
X225879Y99794D01*
X226759Y97670D01*
X226759Y95370D01*
X225879Y93246D01*
X224654Y92021D01*
X224594Y91943D01*
X224526Y91871D01*
X224497Y91818D01*
X224460Y91770D01*
X224420Y91679D01*
X224372Y91593D01*
X224357Y91534D01*
X224333Y91478D01*
X224318Y91380D01*
X224293Y91285D01*
X224287Y91185D01*
X224283Y91164D01*
X224285Y91152D01*
X224283Y91124D01*
X224283Y84992D01*
X223892Y84602D01*
X223832Y84523D01*
X223764Y84451D01*
X223735Y84398D01*
X223698Y84350D01*
X223658Y84259D01*
X223610Y84173D01*
X223595Y84114D01*
X223571Y84059D01*
X223556Y83961D01*
X223531Y83865D01*
X223525Y83765D01*
X223521Y83744D01*
X223523Y83732D01*
X223521Y83704D01*
X223521Y70002D01*
X222361Y68842D01*
X222288Y68748D01*
X222209Y68659D01*
X222191Y68623D01*
X222166Y68591D01*
X222119Y68482D01*
X222065Y68376D01*
X222056Y68337D01*
X222040Y68299D01*
X222021Y68182D01*
X221995Y68066D01*
X221996Y68025D01*
X221990Y67985D01*
X222001Y67867D01*
X222005Y67748D01*
X222016Y67709D01*
X222020Y67669D01*
X222060Y67557D01*
X222093Y67442D01*
X222114Y67407D01*
X222127Y67369D01*
X222194Y67271D01*
X222255Y67168D01*
X222294Y67123D01*
X222306Y67106D01*
X222321Y67093D01*
X222361Y67047D01*
X223521Y65888D01*
X223521Y48412D01*
X222479Y47370D01*
X209321Y47370D01*
X209178Y47514D01*
X209083Y47587D01*
X208994Y47666D01*
X208958Y47684D01*
X208926Y47709D01*
X208817Y47756D01*
X208711Y47810D01*
X208672Y47819D01*
X208634Y47835D01*
X208517Y47854D01*
X208401Y47880D01*
X208360Y47879D01*
X208320Y47885D01*
X208202Y47874D01*
X208083Y47870D01*
X208044Y47859D01*
X208004Y47855D01*
X207892Y47815D01*
X207777Y47782D01*
X207742Y47761D01*
X207704Y47748D01*
X207606Y47681D01*
X207503Y47620D01*
X207458Y47581D01*
X207441Y47569D01*
X207428Y47554D01*
X207383Y47514D01*
X207239Y47370D01*
X194081Y47370D01*
X193056Y48396D01*
X192978Y48456D01*
X192906Y48524D01*
X192853Y48553D01*
X192805Y48590D01*
X192714Y48630D01*
X192627Y48678D01*
X192569Y48693D01*
X192513Y48717D01*
X192415Y48732D01*
X192319Y48757D01*
X192219Y48763D01*
X192199Y48767D01*
X192186Y48765D01*
X192158Y48767D01*
X190298Y48767D01*
X190200Y48755D01*
X190100Y48752D01*
X190042Y48735D01*
X189982Y48727D01*
X189890Y48691D01*
X189795Y48663D01*
X189743Y48633D01*
X189687Y48610D01*
X189606Y48552D01*
X189521Y48502D01*
X189446Y48436D01*
X189429Y48424D01*
X189421Y48414D01*
X189400Y48396D01*
X187725Y46720D01*
X185405Y45759D01*
X182895Y45759D01*
G37*
%LPD*%
%LPC*%
G36*
X82670Y172021D02*
X82670Y172021D01*
X80546Y172901D01*
X78921Y174526D01*
X78041Y176650D01*
X78041Y178152D01*
X78026Y178270D01*
X78018Y178389D01*
X78006Y178427D01*
X78001Y178468D01*
X77957Y178578D01*
X77920Y178691D01*
X77899Y178726D01*
X77884Y178763D01*
X77814Y178859D01*
X77750Y178960D01*
X77721Y178988D01*
X77697Y179021D01*
X77605Y179097D01*
X77519Y179178D01*
X77483Y179198D01*
X77452Y179223D01*
X77344Y179274D01*
X77240Y179332D01*
X77201Y179342D01*
X77164Y179359D01*
X77048Y179381D01*
X76932Y179411D01*
X76872Y179415D01*
X76852Y179419D01*
X76832Y179417D01*
X76772Y179421D01*
X62793Y179421D01*
X61751Y180463D01*
X61751Y195017D01*
X62793Y196059D01*
X77347Y196059D01*
X78389Y195017D01*
X78389Y183606D01*
X78406Y183468D01*
X78419Y183330D01*
X78426Y183311D01*
X78429Y183290D01*
X78480Y183161D01*
X78527Y183030D01*
X78538Y183014D01*
X78546Y182995D01*
X78627Y182882D01*
X78705Y182767D01*
X78721Y182754D01*
X78732Y182737D01*
X78840Y182649D01*
X78944Y182557D01*
X78962Y182548D01*
X78977Y182535D01*
X79103Y182475D01*
X79227Y182412D01*
X79247Y182408D01*
X79265Y182399D01*
X79402Y182373D01*
X79537Y182343D01*
X79558Y182343D01*
X79577Y182339D01*
X79716Y182348D01*
X79855Y182352D01*
X79875Y182358D01*
X79895Y182359D01*
X80027Y182402D01*
X80161Y182441D01*
X80178Y182451D01*
X80197Y182457D01*
X80315Y182531D01*
X80435Y182602D01*
X80456Y182621D01*
X80466Y182627D01*
X80480Y182642D01*
X80544Y182698D01*
X82670Y183579D01*
X84970Y183579D01*
X87094Y182699D01*
X88719Y181074D01*
X89599Y178950D01*
X89599Y176650D01*
X88719Y174526D01*
X87094Y172901D01*
X84970Y172021D01*
X82670Y172021D01*
G37*
%LPD*%
%LPC*%
G36*
X124588Y201016D02*
X124588Y201016D01*
X123546Y202058D01*
X123546Y219582D01*
X124588Y220624D01*
X142112Y220624D01*
X143154Y219582D01*
X143154Y202058D01*
X142112Y201016D01*
X124588Y201016D01*
G37*
%LPD*%
%LPC*%
G36*
X131400Y226416D02*
X131400Y226416D01*
X127797Y227909D01*
X125039Y230667D01*
X123546Y234270D01*
X123546Y238170D01*
X125039Y241773D01*
X127797Y244531D01*
X131400Y246024D01*
X135300Y246024D01*
X138903Y244531D01*
X141661Y241773D01*
X143154Y238170D01*
X143154Y234270D01*
X141661Y230667D01*
X138903Y227909D01*
X135300Y226416D01*
X131400Y226416D01*
G37*
%LPD*%
%LPC*%
G36*
X68415Y215421D02*
X68415Y215421D01*
X65358Y216688D01*
X63018Y219028D01*
X61751Y222085D01*
X61751Y225395D01*
X63018Y228452D01*
X65358Y230792D01*
X68415Y232059D01*
X71725Y232059D01*
X74782Y230792D01*
X77122Y228452D01*
X78389Y225395D01*
X78389Y222085D01*
X77122Y219028D01*
X74782Y216688D01*
X71725Y215421D01*
X68415Y215421D01*
G37*
%LPD*%
%LPC*%
G36*
X32415Y215421D02*
X32415Y215421D01*
X29358Y216688D01*
X27018Y219028D01*
X25751Y222085D01*
X25751Y225395D01*
X27018Y228452D01*
X29358Y230792D01*
X32415Y232059D01*
X35725Y232059D01*
X38782Y230792D01*
X41122Y228452D01*
X42389Y225395D01*
X42389Y222085D01*
X41122Y219028D01*
X38782Y216688D01*
X35725Y215421D01*
X32415Y215421D01*
G37*
%LPD*%
%LPC*%
G36*
X238759Y213359D02*
X238759Y213359D01*
X238759Y221386D01*
X244579Y221386D01*
X245226Y221213D01*
X245805Y220878D01*
X246278Y220405D01*
X246613Y219826D01*
X246786Y219179D01*
X246786Y213359D01*
X238759Y213359D01*
G37*
%LPD*%
%LPC*%
G36*
X225654Y213359D02*
X225654Y213359D01*
X225654Y219179D01*
X225827Y219826D01*
X226162Y220405D01*
X226635Y220878D01*
X227214Y221213D01*
X227861Y221386D01*
X233681Y221386D01*
X233681Y213359D01*
X225654Y213359D01*
G37*
%LPD*%
%LPC*%
G36*
X238759Y200254D02*
X238759Y200254D01*
X238759Y208281D01*
X246786Y208281D01*
X246786Y202461D01*
X246613Y201814D01*
X246278Y201235D01*
X245805Y200762D01*
X245226Y200427D01*
X244579Y200254D01*
X238759Y200254D01*
G37*
%LPD*%
%LPC*%
G36*
X227861Y200254D02*
X227861Y200254D01*
X227214Y200427D01*
X226635Y200762D01*
X226162Y201235D01*
X225827Y201814D01*
X225654Y202461D01*
X225654Y208281D01*
X233681Y208281D01*
X233681Y200254D01*
X227861Y200254D01*
G37*
%LPD*%
%LPC*%
G36*
X238759Y238759D02*
X238759Y238759D01*
X238759Y246504D01*
X240276Y246012D01*
X241758Y245257D01*
X243103Y244279D01*
X244279Y243103D01*
X245257Y241758D01*
X246012Y240276D01*
X246504Y238759D01*
X238759Y238759D01*
G37*
%LPD*%
%LPC*%
G36*
X225936Y238759D02*
X225936Y238759D01*
X226428Y240276D01*
X227183Y241758D01*
X228161Y243103D01*
X229337Y244279D01*
X230682Y245257D01*
X232164Y246012D01*
X233681Y246504D01*
X233681Y238759D01*
X225936Y238759D01*
G37*
%LPD*%
%LPC*%
G36*
X238759Y233681D02*
X238759Y233681D01*
X246504Y233681D01*
X246012Y232164D01*
X245257Y230682D01*
X244279Y229337D01*
X243103Y228161D01*
X241758Y227183D01*
X240276Y226428D01*
X238759Y225936D01*
X238759Y233681D01*
G37*
%LPD*%
%LPC*%
G36*
X232164Y226428D02*
X232164Y226428D01*
X230682Y227183D01*
X229337Y228161D01*
X228161Y229337D01*
X227183Y230682D01*
X226428Y232164D01*
X225936Y233681D01*
X233681Y233681D01*
X233681Y225936D01*
X232164Y226428D01*
G37*
%LPD*%
%LPC*%
G36*
X36069Y189739D02*
X36069Y189739D01*
X36069Y196617D01*
X36196Y196597D01*
X37556Y196155D01*
X38829Y195507D01*
X39986Y194666D01*
X40996Y193656D01*
X41837Y192499D01*
X42485Y191226D01*
X42927Y189866D01*
X42947Y189739D01*
X36069Y189739D01*
G37*
%LPD*%
%LPC*%
G36*
X25193Y189739D02*
X25193Y189739D01*
X25213Y189866D01*
X25655Y191226D01*
X26303Y192499D01*
X27144Y193656D01*
X28154Y194666D01*
X29311Y195507D01*
X30584Y196155D01*
X31944Y196597D01*
X32071Y196617D01*
X32071Y189739D01*
X25193Y189739D01*
G37*
%LPD*%
%LPC*%
G36*
X36069Y185741D02*
X36069Y185741D01*
X42947Y185741D01*
X42927Y185614D01*
X42485Y184254D01*
X41837Y182981D01*
X40996Y181824D01*
X39986Y180814D01*
X38829Y179973D01*
X37556Y179325D01*
X36196Y178883D01*
X36069Y178863D01*
X36069Y185741D01*
G37*
%LPD*%
%LPC*%
G36*
X31944Y178883D02*
X31944Y178883D01*
X30584Y179325D01*
X29311Y179973D01*
X28154Y180814D01*
X27144Y181824D01*
X26303Y182981D01*
X25655Y184254D01*
X25213Y185614D01*
X25193Y185741D01*
X32071Y185741D01*
X32071Y178863D01*
X31944Y178883D01*
G37*
%LPD*%
%LPC*%
G36*
X101600Y25399D02*
X101600Y25399D01*
X101599Y25400D01*
X101599Y30480D01*
X101600Y30481D01*
X102870Y30481D01*
X102871Y30480D01*
X102871Y25400D01*
X102870Y25399D01*
X101600Y25399D01*
G37*
%LPD*%
%LPC*%
G36*
X236219Y210819D02*
X236219Y210819D01*
X236219Y210821D01*
X236221Y210821D01*
X236221Y210819D01*
X236219Y210819D01*
G37*
%LPD*%
%LPC*%
G36*
X236219Y236219D02*
X236219Y236219D01*
X236219Y236221D01*
X236221Y236221D01*
X236221Y236219D01*
X236219Y236219D01*
G37*
%LPD*%
D10*
X215900Y57150D03*
X200660Y57150D03*
X215900Y78740D03*
X200660Y78740D03*
D11*
X25400Y279400D03*
X228600Y279400D03*
X25400Y25400D03*
X228600Y25400D03*
D12*
X70070Y187740D03*
D13*
X70070Y223740D03*
X34070Y223740D03*
X34070Y187740D03*
D14*
X133350Y210820D03*
D15*
X133350Y236220D03*
D14*
X236220Y210820D03*
D15*
X236220Y236220D03*
D16*
X215900Y78740D02*
X215900Y57150D01*
X215900Y78740D02*
X215900Y81280D01*
X220980Y86360D01*
X220980Y96520D01*
D17*
X220980Y96520D03*
X66040Y71120D03*
X33020Y55880D03*
D16*
X66040Y71120D02*
X66040Y88900D01*
X76200Y99060D01*
X96520Y99060D01*
D17*
X96520Y99060D03*
D16*
X144780Y55880D02*
X33020Y55880D01*
D17*
X144780Y55880D03*
D16*
X66040Y71120D02*
X50800Y55880D01*
X33020Y55880D01*
X96520Y99060D02*
X139700Y142240D01*
X236220Y142240D01*
D17*
X236220Y142240D03*
D18*
X185420Y68580D03*
D16*
X195580Y78740D01*
X200660Y78740D01*
D18*
X184150Y52070D03*
D16*
X195580Y52070D02*
X200660Y57150D01*
X195580Y52070D02*
X184150Y52070D01*
D17*
X83820Y177800D03*
M02*
