%TF.GenerationSoftware,KiCad,Pcbnew,10.0.3*%
%TF.CreationDate,2026-07-23T14:52:00-05:00*%
%TF.ProjectId,Dream_V3,44726561-6d5f-4563-932e-6b696361645f,rev?*%
%TF.SameCoordinates,Original*%
%TF.FileFunction,Copper,L1,Top*%
%TF.FilePolarity,Positive*%
%FSLAX46Y46*%
G04 Gerber Fmt 4.6, Leading zero omitted, Abs format (unit mm)*
G04 Created by KiCad (PCBNEW 10.0.3) date 2026-07-23 14:52:00*
%MOMM*%
%LPD*%
G01*
G04 APERTURE LIST*
G04 Aperture macros list*
%AMRoundRect*
0 Rectangle with rounded corners*
0 $1 Rounding radius*
0 $2 $3 $4 $5 $6 $7 $8 $9 X,Y pos of 4 corners*
0 Add a 4 corners polygon primitive as box body*
4,1,4,$2,$3,$4,$5,$6,$7,$8,$9,$2,$3,0*
0 Add four circle primitives for the rounded corners*
1,1,$1+$1,$2,$3*
1,1,$1+$1,$4,$5*
1,1,$1+$1,$6,$7*
1,1,$1+$1,$8,$9*
0 Add four rect primitives between the rounded corners*
20,1,$1+$1,$2,$3,$4,$5,0*
20,1,$1+$1,$4,$5,$6,$7,0*
20,1,$1+$1,$6,$7,$8,$9,0*
20,1,$1+$1,$8,$9,$2,$3,0*%
G04 Aperture macros list end*
%TA.AperFunction,SMDPad,CuDef*%
%ADD10RoundRect,0.225000X-0.225000X-0.250000X0.225000X-0.250000X0.225000X0.250000X-0.225000X0.250000X0*%
%TD*%
%TA.AperFunction,SMDPad,CuDef*%
%ADD11RoundRect,0.100000X-0.225000X-0.100000X0.225000X-0.100000X0.225000X0.100000X-0.225000X0.100000X0*%
%TD*%
%TA.AperFunction,SMDPad,CuDef*%
%ADD12R,1.000000X1.651000*%
%TD*%
%TA.AperFunction,ComponentPad*%
%ADD13C,1.508000*%
%TD*%
%TA.AperFunction,ComponentPad*%
%ADD14R,1.508000X1.508000*%
%TD*%
%TA.AperFunction,SMDPad,CuDef*%
%ADD15R,0.600000X1.550000*%
%TD*%
%TA.AperFunction,SMDPad,CuDef*%
%ADD16R,1.200000X2.000000*%
%TD*%
%TA.AperFunction,SMDPad,CuDef*%
%ADD17RoundRect,0.150000X-0.150000X0.512500X-0.150000X-0.512500X0.150000X-0.512500X0.150000X0.512500X0*%
%TD*%
%TA.AperFunction,SMDPad,CuDef*%
%ADD18R,0.500000X0.350000*%
%TD*%
%TA.AperFunction,SMDPad,CuDef*%
%ADD19R,1.020000X1.040000*%
%TD*%
%TA.AperFunction,SMDPad,CuDef*%
%ADD20RoundRect,0.100000X-0.100000X0.225000X-0.100000X-0.225000X0.100000X-0.225000X0.100000X0.225000X0*%
%TD*%
%TA.AperFunction,SMDPad,CuDef*%
%ADD21RoundRect,0.200000X-0.200000X-0.275000X0.200000X-0.275000X0.200000X0.275000X-0.200000X0.275000X0*%
%TD*%
%TA.AperFunction,SMDPad,CuDef*%
%ADD22R,1.200000X1.800000*%
%TD*%
%TA.AperFunction,SMDPad,CuDef*%
%ADD23O,1.350000X0.299999*%
%TD*%
%TA.AperFunction,SMDPad,CuDef*%
%ADD24RoundRect,0.200000X-0.275000X0.200000X-0.275000X-0.200000X0.275000X-0.200000X0.275000X0.200000X0*%
%TD*%
%TA.AperFunction,SMDPad,CuDef*%
%ADD25RoundRect,0.100000X0.225000X0.100000X-0.225000X0.100000X-0.225000X-0.100000X0.225000X-0.100000X0*%
%TD*%
%TA.AperFunction,SMDPad,CuDef*%
%ADD26R,1.040000X1.020000*%
%TD*%
%TA.AperFunction,SMDPad,CuDef*%
%ADD27RoundRect,0.200000X0.275000X-0.200000X0.275000X0.200000X-0.275000X0.200000X-0.275000X-0.200000X0*%
%TD*%
%TA.AperFunction,SMDPad,CuDef*%
%ADD28R,0.900000X0.800000*%
%TD*%
%TA.AperFunction,SMDPad,CuDef*%
%ADD29R,0.700000X3.600000*%
%TD*%
%TA.AperFunction,SMDPad,CuDef*%
%ADD30R,1.500000X2.300000*%
%TD*%
%TA.AperFunction,SMDPad,CuDef*%
%ADD31RoundRect,0.250000X0.475000X-0.250000X0.475000X0.250000X-0.475000X0.250000X-0.475000X-0.250000X0*%
%TD*%
%TA.AperFunction,SMDPad,CuDef*%
%ADD32R,0.500000X0.800000*%
%TD*%
%TA.AperFunction,SMDPad,CuDef*%
%ADD33R,0.400000X0.800000*%
%TD*%
%TA.AperFunction,SMDPad,CuDef*%
%ADD34R,1.270000X0.635000*%
%TD*%
%TA.AperFunction,SMDPad,CuDef*%
%ADD35R,1.000000X0.500000*%
%TD*%
%TA.AperFunction,SMDPad,CuDef*%
%ADD36RoundRect,0.250000X0.250000X0.475000X-0.250000X0.475000X-0.250000X-0.475000X0.250000X-0.475000X0*%
%TD*%
%TA.AperFunction,SMDPad,CuDef*%
%ADD37R,0.800000X0.500000*%
%TD*%
%TA.AperFunction,SMDPad,CuDef*%
%ADD38R,0.800000X0.400000*%
%TD*%
%TA.AperFunction,SMDPad,CuDef*%
%ADD39RoundRect,0.225000X0.225000X0.250000X-0.225000X0.250000X-0.225000X-0.250000X0.225000X-0.250000X0*%
%TD*%
%TA.AperFunction,ComponentPad*%
%ADD40C,1.400000*%
%TD*%
%TA.AperFunction,ComponentPad*%
%ADD41R,1.298000X1.298000*%
%TD*%
%TA.AperFunction,ComponentPad*%
%ADD42C,1.298000*%
%TD*%
%TA.AperFunction,ComponentPad*%
%ADD43C,1.635000*%
%TD*%
%TA.AperFunction,SMDPad,CuDef*%
%ADD44RoundRect,0.197500X-1.402500X-0.592500X1.402500X-0.592500X1.402500X0.592500X-1.402500X0.592500X0*%
%TD*%
%TA.AperFunction,SMDPad,CuDef*%
%ADD45RoundRect,0.200000X0.200000X0.275000X-0.200000X0.275000X-0.200000X-0.275000X0.200000X-0.275000X0*%
%TD*%
%TA.AperFunction,ComponentPad*%
%ADD46C,2.100000*%
%TD*%
%TA.AperFunction,ComponentPad*%
%ADD47R,1.700000X1.700000*%
%TD*%
%TA.AperFunction,ComponentPad*%
%ADD48C,1.700000*%
%TD*%
%TA.AperFunction,ComponentPad*%
%ADD49C,1.100000*%
%TD*%
%TA.AperFunction,ViaPad*%
%ADD50C,0.600000*%
%TD*%
%TA.AperFunction,ViaPad*%
%ADD51C,0.508000*%
%TD*%
%TA.AperFunction,ViaPad*%
%ADD52C,0.457200*%
%TD*%
%TA.AperFunction,ViaPad*%
%ADD53C,0.458000*%
%TD*%
%TA.AperFunction,Conductor*%
%ADD54C,0.200000*%
%TD*%
%TA.AperFunction,Conductor*%
%ADD55C,0.500000*%
%TD*%
%TA.AperFunction,Conductor*%
%ADD56C,1.016000*%
%TD*%
%TA.AperFunction,Conductor*%
%ADD57C,0.381000*%
%TD*%
%TA.AperFunction,Conductor*%
%ADD58C,1.000000*%
%TD*%
%TA.AperFunction,Conductor*%
%ADD59C,0.750000*%
%TD*%
%TA.AperFunction,Conductor*%
%ADD60C,0.300000*%
%TD*%
%TA.AperFunction,Conductor*%
%ADD61C,0.254000*%
%TD*%
%TA.AperFunction,Conductor*%
%ADD62C,0.406400*%
%TD*%
%TA.AperFunction,Conductor*%
%ADD63C,0.431800*%
%TD*%
G04 APERTURE END LIST*
D10*
%TO.P,C6,1*%
%TO.N,+5V*%
X100500000Y-74000000D03*
%TO.P,C6,2*%
%TO.N,GND*%
X102050000Y-74000000D03*
%TD*%
D11*
%TO.P,Q2,1,S_1*%
%TO.N,/BME_SCL2*%
X102050000Y-85350000D03*
%TO.P,Q2,2,G_2*%
%TO.N,BME_3V3*%
X102050000Y-86000000D03*
%TO.P,Q2,3,D_3*%
%TO.N,/PI10{slash}TWI2_SDA*%
X102050000Y-86650000D03*
%TO.P,Q2,4,S_4*%
%TO.N,/BME_SDA2*%
X103950000Y-86650000D03*
%TO.P,Q2,5,G_5*%
%TO.N,BME_3V3*%
X103950000Y-86000000D03*
%TO.P,Q2,6,D_6*%
%TO.N,/PI9{slash}TWI2_SCL*%
X103950000Y-85350000D03*
%TD*%
D12*
%TO.P,D1,1,VDD_1*%
%TO.N,+5V*%
X90463500Y-61412500D03*
%TO.P,D1,2,DOUT_2*%
%TO.N,unconnected-(D1-DOUT-Pad2)*%
X93663500Y-61412500D03*
%TO.P,D1,3,VSS_3*%
%TO.N,GND*%
X93663500Y-56258500D03*
%TO.P,D1,4,DIN_4*%
%TO.N,Net-(D1-DIN)*%
X90463500Y-56258500D03*
%TD*%
D13*
%TO.P,J5,*%
%TO.N,/PI14{slash}UART4_RX*%
X58040000Y-57000000D03*
D14*
%TO.P,J5,1,1*%
%TO.N,GND*%
X65660000Y-57000000D03*
D13*
%TO.P,J5,2,2*%
%TO.N,unconnected-(J5-Pad2)*%
X65660000Y-54460000D03*
%TO.P,J5,3,3*%
%TO.N,+3V3*%
X63120000Y-57000000D03*
%TO.P,J5,4,4*%
%TO.N,GND*%
X63120000Y-54460000D03*
%TO.P,J5,5,5*%
%TO.N,/PI13{slash}UART4_TX*%
X60580000Y-57000000D03*
%TO.P,J5,6,6*%
%TO.N,GND*%
X60580000Y-54460000D03*
%TO.P,J5,8,8*%
%TO.N,unconnected-(J5-Pad8)*%
X58040000Y-54460000D03*
%TO.P,J5,9,9*%
%TO.N,unconnected-(J5-Pad9)*%
X55500000Y-57000000D03*
%TO.P,J5,10,10*%
%TO.N,unconnected-(J5-Pad10)*%
X55500000Y-54460000D03*
%TD*%
D15*
%TO.P,J6,1,Pin_1_1*%
%TO.N,GND*%
X91000000Y-33511000D03*
%TO.P,J6,2,Pin_2_2*%
%TO.N,+5V*%
X92000000Y-33511000D03*
%TO.P,J6,3,Pin_3_3*%
%TO.N,/PH2{slash}UART5_TX*%
X93000000Y-33511000D03*
%TO.P,J6,4,Pin_4_4*%
%TO.N,/PH3{slash}UART5_RX*%
X94000000Y-33511000D03*
D16*
%TO.P,J6,NC1,NC_NC1*%
%TO.N,unconnected-(J6-NC-PadNC1)*%
X89700000Y-31086000D03*
%TO.P,J6,NC2,NC_NC2*%
%TO.N,unconnected-(J6-NC-PadNC2)*%
X95300000Y-31086000D03*
%TD*%
D17*
%TO.P,U1,1,VIN_1*%
%TO.N,+3V3*%
X91950000Y-78362500D03*
%TO.P,U1,2,GND_2*%
%TO.N,GND*%
X91000000Y-78362500D03*
%TO.P,U1,4,NC_4*%
%TO.N,unconnected-(U1-NC-Pad4)*%
X90050000Y-80637500D03*
%TO.P,U1,5,VOUT_5*%
%TO.N,BME_3V3*%
X91950000Y-80637500D03*
%TO.P,U1,en*%
%TO.N,+3V3*%
X90050000Y-78362500D03*
%TD*%
D18*
%TO.P,U5,1,GND_1*%
%TO.N,GND*%
X81500000Y-94450000D03*
%TO.P,U5,2,CSB_2*%
%TO.N,BME_3V3*%
X81500000Y-93800000D03*
%TO.P,U5,3,SDI_3*%
%TO.N,/BME_SDA1*%
X81500000Y-93150000D03*
%TO.P,U5,4,SCK_4*%
%TO.N,/BME_SCL1*%
X81500000Y-92500000D03*
%TO.P,U5,5,SDO_5*%
%TO.N,/BME_ADD_1*%
X83550000Y-92500000D03*
%TO.P,U5,6,VDDIO_6*%
%TO.N,BME_3V3*%
X83550000Y-93150000D03*
%TO.P,U5,7,GND_7*%
%TO.N,GND*%
X83550000Y-93800000D03*
%TO.P,U5,8,VDD_8*%
%TO.N,BME_3V3*%
X83550000Y-94450000D03*
%TD*%
D15*
%TO.P,J4,1,Pin_1_1*%
%TO.N,GND*%
X66500000Y-37511000D03*
%TO.P,J4,2,Pin_2_2*%
%TO.N,+5V*%
X67500000Y-37511000D03*
%TO.P,J4,3,Pin_3_3*%
%TO.N,/BUS3_SDA_SHIFT*%
X68500000Y-37511000D03*
%TO.P,J4,4,Pin_4_4*%
%TO.N,/BUS3_SCL_SHIFT*%
X69500000Y-37511000D03*
D16*
%TO.P,J4,NC1,NC_NC1*%
%TO.N,unconnected-(J4-NC-PadNC1)*%
X65200000Y-35086000D03*
%TO.P,J4,NC2,NC_NC2*%
%TO.N,unconnected-(J4-NC-PadNC2)*%
X70800000Y-35086000D03*
%TD*%
D19*
%TO.P,R6,1*%
%TO.N,GND*%
X86500000Y-58265000D03*
%TO.P,R6,2*%
%TO.N,Net-(J11-CC2)*%
X86500000Y-59735000D03*
%TD*%
D20*
%TO.P,Q4,1,S_1*%
%TO.N,/PI15{slash}TWI3_SCL*%
X73150000Y-39800000D03*
%TO.P,Q4,2,G_2*%
%TO.N,+3V3*%
X72500000Y-39800000D03*
%TO.P,Q4,3,D_3*%
%TO.N,/BUS3_SDA_SHIFT*%
X71850000Y-39800000D03*
%TO.P,Q4,4,S_4*%
%TO.N,/PI0{slash}TWI3_SDA*%
X71850000Y-41700000D03*
%TO.P,Q4,5,G_5*%
%TO.N,+3V3*%
X72500000Y-41700000D03*
%TO.P,Q4,6,D_6*%
%TO.N,/BUS3_SCL_SHIFT*%
X73150000Y-41700000D03*
%TD*%
D21*
%TO.P,R17,1*%
%TO.N,GND*%
X91175000Y-74250000D03*
%TO.P,R17,2*%
%TO.N,/ADS_ADDR*%
X92825000Y-74250000D03*
%TD*%
D15*
%TO.P,J7,1,1_1*%
%TO.N,+5V*%
X78000000Y-34282500D03*
%TO.P,J7,2,2_2*%
%TO.N,/PH6{slash}SPI1_CLK*%
X79000000Y-34282500D03*
%TO.P,J7,3,3_3*%
%TO.N,/PH8{slash}SPI1_MISO*%
X80000000Y-34282500D03*
%TO.P,J7,4,4_4*%
%TO.N,/PH7{slash}SPI1_MOSI*%
X81000000Y-34282500D03*
%TO.P,J7,5,5_5*%
%TO.N,/PH5{slash}SPI1_CS0*%
X82000000Y-34282500D03*
%TO.P,J7,6,6_6*%
%TO.N,GND*%
X83000000Y-34282500D03*
D22*
%TO.P,J7,S1,SHIELD1_S1*%
%TO.N,unconnected-(J7-SHIELD1-PadS1)*%
X76700000Y-31757500D03*
%TO.P,J7,S2,SHIELD2_S2*%
%TO.N,unconnected-(J7-SHIELD2-PadS2)*%
X84300000Y-31757500D03*
%TD*%
D23*
%TO.P,U3,1,ADDR_1*%
%TO.N,/ADS_ADDR*%
X94550001Y-77520183D03*
%TO.P,U3,2,ALERT_RDY_2*%
%TO.N,unconnected-(U3-ALERT_RDY-Pad2)*%
X94550001Y-78020182D03*
%TO.P,U3,3,GND_3*%
%TO.N,GND*%
X94550001Y-78520184D03*
%TO.P,U3,4,AIN0_4*%
%TO.N,Net-(U3-AIN0)*%
X94550001Y-79020183D03*
%TO.P,U3,5,AIN1_5*%
%TO.N,Net-(U3-AIN1)*%
X94550001Y-79520185D03*
%TO.P,U3,6,AIN2_6*%
%TO.N,Net-(U3-AIN2)*%
X99000002Y-79520185D03*
%TO.P,U3,7,AIN3_7*%
%TO.N,Net-(U3-AIN3)*%
X99000002Y-79020183D03*
%TO.P,U3,8,VDD_8*%
%TO.N,+3V3*%
X99000002Y-78520184D03*
%TO.P,U3,9,SDA_9*%
%TO.N,/PI6{slash}TWI0_SDA*%
X99000002Y-78020182D03*
%TO.P,U3,10,SCL_10*%
%TO.N,/PI5{slash}TWI0_SCL*%
X99000002Y-77520183D03*
%TD*%
D15*
%TO.P,J9,1,Pin_1_1*%
%TO.N,GND*%
X66500000Y-31511000D03*
%TO.P,J9,2,Pin_2_2*%
%TO.N,+5V*%
X67500000Y-31511000D03*
%TO.P,J9,3,Pin_3_3*%
%TO.N,/PI10{slash}TWI2_SDA*%
X68500000Y-31511000D03*
%TO.P,J9,4,Pin_4_4*%
%TO.N,/PI9{slash}TWI2_SCL*%
X69500000Y-31511000D03*
D16*
%TO.P,J9,NC1,NC_NC1*%
%TO.N,unconnected-(J9-NC-PadNC1)*%
X65200000Y-29086000D03*
%TO.P,J9,NC2,NC_NC2*%
%TO.N,unconnected-(J9-NC-PadNC2)*%
X70800000Y-29086000D03*
%TD*%
D24*
%TO.P,R19,1*%
%TO.N,Net-(U3-AIN0)*%
X93500000Y-81675000D03*
%TO.P,R19,2*%
%TO.N,/ADS_ANALOG_0*%
X93500000Y-83325000D03*
%TD*%
D25*
%TO.P,Q1,1,S_1*%
%TO.N,/BME_SCL1*%
X83950000Y-87650000D03*
%TO.P,Q1,2,G_2*%
%TO.N,BME_3V3*%
X83950000Y-87000000D03*
%TO.P,Q1,3,D_3*%
%TO.N,/PI8{slash}TWI1_SDA*%
X83950000Y-86350000D03*
%TO.P,Q1,4,S_4*%
%TO.N,/BME_SDA1*%
X82050000Y-86350000D03*
%TO.P,Q1,5,G_5*%
%TO.N,BME_3V3*%
X82050000Y-87000000D03*
%TO.P,Q1,6,D_6*%
%TO.N,/PI7{slash}TWI1_SCL*%
X82050000Y-87650000D03*
%TD*%
D21*
%TO.P,R14,1*%
%TO.N,+5V*%
X66925000Y-40500000D03*
%TO.P,R14,2*%
%TO.N,/BUS3_SDA_SHIFT*%
X68575000Y-40500000D03*
%TD*%
D24*
%TO.P,R7,1*%
%TO.N,GND*%
X88500000Y-58175000D03*
%TO.P,R7,2*%
%TO.N,Net-(J11-CC1)*%
X88500000Y-59825000D03*
%TD*%
D26*
%TO.P,R8,1*%
%TO.N,Net-(D1-DIN)*%
X88235000Y-55000000D03*
%TO.P,R8,2*%
%TO.N,/PI11{slash}PWM1*%
X86765000Y-55000000D03*
%TD*%
D27*
%TO.P,R10,1*%
%TO.N,/BME_ADD_2*%
X100529004Y-90789070D03*
%TO.P,R10,2*%
%TO.N,BME_3V3*%
X100529004Y-89139070D03*
%TD*%
D28*
%TO.P,Q3,1*%
%TO.N,/SWITCH_GATE*%
X126600000Y-33950000D03*
%TO.P,Q3,3,D_3*%
%TO.N,+5V*%
X124500000Y-33000000D03*
%TO.P,Q3,5*%
%TO.N,/5V_BUS_USB*%
X126600000Y-32050000D03*
%TD*%
D29*
%TO.P,J3,1*%
%TO.N,+5V*%
X116000000Y-94950000D03*
%TO.P,J3,2*%
%TO.N,/PI8{slash}TWI1_SDA*%
X114500000Y-94950000D03*
%TO.P,J3,3*%
%TO.N,/PI7{slash}TWI1_SCL*%
X113000000Y-94950000D03*
%TO.P,J3,4*%
%TO.N,GND*%
X111500000Y-94950000D03*
%TO.P,J3,5*%
X110000000Y-94950000D03*
D30*
%TO.P,J3,Z1*%
%TO.N,N/C*%
X118050000Y-97000000D03*
%TO.P,J3,Z2*%
X107950000Y-97000000D03*
%TD*%
D31*
%TO.P,C2,1*%
%TO.N,+3V3*%
X86000000Y-75950000D03*
%TO.P,C2,2*%
%TO.N,GND*%
X86000000Y-74050000D03*
%TD*%
D21*
%TO.P,R2,1*%
%TO.N,/SWITCH_GATE*%
X126581261Y-36212467D03*
%TO.P,R2,2*%
%TO.N,/5V_BUS_USB*%
X128231261Y-36212467D03*
%TD*%
D32*
%TO.P,R5,1*%
%TO.N,/PI6{slash}TWI0_SDA*%
X90200000Y-50600000D03*
%TO.P,R5,2*%
%TO.N,+3V3*%
X90200000Y-52400000D03*
D33*
%TO.P,R5,3*%
%TO.N,/PI5{slash}TWI0_SCL*%
X89400000Y-50600000D03*
%TO.P,R5,4*%
%TO.N,+3V3*%
X89400000Y-52400000D03*
%TO.P,R5,5*%
%TO.N,/PI0{slash}TWI3_SDA*%
X88600000Y-50600000D03*
%TO.P,R5,6*%
%TO.N,+3V3*%
X88600000Y-52400000D03*
D32*
%TO.P,R5,7*%
%TO.N,/PI15{slash}TWI3_SCL*%
X87800000Y-50600000D03*
%TO.P,R5,8*%
%TO.N,+3V3*%
X87800000Y-52400000D03*
%TD*%
D34*
%TO.P,JP4,1,A_1*%
%TO.N,GND*%
X103000000Y-90093600D03*
%TO.P,JP4,2,B_2*%
%TO.N,/BME_ADD_2*%
X103000000Y-90906400D03*
%TD*%
D35*
%TO.P,JP2,1,A_1*%
%TO.N,/ADS_ADDR*%
X95000000Y-74250000D03*
%TO.P,JP2,2,B_2*%
%TO.N,+3V3*%
X95000000Y-73250000D03*
%TD*%
D36*
%TO.P,C3,1*%
%TO.N,BME_3V3*%
X86950000Y-79500000D03*
%TO.P,C3,2*%
%TO.N,GND*%
X85050000Y-79500000D03*
%TD*%
D37*
%TO.P,R13,1*%
%TO.N,/PI9{slash}TWI2_SCL*%
X106600000Y-84800000D03*
D38*
%TO.P,R13,2*%
%TO.N,/PI10{slash}TWI2_SDA*%
X106600000Y-85600000D03*
%TO.P,R13,3*%
%TO.N,/BME_SDA2*%
X106600000Y-86400000D03*
D37*
%TO.P,R13,4*%
%TO.N,/BME_SCL2*%
X106600000Y-87200000D03*
%TO.P,R13,5*%
%TO.N,BME_3V3*%
X108400000Y-87200000D03*
D38*
%TO.P,R13,6*%
X108400000Y-86400000D03*
%TO.P,R13,7*%
%TO.N,+3V3*%
X108400000Y-85600000D03*
D37*
%TO.P,R13,8*%
X108400000Y-84800000D03*
%TD*%
%TO.P,R1,1*%
%TO.N,+3V3*%
X78000000Y-85700000D03*
D38*
%TO.P,R1,2*%
X78000000Y-86500000D03*
%TO.P,R1,3*%
%TO.N,BME_3V3*%
X78000000Y-87300000D03*
D37*
%TO.P,R1,4*%
X78000000Y-88100000D03*
%TO.P,R1,5*%
%TO.N,/BME_SCL1*%
X79800000Y-88100000D03*
D38*
%TO.P,R1,6*%
%TO.N,/BME_SDA1*%
X79800000Y-87300000D03*
%TO.P,R1,7*%
%TO.N,/PI8{slash}TWI1_SDA*%
X79800000Y-86500000D03*
D37*
%TO.P,R1,8*%
%TO.N,/PI7{slash}TWI1_SCL*%
X79800000Y-85700000D03*
%TD*%
D18*
%TO.P,U2,1,GND_1*%
%TO.N,GND*%
X101000000Y-92550000D03*
%TO.P,U2,2,CSB_2*%
%TO.N,BME_3V3*%
X101000000Y-93200000D03*
%TO.P,U2,3,SDI_3*%
%TO.N,/BME_SDA2*%
X101000000Y-93850000D03*
%TO.P,U2,4,SCK_4*%
%TO.N,/BME_SCL2*%
X101000000Y-94500000D03*
%TO.P,U2,5,SDO_5*%
%TO.N,/BME_ADD_2*%
X98950000Y-94500000D03*
%TO.P,U2,6,VDDIO_6*%
%TO.N,BME_3V3*%
X98950000Y-93850000D03*
%TO.P,U2,7,GND_7*%
%TO.N,GND*%
X98950000Y-93200000D03*
%TO.P,U2,8,VDD_8*%
%TO.N,BME_3V3*%
X98950000Y-92550000D03*
%TD*%
D39*
%TO.P,C1,1*%
%TO.N,BME_3V3*%
X87050000Y-82500000D03*
%TO.P,C1,2*%
%TO.N,GND*%
X85500000Y-82500000D03*
%TD*%
%TO.P,C8,1*%
%TO.N,GND*%
X100775000Y-83000000D03*
%TO.P,C8,2*%
%TO.N,+3V3*%
X99225000Y-83000000D03*
%TD*%
D15*
%TO.P,J2,1,Pin_1_1*%
%TO.N,GND*%
X116500000Y-37675000D03*
%TO.P,J2,2,Pin_2_2*%
%TO.N,+3V3*%
X117500000Y-37675000D03*
%TO.P,J2,3,Pin_3_3*%
%TO.N,/PI8{slash}TWI1_SDA*%
X118500000Y-37675000D03*
%TO.P,J2,4,Pin_4_4*%
%TO.N,/PI7{slash}TWI1_SCL*%
X119500000Y-37675000D03*
D16*
%TO.P,J2,NC1,NC_NC1*%
%TO.N,unconnected-(J2-NC-PadNC1)*%
X115200000Y-35250000D03*
%TO.P,J2,NC2,NC_NC2*%
%TO.N,unconnected-(J2-NC-PadNC2)*%
X120800000Y-35250000D03*
%TD*%
D40*
%TO.P,IC1,1,HEATER_1_1*%
%TO.N,GND*%
X92795000Y-91295000D03*
%TO.P,IC1,2,SENSOR_ELECTRODE_(-)_2*%
%TO.N,/ADS_ANALOG_0*%
X92795000Y-87705000D03*
%TO.P,IC1,3,SENSOR_ELECTRODE_(+)_3*%
%TO.N,+5V*%
X89205000Y-87705000D03*
%TO.P,IC1,4,HEATER_2_4*%
X89205000Y-91295000D03*
%TD*%
D41*
%TO.P,S2,1*%
%TO.N,GND*%
X121250000Y-24750000D03*
D42*
%TO.P,S2,2*%
%TO.N,/SWITCH_GATE*%
X117250000Y-24750000D03*
%TO.P,S2,3*%
%TO.N,/5V_BUS_USB*%
X113250000Y-24750000D03*
D43*
%TO.P,S2,S1,SHIELD_S1*%
%TO.N,unconnected-(S2-SHIELD-PadS1)_1*%
X123250000Y-20500000D03*
%TO.P,S2,S2,SHIELD_S2*%
%TO.N,unconnected-(S2-SHIELD-PadS1)*%
X111250000Y-20500000D03*
%TO.P,S2,S3,SHIELD_S3*%
%TO.N,unconnected-(S2-SHIELD-PadS1)_3*%
X111250000Y-26500000D03*
%TO.P,S2,S4,SHIELD_S4*%
%TO.N,unconnected-(S2-SHIELD-PadS1)_2*%
X123250000Y-26500000D03*
%TD*%
D15*
%TO.P,J8,1,Pin_1_1*%
%TO.N,GND*%
X116500000Y-32250000D03*
%TO.P,J8,2,Pin_2_2*%
%TO.N,+3V3*%
X117500000Y-32250000D03*
%TO.P,J8,3,Pin_3_3*%
%TO.N,/PI8{slash}TWI1_SDA*%
X118500000Y-32250000D03*
%TO.P,J8,4,Pin_4_4*%
%TO.N,/PI7{slash}TWI1_SCL*%
X119500000Y-32250000D03*
D16*
%TO.P,J8,NC1,NC_NC1*%
%TO.N,unconnected-(J8-NC-PadNC1)*%
X115200000Y-29825000D03*
%TO.P,J8,NC2,NC_NC2*%
%TO.N,unconnected-(J8-NC-PadNC2)*%
X120800000Y-29825000D03*
%TD*%
D27*
%TO.P,R9,1*%
%TO.N,/BME_ADD_1*%
X81500000Y-90825000D03*
%TO.P,R9,2*%
%TO.N,BME_3V3*%
X81500000Y-89175000D03*
%TD*%
D34*
%TO.P,JP1,1,A_1*%
%TO.N,GND*%
X84000000Y-90000000D03*
%TO.P,JP1,2,B_2*%
%TO.N,/BME_ADD_1*%
X84000000Y-91000000D03*
%TD*%
D27*
%TO.P,R3,1*%
%TO.N,GND*%
X98000000Y-90325000D03*
%TO.P,R3,2*%
%TO.N,/ADS_ANALOG_0*%
X98000000Y-88675000D03*
%TD*%
D44*
%TO.P,C7,N*%
%TO.N,GND*%
X104745000Y-69500000D03*
%TO.P,C7,P*%
%TO.N,+5V*%
X99755000Y-69500000D03*
%TD*%
D45*
%TO.P,R15,1*%
%TO.N,/BUS3_SCL_SHIFT*%
X69575000Y-42000000D03*
%TO.P,R15,2*%
%TO.N,+5V*%
X67925000Y-42000000D03*
%TD*%
D46*
%TO.P,J10,1,~_1*%
%TO.N,/ADS_ANALOG_1*%
X114250000Y-69710000D03*
%TO.P,J10,2,~_2*%
%TO.N,/ADS_ANALOG_3*%
X114250000Y-72250000D03*
%TO.P,J10,3,~_3*%
%TO.N,/ADS_ANALOG_2*%
X114250000Y-74790000D03*
%TD*%
D47*
%TO.P,J1,*%
%TO.N,+3V3*%
X118660000Y-44960000D03*
D48*
%TO.P,J1,2,Pin_2_2*%
%TO.N,+5V*%
X118660000Y-47500000D03*
%TO.P,J1,3,Pin_3_3*%
%TO.N,/PI8{slash}TWI1_SDA*%
X116120000Y-44960000D03*
%TO.P,J1,4,Pin_4_4*%
%TO.N,+5V*%
X116120000Y-47500000D03*
%TO.P,J1,5,Pin_5_5*%
%TO.N,/PI7{slash}TWI1_SCL*%
X113580000Y-44960000D03*
%TO.P,J1,6,Pin_6_6*%
%TO.N,GND*%
X113580000Y-47500000D03*
%TO.P,J1,7,Pin_7_7*%
%TO.N,/PI13{slash}UART4_TX*%
X111040000Y-44960000D03*
%TO.P,J1,8,Pin_8_8*%
%TO.N,/PH0{slash}DEBUG*%
X111040000Y-47500000D03*
%TO.P,J1,9,Pin_9_9*%
%TO.N,GND*%
X108500000Y-44960000D03*
%TO.P,J1,10,Pin_10_10*%
%TO.N,/PH1{slash}DEBUG*%
X108500000Y-47500000D03*
%TO.P,J1,11,Pin_11_11*%
%TO.N,/PH2{slash}UART5_TX*%
X105960000Y-44960000D03*
%TO.P,J1,12,Pin_12_12*%
%TO.N,/PI1*%
X105960000Y-47500000D03*
%TO.P,J1,13,Pin_13_13*%
%TO.N,/PH3{slash}UART5_RX*%
X103420000Y-44960000D03*
%TO.P,J1,14,Pin_14_14*%
%TO.N,GND*%
X103420000Y-47500000D03*
%TO.P,J1,15,Pin_15_15*%
%TO.N,/PI5{slash}TWI0_SCL*%
X100880000Y-44960000D03*
%TO.P,J1,16,Pin_16_16*%
%TO.N,/PI14{slash}UART4_RX*%
X100880000Y-47500000D03*
%TO.P,J1,17,Pin_17_17*%
%TO.N,+3V3*%
X98340000Y-44960000D03*
%TO.P,J1,18,Pin_18_18*%
%TO.N,/PH4*%
X98340000Y-47500000D03*
%TO.P,J1,19,Pin_19_19*%
%TO.N,/PH7{slash}SPI1_MOSI*%
X95800000Y-44960000D03*
%TO.P,J1,20,Pin_20_20*%
%TO.N,GND*%
X95800000Y-47500000D03*
%TO.P,J1,21,Pin_21_21*%
%TO.N,/PH8{slash}SPI1_MISO*%
X93260000Y-44960000D03*
%TO.P,J1,22,Pin_22_22*%
%TO.N,/PI6{slash}TWI0_SDA*%
X93260000Y-47500000D03*
%TO.P,J1,23,Pin_23_23*%
%TO.N,/PH6{slash}SPI1_CLK*%
X90720000Y-44960000D03*
%TO.P,J1,24,Pin_24_24*%
%TO.N,/PH5{slash}SPI1_CS0*%
X90720000Y-47500000D03*
%TO.P,J1,25,Pin_25_25*%
%TO.N,GND*%
X88180000Y-44960000D03*
%TO.P,J1,26,Pin_26_26*%
%TO.N,/PH9{slash}SPI1_CS1*%
X88180000Y-47500000D03*
%TO.P,J1,27,Pin_27_27*%
%TO.N,/PI10{slash}TWI2_SDA*%
X85640000Y-44960000D03*
%TO.P,J1,28,Pin_28_28*%
%TO.N,/PI9{slash}TWI2_SCL*%
X85640000Y-47500000D03*
%TO.P,J1,29,Pin_29_29*%
%TO.N,/PI0{slash}TWI3_SDA*%
X83100000Y-44960000D03*
%TO.P,J1,30,Pin_30_30*%
%TO.N,GND*%
X83100000Y-47500000D03*
%TO.P,J1,31,Pin_31_31*%
%TO.N,/PI15{slash}TWI3_SCL*%
X80560000Y-44960000D03*
%TO.P,J1,32,Pin_32_32*%
%TO.N,/PI11{slash}PWM1*%
X80560000Y-47500000D03*
%TO.P,J1,33,Pin_33_33*%
%TO.N,/PI12{slash}PWM2*%
X78020000Y-44960000D03*
%TO.P,J1,34,Pin_34_34*%
%TO.N,GND*%
X78020000Y-47500000D03*
%TO.P,J1,35,Pin_35_35*%
%TO.N,/PI2*%
X75480000Y-44960000D03*
%TO.P,J1,36,Pin_36_36*%
%TO.N,/PC12*%
X75480000Y-47500000D03*
%TO.P,J1,37,Pin_37_37*%
%TO.N,/PI16*%
X72940000Y-44960000D03*
%TO.P,J1,38,Pin_38_38*%
%TO.N,/PI4*%
X72940000Y-47500000D03*
%TO.P,J1,39,Pin_39_39*%
%TO.N,GND*%
X70400000Y-44960000D03*
%TO.P,J1,40,Pin_40_40*%
%TO.N,/PI3*%
X70400000Y-47500000D03*
%TD*%
D49*
%TO.P,J11,7,SHIELD__6_7*%
%TO.N,GND*%
X94593500Y-66762500D03*
%TO.P,J11,8,SHIELD__7_8*%
X89793500Y-66762500D03*
%TO.P,J11,9,SHIELD__8_9*%
X94593500Y-71062500D03*
%TO.P,J11,10,SHIELD__9_10*%
X89793500Y-71062500D03*
%TD*%
D50*
%TO.N,+5V*%
X100500000Y-59500000D03*
X115500000Y-54000000D03*
X99817621Y-71250000D03*
X115500000Y-58000000D03*
D51*
%TO.N,GND*%
X116551143Y-40000000D03*
D50*
X79775776Y-94469693D03*
D51*
X87500000Y-33500000D03*
D50*
X84500000Y-89000000D03*
X97500000Y-92000000D03*
X92125000Y-76625000D03*
X103750000Y-66250000D03*
X104500000Y-90000000D03*
X106500000Y-92500000D03*
X87500000Y-56500000D03*
X64500000Y-39500000D03*
X100000000Y-84250000D03*
%TO.N,/BME_SCL2*%
X100500000Y-86000000D03*
X107000000Y-89000000D03*
%TO.N,BME_3V3*%
X108250000Y-88250000D03*
X102212500Y-87962500D03*
%TO.N,/PI10{slash}TWI2_SDA*%
X101000000Y-87500000D03*
D51*
X68500000Y-33000000D03*
D50*
X112000000Y-54000000D03*
X99000000Y-50000000D03*
X105000000Y-86000000D03*
%TO.N,/PI9{slash}TWI2_SCL*%
X105000000Y-61000000D03*
D51*
X69500000Y-33500000D03*
D50*
%TO.N,+3V3*%
X86000000Y-77500000D03*
X82500000Y-80000000D03*
X98000000Y-42000000D03*
X126000000Y-48000000D03*
X107500000Y-83500000D03*
X122829384Y-41905673D03*
X104000000Y-77500000D03*
%TO.N,/PH2{slash}UART5_TX*%
X95000000Y-35500000D03*
%TO.N,/PH3{slash}UART5_RX*%
X94000000Y-35540000D03*
D52*
%TO.N,Net-(J11-CC2)*%
X91927529Y-68868582D03*
D50*
%TO.N,/PI15{slash}TWI3_SCL*%
X79100000Y-42000000D03*
%TO.N,/PI0{slash}TWI3_SDA*%
X70500000Y-40500000D03*
D51*
%TO.N,/PH6{slash}SPI1_CLK*%
X79000000Y-37000000D03*
%TO.N,/PH8{slash}SPI1_MISO*%
X80000000Y-36500000D03*
%TO.N,/PH7{slash}SPI1_MOSI*%
X81000000Y-36000000D03*
%TO.N,/PH5{slash}SPI1_CS0*%
X82000000Y-37500000D03*
D50*
%TO.N,Net-(U3-AIN1)*%
X103000000Y-82750000D03*
%TO.N,Net-(U3-AIN2)*%
X101500000Y-78500000D03*
%TO.N,Net-(U3-AIN3)*%
X101250000Y-77750000D03*
%TO.N,/PI6{slash}TWI0_SDA*%
X97500000Y-75750000D03*
X92297042Y-58757915D03*
%TO.N,/PI5{slash}TWI0_SCL*%
X98500000Y-75750000D03*
D51*
%TO.N,/PI8{slash}TWI1_SDA*%
X118500000Y-34500000D03*
D50*
X81500000Y-85000000D03*
X111282500Y-64717500D03*
D51*
%TO.N,/PI7{slash}TWI1_SCL*%
X119500000Y-33750000D03*
D50*
X110500000Y-64782843D03*
X81000000Y-88000000D03*
X80875000Y-84625000D03*
D52*
%TO.N,Net-(J11-CC1)*%
X92943500Y-68837845D03*
D50*
%TO.N,/PI11{slash}PWM1*%
X83750000Y-54250000D03*
%TO.N,/BME_ADD_2*%
X103000000Y-94500000D03*
X103000000Y-92000000D03*
D51*
%TO.N,/5V_BUS_USB*%
X90943500Y-68863511D03*
D53*
X93869707Y-68846765D03*
%TD*%
%TO.N,+5V*%
D54*
X114000000Y-98400000D02*
X96300000Y-98400000D01*
D55*
X121833424Y-28083424D02*
X96333424Y-28083424D01*
X76000000Y-35500000D02*
X77000000Y-35500000D01*
X68674460Y-27325540D02*
X67500000Y-28500000D01*
X74500000Y-34000000D02*
X76000000Y-35500000D01*
X124400000Y-30650000D02*
X121833424Y-28083424D01*
X95575540Y-27325540D02*
X76500000Y-27325540D01*
D56*
X120000000Y-47500000D02*
X118660000Y-47500000D01*
D54*
X115950000Y-47670000D02*
X116120000Y-47500000D01*
D57*
X116000000Y-48500000D02*
X116000000Y-53500000D01*
D54*
X100500000Y-72864758D02*
X99817621Y-72182379D01*
D55*
X74500000Y-29325540D02*
X76500000Y-27325540D01*
D57*
X114500000Y-55000000D02*
X107000000Y-55000000D01*
X99817621Y-71250000D02*
X99817621Y-72182379D01*
D54*
X89200000Y-91300000D02*
X89200000Y-87700000D01*
D55*
X66925000Y-40500000D02*
X66925000Y-41000000D01*
X92000000Y-33511000D02*
X92000000Y-29750000D01*
D54*
X99087500Y-69412500D02*
X99817621Y-69412500D01*
D57*
X116000000Y-53500000D02*
X115500000Y-54000000D01*
X102500000Y-59500000D02*
X100500000Y-59500000D01*
D58*
X124400000Y-33000000D02*
X124400000Y-43100000D01*
D55*
X96333424Y-28083424D02*
X95575540Y-27325540D01*
D54*
X90463500Y-61412500D02*
X92376000Y-59500000D01*
D59*
X118660000Y-47500000D02*
X116120000Y-47500000D01*
D55*
X77000000Y-35500000D02*
X78000000Y-34500000D01*
X67500000Y-39925000D02*
X66925000Y-40500000D01*
D54*
X92376000Y-59500000D02*
X92500000Y-59500000D01*
X116120000Y-47500000D02*
X116000000Y-47620000D01*
D55*
X117250000Y-59750000D02*
X117250000Y-93700000D01*
D57*
X99817621Y-69412500D02*
X99817621Y-71250000D01*
D55*
X67500000Y-37511000D02*
X67500000Y-39925000D01*
X67500000Y-28500000D02*
X67500000Y-31511000D01*
D54*
X92500000Y-59500000D02*
X100500000Y-59500000D01*
D55*
X92750000Y-29000000D02*
X95416848Y-29000000D01*
X117250000Y-93700000D02*
X116000000Y-94950000D01*
X76500000Y-27325540D02*
X68674460Y-27325540D01*
D54*
X100500000Y-74000000D02*
X100500000Y-72864758D01*
D55*
X124400000Y-33000000D02*
X124400000Y-30650000D01*
D54*
X116000000Y-96400000D02*
X114000000Y-98400000D01*
X116000000Y-94950000D02*
X116000000Y-96400000D01*
X78000000Y-34282500D02*
X77995000Y-34287500D01*
D57*
X116000000Y-47620000D02*
X116000000Y-48500000D01*
D55*
X115500000Y-58000000D02*
X117250000Y-59750000D01*
X78000000Y-34500000D02*
X78000000Y-34282500D01*
D57*
X115500000Y-54000000D02*
X114500000Y-55000000D01*
D55*
X92000000Y-29750000D02*
X92750000Y-29000000D01*
X67500000Y-31511000D02*
X67500000Y-37511000D01*
X74500000Y-34000000D02*
X74500000Y-29325540D01*
X66925000Y-41000000D02*
X67925000Y-42000000D01*
X95416848Y-29000000D02*
X96333424Y-28083424D01*
D54*
X96300000Y-98400000D02*
X89200000Y-91300000D01*
D57*
X107000000Y-55000000D02*
X102500000Y-59500000D01*
D58*
X124400000Y-43100000D02*
X120000000Y-47500000D01*
%TO.N,GND*%
D54*
X84000000Y-89500000D02*
X84000000Y-90000000D01*
X99500000Y-92000000D02*
X97500000Y-92000000D01*
D55*
X107550000Y-92500000D02*
X106500000Y-92500000D01*
D54*
X65660000Y-57000000D02*
X63120000Y-54460000D01*
X83217500Y-34500000D02*
X83000000Y-34282500D01*
X91175000Y-74250000D02*
X91175000Y-75675000D01*
X102317621Y-73732379D02*
X102050000Y-74000000D01*
X81475000Y-94475000D02*
X82500000Y-95500000D01*
X87511000Y-33511000D02*
X91000000Y-33511000D01*
D55*
X110000000Y-94950000D02*
X107550000Y-92500000D01*
D54*
X102050000Y-74000000D02*
X102050000Y-72195000D01*
X103750000Y-68505000D02*
X103750000Y-66250000D01*
D60*
X116500000Y-33000000D02*
X116500000Y-31511000D01*
D54*
X84500000Y-74500000D02*
X84500000Y-78950000D01*
D60*
X116551143Y-40000000D02*
X116551143Y-37562143D01*
D54*
X100775000Y-83000000D02*
X100775000Y-83475000D01*
X100775000Y-83475000D02*
X100000000Y-84250000D01*
X84500000Y-95000000D02*
X84500000Y-94500000D01*
X84950000Y-74050000D02*
X84500000Y-74500000D01*
X93663500Y-56258500D02*
X93663500Y-49636500D01*
X88500000Y-58175000D02*
X88500000Y-57500000D01*
X87500000Y-56500000D02*
X86500000Y-57500000D01*
D60*
X116500000Y-37511000D02*
X116500000Y-33000000D01*
D54*
X91175000Y-75675000D02*
X92125000Y-76625000D01*
X86000000Y-74050000D02*
X84950000Y-74050000D01*
X84500000Y-89000000D02*
X84000000Y-89500000D01*
X98000000Y-90325000D02*
X98000000Y-91500000D01*
X84500000Y-78950000D02*
X85050000Y-79500000D01*
X84500000Y-94500000D02*
X83825000Y-93825000D01*
X86000000Y-74050000D02*
X88987500Y-71062500D01*
X103093600Y-90000000D02*
X103000000Y-90093600D01*
X100050000Y-92550000D02*
X99500000Y-92000000D01*
X85500000Y-79950000D02*
X85050000Y-79500000D01*
X91000000Y-77750000D02*
X92125000Y-76625000D01*
X102050000Y-72195000D02*
X104745000Y-69500000D01*
X79781083Y-94475000D02*
X79775776Y-94469693D01*
X84000000Y-95500000D02*
X84500000Y-95000000D01*
X94000001Y-78500000D02*
X92125000Y-76625000D01*
X94525001Y-78500000D02*
X94000001Y-78500000D01*
X88500000Y-57500000D02*
X87500000Y-56500000D01*
X64500000Y-39500000D02*
X65250000Y-39500000D01*
X116551143Y-37562143D02*
X116500000Y-37511000D01*
X81475000Y-94475000D02*
X79781083Y-94475000D01*
X86500000Y-34500000D02*
X83217500Y-34500000D01*
X66500000Y-31511000D02*
X66500000Y-37511000D01*
X98700000Y-93200000D02*
X97500000Y-92000000D01*
X101000000Y-92550000D02*
X100050000Y-92550000D01*
X104500000Y-90000000D02*
X103093600Y-90000000D01*
D55*
X111500000Y-94950000D02*
X110000000Y-94950000D01*
D54*
X87500000Y-33500000D02*
X87511000Y-33511000D01*
X82500000Y-95500000D02*
X84000000Y-95500000D01*
X87500000Y-33500000D02*
X86500000Y-34500000D01*
X91000000Y-78362500D02*
X91000000Y-77750000D01*
X83825000Y-93825000D02*
X83525000Y-93825000D01*
X65250000Y-39500000D02*
X66500000Y-38250000D01*
X98000000Y-91500000D02*
X97500000Y-92000000D01*
X66500000Y-38250000D02*
X66500000Y-37511000D01*
X104745000Y-69500000D02*
X103750000Y-68505000D01*
X86500000Y-57500000D02*
X86500000Y-58265000D01*
X63120000Y-54460000D02*
X60580000Y-54460000D01*
X85500000Y-82500000D02*
X85500000Y-79950000D01*
X98950000Y-93200000D02*
X98700000Y-93200000D01*
X88987500Y-71062500D02*
X89793500Y-71062500D01*
X93663500Y-49636500D02*
X95800000Y-47500000D01*
%TO.N,/BME_SCL2*%
X107000000Y-89000000D02*
X107000000Y-87600000D01*
X102000000Y-94500000D02*
X107000000Y-89500000D01*
X107000000Y-87600000D02*
X106600000Y-87200000D01*
X102050000Y-85350000D02*
X101150000Y-85350000D01*
X107000000Y-89500000D02*
X107000000Y-89000000D01*
X101000000Y-94500000D02*
X102000000Y-94500000D01*
X101150000Y-85350000D02*
X100500000Y-86000000D01*
%TO.N,BME_3V3*%
X108250000Y-88250000D02*
X108250000Y-87350000D01*
X83950000Y-87000000D02*
X83000000Y-87000000D01*
X90293750Y-82293750D02*
X91000000Y-81587500D01*
X101879578Y-92633278D02*
X101879578Y-92101531D01*
X85179551Y-92320449D02*
X85179551Y-87320449D01*
X83000000Y-88175000D02*
X83000000Y-87000000D01*
X103000000Y-87175000D02*
X102212500Y-87962500D01*
X108400000Y-87200000D02*
X108400000Y-86400000D01*
X82025000Y-93825000D02*
X82000000Y-93825000D01*
X108250000Y-87350000D02*
X108400000Y-87200000D01*
X85179551Y-87320449D02*
X85500000Y-87000000D01*
X101312856Y-93200000D02*
X101879578Y-92633278D01*
X83550000Y-93150000D02*
X82700000Y-93150000D01*
X90087500Y-82500000D02*
X89000000Y-82500000D01*
X100529004Y-89139070D02*
X100143329Y-89139070D01*
X86950000Y-80450000D02*
X89000000Y-82500000D01*
X103000000Y-86000000D02*
X103950000Y-86000000D01*
X83950000Y-87000000D02*
X85000000Y-87000000D01*
X90293750Y-82293750D02*
X90087500Y-82500000D01*
X104116154Y-86000000D02*
X103950000Y-86000000D01*
X101000000Y-93200000D02*
X101312856Y-93200000D01*
X82000000Y-89175000D02*
X83000000Y-88175000D01*
X99414206Y-89868193D02*
X99414206Y-90989695D01*
X100245665Y-91859828D02*
X101637875Y-91859828D01*
X102212500Y-87962500D02*
X101035930Y-89139070D01*
X100000000Y-93175000D02*
X99575000Y-93175000D01*
X99575000Y-93175000D02*
X99091421Y-92691421D01*
X101025000Y-93175000D02*
X100000000Y-93175000D01*
X102050000Y-86000000D02*
X103000000Y-86000000D01*
X89000000Y-82500000D02*
X87050000Y-82500000D01*
X84350000Y-93150000D02*
X85179551Y-92320449D01*
X99394869Y-91009032D02*
X100245665Y-91859828D01*
X91000000Y-92000000D02*
X91000000Y-81587500D01*
X78000000Y-90300000D02*
X78000000Y-88100000D01*
X101035930Y-89139070D02*
X100529004Y-89139070D01*
X78000000Y-88100000D02*
X78000000Y-87500000D01*
X86000000Y-87000000D02*
X87050000Y-85950000D01*
X98950000Y-93850000D02*
X92850000Y-93850000D01*
X82700000Y-93150000D02*
X82025000Y-93825000D01*
X82650000Y-94475000D02*
X82000000Y-93825000D01*
X103000000Y-87175000D02*
X103000000Y-86000000D01*
X78000000Y-87300000D02*
X78200000Y-87300000D01*
X91000000Y-81587500D02*
X91950000Y-80637500D01*
X99625000Y-93175000D02*
X98975000Y-93825000D01*
X85500000Y-87000000D02*
X86000000Y-87000000D01*
X100143329Y-89139070D02*
X99414206Y-89868193D01*
X92850000Y-93850000D02*
X91000000Y-92000000D01*
X101637875Y-91859828D02*
X101879578Y-92101531D01*
X86950000Y-79500000D02*
X86950000Y-80450000D01*
X87050000Y-85950000D02*
X87050000Y-82500000D01*
X99414206Y-90989695D02*
X99394869Y-91009032D01*
X83550000Y-93150000D02*
X84350000Y-93150000D01*
X83000000Y-87000000D02*
X82050000Y-87000000D01*
X83525000Y-94475000D02*
X82650000Y-94475000D01*
X82000000Y-93825000D02*
X81475000Y-93825000D01*
X85000000Y-87000000D02*
X85500000Y-87000000D01*
X100000000Y-93175000D02*
X99625000Y-93175000D01*
X81500000Y-93800000D02*
X78000000Y-90300000D01*
%TO.N,/PI10{slash}TWI2_SDA*%
X112000000Y-54000000D02*
X100500000Y-54000000D01*
X100500000Y-54000000D02*
X99000000Y-52500000D01*
X105400000Y-85600000D02*
X105000000Y-86000000D01*
X106600000Y-85600000D02*
X105400000Y-85600000D01*
X68500000Y-31511000D02*
X68500000Y-33000000D01*
X101200000Y-87500000D02*
X102050000Y-86650000D01*
X101000000Y-87500000D02*
X101200000Y-87500000D01*
X99000000Y-52500000D02*
X99000000Y-50000000D01*
%TO.N,/BME_SDA2*%
X106600000Y-86400000D02*
X106082551Y-86400000D01*
X104982551Y-87982551D02*
X105500000Y-88500000D01*
X104500000Y-87982551D02*
X104982551Y-87982551D01*
X103950000Y-87432551D02*
X103963932Y-87446483D01*
X105500000Y-90500000D02*
X102150000Y-93850000D01*
X103950000Y-86650000D02*
X103950000Y-87432551D01*
X106082551Y-86400000D02*
X104500000Y-87982551D01*
X105500000Y-88500000D02*
X105500000Y-90500000D01*
X103963932Y-87446483D02*
X104500000Y-87982551D01*
X102150000Y-93850000D02*
X101000000Y-93850000D01*
%TO.N,/PI9{slash}TWI2_SCL*%
X69500000Y-31511000D02*
X69500000Y-33500000D01*
X108000000Y-77500000D02*
X105000000Y-80500000D01*
X106600000Y-84800000D02*
X105500000Y-84800000D01*
X105000000Y-84300000D02*
X103950000Y-85350000D01*
X105500000Y-84800000D02*
X105000000Y-84300000D01*
X108000000Y-64000000D02*
X108000000Y-77500000D01*
X105000000Y-80500000D02*
X105000000Y-84300000D01*
X105000000Y-61000000D02*
X108000000Y-64000000D01*
%TO.N,Net-(D1-DIN)*%
X89493500Y-56258500D02*
X88235000Y-55000000D01*
X90463500Y-56258500D02*
X89493500Y-56258500D01*
%TO.N,/PI14{slash}UART4_RX*%
X102187485Y-44149324D02*
X101288161Y-43250000D01*
X101288161Y-43250000D02*
X69250000Y-43250000D01*
X56786866Y-55746866D02*
X58040000Y-57000000D01*
X58680659Y-51500000D02*
X56748823Y-53431836D01*
X100880000Y-47500000D02*
X101544889Y-47500000D01*
X69250000Y-43250000D02*
X61000000Y-51500000D01*
X56763383Y-53446396D02*
X56763383Y-55746866D01*
X102187485Y-46857404D02*
X102187485Y-44149324D01*
X56763383Y-55746866D02*
X56786866Y-55746866D01*
X101544889Y-47500000D02*
X102187485Y-46857404D01*
X61000000Y-51500000D02*
X58680659Y-51500000D01*
X56748823Y-53431836D02*
X56763383Y-53446396D01*
%TO.N,+3V3*%
X98975002Y-78500000D02*
X99750000Y-78500000D01*
D61*
X104000000Y-61000000D02*
X97500000Y-67500000D01*
D62*
X117000000Y-57000000D02*
X108000000Y-57000000D01*
X108000000Y-57000000D02*
X104000000Y-61000000D01*
D60*
X120461855Y-39538145D02*
X122829384Y-41905673D01*
D62*
X107250000Y-64250000D02*
X107250000Y-71000000D01*
D54*
X72500000Y-39250000D02*
X72750000Y-39000000D01*
X87500000Y-75000000D02*
X86950000Y-75000000D01*
X78000000Y-85700000D02*
X78000000Y-86500000D01*
D55*
X118660000Y-44960000D02*
X119775057Y-44960000D01*
D54*
X99750000Y-78500000D02*
X104000000Y-74250000D01*
X72500000Y-39800000D02*
X72500000Y-39250000D01*
X90200000Y-52400000D02*
X89400000Y-52400000D01*
D61*
X89362500Y-78362500D02*
X87500000Y-76500000D01*
D54*
X89400000Y-52400000D02*
X88600000Y-52400000D01*
X108400000Y-84400000D02*
X107500000Y-83500000D01*
X78000000Y-84500000D02*
X78000000Y-85700000D01*
X78250000Y-84250000D02*
X78000000Y-84500000D01*
D55*
X119775057Y-44960000D02*
X122829384Y-41905673D01*
D54*
X79000000Y-60500000D02*
X66620000Y-60500000D01*
D61*
X90000000Y-78412500D02*
X90000000Y-79082350D01*
X90000000Y-79082350D02*
X90417650Y-79500000D01*
D54*
X82500000Y-80000000D02*
X82500000Y-64000000D01*
X108400000Y-84800000D02*
X108400000Y-84400000D01*
D62*
X104000000Y-61000000D02*
X107250000Y-64250000D01*
D54*
X77000000Y-39000000D02*
X80500000Y-42500000D01*
D62*
X99225000Y-82275000D02*
X99225000Y-83000000D01*
D54*
X82500000Y-64000000D02*
X79000000Y-60500000D01*
D60*
X117500000Y-37511000D02*
X117500000Y-38500000D01*
D54*
X80500000Y-42500000D02*
X97500000Y-42500000D01*
D61*
X95000000Y-73250000D02*
X89250000Y-73250000D01*
D54*
X108400000Y-85600000D02*
X108400000Y-84800000D01*
D62*
X126000000Y-48000000D02*
X117000000Y-57000000D01*
D54*
X86000000Y-75950000D02*
X86000000Y-77500000D01*
X79000000Y-60500000D02*
X79000000Y-57500000D01*
D61*
X91950000Y-78362500D02*
X91950000Y-79050000D01*
D62*
X104000000Y-74250000D02*
X104000000Y-77500000D01*
D54*
X84000000Y-52500000D02*
X87700000Y-52500000D01*
X86950000Y-75000000D02*
X86000000Y-75950000D01*
X97500000Y-42500000D02*
X98000000Y-42000000D01*
X72750000Y-39000000D02*
X77000000Y-39000000D01*
X79000000Y-57500000D02*
X84000000Y-52500000D01*
D61*
X96000000Y-73250000D02*
X95000000Y-73250000D01*
D54*
X88600000Y-52400000D02*
X87800000Y-52400000D01*
X90400000Y-52400000D02*
X90200000Y-52400000D01*
X87700000Y-52500000D02*
X87800000Y-52400000D01*
D60*
X118538145Y-39538145D02*
X120461855Y-39538145D01*
X117500000Y-38500000D02*
X118538145Y-39538145D01*
D61*
X90417650Y-79500000D02*
X91500000Y-79500000D01*
D54*
X120461855Y-39538145D02*
X120423710Y-39500000D01*
D61*
X89250000Y-73250000D02*
X87500000Y-75000000D01*
D54*
X98975002Y-78500000D02*
X98450002Y-78500000D01*
D61*
X97500000Y-71750000D02*
X96000000Y-73250000D01*
X87500000Y-76500000D02*
X87500000Y-75000000D01*
D62*
X104000000Y-77500000D02*
X99225000Y-82275000D01*
D54*
X72500000Y-39800000D02*
X72500000Y-41700000D01*
D60*
X117500000Y-37511000D02*
X117500000Y-31511000D01*
D61*
X97500000Y-67500000D02*
X97500000Y-71750000D01*
D62*
X107250000Y-71000000D02*
X104000000Y-74250000D01*
D61*
X91950000Y-79050000D02*
X91500000Y-79500000D01*
D54*
X66620000Y-60500000D02*
X63120000Y-57000000D01*
D61*
X90050000Y-78362500D02*
X89362500Y-78362500D01*
X90050000Y-78362500D02*
X90000000Y-78412500D01*
D54*
X82500000Y-80000000D02*
X78250000Y-84250000D01*
%TO.N,/PI13{slash}UART4_TX*%
X54000000Y-54000000D02*
X54000000Y-58000000D01*
X61000000Y-50500000D02*
X57500000Y-50500000D01*
X58080000Y-59500000D02*
X60580000Y-57000000D01*
X68609718Y-42890282D02*
X61000000Y-50500000D01*
X108970282Y-42890282D02*
X68609718Y-42890282D01*
X54000000Y-58000000D02*
X55500000Y-59500000D01*
X111040000Y-44960000D02*
X108970282Y-42890282D01*
X57500000Y-50500000D02*
X54000000Y-54000000D01*
X55500000Y-59500000D02*
X58080000Y-59500000D01*
%TO.N,/PH2{slash}UART5_TX*%
X93204223Y-32336975D02*
X94705404Y-32336975D01*
X93000000Y-32541198D02*
X93204223Y-32336975D01*
X105960000Y-44460000D02*
X105960000Y-44960000D01*
X93000000Y-33511000D02*
X93000000Y-32541198D01*
X95000000Y-32631571D02*
X95000000Y-35500000D01*
X94705404Y-32336975D02*
X95000000Y-32631571D01*
%TO.N,/PH3{slash}UART5_RX*%
X94000000Y-33511000D02*
X94000000Y-35540000D01*
%TO.N,/BME_SDA1*%
X79538011Y-87300000D02*
X78898406Y-87939605D01*
X79800000Y-87300000D02*
X79538011Y-87300000D01*
X82050000Y-86350000D02*
X81150000Y-86350000D01*
X81500000Y-93150000D02*
X78898406Y-90548406D01*
X78898406Y-90548406D02*
X78898406Y-87939605D01*
X81150000Y-86350000D02*
X80200000Y-87300000D01*
X80200000Y-87300000D02*
X80000000Y-87300000D01*
%TO.N,/BME_SCL1*%
X79800000Y-90800000D02*
X81500000Y-92500000D01*
X83950000Y-88035956D02*
X82000000Y-89985956D01*
X83950000Y-87650000D02*
X83950000Y-88035956D01*
X79800000Y-88100000D02*
X79800000Y-90000000D01*
X82000000Y-90000000D02*
X79800000Y-90000000D01*
X79800000Y-90000000D02*
X79800000Y-90800000D01*
X82000000Y-89985956D02*
X82000000Y-90000000D01*
%TO.N,/BME_ADD_1*%
X83550000Y-92500000D02*
X83550000Y-91450000D01*
X83825000Y-90825000D02*
X84000000Y-91000000D01*
X82000000Y-90825000D02*
X83825000Y-90825000D01*
X83550000Y-91450000D02*
X84000000Y-91000000D01*
%TO.N,/BUS3_SDA_SHIFT*%
X68500000Y-37511000D02*
X68500000Y-40425000D01*
X68500000Y-37511000D02*
X68500000Y-36627614D01*
X68809319Y-36318295D02*
X70016966Y-36318295D01*
X68500000Y-36627614D02*
X68809319Y-36318295D01*
X70016966Y-36318295D02*
X70025979Y-36309282D01*
X71850000Y-38133303D02*
X71850000Y-39800000D01*
X68500000Y-40425000D02*
X68575000Y-40500000D01*
X70025979Y-36309282D02*
X71850000Y-38133303D01*
%TO.N,/BUS3_SCL_SHIFT*%
X69500000Y-41925000D02*
X69575000Y-42000000D01*
X69500000Y-37511000D02*
X69500000Y-41925000D01*
X72850000Y-42500000D02*
X73150000Y-42200000D01*
X70075000Y-42500000D02*
X72850000Y-42500000D01*
X69575000Y-42000000D02*
X70075000Y-42500000D01*
X73150000Y-42200000D02*
X73150000Y-41700000D01*
%TO.N,Net-(J11-CC2)*%
X91927529Y-68868582D02*
X91927529Y-68809084D01*
X92000000Y-68736613D02*
X92000000Y-66000000D01*
X91927529Y-68809084D02*
X92000000Y-68736613D01*
X86500000Y-60500000D02*
X86500000Y-59735000D01*
X92000000Y-66000000D02*
X86500000Y-60500000D01*
%TO.N,/PI15{slash}TWI3_SCL*%
X79100000Y-42000000D02*
X76650000Y-39550000D01*
X80576215Y-44960000D02*
X80560000Y-44960000D01*
X81856152Y-46239937D02*
X80576215Y-44960000D01*
X81856152Y-48054552D02*
X81856152Y-46239937D01*
X76650000Y-39550000D02*
X73400000Y-39550000D01*
X84401600Y-50600000D02*
X81856152Y-48054552D01*
X87800000Y-50600000D02*
X84401600Y-50600000D01*
X73400000Y-39550000D02*
X73150000Y-39800000D01*
%TO.N,/PI0{slash}TWI3_SDA*%
X85500000Y-49500000D02*
X84343967Y-48343967D01*
X70742238Y-40592238D02*
X70460604Y-40592238D01*
X88000000Y-49500000D02*
X85500000Y-49500000D01*
X71850000Y-41700000D02*
X70742238Y-40592238D01*
X88600000Y-50100000D02*
X88000000Y-49500000D01*
X84343967Y-48343967D02*
X84343967Y-46203967D01*
X84343967Y-46203967D02*
X83100000Y-44960000D01*
X88600000Y-50600000D02*
X88600000Y-50100000D01*
%TO.N,/ADS_ADDR*%
X94500000Y-77500000D02*
X94500000Y-76925000D01*
X92825000Y-74250000D02*
X95000000Y-74250000D01*
X94500000Y-76925000D02*
X95000000Y-76425000D01*
X95000000Y-74250000D02*
X95000000Y-76425000D01*
%TO.N,/PH6{slash}SPI1_CLK*%
X79000000Y-34282500D02*
X79000000Y-37000000D01*
%TO.N,/PH8{slash}SPI1_MISO*%
X80000000Y-34282500D02*
X80000000Y-36500000D01*
%TO.N,/PH7{slash}SPI1_MOSI*%
X81000000Y-34282500D02*
X81000000Y-36000000D01*
%TO.N,/PH5{slash}SPI1_CS0*%
X82000000Y-34282500D02*
X82000000Y-37500000D01*
%TO.N,Net-(U3-AIN0)*%
X93500000Y-81675000D02*
X93500000Y-79250000D01*
X93500000Y-79250000D02*
X93750001Y-78999999D01*
X93750001Y-78999999D02*
X94525001Y-78999999D01*
%TO.N,Net-(U3-AIN1)*%
X100750000Y-85000000D02*
X103000000Y-82750000D01*
X94525001Y-79500001D02*
X94525001Y-80275001D01*
X99250000Y-85000000D02*
X100750000Y-85000000D01*
X94525001Y-80275001D02*
X99250000Y-85000000D01*
%TO.N,Net-(U3-AIN2)*%
X100499999Y-79500001D02*
X101500000Y-78500000D01*
X98975002Y-79500001D02*
X100499999Y-79500001D01*
%TO.N,Net-(U3-AIN3)*%
X100000001Y-78999999D02*
X101250000Y-77750000D01*
X98975002Y-78999999D02*
X100000001Y-78999999D01*
%TO.N,/PI6{slash}TWI0_SDA*%
X90200000Y-50600000D02*
X90200000Y-50560000D01*
X92297042Y-48462958D02*
X93260000Y-47500000D01*
X97500000Y-77500000D02*
X97500000Y-75750000D01*
X97999998Y-77999998D02*
X97500000Y-77500000D01*
X90200000Y-50560000D02*
X92297042Y-48462958D01*
X98975002Y-77999998D02*
X97999998Y-77999998D01*
X92297042Y-58757915D02*
X92297042Y-48462958D01*
%TO.N,/PI5{slash}TWI0_SCL*%
X91973782Y-48093738D02*
X90443793Y-49623727D01*
X90443793Y-49623727D02*
X90029421Y-49623727D01*
X89400000Y-50253148D02*
X90029421Y-49623727D01*
X100880000Y-44960000D02*
X99579061Y-46260939D01*
X99579061Y-46260939D02*
X92722839Y-46260939D01*
X98500000Y-75750000D02*
X98500000Y-77024997D01*
X92722839Y-46260939D02*
X91973782Y-47009996D01*
X98500000Y-77024997D02*
X98975002Y-77499999D01*
X89400000Y-50600000D02*
X89400000Y-50253148D01*
X91973782Y-47009996D02*
X91973782Y-48093738D01*
%TO.N,/ADS_ANALOG_0*%
X96575000Y-87250000D02*
X93250000Y-87250000D01*
X93500000Y-87000000D02*
X92795000Y-87705000D01*
X93250000Y-87250000D02*
X92795000Y-87705000D01*
X98000000Y-88675000D02*
X96575000Y-87250000D01*
X93500000Y-83325000D02*
X93500000Y-87000000D01*
%TO.N,/PI8{slash}TWI1_SDA*%
X83950000Y-86350000D02*
X82600000Y-85000000D01*
X79800000Y-86500000D02*
X80000000Y-86500000D01*
X82600000Y-85000000D02*
X81500000Y-85000000D01*
X118500000Y-31511000D02*
X118500000Y-34500000D01*
X114500000Y-89250000D02*
X111250000Y-86000000D01*
X80000000Y-86500000D02*
X81500000Y-85000000D01*
X111282500Y-85967500D02*
X111282500Y-64717500D01*
X111250000Y-86000000D02*
X111282500Y-85967500D01*
X118500000Y-34500000D02*
X118500000Y-37511000D01*
X114500000Y-94950000D02*
X114500000Y-89250000D01*
%TO.N,/PI7{slash}TWI1_SCL*%
X80875000Y-84625000D02*
X79800000Y-85700000D01*
X113000000Y-94950000D02*
X113000000Y-88750000D01*
X113000000Y-88750000D02*
X110500000Y-86250000D01*
X119500000Y-31511000D02*
X119500000Y-33750000D01*
X119500000Y-37511000D02*
X119500000Y-33750000D01*
X81350000Y-87650000D02*
X81000000Y-88000000D01*
X110500000Y-86250000D02*
X110500000Y-64782843D01*
X82050000Y-87650000D02*
X81350000Y-87650000D01*
X110500001Y-64782843D02*
X110500000Y-64782843D01*
%TO.N,Net-(J11-CC1)*%
X92943500Y-68837845D02*
X92943500Y-66443500D01*
X92943500Y-66443500D02*
X88500000Y-62000000D01*
X88500000Y-62000000D02*
X88500000Y-59825000D01*
%TO.N,/PI11{slash}PWM1*%
X84500000Y-55000000D02*
X83750000Y-54250000D01*
X80560000Y-48060000D02*
X80560000Y-47500000D01*
X86765000Y-55000000D02*
X84500000Y-55000000D01*
%TO.N,/BME_ADD_2*%
X100646334Y-90906400D02*
X100529004Y-90789070D01*
X102000000Y-95500000D02*
X103000000Y-94500000D01*
X99950000Y-95500000D02*
X102000000Y-95500000D01*
X103000000Y-90906400D02*
X100646334Y-90906400D01*
X103000000Y-92000000D02*
X103000000Y-90906400D01*
X98950000Y-94500000D02*
X99950000Y-95500000D01*
%TO.N,/SWITCH_GATE*%
X125525000Y-30775000D02*
X122250000Y-27500000D01*
X126581261Y-36212467D02*
X126581261Y-33968739D01*
X125525000Y-32975000D02*
X125525000Y-30775000D01*
X120000000Y-27500000D02*
X117250000Y-24750000D01*
X125525000Y-32975000D02*
X126500000Y-33950000D01*
X122250000Y-27500000D02*
X120000000Y-27500000D01*
X126581261Y-33968739D02*
X126600000Y-33950000D01*
X125500000Y-32950000D02*
X125525000Y-32975000D01*
X126250000Y-34200000D02*
X126500000Y-33950000D01*
X126425000Y-34125000D02*
X126600000Y-33950000D01*
%TO.N,/5V_BUS_USB*%
X126500000Y-32050000D02*
X126500000Y-31750000D01*
D58*
X128250000Y-43750000D02*
X125950000Y-46050000D01*
D63*
X90943500Y-68863511D02*
X91427971Y-69347982D01*
D56*
X94653235Y-68846765D02*
X107500000Y-56000000D01*
D63*
X93820142Y-69000000D02*
X93472160Y-69347982D01*
D55*
X115000000Y-23000000D02*
X113619987Y-24380013D01*
D58*
X126500000Y-32050000D02*
X127050000Y-32050000D01*
D56*
X93869707Y-68846765D02*
X94653235Y-68846765D01*
D55*
X126500000Y-25750000D02*
X126500000Y-32050000D01*
D58*
X128250000Y-33250000D02*
X128250000Y-43750000D01*
D56*
X107500000Y-56000000D02*
X116000000Y-56000000D01*
D55*
X126500000Y-25750000D02*
X123750000Y-23000000D01*
X123750000Y-23000000D02*
X115000000Y-23000000D01*
D58*
X127050000Y-32050000D02*
X128250000Y-33250000D01*
D56*
X116000000Y-56000000D02*
X125950000Y-46050000D01*
D63*
X91427971Y-69347982D02*
X93472160Y-69347982D01*
%TO.N,/PH1{slash}DEBUG*%
D54*
X108500000Y-47000000D02*
X108500000Y-47500000D01*
%TD*%
M02*
