G04 EAGLE Gerber RS-274X export*
G75*
%MOMM*%
%FSLAX34Y34*%
%LPD*%
%INBottom Copper*%
%IPPOS*%
%AMOC8*
5,1,8,0,0,1.08239X$1,22.5*%
G01*
%ADD10R,1.308000X1.308000*%
%ADD11C,1.308000*%
%ADD12R,1.605000X1.605000*%
%ADD13C,1.605000*%
%ADD14C,3.516000*%
%ADD15C,0.812800*%

G36*
X283270Y-8805D02*
X283270Y-8805D01*
X283399Y-8790D01*
X283410Y-8785D01*
X283421Y-8783D01*
X283539Y-8730D01*
X283659Y-8679D01*
X283667Y-8672D01*
X283678Y-8667D01*
X283776Y-8583D01*
X283877Y-8501D01*
X283883Y-8491D01*
X283892Y-8484D01*
X283963Y-8375D01*
X284037Y-8268D01*
X284040Y-8257D01*
X284047Y-8248D01*
X284084Y-8124D01*
X284125Y-8000D01*
X284126Y-7989D01*
X284129Y-7978D01*
X284131Y-7849D01*
X284135Y-7719D01*
X284133Y-7707D01*
X284133Y-7696D01*
X284098Y-7571D01*
X284066Y-7445D01*
X284061Y-7435D01*
X284058Y-7424D01*
X283989Y-7314D01*
X283924Y-7202D01*
X283916Y-7195D01*
X283909Y-7184D01*
X283700Y-6995D01*
X283698Y-6994D01*
X283697Y-6993D01*
X283283Y-6717D01*
X278158Y953D01*
X276359Y10000D01*
X278158Y19047D01*
X283283Y26717D01*
X290953Y31842D01*
X300000Y33641D01*
X309047Y31842D01*
X316717Y26717D01*
X316993Y26303D01*
X317080Y26206D01*
X317164Y26108D01*
X317174Y26102D01*
X317181Y26093D01*
X317291Y26025D01*
X317400Y25953D01*
X317411Y25950D01*
X317421Y25944D01*
X317546Y25909D01*
X317670Y25871D01*
X317681Y25871D01*
X317692Y25868D01*
X317822Y25869D01*
X317952Y25867D01*
X317963Y25870D01*
X317974Y25870D01*
X318098Y25908D01*
X318224Y25942D01*
X318233Y25948D01*
X318244Y25952D01*
X318353Y26022D01*
X318464Y26091D01*
X318471Y26099D01*
X318481Y26105D01*
X318566Y26204D01*
X318653Y26300D01*
X318658Y26310D01*
X318665Y26319D01*
X318719Y26437D01*
X318776Y26554D01*
X318777Y26564D01*
X318782Y26575D01*
X318823Y26854D01*
X318823Y26856D01*
X318823Y26858D01*
X318823Y383142D01*
X318805Y383270D01*
X318790Y383399D01*
X318785Y383410D01*
X318783Y383421D01*
X318730Y383539D01*
X318679Y383659D01*
X318672Y383667D01*
X318667Y383678D01*
X318583Y383776D01*
X318501Y383877D01*
X318491Y383883D01*
X318484Y383892D01*
X318375Y383963D01*
X318268Y384037D01*
X318257Y384040D01*
X318248Y384047D01*
X318124Y384084D01*
X318000Y384125D01*
X317989Y384126D01*
X317978Y384129D01*
X317849Y384131D01*
X317719Y384135D01*
X317707Y384133D01*
X317696Y384133D01*
X317571Y384098D01*
X317445Y384066D01*
X317435Y384061D01*
X317424Y384058D01*
X317314Y383989D01*
X317202Y383924D01*
X317195Y383916D01*
X317184Y383909D01*
X316995Y383700D01*
X316994Y383698D01*
X316993Y383697D01*
X316717Y383283D01*
X309047Y378158D01*
X300000Y376359D01*
X290953Y378158D01*
X283283Y383283D01*
X278158Y390953D01*
X276359Y400000D01*
X278158Y409047D01*
X283283Y416717D01*
X283697Y416993D01*
X283794Y417080D01*
X283892Y417164D01*
X283898Y417174D01*
X283907Y417181D01*
X283975Y417291D01*
X284047Y417400D01*
X284050Y417411D01*
X284056Y417421D01*
X284091Y417546D01*
X284129Y417670D01*
X284129Y417681D01*
X284132Y417692D01*
X284131Y417822D01*
X284133Y417952D01*
X284130Y417963D01*
X284130Y417974D01*
X284092Y418098D01*
X284058Y418224D01*
X284052Y418233D01*
X284048Y418244D01*
X283978Y418353D01*
X283909Y418464D01*
X283901Y418471D01*
X283895Y418481D01*
X283796Y418566D01*
X283700Y418653D01*
X283690Y418658D01*
X283681Y418665D01*
X283563Y418719D01*
X283446Y418776D01*
X283436Y418777D01*
X283425Y418782D01*
X283146Y418823D01*
X283144Y418823D01*
X283142Y418823D01*
X26858Y418823D01*
X26730Y418805D01*
X26601Y418790D01*
X26590Y418785D01*
X26579Y418783D01*
X26461Y418730D01*
X26341Y418679D01*
X26333Y418672D01*
X26322Y418667D01*
X26224Y418583D01*
X26123Y418501D01*
X26117Y418491D01*
X26108Y418484D01*
X26037Y418375D01*
X25963Y418268D01*
X25960Y418257D01*
X25953Y418248D01*
X25916Y418124D01*
X25875Y418000D01*
X25874Y417989D01*
X25871Y417978D01*
X25869Y417849D01*
X25865Y417719D01*
X25867Y417707D01*
X25867Y417696D01*
X25902Y417571D01*
X25934Y417445D01*
X25939Y417435D01*
X25942Y417424D01*
X26011Y417314D01*
X26076Y417202D01*
X26084Y417195D01*
X26091Y417184D01*
X26300Y416995D01*
X26302Y416994D01*
X26303Y416993D01*
X26717Y416717D01*
X31842Y409047D01*
X33641Y400000D01*
X31842Y390953D01*
X26717Y383283D01*
X19047Y378158D01*
X10000Y376359D01*
X953Y378158D01*
X-6717Y383283D01*
X-6993Y383697D01*
X-7080Y383794D01*
X-7164Y383892D01*
X-7174Y383898D01*
X-7181Y383907D01*
X-7291Y383975D01*
X-7400Y384047D01*
X-7411Y384050D01*
X-7421Y384056D01*
X-7546Y384091D01*
X-7670Y384129D01*
X-7681Y384129D01*
X-7692Y384132D01*
X-7822Y384131D01*
X-7952Y384133D01*
X-7963Y384130D01*
X-7974Y384130D01*
X-8098Y384092D01*
X-8224Y384058D01*
X-8233Y384052D01*
X-8244Y384048D01*
X-8353Y383978D01*
X-8464Y383909D01*
X-8471Y383901D01*
X-8481Y383895D01*
X-8566Y383796D01*
X-8653Y383700D01*
X-8658Y383690D01*
X-8665Y383681D01*
X-8719Y383563D01*
X-8776Y383446D01*
X-8777Y383436D01*
X-8782Y383425D01*
X-8823Y383146D01*
X-8823Y383144D01*
X-8823Y383142D01*
X-8823Y26858D01*
X-8805Y26730D01*
X-8790Y26601D01*
X-8785Y26590D01*
X-8783Y26579D01*
X-8730Y26461D01*
X-8679Y26341D01*
X-8672Y26333D01*
X-8667Y26322D01*
X-8583Y26224D01*
X-8501Y26123D01*
X-8491Y26117D01*
X-8484Y26108D01*
X-8375Y26037D01*
X-8268Y25963D01*
X-8257Y25960D01*
X-8248Y25953D01*
X-8124Y25916D01*
X-8000Y25875D01*
X-7989Y25874D01*
X-7978Y25871D01*
X-7849Y25869D01*
X-7719Y25865D01*
X-7707Y25867D01*
X-7696Y25867D01*
X-7571Y25902D01*
X-7445Y25934D01*
X-7435Y25939D01*
X-7424Y25942D01*
X-7314Y26011D01*
X-7202Y26076D01*
X-7195Y26084D01*
X-7184Y26091D01*
X-6995Y26300D01*
X-6994Y26302D01*
X-6993Y26303D01*
X-6717Y26717D01*
X953Y31842D01*
X10000Y33641D01*
X19047Y31842D01*
X26717Y26717D01*
X31842Y19047D01*
X33641Y10000D01*
X31842Y953D01*
X26717Y-6717D01*
X26303Y-6993D01*
X26206Y-7080D01*
X26108Y-7164D01*
X26102Y-7174D01*
X26093Y-7181D01*
X26025Y-7291D01*
X25953Y-7400D01*
X25950Y-7411D01*
X25944Y-7421D01*
X25909Y-7546D01*
X25871Y-7670D01*
X25871Y-7681D01*
X25868Y-7692D01*
X25869Y-7822D01*
X25867Y-7952D01*
X25870Y-7963D01*
X25870Y-7974D01*
X25908Y-8098D01*
X25942Y-8224D01*
X25948Y-8233D01*
X25952Y-8244D01*
X26022Y-8353D01*
X26091Y-8464D01*
X26099Y-8471D01*
X26105Y-8481D01*
X26204Y-8566D01*
X26300Y-8653D01*
X26310Y-8658D01*
X26319Y-8665D01*
X26437Y-8719D01*
X26554Y-8776D01*
X26564Y-8777D01*
X26575Y-8782D01*
X26854Y-8823D01*
X26856Y-8823D01*
X26858Y-8823D01*
X283142Y-8823D01*
X283270Y-8805D01*
G37*
%LPC*%
G36*
X125507Y45674D02*
X125507Y45674D01*
X121271Y47429D01*
X119358Y49343D01*
X119281Y49400D01*
X119209Y49465D01*
X119168Y49485D01*
X119132Y49512D01*
X119042Y49546D01*
X118956Y49588D01*
X118914Y49594D01*
X118868Y49611D01*
X118740Y49621D01*
X118651Y49635D01*
X101295Y49635D01*
X98515Y50787D01*
X33587Y115715D01*
X32435Y118495D01*
X32435Y331505D01*
X33587Y334285D01*
X73715Y374413D01*
X76495Y375565D01*
X121120Y375565D01*
X121215Y375578D01*
X121311Y375583D01*
X121354Y375598D01*
X121399Y375605D01*
X121487Y375644D01*
X121578Y375676D01*
X121612Y375701D01*
X121656Y375721D01*
X121753Y375804D01*
X121827Y375857D01*
X124010Y378041D01*
X139990Y378041D01*
X142041Y375990D01*
X142041Y369071D01*
X142054Y368976D01*
X142059Y368880D01*
X142074Y368837D01*
X142081Y368792D01*
X142120Y368705D01*
X142152Y368614D01*
X142177Y368579D01*
X142197Y368535D01*
X142280Y368438D01*
X142333Y368365D01*
X168365Y342333D01*
X168442Y342276D01*
X168513Y342211D01*
X168554Y342191D01*
X168590Y342164D01*
X168680Y342130D01*
X168767Y342088D01*
X168809Y342082D01*
X168854Y342065D01*
X168982Y342055D01*
X169071Y342041D01*
X169997Y342041D01*
X173688Y340512D01*
X176512Y337688D01*
X178041Y333997D01*
X178041Y330003D01*
X176512Y326312D01*
X173688Y323488D01*
X169997Y321959D01*
X166003Y321959D01*
X162312Y323488D01*
X159488Y326312D01*
X157959Y330003D01*
X157959Y330929D01*
X157950Y330992D01*
X157951Y331050D01*
X157943Y331079D01*
X157941Y331120D01*
X157926Y331163D01*
X157919Y331208D01*
X157888Y331277D01*
X157876Y331321D01*
X157864Y331340D01*
X157848Y331386D01*
X157823Y331421D01*
X157803Y331465D01*
X157746Y331531D01*
X157728Y331561D01*
X157706Y331581D01*
X157667Y331635D01*
X131635Y357667D01*
X131558Y357724D01*
X131487Y357789D01*
X131446Y357809D01*
X131410Y357836D01*
X131320Y357870D01*
X131233Y357912D01*
X131191Y357918D01*
X131146Y357935D01*
X131018Y357945D01*
X130929Y357959D01*
X124010Y357959D01*
X121827Y360143D01*
X121750Y360200D01*
X121678Y360265D01*
X121637Y360285D01*
X121601Y360312D01*
X121511Y360346D01*
X121425Y360388D01*
X121383Y360394D01*
X121337Y360411D01*
X121210Y360421D01*
X121120Y360435D01*
X81547Y360435D01*
X81452Y360422D01*
X81356Y360417D01*
X81313Y360402D01*
X81268Y360395D01*
X81181Y360356D01*
X81090Y360324D01*
X81055Y360299D01*
X81011Y360279D01*
X80914Y360196D01*
X80841Y360143D01*
X47857Y327159D01*
X47800Y327082D01*
X47735Y327011D01*
X47715Y326970D01*
X47688Y326934D01*
X47654Y326844D01*
X47612Y326757D01*
X47606Y326715D01*
X47589Y326670D01*
X47579Y326542D01*
X47565Y326453D01*
X47565Y123547D01*
X47578Y123452D01*
X47583Y123356D01*
X47598Y123313D01*
X47605Y123268D01*
X47644Y123181D01*
X47676Y123090D01*
X47701Y123055D01*
X47721Y123011D01*
X47804Y122914D01*
X47857Y122841D01*
X105641Y65057D01*
X105718Y65000D01*
X105789Y64935D01*
X105830Y64915D01*
X105866Y64888D01*
X105956Y64854D01*
X106043Y64812D01*
X106085Y64806D01*
X106130Y64789D01*
X106258Y64779D01*
X106347Y64765D01*
X118651Y64765D01*
X118746Y64778D01*
X118842Y64783D01*
X118885Y64798D01*
X118930Y64805D01*
X119018Y64844D01*
X119109Y64876D01*
X119143Y64901D01*
X119187Y64921D01*
X119284Y65004D01*
X119358Y65057D01*
X121271Y66971D01*
X125507Y68726D01*
X130093Y68726D01*
X134329Y66971D01*
X137571Y63729D01*
X139326Y59493D01*
X139326Y54907D01*
X137571Y50671D01*
X134329Y47429D01*
X130093Y45674D01*
X125507Y45674D01*
G37*
%LPD*%
%LPC*%
G36*
X176307Y45674D02*
X176307Y45674D01*
X172071Y47429D01*
X168829Y50671D01*
X167074Y54907D01*
X167074Y59493D01*
X168829Y63729D01*
X170743Y65642D01*
X170800Y65719D01*
X170865Y65791D01*
X170885Y65832D01*
X170912Y65868D01*
X170946Y65958D01*
X170988Y66044D01*
X170994Y66086D01*
X171011Y66132D01*
X171021Y66260D01*
X171035Y66349D01*
X171035Y77853D01*
X171022Y77948D01*
X171017Y78044D01*
X171002Y78087D01*
X170995Y78132D01*
X170956Y78219D01*
X170924Y78310D01*
X170899Y78345D01*
X170879Y78389D01*
X170796Y78486D01*
X170743Y78559D01*
X73820Y175482D01*
X73744Y175539D01*
X73672Y175604D01*
X73631Y175624D01*
X73595Y175651D01*
X73505Y175685D01*
X73418Y175727D01*
X73376Y175733D01*
X73331Y175750D01*
X73203Y175760D01*
X73114Y175774D01*
X72707Y175774D01*
X68471Y177529D01*
X65229Y180771D01*
X63474Y185007D01*
X63474Y189593D01*
X65229Y193829D01*
X67143Y195742D01*
X67200Y195819D01*
X67265Y195891D01*
X67285Y195932D01*
X67312Y195968D01*
X67346Y196058D01*
X67388Y196144D01*
X67394Y196186D01*
X67411Y196232D01*
X67421Y196360D01*
X67435Y196449D01*
X67435Y200175D01*
X67426Y200239D01*
X67427Y200303D01*
X67406Y200378D01*
X67395Y200454D01*
X67369Y200513D01*
X67352Y200575D01*
X67311Y200641D01*
X67279Y200711D01*
X67237Y200760D01*
X67204Y200815D01*
X67146Y200867D01*
X67096Y200925D01*
X67042Y200961D01*
X66994Y201004D01*
X66925Y201037D01*
X66860Y201080D01*
X66798Y201099D01*
X66741Y201127D01*
X66671Y201138D01*
X66590Y201162D01*
X66505Y201163D01*
X66436Y201174D01*
X65525Y201174D01*
X63474Y203225D01*
X63474Y222175D01*
X65525Y224226D01*
X66436Y224226D01*
X66500Y224235D01*
X66564Y224234D01*
X66639Y224255D01*
X66715Y224266D01*
X66774Y224292D01*
X66836Y224309D01*
X66902Y224350D01*
X66972Y224382D01*
X67021Y224424D01*
X67076Y224457D01*
X67128Y224515D01*
X67186Y224565D01*
X67222Y224619D01*
X67265Y224667D01*
X67298Y224736D01*
X67341Y224801D01*
X67360Y224863D01*
X67388Y224920D01*
X67399Y224990D01*
X67423Y225071D01*
X67424Y225156D01*
X67435Y225225D01*
X67435Y276505D01*
X68587Y279285D01*
X121667Y332365D01*
X121724Y332442D01*
X121789Y332513D01*
X121809Y332554D01*
X121836Y332590D01*
X121870Y332680D01*
X121912Y332767D01*
X121918Y332809D01*
X121935Y332854D01*
X121945Y332982D01*
X121959Y333071D01*
X121959Y333997D01*
X123488Y337688D01*
X126312Y340512D01*
X130003Y342041D01*
X133997Y342041D01*
X137688Y340512D01*
X140512Y337688D01*
X142041Y333997D01*
X142041Y330003D01*
X140512Y326312D01*
X137688Y323488D01*
X133997Y321959D01*
X133071Y321959D01*
X132976Y321946D01*
X132880Y321941D01*
X132837Y321926D01*
X132792Y321919D01*
X132705Y321880D01*
X132614Y321848D01*
X132579Y321823D01*
X132535Y321803D01*
X132438Y321720D01*
X132365Y321667D01*
X82857Y272159D01*
X82800Y272082D01*
X82735Y272011D01*
X82715Y271970D01*
X82688Y271934D01*
X82654Y271844D01*
X82612Y271757D01*
X82606Y271715D01*
X82589Y271670D01*
X82579Y271542D01*
X82565Y271453D01*
X82565Y225225D01*
X82574Y225161D01*
X82573Y225097D01*
X82594Y225022D01*
X82605Y224946D01*
X82631Y224887D01*
X82648Y224825D01*
X82689Y224759D01*
X82721Y224689D01*
X82763Y224640D01*
X82796Y224585D01*
X82854Y224533D01*
X82904Y224475D01*
X82958Y224439D01*
X83006Y224396D01*
X83075Y224363D01*
X83140Y224320D01*
X83202Y224301D01*
X83259Y224273D01*
X83329Y224262D01*
X83410Y224238D01*
X83495Y224237D01*
X83564Y224226D01*
X84475Y224226D01*
X86526Y222175D01*
X86526Y203225D01*
X84475Y201174D01*
X83564Y201174D01*
X83500Y201165D01*
X83436Y201166D01*
X83361Y201145D01*
X83285Y201134D01*
X83226Y201108D01*
X83164Y201091D01*
X83098Y201050D01*
X83028Y201018D01*
X82979Y200976D01*
X82924Y200943D01*
X82872Y200885D01*
X82814Y200835D01*
X82778Y200781D01*
X82735Y200733D01*
X82702Y200664D01*
X82659Y200599D01*
X82640Y200537D01*
X82612Y200480D01*
X82601Y200410D01*
X82577Y200329D01*
X82576Y200244D01*
X82565Y200175D01*
X82565Y196449D01*
X82578Y196354D01*
X82583Y196258D01*
X82598Y196215D01*
X82605Y196170D01*
X82644Y196082D01*
X82676Y195991D01*
X82701Y195957D01*
X82721Y195913D01*
X82804Y195816D01*
X82857Y195742D01*
X84771Y193829D01*
X86526Y189593D01*
X86526Y185000D01*
X86499Y184888D01*
X86467Y184761D01*
X86467Y184751D01*
X86465Y184742D01*
X86471Y184609D01*
X86476Y184479D01*
X86479Y184470D01*
X86479Y184460D01*
X86522Y184335D01*
X86563Y184211D01*
X86568Y184203D01*
X86572Y184194D01*
X86617Y184132D01*
X86722Y183978D01*
X86741Y183962D01*
X86753Y183945D01*
X185013Y85685D01*
X186165Y82905D01*
X186165Y66349D01*
X186178Y66254D01*
X186183Y66158D01*
X186198Y66115D01*
X186205Y66070D01*
X186244Y65982D01*
X186276Y65891D01*
X186301Y65857D01*
X186321Y65813D01*
X186404Y65716D01*
X186457Y65642D01*
X188371Y63729D01*
X190126Y59493D01*
X190126Y54907D01*
X188371Y50671D01*
X185129Y47429D01*
X180893Y45674D01*
X176307Y45674D01*
G37*
%LPD*%
%LPC*%
G36*
X150907Y20274D02*
X150907Y20274D01*
X146671Y22029D01*
X143429Y25271D01*
X141674Y29507D01*
X141674Y34093D01*
X143429Y38329D01*
X146671Y41571D01*
X150907Y43326D01*
X155493Y43326D01*
X159729Y41571D01*
X162971Y38329D01*
X164726Y34093D01*
X164726Y29507D01*
X162971Y25271D01*
X159729Y22029D01*
X155493Y20274D01*
X150907Y20274D01*
G37*
%LPD*%
%LPC*%
G36*
X176307Y20274D02*
X176307Y20274D01*
X172071Y22029D01*
X168829Y25271D01*
X167074Y29507D01*
X167074Y34093D01*
X168829Y38329D01*
X172071Y41571D01*
X176307Y43326D01*
X180893Y43326D01*
X185129Y41571D01*
X188371Y38329D01*
X190126Y34093D01*
X190126Y29507D01*
X188371Y25271D01*
X185129Y22029D01*
X180893Y20274D01*
X176307Y20274D01*
G37*
%LPD*%
%LPC*%
G36*
X150907Y45674D02*
X150907Y45674D01*
X146671Y47429D01*
X143429Y50671D01*
X141674Y54907D01*
X141674Y59493D01*
X143429Y63729D01*
X146671Y66971D01*
X150907Y68726D01*
X155493Y68726D01*
X159729Y66971D01*
X162971Y63729D01*
X164726Y59493D01*
X164726Y54907D01*
X162971Y50671D01*
X159729Y47429D01*
X155493Y45674D01*
X150907Y45674D01*
G37*
%LPD*%
%LPC*%
G36*
X226999Y189299D02*
X226999Y189299D01*
X226999Y197866D01*
X233360Y197866D01*
X234006Y197693D01*
X234585Y197358D01*
X235058Y196885D01*
X235393Y196306D01*
X235566Y195660D01*
X235566Y189299D01*
X226999Y189299D01*
G37*
%LPD*%
%LPC*%
G36*
X129799Y33799D02*
X129799Y33799D01*
X129799Y42366D01*
X136160Y42366D01*
X136806Y42193D01*
X137385Y41858D01*
X137858Y41385D01*
X138193Y40806D01*
X138366Y40160D01*
X138366Y33799D01*
X129799Y33799D01*
G37*
%LPD*%
%LPC*%
G36*
X226999Y176734D02*
X226999Y176734D01*
X226999Y185301D01*
X235566Y185301D01*
X235566Y178940D01*
X235393Y178294D01*
X235058Y177715D01*
X234585Y177242D01*
X234006Y176907D01*
X233360Y176734D01*
X226999Y176734D01*
G37*
%LPD*%
%LPC*%
G36*
X129799Y21234D02*
X129799Y21234D01*
X129799Y29801D01*
X138366Y29801D01*
X138366Y23440D01*
X138193Y22794D01*
X137858Y22215D01*
X137385Y21742D01*
X136806Y21407D01*
X136160Y21234D01*
X129799Y21234D01*
G37*
%LPD*%
%LPC*%
G36*
X117234Y33799D02*
X117234Y33799D01*
X117234Y40160D01*
X117407Y40806D01*
X117742Y41385D01*
X118215Y41858D01*
X118794Y42193D01*
X119440Y42366D01*
X125801Y42366D01*
X125801Y33799D01*
X117234Y33799D01*
G37*
%LPD*%
%LPC*%
G36*
X214434Y189299D02*
X214434Y189299D01*
X214434Y195660D01*
X214607Y196306D01*
X214942Y196885D01*
X215415Y197358D01*
X215994Y197693D01*
X216640Y197866D01*
X223001Y197866D01*
X223001Y189299D01*
X214434Y189299D01*
G37*
%LPD*%
%LPC*%
G36*
X119440Y21234D02*
X119440Y21234D01*
X118794Y21407D01*
X118215Y21742D01*
X117742Y22215D01*
X117407Y22794D01*
X117234Y23440D01*
X117234Y29801D01*
X125801Y29801D01*
X125801Y21234D01*
X119440Y21234D01*
G37*
%LPD*%
%LPC*%
G36*
X216640Y176734D02*
X216640Y176734D01*
X215994Y176907D01*
X215415Y177242D01*
X214942Y177715D01*
X214607Y178294D01*
X214434Y178940D01*
X214434Y185301D01*
X223001Y185301D01*
X223001Y176734D01*
X216640Y176734D01*
G37*
%LPD*%
%LPC*%
G36*
X226999Y214699D02*
X226999Y214699D01*
X226999Y223081D01*
X227474Y223006D01*
X229056Y222492D01*
X230538Y221737D01*
X231883Y220759D01*
X233059Y219583D01*
X234037Y218238D01*
X234792Y216756D01*
X235306Y215174D01*
X235381Y214699D01*
X226999Y214699D01*
G37*
%LPD*%
%LPC*%
G36*
X226999Y210701D02*
X226999Y210701D01*
X235381Y210701D01*
X235306Y210226D01*
X234792Y208644D01*
X234037Y207162D01*
X233059Y205817D01*
X231883Y204641D01*
X230538Y203663D01*
X229056Y202908D01*
X227474Y202394D01*
X226999Y202319D01*
X226999Y210701D01*
G37*
%LPD*%
%LPC*%
G36*
X214619Y214699D02*
X214619Y214699D01*
X214694Y215174D01*
X215208Y216756D01*
X215963Y218238D01*
X216941Y219583D01*
X218117Y220759D01*
X219462Y221737D01*
X220944Y222492D01*
X222526Y223006D01*
X223001Y223081D01*
X223001Y214699D01*
X214619Y214699D01*
G37*
%LPD*%
%LPC*%
G36*
X222526Y202394D02*
X222526Y202394D01*
X220944Y202908D01*
X219462Y203663D01*
X218117Y204641D01*
X216941Y205817D01*
X215963Y207162D01*
X215208Y208644D01*
X214694Y210226D01*
X214619Y210701D01*
X223001Y210701D01*
X223001Y202319D01*
X222526Y202394D01*
G37*
%LPD*%
%LPC*%
G36*
X169999Y369999D02*
X169999Y369999D01*
X169999Y376861D01*
X170649Y376732D01*
X172301Y376047D01*
X173789Y375053D01*
X175053Y373789D01*
X176047Y372301D01*
X176732Y370649D01*
X176861Y369999D01*
X169999Y369999D01*
G37*
%LPD*%
%LPC*%
G36*
X169999Y366001D02*
X169999Y366001D01*
X176861Y366001D01*
X176732Y365351D01*
X176047Y363699D01*
X175053Y362211D01*
X173789Y360947D01*
X172301Y359953D01*
X170649Y359268D01*
X169999Y359139D01*
X169999Y366001D01*
G37*
%LPD*%
%LPC*%
G36*
X159139Y369999D02*
X159139Y369999D01*
X159268Y370649D01*
X159953Y372301D01*
X160947Y373789D01*
X162211Y375053D01*
X163699Y376047D01*
X165351Y376732D01*
X166001Y376861D01*
X166001Y369999D01*
X159139Y369999D01*
G37*
%LPD*%
%LPC*%
G36*
X165351Y359268D02*
X165351Y359268D01*
X163699Y359953D01*
X162211Y360947D01*
X160947Y362211D01*
X159953Y363699D01*
X159268Y365351D01*
X159139Y366001D01*
X166001Y366001D01*
X166001Y359139D01*
X165351Y359268D01*
G37*
%LPD*%
%LPC*%
G36*
X224999Y212699D02*
X224999Y212699D01*
X224999Y212701D01*
X225001Y212701D01*
X225001Y212699D01*
X224999Y212699D01*
G37*
%LPD*%
%LPC*%
G36*
X167999Y367999D02*
X167999Y367999D01*
X167999Y368001D01*
X168001Y368001D01*
X168001Y367999D01*
X167999Y367999D01*
G37*
%LPD*%
%LPC*%
G36*
X127799Y31799D02*
X127799Y31799D01*
X127799Y31801D01*
X127801Y31801D01*
X127801Y31799D01*
X127799Y31799D01*
G37*
%LPD*%
%LPC*%
G36*
X224999Y187299D02*
X224999Y187299D01*
X224999Y187301D01*
X225001Y187301D01*
X225001Y187299D01*
X224999Y187299D01*
G37*
%LPD*%
D10*
X132000Y368000D03*
D11*
X132000Y332000D03*
X168000Y332000D03*
X168000Y368000D03*
D12*
X127800Y31800D03*
D13*
X127800Y57200D03*
X153200Y31800D03*
X153200Y57200D03*
X178600Y31800D03*
X178600Y57200D03*
D12*
X75000Y212700D03*
D13*
X75000Y187300D03*
D12*
X225000Y187300D03*
D13*
X225000Y212700D03*
D14*
X300000Y10000D03*
X10000Y10000D03*
X300000Y400000D03*
X10000Y400000D03*
D15*
X127800Y31800D02*
X130000Y29600D01*
X130000Y10000D01*
X140000Y0D01*
X200000Y0D01*
X225000Y25000D01*
X225000Y187300D01*
X225000Y212700D01*
X225000Y311000D01*
X168000Y368000D01*
X127800Y57200D02*
X102800Y57200D01*
X40000Y120000D01*
X78000Y368000D02*
X132000Y368000D01*
X40000Y330000D02*
X40000Y120000D01*
X40000Y330000D02*
X78000Y368000D01*
X132000Y368000D02*
X168000Y332000D01*
X178600Y81400D02*
X178600Y57200D01*
X75000Y185000D02*
X75000Y187300D01*
X75000Y185000D02*
X178600Y81400D01*
X75000Y187300D02*
X75000Y212700D01*
X75000Y275000D01*
X132000Y332000D01*
M02*
