G04 EAGLE Gerber RS-274X export*
G75*
%MOMM*%
%FSLAX34Y34*%
%LPD*%
%INBottom Copper*%
%IPPOS*%
%AMOC8*
5,1,8,0,0,1.08239X$1,22.5*%
G01*
%ADD10C,3.606800*%
%ADD11R,1.605000X1.605000*%
%ADD12C,1.605000*%
%ADD13C,3.516000*%
%ADD14C,0.609600*%

G36*
X175705Y41171D02*
X175705Y41171D01*
X175757Y41172D01*
X175802Y41191D01*
X175850Y41200D01*
X175893Y41230D01*
X175941Y41251D01*
X175975Y41286D01*
X176015Y41313D01*
X176044Y41357D01*
X176081Y41395D01*
X176098Y41440D01*
X176125Y41481D01*
X176134Y41533D01*
X176153Y41582D01*
X176152Y41630D01*
X176160Y41678D01*
X176149Y41730D01*
X176147Y41782D01*
X176127Y41826D01*
X176117Y41874D01*
X176086Y41917D01*
X176065Y41965D01*
X176026Y42002D01*
X176001Y42037D01*
X175968Y42058D01*
X175935Y42090D01*
X173630Y43630D01*
X168611Y51141D01*
X166849Y60000D01*
X168611Y68859D01*
X173630Y76370D01*
X181141Y81389D01*
X190000Y83151D01*
X198859Y81389D01*
X206370Y76370D01*
X207894Y74089D01*
X207931Y74052D01*
X207961Y74008D01*
X208002Y73982D01*
X208036Y73948D01*
X208085Y73928D01*
X208129Y73899D01*
X208177Y73891D01*
X208222Y73872D01*
X208275Y73873D01*
X208326Y73864D01*
X208374Y73874D01*
X208423Y73875D01*
X208471Y73896D01*
X208522Y73907D01*
X208562Y73935D01*
X208606Y73955D01*
X208643Y73993D01*
X208685Y74023D01*
X208711Y74065D01*
X208745Y74100D01*
X208764Y74149D01*
X208791Y74193D01*
X208801Y74247D01*
X208816Y74287D01*
X208815Y74325D01*
X208823Y74371D01*
X208823Y375629D01*
X208813Y375681D01*
X208812Y375733D01*
X208793Y375778D01*
X208784Y375826D01*
X208754Y375869D01*
X208733Y375917D01*
X208698Y375951D01*
X208671Y375992D01*
X208627Y376020D01*
X208589Y376057D01*
X208544Y376074D01*
X208503Y376101D01*
X208451Y376110D01*
X208402Y376129D01*
X208354Y376128D01*
X208306Y376136D01*
X208254Y376125D01*
X208202Y376123D01*
X208158Y376103D01*
X208110Y376093D01*
X208067Y376062D01*
X208019Y376041D01*
X207982Y376002D01*
X207947Y375977D01*
X207926Y375944D01*
X207894Y375911D01*
X206370Y373630D01*
X198859Y368611D01*
X190000Y366849D01*
X181141Y368611D01*
X173630Y373630D01*
X168611Y381141D01*
X166849Y390000D01*
X168611Y398859D01*
X173630Y406370D01*
X175911Y407894D01*
X175948Y407931D01*
X175992Y407961D01*
X176018Y408002D01*
X176052Y408036D01*
X176072Y408085D01*
X176101Y408129D01*
X176109Y408177D01*
X176128Y408222D01*
X176127Y408275D01*
X176136Y408326D01*
X176126Y408374D01*
X176125Y408423D01*
X176104Y408471D01*
X176093Y408522D01*
X176065Y408562D01*
X176045Y408606D01*
X176007Y408643D01*
X175977Y408685D01*
X175935Y408711D01*
X175900Y408745D01*
X175851Y408764D01*
X175807Y408791D01*
X175753Y408801D01*
X175713Y408816D01*
X175675Y408815D01*
X175629Y408823D01*
X24371Y408823D01*
X24319Y408813D01*
X24267Y408812D01*
X24222Y408793D01*
X24174Y408784D01*
X24131Y408754D01*
X24083Y408733D01*
X24049Y408698D01*
X24008Y408671D01*
X23980Y408627D01*
X23943Y408589D01*
X23926Y408544D01*
X23899Y408503D01*
X23890Y408451D01*
X23871Y408402D01*
X23872Y408354D01*
X23864Y408306D01*
X23875Y408254D01*
X23877Y408202D01*
X23897Y408158D01*
X23907Y408110D01*
X23938Y408067D01*
X23959Y408019D01*
X23998Y407982D01*
X24023Y407947D01*
X24056Y407926D01*
X24089Y407894D01*
X26370Y406370D01*
X31389Y398859D01*
X33151Y390000D01*
X31389Y381141D01*
X26370Y373630D01*
X18859Y368611D01*
X10000Y366849D01*
X1141Y368611D01*
X-6370Y373630D01*
X-7894Y375911D01*
X-7931Y375948D01*
X-7961Y375992D01*
X-8002Y376018D01*
X-8036Y376052D01*
X-8085Y376072D01*
X-8129Y376101D01*
X-8177Y376109D01*
X-8222Y376128D01*
X-8275Y376127D01*
X-8326Y376136D01*
X-8374Y376126D01*
X-8423Y376125D01*
X-8471Y376104D01*
X-8522Y376093D01*
X-8562Y376065D01*
X-8606Y376045D01*
X-8643Y376007D01*
X-8685Y375977D01*
X-8711Y375935D01*
X-8745Y375900D01*
X-8764Y375851D01*
X-8791Y375807D01*
X-8801Y375753D01*
X-8816Y375713D01*
X-8815Y375675D01*
X-8823Y375629D01*
X-8823Y74371D01*
X-8813Y74319D01*
X-8812Y74267D01*
X-8793Y74222D01*
X-8784Y74174D01*
X-8754Y74131D01*
X-8733Y74083D01*
X-8698Y74049D01*
X-8671Y74008D01*
X-8627Y73980D01*
X-8589Y73943D01*
X-8544Y73926D01*
X-8503Y73899D01*
X-8451Y73890D01*
X-8402Y73871D01*
X-8354Y73872D01*
X-8306Y73864D01*
X-8254Y73875D01*
X-8202Y73877D01*
X-8158Y73897D01*
X-8110Y73907D01*
X-8067Y73938D01*
X-8019Y73959D01*
X-7982Y73998D01*
X-7947Y74023D01*
X-7926Y74056D01*
X-7894Y74089D01*
X-6370Y76370D01*
X1141Y81389D01*
X10000Y83151D01*
X18859Y81389D01*
X26370Y76370D01*
X31389Y68859D01*
X33151Y60000D01*
X31389Y51141D01*
X26370Y43630D01*
X24065Y42090D01*
X24028Y42052D01*
X23985Y42023D01*
X23958Y41982D01*
X23924Y41948D01*
X23904Y41899D01*
X23875Y41855D01*
X23867Y41807D01*
X23848Y41762D01*
X23849Y41709D01*
X23840Y41658D01*
X23850Y41610D01*
X23851Y41561D01*
X23872Y41513D01*
X23883Y41462D01*
X23911Y41422D01*
X23931Y41378D01*
X23969Y41341D01*
X23999Y41299D01*
X24041Y41273D01*
X24076Y41239D01*
X24125Y41220D01*
X24170Y41193D01*
X24223Y41183D01*
X24263Y41168D01*
X24301Y41169D01*
X24347Y41161D01*
X175653Y41161D01*
X175705Y41171D01*
G37*
%LPC*%
G36*
X97807Y96274D02*
X97807Y96274D01*
X93754Y97953D01*
X90653Y101054D01*
X88974Y105107D01*
X88974Y109493D01*
X90653Y113546D01*
X93754Y116647D01*
X94076Y116781D01*
X94077Y116781D01*
X95301Y117288D01*
X96526Y117795D01*
X97750Y118302D01*
X97807Y118326D01*
X102261Y118326D01*
X102269Y118327D01*
X102277Y118326D01*
X102367Y118347D01*
X102458Y118365D01*
X102464Y118370D01*
X102472Y118372D01*
X102620Y118474D01*
X106400Y122254D01*
X106404Y122260D01*
X106410Y122265D01*
X106459Y122344D01*
X106511Y122421D01*
X106512Y122429D01*
X106516Y122435D01*
X106548Y122613D01*
X106548Y122719D01*
X106547Y122723D01*
X106548Y122727D01*
X106528Y122821D01*
X106509Y122916D01*
X106506Y122919D01*
X106506Y122923D01*
X106450Y123002D01*
X106396Y123081D01*
X106393Y123084D01*
X106390Y123087D01*
X106308Y123138D01*
X106228Y123191D01*
X106224Y123191D01*
X106221Y123193D01*
X106125Y123209D01*
X106031Y123226D01*
X106027Y123225D01*
X106023Y123226D01*
X105847Y123188D01*
X104883Y122788D01*
X103658Y122281D01*
X102434Y121774D01*
X102193Y121674D01*
X97807Y121674D01*
X93754Y123353D01*
X90653Y126454D01*
X88974Y130507D01*
X88974Y134893D01*
X90653Y138946D01*
X93803Y142095D01*
X93807Y142102D01*
X93813Y142107D01*
X93862Y142185D01*
X93914Y142262D01*
X93915Y142270D01*
X93919Y142277D01*
X93951Y142454D01*
X93951Y281203D01*
X94872Y283426D01*
X116574Y305128D01*
X117418Y305478D01*
X118642Y305985D01*
X118643Y305985D01*
X118797Y306049D01*
X135899Y306049D01*
X135905Y306050D01*
X135912Y306049D01*
X136003Y306070D01*
X136095Y306088D01*
X136101Y306092D01*
X136107Y306093D01*
X136184Y306148D01*
X136261Y306201D01*
X136265Y306206D01*
X136270Y306210D01*
X136367Y306362D01*
X138668Y311915D01*
X144585Y317832D01*
X145373Y318159D01*
X146597Y318666D01*
X146598Y318666D01*
X147822Y319173D01*
X149047Y319681D01*
X150271Y320188D01*
X151496Y320695D01*
X152316Y321035D01*
X160684Y321035D01*
X168415Y317832D01*
X174332Y311915D01*
X177535Y304184D01*
X177535Y295816D01*
X174332Y288085D01*
X168415Y282168D01*
X168167Y282065D01*
X166943Y281558D01*
X165718Y281050D01*
X164493Y280543D01*
X163269Y280036D01*
X162044Y279529D01*
X160820Y279021D01*
X160819Y279021D01*
X160684Y278965D01*
X152316Y278965D01*
X144585Y282168D01*
X138668Y288085D01*
X136367Y293638D01*
X136364Y293644D01*
X136362Y293650D01*
X136308Y293727D01*
X136256Y293805D01*
X136250Y293808D01*
X136246Y293813D01*
X136166Y293863D01*
X136088Y293915D01*
X136082Y293916D01*
X136076Y293919D01*
X135899Y293951D01*
X122716Y293951D01*
X122708Y293950D01*
X122700Y293951D01*
X122610Y293930D01*
X122519Y293912D01*
X122513Y293907D01*
X122505Y293905D01*
X122357Y293803D01*
X106197Y277643D01*
X106193Y277637D01*
X106187Y277632D01*
X106138Y277553D01*
X106086Y277476D01*
X106085Y277468D01*
X106081Y277462D01*
X106049Y277284D01*
X106049Y235144D01*
X106049Y235143D01*
X106049Y235142D01*
X106068Y235046D01*
X106088Y234948D01*
X106089Y234947D01*
X106089Y234945D01*
X106145Y234865D01*
X106201Y234782D01*
X106202Y234781D01*
X106203Y234780D01*
X106290Y234724D01*
X106369Y234673D01*
X106370Y234673D01*
X106371Y234672D01*
X106470Y234654D01*
X106566Y234637D01*
X106568Y234637D01*
X106569Y234637D01*
X106665Y234659D01*
X106762Y234681D01*
X106763Y234681D01*
X106764Y234682D01*
X106845Y234740D01*
X106925Y234797D01*
X106926Y234798D01*
X106927Y234799D01*
X107025Y234950D01*
X107469Y236023D01*
X109242Y237796D01*
X121156Y249710D01*
X121159Y249715D01*
X121165Y249719D01*
X121214Y249798D01*
X121267Y249877D01*
X121268Y249883D01*
X121271Y249889D01*
X121287Y249982D01*
X121304Y250074D01*
X121303Y250080D01*
X121304Y250087D01*
X121266Y250263D01*
X118965Y255816D01*
X118965Y264184D01*
X122168Y271915D01*
X128085Y277832D01*
X128697Y278086D01*
X129922Y278593D01*
X131146Y279101D01*
X131147Y279101D01*
X132371Y279608D01*
X133596Y280115D01*
X134820Y280622D01*
X135816Y281035D01*
X144184Y281035D01*
X151915Y277832D01*
X157832Y271915D01*
X161035Y264184D01*
X161035Y255816D01*
X157832Y248085D01*
X151915Y242168D01*
X151492Y241992D01*
X151491Y241992D01*
X150267Y241485D01*
X149042Y240978D01*
X147818Y240470D01*
X146593Y239963D01*
X145369Y239456D01*
X145368Y239456D01*
X144184Y238965D01*
X135816Y238965D01*
X130263Y241266D01*
X130256Y241267D01*
X130251Y241270D01*
X130158Y241286D01*
X130066Y241304D01*
X130059Y241303D01*
X130053Y241304D01*
X129962Y241283D01*
X129870Y241264D01*
X129864Y241260D01*
X129858Y241258D01*
X129710Y241156D01*
X118794Y230240D01*
X118790Y230234D01*
X118784Y230229D01*
X118735Y230150D01*
X118683Y230073D01*
X118682Y230065D01*
X118678Y230059D01*
X118646Y229881D01*
X118646Y142596D01*
X118647Y142592D01*
X118646Y142588D01*
X118666Y142494D01*
X118685Y142399D01*
X118688Y142396D01*
X118688Y142392D01*
X118744Y142313D01*
X118798Y142233D01*
X118801Y142231D01*
X118804Y142228D01*
X118886Y142176D01*
X118966Y142124D01*
X118970Y142123D01*
X118973Y142121D01*
X119069Y142106D01*
X119163Y142088D01*
X119167Y142089D01*
X119171Y142089D01*
X119347Y142127D01*
X119386Y142143D01*
X120611Y142650D01*
X121835Y143158D01*
X123060Y143665D01*
X123207Y143726D01*
X127593Y143726D01*
X131646Y142047D01*
X134747Y138946D01*
X136426Y134893D01*
X136426Y130507D01*
X134747Y126454D01*
X131646Y123353D01*
X131508Y123296D01*
X131507Y123296D01*
X130283Y122788D01*
X129058Y122281D01*
X127834Y121774D01*
X127593Y121674D01*
X123207Y121674D01*
X119347Y123273D01*
X119343Y123274D01*
X119340Y123276D01*
X119245Y123293D01*
X119150Y123312D01*
X119147Y123311D01*
X119143Y123312D01*
X119048Y123290D01*
X118954Y123271D01*
X118951Y123269D01*
X118947Y123268D01*
X118868Y123212D01*
X118789Y123158D01*
X118787Y123154D01*
X118784Y123152D01*
X118733Y123070D01*
X118680Y122989D01*
X118680Y122985D01*
X118678Y122982D01*
X118646Y122804D01*
X118646Y118694D01*
X117815Y116688D01*
X117814Y116686D01*
X117814Y116685D01*
X117795Y116586D01*
X117776Y116491D01*
X117776Y116490D01*
X117776Y116488D01*
X117796Y116394D01*
X117817Y116295D01*
X117817Y116293D01*
X117818Y116292D01*
X117875Y116210D01*
X117930Y116129D01*
X117931Y116129D01*
X117932Y116128D01*
X118018Y116073D01*
X118099Y116021D01*
X118100Y116021D01*
X118101Y116020D01*
X118197Y116004D01*
X118296Y115986D01*
X118298Y115987D01*
X118299Y115986D01*
X118394Y116009D01*
X118492Y116031D01*
X118493Y116032D01*
X118494Y116032D01*
X118642Y116135D01*
X119154Y116647D01*
X119476Y116781D01*
X119477Y116781D01*
X120701Y117288D01*
X121926Y117795D01*
X123150Y118302D01*
X123207Y118326D01*
X127593Y118326D01*
X128820Y117817D01*
X128827Y117816D01*
X128832Y117813D01*
X128925Y117797D01*
X129017Y117779D01*
X129024Y117780D01*
X129030Y117779D01*
X129121Y117800D01*
X129213Y117819D01*
X129219Y117823D01*
X129225Y117825D01*
X129373Y117927D01*
X183803Y172357D01*
X183807Y172363D01*
X183813Y172368D01*
X183862Y172447D01*
X183914Y172524D01*
X183915Y172532D01*
X183919Y172538D01*
X183951Y172716D01*
X183951Y317284D01*
X183950Y317292D01*
X183951Y317300D01*
X183930Y317390D01*
X183912Y317481D01*
X183907Y317487D01*
X183905Y317495D01*
X183803Y317643D01*
X167643Y333803D01*
X167637Y333807D01*
X167632Y333813D01*
X167553Y333862D01*
X167476Y333914D01*
X167468Y333915D01*
X167462Y333919D01*
X167284Y333951D01*
X160601Y333951D01*
X160595Y333950D01*
X160588Y333951D01*
X160497Y333930D01*
X160405Y333912D01*
X160399Y333908D01*
X160393Y333907D01*
X160316Y333852D01*
X160239Y333799D01*
X160235Y333794D01*
X160230Y333790D01*
X160133Y333638D01*
X157832Y328085D01*
X151915Y322168D01*
X151843Y322138D01*
X150618Y321630D01*
X149394Y321123D01*
X148169Y320616D01*
X146944Y320109D01*
X145720Y319601D01*
X144495Y319094D01*
X144184Y318965D01*
X135816Y318965D01*
X128085Y322168D01*
X122168Y328085D01*
X118965Y335816D01*
X118965Y344184D01*
X122168Y351915D01*
X128085Y357832D01*
X129048Y358232D01*
X129049Y358232D01*
X130273Y358739D01*
X131498Y359246D01*
X132722Y359753D01*
X133947Y360261D01*
X135171Y360768D01*
X135172Y360768D01*
X135816Y361035D01*
X144184Y361035D01*
X151915Y357832D01*
X157832Y351915D01*
X160133Y346362D01*
X160136Y346356D01*
X160138Y346350D01*
X160192Y346273D01*
X160244Y346195D01*
X160250Y346192D01*
X160254Y346187D01*
X160334Y346137D01*
X160412Y346085D01*
X160418Y346084D01*
X160424Y346081D01*
X160601Y346049D01*
X171203Y346049D01*
X173426Y345128D01*
X195128Y323426D01*
X196049Y321203D01*
X196049Y168797D01*
X195128Y166574D01*
X136574Y108020D01*
X136570Y108014D01*
X136564Y108009D01*
X136515Y107930D01*
X136463Y107853D01*
X136462Y107845D01*
X136458Y107839D01*
X136426Y107661D01*
X136426Y105107D01*
X134747Y101054D01*
X131646Y97953D01*
X131598Y97933D01*
X130374Y97426D01*
X130373Y97426D01*
X129149Y96919D01*
X127924Y96411D01*
X127593Y96274D01*
X123207Y96274D01*
X119154Y97953D01*
X116053Y101054D01*
X114374Y105107D01*
X114374Y109493D01*
X115963Y113329D01*
X115963Y113330D01*
X115964Y113331D01*
X115983Y113429D01*
X116002Y113525D01*
X116001Y113527D01*
X116002Y113528D01*
X115981Y113625D01*
X115961Y113722D01*
X115960Y113723D01*
X115960Y113724D01*
X115902Y113807D01*
X115848Y113887D01*
X115846Y113888D01*
X115846Y113889D01*
X115762Y113942D01*
X115679Y113995D01*
X115678Y113996D01*
X115676Y113996D01*
X115580Y114013D01*
X115481Y114030D01*
X115480Y114030D01*
X115479Y114030D01*
X115384Y114008D01*
X115286Y113985D01*
X115285Y113985D01*
X115284Y113984D01*
X115136Y113881D01*
X111174Y109920D01*
X111170Y109914D01*
X111164Y109909D01*
X111115Y109830D01*
X111063Y109753D01*
X111062Y109745D01*
X111058Y109739D01*
X111026Y109561D01*
X111026Y105107D01*
X109347Y101054D01*
X106246Y97953D01*
X106198Y97933D01*
X104974Y97426D01*
X104973Y97426D01*
X103749Y96919D01*
X102524Y96411D01*
X102193Y96274D01*
X97807Y96274D01*
G37*
%LPD*%
%LPC*%
G36*
X72407Y121674D02*
X72407Y121674D01*
X68354Y123353D01*
X65253Y126454D01*
X63574Y130507D01*
X63574Y134893D01*
X65253Y138946D01*
X68403Y142095D01*
X68407Y142102D01*
X68413Y142107D01*
X68462Y142185D01*
X68514Y142262D01*
X68515Y142270D01*
X68519Y142277D01*
X68551Y142454D01*
X68551Y240015D01*
X68550Y240019D01*
X68551Y240023D01*
X68531Y240117D01*
X68512Y240212D01*
X68509Y240215D01*
X68509Y240219D01*
X68453Y240298D01*
X68399Y240377D01*
X68396Y240380D01*
X68393Y240383D01*
X68311Y240434D01*
X68231Y240487D01*
X68227Y240487D01*
X68224Y240489D01*
X68128Y240505D01*
X68034Y240522D01*
X68030Y240521D01*
X68026Y240522D01*
X67850Y240484D01*
X67818Y240470D01*
X66593Y239963D01*
X65369Y239456D01*
X65368Y239456D01*
X64184Y238965D01*
X55816Y238965D01*
X48085Y242168D01*
X42168Y248085D01*
X38965Y255816D01*
X38965Y264184D01*
X42168Y271915D01*
X48085Y277832D01*
X48697Y278086D01*
X49922Y278593D01*
X51146Y279101D01*
X51147Y279101D01*
X52371Y279608D01*
X53596Y280115D01*
X54820Y280622D01*
X55816Y281035D01*
X64184Y281035D01*
X71915Y277832D01*
X77832Y271915D01*
X81035Y264184D01*
X81035Y255816D01*
X78734Y250263D01*
X78733Y250256D01*
X78730Y250251D01*
X78714Y250158D01*
X78696Y250066D01*
X78697Y250059D01*
X78696Y250053D01*
X78718Y249961D01*
X78736Y249870D01*
X78740Y249864D01*
X78742Y249858D01*
X78844Y249710D01*
X79728Y248826D01*
X80649Y246603D01*
X80649Y142454D01*
X80650Y142446D01*
X80649Y142439D01*
X80670Y142349D01*
X80688Y142258D01*
X80693Y142251D01*
X80695Y142243D01*
X80797Y142095D01*
X83947Y138946D01*
X85626Y134893D01*
X85626Y130507D01*
X83947Y126454D01*
X80846Y123353D01*
X80708Y123296D01*
X80707Y123296D01*
X79483Y122788D01*
X78258Y122281D01*
X77034Y121774D01*
X76793Y121674D01*
X72407Y121674D01*
G37*
%LPD*%
%LPC*%
G36*
X61015Y341015D02*
X61015Y341015D01*
X61015Y360575D01*
X61349Y360575D01*
X64023Y360223D01*
X66628Y359525D01*
X69120Y358493D01*
X71455Y357144D01*
X73595Y355502D01*
X75502Y353595D01*
X77144Y351455D01*
X78493Y349120D01*
X79525Y346628D01*
X80223Y344023D01*
X80575Y341349D01*
X80575Y341015D01*
X61015Y341015D01*
G37*
%LPD*%
%LPC*%
G36*
X61015Y319425D02*
X61015Y319425D01*
X61015Y338985D01*
X80575Y338985D01*
X80575Y338651D01*
X80223Y335977D01*
X79525Y333372D01*
X78493Y330880D01*
X77144Y328545D01*
X75502Y326405D01*
X73595Y324498D01*
X71455Y322856D01*
X69120Y321507D01*
X68192Y321123D01*
X68191Y321123D01*
X66967Y320616D01*
X66628Y320475D01*
X64023Y319777D01*
X61349Y319425D01*
X61015Y319425D01*
G37*
%LPD*%
%LPC*%
G36*
X39425Y341015D02*
X39425Y341015D01*
X39425Y341349D01*
X39777Y344023D01*
X40475Y346628D01*
X41507Y349120D01*
X42856Y351455D01*
X44498Y353595D01*
X46405Y355502D01*
X48545Y357144D01*
X50880Y358493D01*
X51475Y358739D01*
X52700Y359246D01*
X53372Y359525D01*
X55977Y360223D01*
X58651Y360575D01*
X58985Y360575D01*
X58985Y341015D01*
X39425Y341015D01*
G37*
%LPD*%
%LPC*%
G36*
X58651Y319425D02*
X58651Y319425D01*
X55977Y319777D01*
X53372Y320475D01*
X50880Y321507D01*
X48545Y322856D01*
X46405Y324498D01*
X44498Y326405D01*
X42856Y328545D01*
X41507Y330880D01*
X40475Y333372D01*
X39777Y335977D01*
X39425Y338651D01*
X39425Y338985D01*
X58985Y338985D01*
X58985Y319425D01*
X58651Y319425D01*
G37*
%LPD*%
%LPC*%
G36*
X75615Y108315D02*
X75615Y108315D01*
X75615Y117866D01*
X82960Y117866D01*
X83606Y117693D01*
X84185Y117358D01*
X84658Y116885D01*
X84993Y116306D01*
X85166Y115660D01*
X85166Y108315D01*
X75615Y108315D01*
G37*
%LPD*%
%LPC*%
G36*
X64034Y108315D02*
X64034Y108315D01*
X64034Y115660D01*
X64207Y116306D01*
X64542Y116885D01*
X65015Y117358D01*
X65594Y117693D01*
X66240Y117866D01*
X73585Y117866D01*
X73585Y108315D01*
X64034Y108315D01*
G37*
%LPD*%
%LPC*%
G36*
X75615Y96734D02*
X75615Y96734D01*
X75615Y106285D01*
X85166Y106285D01*
X85166Y98940D01*
X84993Y98294D01*
X84658Y97715D01*
X84185Y97242D01*
X83606Y96907D01*
X82960Y96734D01*
X75615Y96734D01*
G37*
%LPD*%
%LPC*%
G36*
X66240Y96734D02*
X66240Y96734D01*
X65594Y96907D01*
X65015Y97242D01*
X64542Y97715D01*
X64207Y98294D01*
X64034Y98940D01*
X64034Y106285D01*
X73585Y106285D01*
X73585Y96734D01*
X66240Y96734D01*
G37*
%LPD*%
%LPC*%
G36*
X59999Y339999D02*
X59999Y339999D01*
X59999Y340001D01*
X60001Y340001D01*
X60001Y339999D01*
X59999Y339999D01*
G37*
%LPD*%
%LPC*%
G36*
X74599Y107299D02*
X74599Y107299D01*
X74599Y107301D01*
X74601Y107301D01*
X74601Y107299D01*
X74599Y107299D01*
G37*
%LPD*%
D10*
X156500Y300000D03*
X60000Y260000D03*
X60000Y340000D03*
X140000Y340000D03*
X140000Y260000D03*
D11*
X74600Y107300D03*
D12*
X74600Y132700D03*
X100000Y107300D03*
X100000Y132700D03*
X125400Y107300D03*
X125400Y132700D03*
D13*
X10000Y60000D03*
X190000Y60000D03*
X10000Y390000D03*
X190000Y390000D03*
D14*
X30000Y151900D02*
X74600Y107300D01*
X30000Y151900D02*
X30000Y310000D01*
X60000Y340000D01*
X60000Y260000D02*
X74600Y245400D01*
X74600Y132700D01*
X120000Y300000D02*
X156500Y300000D01*
X120000Y300000D02*
X100000Y280000D01*
X100000Y132700D01*
X112597Y119897D02*
X100000Y107300D01*
X112597Y232597D02*
X140000Y260000D01*
X112597Y232597D02*
X112597Y119897D01*
X140000Y340000D02*
X170000Y340000D01*
X190000Y320000D01*
X190000Y170000D01*
X127300Y107300D02*
X125400Y107300D01*
X127300Y107300D02*
X190000Y170000D01*
M02*
