%TF.GenerationSoftware,KiCad,Pcbnew,9.0.7*%
%TF.CreationDate,2026-01-09T13:12:47-06:00*%
%TF.ProjectId,dreamV1_0,64726561-6d56-4315-9f30-2e6b69636164,1*%
%TF.SameCoordinates,Original*%
%TF.FileFunction,Profile,NP*%
%FSLAX46Y46*%
G04 Gerber Fmt 4.6, Leading zero omitted, Abs format (unit mm)*
G04 Created by KiCad (PCBNEW 9.0.7) date 2026-01-09 13:12:47*
%MOMM*%
%LPD*%
G01*
G04 APERTURE LIST*
%TA.AperFunction,Profile*%
%ADD10C,0.050000*%
%TD*%
%TA.AperFunction,Profile*%
%ADD11C,0.010000*%
%TD*%
G04 APERTURE END LIST*
D10*
X20700000Y24250000D02*
G75*
G02*
X17500000Y24250000I-1600000J0D01*
G01*
X17500000Y24250000D02*
G75*
G02*
X20700000Y24250000I1600000J0D01*
G01*
X28600000Y-27000000D02*
G75*
G02*
X25400000Y-27000000I-1600000J0D01*
G01*
X25400000Y-27000000D02*
G75*
G02*
X28600000Y-27000000I1600000J0D01*
G01*
X20700000Y47250000D02*
G75*
G02*
X17500000Y47250000I-1600000J0D01*
G01*
X17500000Y47250000D02*
G75*
G02*
X20700000Y47250000I1600000J0D01*
G01*
X4100000Y-19100000D02*
G75*
G02*
X1900000Y-19100000I-1100000J0D01*
G01*
X1900000Y-19100000D02*
G75*
G02*
X4100000Y-19100000I1100000J0D01*
G01*
X-38400000Y-25500000D02*
G75*
G02*
X-41600000Y-25500000I-1600000J0D01*
G01*
X-41600000Y-25500000D02*
G75*
G02*
X-38400000Y-25500000I1600000J0D01*
G01*
X-45400000Y47000000D02*
G75*
G02*
X-48600000Y47000000I-1600000J0D01*
G01*
X-48600000Y47000000D02*
G75*
G02*
X-45400000Y47000000I1600000J0D01*
G01*
X-37350000Y47250000D02*
G75*
G02*
X-40550000Y47250000I-1600000J0D01*
G01*
X-40550000Y47250000D02*
G75*
G02*
X-37350000Y47250000I1600000J0D01*
G01*
X-37350000Y24250000D02*
G75*
G02*
X-40550000Y24250000I-1600000J0D01*
G01*
X-40550000Y24250000D02*
G75*
G02*
X-37350000Y24250000I1600000J0D01*
G01*
X-45400000Y-27000000D02*
G75*
G02*
X-48600000Y-27000000I-1600000J0D01*
G01*
X-48600000Y-27000000D02*
G75*
G02*
X-45400000Y-27000000I1600000J0D01*
G01*
X28600000Y47000000D02*
G75*
G02*
X25400000Y47000000I-1600000J0D01*
G01*
X25400000Y47000000D02*
G75*
G02*
X28600000Y47000000I1600000J0D01*
G01*
X-16700000Y12000000D02*
G75*
G02*
X-19900000Y12000000I-1600000J0D01*
G01*
X-19900000Y12000000D02*
G75*
G02*
X-16700000Y12000000I1600000J0D01*
G01*
X-49500000Y49500000D02*
X29500000Y49500000D01*
X29500000Y-29400000D01*
X-49500000Y-29400000D01*
X-49500000Y49500000D01*
D11*
%TO.C,J11*%
X-14180000Y43700000D02*
X-13760000Y43700000D01*
D10*
X-13700000Y43700000D02*
G75*
G02*
X-14240000Y43700000I-270000J0D01*
G01*
X-14240000Y43700000D02*
G75*
G02*
X-13700000Y43700000I270000J0D01*
G01*
%TD*%
M02*
