%TF.GenerationSoftware,KiCad,Pcbnew,9.0.7*%
%TF.CreationDate,2026-01-09T13:12:47-06:00*%
%TF.ProjectId,dreamV1_0,64726561-6d56-4315-9f30-2e6b69636164,1*%
%TF.SameCoordinates,Original*%
%TF.FileFunction,Paste,Top*%
%TF.FilePolarity,Positive*%
%FSLAX46Y46*%
G04 Gerber Fmt 4.6, Leading zero omitted, Abs format (unit mm)*
G04 Created by KiCad (PCBNEW 9.0.7) date 2026-01-09 13:12:47*
%MOMM*%
%LPD*%
G01*
G04 APERTURE LIST*
G04 Aperture macros list*
%AMRoundRect*
0 Rectangle with rounded corners*
0 $1 Rounding radius*
0 $2 $3 $4 $5 $6 $7 $8 $9 X,Y pos of 4 corners*
0 Add a 4 corners polygon primitive as box body*
4,1,4,$2,$3,$4,$5,$6,$7,$8,$9,$2,$3,0*
0 Add four circle primitives for the rounded corners*
1,1,$1+$1,$2,$3*
1,1,$1+$1,$4,$5*
1,1,$1+$1,$6,$7*
1,1,$1+$1,$8,$9*
0 Add four rect primitives between the rounded corners*
20,1,$1+$1,$2,$3,$4,$5,0*
20,1,$1+$1,$4,$5,$6,$7,0*
20,1,$1+$1,$6,$7,$8,$9,0*
20,1,$1+$1,$8,$9,$2,$3,0*%
G04 Aperture macros list end*
%ADD10R,0.700000X3.600000*%
%ADD11R,1.500000X2.300000*%
%ADD12RoundRect,0.150000X-0.512500X-0.150000X0.512500X-0.150000X0.512500X0.150000X-0.512500X0.150000X0*%
%ADD13R,0.350000X0.500000*%
%ADD14RoundRect,0.225000X0.250000X-0.225000X0.250000X0.225000X-0.250000X0.225000X-0.250000X-0.225000X0*%
%ADD15R,0.600000X1.550000*%
%ADD16R,1.200000X2.000000*%
%ADD17RoundRect,0.200000X0.275000X-0.200000X0.275000X0.200000X-0.275000X0.200000X-0.275000X-0.200000X0*%
%ADD18R,0.660400X1.549400*%
%ADD19R,1.193800X1.854200*%
%ADD20RoundRect,0.250000X-0.475000X0.250000X-0.475000X-0.250000X0.475000X-0.250000X0.475000X0.250000X0*%
%ADD21RoundRect,0.100000X-0.225000X-0.100000X0.225000X-0.100000X0.225000X0.100000X-0.225000X0.100000X0*%
%ADD22RoundRect,0.125000X-0.537500X-0.125000X0.537500X-0.125000X0.537500X0.125000X-0.537500X0.125000X0*%
%ADD23R,0.800000X0.500000*%
%ADD24R,0.800000X0.400000*%
%ADD25R,1.651000X1.000000*%
%ADD26R,1.020000X1.040000*%
%ADD27R,1.070000X3.270000*%
%ADD28RoundRect,0.225000X-0.250000X0.225000X-0.250000X-0.225000X0.250000X-0.225000X0.250000X0.225000X0*%
%ADD29RoundRect,0.197500X-1.402500X-0.592500X1.402500X-0.592500X1.402500X0.592500X-1.402500X0.592500X0*%
G04 APERTURE END LIST*
D10*
%TO.C,J3*%
X9000000Y-24950000D03*
X7500000Y-24950000D03*
X6000000Y-24950000D03*
X4500000Y-24950000D03*
X3000000Y-24950000D03*
D11*
X11050000Y-27000000D03*
X950000Y-27000000D03*
%TD*%
D12*
%TO.C,U1*%
X-46137500Y-16050000D03*
X-46137500Y-17000000D03*
X-46137500Y-17950000D03*
X-43862500Y-17950000D03*
X-43862500Y-16050000D03*
%TD*%
D13*
%TO.C,U2*%
X-22975000Y-25975000D03*
X-22325000Y-25975000D03*
X-21675000Y-25975000D03*
X-21025000Y-25975000D03*
X-21025000Y-28025000D03*
X-21675000Y-28025000D03*
X-22325000Y-28025000D03*
X-22975000Y-28025000D03*
%TD*%
D14*
%TO.C,C6*%
X-4000000Y14938950D03*
X-4000000Y16488950D03*
%TD*%
D15*
%TO.C,J4*%
X19500000Y-24489000D03*
X18500000Y-24489000D03*
X17500000Y-24489000D03*
X16500000Y-24489000D03*
D16*
X20800000Y-26914000D03*
X15200000Y-26914000D03*
%TD*%
D17*
%TO.C,R2*%
X-30000000Y-17825000D03*
X-30000000Y-16175000D03*
%TD*%
D18*
%TO.C,J7*%
X-7500000Y34000000D03*
X-8500000Y34000000D03*
X-9500001Y34000000D03*
X-10499999Y34000000D03*
X-11500000Y34000000D03*
X-12500000Y34000000D03*
D19*
X-13800000Y31474986D03*
X-6200000Y31474986D03*
%TD*%
D20*
%TO.C,C4*%
X3000000Y-14050000D03*
X3000000Y-15950000D03*
%TD*%
D21*
%TO.C,Q1*%
X-35253333Y-16350000D03*
X-35253333Y-17000000D03*
X-35253333Y-17650000D03*
X-33353333Y-17650000D03*
X-33353333Y-17000000D03*
X-33353333Y-16350000D03*
%TD*%
D22*
%TO.C,U3*%
X7530000Y-14100000D03*
X7530000Y-14750000D03*
X7530000Y-15400000D03*
X7530000Y-16050000D03*
X9805000Y-16050000D03*
X9805000Y-15400000D03*
X9805000Y-14750000D03*
X9805000Y-14100000D03*
%TD*%
D15*
%TO.C,J2*%
X-30500000Y-24489000D03*
X-31500000Y-24489000D03*
X-32500000Y-24489000D03*
X-33500000Y-24489000D03*
D16*
X-29200000Y-26914000D03*
X-34800000Y-26914000D03*
%TD*%
D23*
%TO.C,R5*%
X22100000Y-13800000D03*
D24*
X22100000Y-14600000D03*
X22100000Y-15400000D03*
D23*
X22100000Y-16200000D03*
X23900000Y-16200000D03*
D24*
X23900000Y-15400000D03*
X23900000Y-14600000D03*
D23*
X23900000Y-13800000D03*
%TD*%
D25*
%TO.C,D1*%
X-7423000Y8400000D03*
X-7423000Y11600000D03*
X-12577000Y11600000D03*
X-12577000Y8400000D03*
%TD*%
D15*
%TO.C,J9*%
X27500000Y25511000D03*
X26500000Y25511000D03*
X25500000Y25511000D03*
X24500000Y25511000D03*
D16*
X28800000Y23086000D03*
X23200000Y23086000D03*
%TD*%
D23*
%TO.C,R1*%
X-40226667Y-15800000D03*
D24*
X-40226667Y-16600000D03*
X-40226667Y-17400000D03*
D23*
X-40226667Y-18200000D03*
X-38426667Y-18200000D03*
D24*
X-38426667Y-17400000D03*
X-38426667Y-16600000D03*
D23*
X-38426667Y-15800000D03*
%TD*%
D26*
%TO.C,R8*%
X-5000000Y9530000D03*
X-5000000Y11000000D03*
%TD*%
D20*
%TO.C,C2*%
X-26000000Y-21100000D03*
X-26000000Y-23000000D03*
%TD*%
%TO.C,C3*%
X-22000000Y-21050000D03*
X-22000000Y-22950000D03*
%TD*%
D27*
%TO.C,R4*%
X-8945000Y-15000000D03*
X-15055000Y-15000000D03*
%TD*%
D28*
%TO.C,C5*%
X14085000Y-14225000D03*
X14085000Y-15775000D03*
%TD*%
D17*
%TO.C,R3*%
X18182500Y-15825000D03*
X18182500Y-14175000D03*
%TD*%
D15*
%TO.C,J6*%
X-44500000Y25511000D03*
X-45500000Y25511000D03*
X-46500000Y25511000D03*
X-47500000Y25511000D03*
D16*
X-43200000Y23086000D03*
X-48800000Y23086000D03*
%TD*%
D29*
%TO.C,C7*%
X-7505000Y17000000D03*
X-12495000Y17000000D03*
%TD*%
D14*
%TO.C,C1*%
X-26000000Y-27775000D03*
X-26000000Y-26225000D03*
%TD*%
D15*
%TO.C,J8*%
X-2500000Y-7489000D03*
X-3500000Y-7489000D03*
X-4500000Y-7489000D03*
X-5500000Y-7489000D03*
D16*
X-1200000Y-9914000D03*
X-6800000Y-9914000D03*
%TD*%
M02*
