%TF.GenerationSoftware,KiCad,Pcbnew,9.0.2*%
%TF.CreationDate,2025-09-25T16:22:03-05:00*%
%TF.ProjectId,dreamV1_0,64726561-6d56-4315-9f30-2e6b69636164,1*%
%TF.SameCoordinates,Original*%
%TF.FileFunction,Copper,L1,Top*%
%TF.FilePolarity,Positive*%
%FSLAX46Y46*%
G04 Gerber Fmt 4.6, Leading zero omitted, Abs format (unit mm)*
G04 Created by KiCad (PCBNEW 9.0.2) date 2025-09-25 16:22:03*
%MOMM*%
%LPD*%
G01*
G04 APERTURE LIST*
G04 Aperture macros list*
%AMRoundRect*
0 Rectangle with rounded corners*
0 $1 Rounding radius*
0 $2 $3 $4 $5 $6 $7 $8 $9 X,Y pos of 4 corners*
0 Add a 4 corners polygon primitive as box body*
4,1,4,$2,$3,$4,$5,$6,$7,$8,$9,$2,$3,0*
0 Add four circle primitives for the rounded corners*
1,1,$1+$1,$2,$3*
1,1,$1+$1,$4,$5*
1,1,$1+$1,$6,$7*
1,1,$1+$1,$8,$9*
0 Add four rect primitives between the rounded corners*
20,1,$1+$1,$2,$3,$4,$5,0*
20,1,$1+$1,$4,$5,$6,$7,0*
20,1,$1+$1,$6,$7,$8,$9,0*
20,1,$1+$1,$8,$9,$2,$3,0*%
G04 Aperture macros list end*
%TA.AperFunction,Conductor*%
%ADD10C,0.300000*%
%TD*%
%TA.AperFunction,SMDPad,CuDef*%
%ADD11R,0.700000X3.600000*%
%TD*%
%TA.AperFunction,SMDPad,CuDef*%
%ADD12R,1.500000X2.300000*%
%TD*%
%TA.AperFunction,SMDPad,CuDef*%
%ADD13R,1.270000X0.635000*%
%TD*%
%TA.AperFunction,SMDPad,CuDef*%
%ADD14RoundRect,0.150000X-0.512500X-0.150000X0.512500X-0.150000X0.512500X0.150000X-0.512500X0.150000X0*%
%TD*%
%TA.AperFunction,SMDPad,CuDef*%
%ADD15R,0.350000X0.500000*%
%TD*%
%TA.AperFunction,SMDPad,CuDef*%
%ADD16RoundRect,0.225000X0.250000X-0.225000X0.250000X0.225000X-0.250000X0.225000X-0.250000X-0.225000X0*%
%TD*%
%TA.AperFunction,SMDPad,CuDef*%
%ADD17R,0.600000X1.550000*%
%TD*%
%TA.AperFunction,SMDPad,CuDef*%
%ADD18R,1.200000X2.000000*%
%TD*%
%TA.AperFunction,SMDPad,CuDef*%
%ADD19RoundRect,0.200000X0.275000X-0.200000X0.275000X0.200000X-0.275000X0.200000X-0.275000X-0.200000X0*%
%TD*%
%TA.AperFunction,SMDPad,CuDef*%
%ADD20R,0.660400X1.549400*%
%TD*%
%TA.AperFunction,SMDPad,CuDef*%
%ADD21R,1.193800X1.854200*%
%TD*%
%TA.AperFunction,SMDPad,CuDef*%
%ADD22RoundRect,0.250000X-0.475000X0.250000X-0.475000X-0.250000X0.475000X-0.250000X0.475000X0.250000X0*%
%TD*%
%TA.AperFunction,SMDPad,CuDef*%
%ADD23RoundRect,0.100000X-0.225000X-0.100000X0.225000X-0.100000X0.225000X0.100000X-0.225000X0.100000X0*%
%TD*%
%TA.AperFunction,SMDPad,CuDef*%
%ADD24RoundRect,0.125000X-0.537500X-0.125000X0.537500X-0.125000X0.537500X0.125000X-0.537500X0.125000X0*%
%TD*%
%TA.AperFunction,SMDPad,CuDef*%
%ADD25R,0.800000X0.500000*%
%TD*%
%TA.AperFunction,SMDPad,CuDef*%
%ADD26R,0.800000X0.400000*%
%TD*%
%TA.AperFunction,ComponentPad*%
%ADD27R,1.508000X1.508000*%
%TD*%
%TA.AperFunction,ComponentPad*%
%ADD28C,1.508000*%
%TD*%
%TA.AperFunction,ComponentPad*%
%ADD29C,1.300000*%
%TD*%
%TA.AperFunction,SMDPad,CuDef*%
%ADD30R,0.635000X1.270000*%
%TD*%
%TA.AperFunction,SMDPad,CuDef*%
%ADD31R,1.651000X1.000000*%
%TD*%
%TA.AperFunction,SMDPad,CuDef*%
%ADD32R,1.020000X1.040000*%
%TD*%
%TA.AperFunction,SMDPad,CuDef*%
%ADD33R,1.070000X3.270000*%
%TD*%
%TA.AperFunction,SMDPad,CuDef*%
%ADD34RoundRect,0.225000X-0.250000X0.225000X-0.250000X-0.225000X0.250000X-0.225000X0.250000X0.225000X0*%
%TD*%
%TA.AperFunction,SMDPad,CuDef*%
%ADD35RoundRect,0.197500X-1.402500X-0.592500X1.402500X-0.592500X1.402500X0.592500X-1.402500X0.592500X0*%
%TD*%
%TA.AperFunction,ComponentPad*%
%ADD36R,1.700000X1.700000*%
%TD*%
%TA.AperFunction,ComponentPad*%
%ADD37O,1.700000X1.700000*%
%TD*%
%TA.AperFunction,ComponentPad*%
%ADD38C,1.100000*%
%TD*%
%TA.AperFunction,ViaPad*%
%ADD39C,0.900000*%
%TD*%
%TA.AperFunction,ViaPad*%
%ADD40C,0.400000*%
%TD*%
%TA.AperFunction,Conductor*%
%ADD41C,0.200000*%
%TD*%
%TA.AperFunction,Conductor*%
%ADD42C,0.150000*%
%TD*%
%TA.AperFunction,Conductor*%
%ADD43C,1.500000*%
%TD*%
%TA.AperFunction,Conductor*%
%ADD44C,1.000000*%
%TD*%
%TA.AperFunction,Conductor*%
%ADD45C,0.250000*%
%TD*%
G04 APERTURE END LIST*
D10*
%TO.N,+3V3*%
X-37465000Y13843000D02*
X-37465000Y6223000D01*
%TD*%
D11*
%TO.P,J3,1*%
%TO.N,+5V*%
X9000000Y-24950000D03*
%TO.P,J3,2*%
%TO.N,/GPIO27{slash}SDA3*%
X7500000Y-24950000D03*
%TO.P,J3,3*%
%TO.N,/GPIO22{slash}SCL3*%
X6000000Y-24950000D03*
%TO.P,J3,4*%
%TO.N,GND*%
X4500000Y-24950000D03*
%TO.P,J3,5*%
X3000000Y-24950000D03*
D12*
%TO.P,J3,Z1*%
%TO.N,N/C*%
X11050000Y-27000000D03*
%TO.P,J3,Z2*%
X950000Y-27000000D03*
%TD*%
D13*
%TO.P,JP3,1,A*%
%TO.N,/INA_ADD1*%
X-2000000Y-15406400D03*
%TO.P,JP3,2,B*%
%TO.N,+5V*%
X-2000000Y-14593600D03*
%TD*%
D14*
%TO.P,U1,1,VIN*%
%TO.N,+3V3*%
X-46137500Y-16050000D03*
%TO.P,U1,2,GND*%
%TO.N,GND*%
X-46137500Y-17000000D03*
%TO.P,U1,3,EN*%
%TO.N,+3V3*%
X-46137500Y-17950000D03*
%TO.P,U1,4,NC*%
%TO.N,unconnected-(U1-NC-Pad4)*%
X-43862500Y-17950000D03*
%TO.P,U1,5,VOUT*%
%TO.N,BME_3V3*%
X-43862500Y-16050000D03*
%TD*%
D15*
%TO.P,U2,1,GND*%
%TO.N,GND*%
X-22975000Y-25975000D03*
%TO.P,U2,2,CSB*%
%TO.N,BME_3V3*%
X-22325000Y-25975000D03*
%TO.P,U2,3,SDI*%
%TO.N,/BME_SDA*%
X-21675000Y-25975000D03*
%TO.P,U2,4,SCK*%
%TO.N,/BME_SCL*%
X-21025000Y-25975000D03*
%TO.P,U2,5,SDO*%
%TO.N,/BME_ADD*%
X-21025000Y-28025000D03*
%TO.P,U2,6,VDDIO*%
%TO.N,BME_3V3*%
X-21675000Y-28025000D03*
%TO.P,U2,7,GND*%
%TO.N,GND*%
X-22325000Y-28025000D03*
%TO.P,U2,8,VDD*%
%TO.N,BME_3V3*%
X-22975000Y-28025000D03*
%TD*%
D16*
%TO.P,C6,1*%
%TO.N,+5V*%
X-4000000Y14938950D03*
%TO.P,C6,2*%
%TO.N,GND*%
X-4000000Y16488950D03*
%TD*%
D17*
%TO.P,J4,1,Pin_1*%
%TO.N,GND*%
X19500000Y-24489000D03*
%TO.P,J4,2,Pin_2*%
%TO.N,+5V*%
X18500000Y-24489000D03*
%TO.P,J4,3,Pin_3*%
%TO.N,/GPIO27{slash}SDA3*%
X17500000Y-24489000D03*
%TO.P,J4,4,Pin_4*%
%TO.N,/GPIO22{slash}SCL3*%
X16500000Y-24489000D03*
D18*
%TO.P,J4,NC1,NC*%
%TO.N,unconnected-(J4-NC-PadNC1)*%
X20800000Y-26914000D03*
%TO.P,J4,NC2,NC*%
%TO.N,unconnected-(J4-NC-PadNC2)*%
X15200000Y-26914000D03*
%TD*%
D19*
%TO.P,R2,1*%
%TO.N,/BME_ADD*%
X-30000000Y-17825000D03*
%TO.P,R2,2*%
%TO.N,BME_3V3*%
X-30000000Y-16175000D03*
%TD*%
D20*
%TO.P,J7,1,1*%
%TO.N,+5V*%
X-7500000Y34000000D03*
%TO.P,J7,2,2*%
%TO.N,/GPIO11{slash}SPI0.SCLK*%
X-8500000Y34000000D03*
%TO.P,J7,3,3*%
%TO.N,/GPIO9{slash}SPI0.MISO*%
X-9500001Y34000000D03*
%TO.P,J7,4,4*%
%TO.N,/GPIO10{slash}SPI0.MOSI*%
X-10499999Y34000000D03*
%TO.P,J7,5,5*%
%TO.N,/GPIO8{slash}SPI0.CE0*%
X-11500000Y34000000D03*
%TO.P,J7,6,6*%
%TO.N,GND*%
X-12500000Y34000000D03*
D21*
%TO.P,J7,7*%
%TO.N,N/C*%
X-13800000Y31474986D03*
%TO.P,J7,8*%
X-6200000Y31474986D03*
%TD*%
D22*
%TO.P,C4,1*%
%TO.N,+5V*%
X3000000Y-14050000D03*
%TO.P,C4,2*%
%TO.N,GND*%
X3000000Y-15950000D03*
%TD*%
D23*
%TO.P,Q1,1,S*%
%TO.N,/BME_SCL*%
X-35253333Y-16350000D03*
%TO.P,Q1,2,G*%
%TO.N,BME_3V3*%
X-35253333Y-17000000D03*
%TO.P,Q1,3,D*%
%TO.N,/GPIO5{slash}SDA5*%
X-35253333Y-17650000D03*
%TO.P,Q1,4,S*%
%TO.N,/BME_SDA*%
X-33353333Y-17650000D03*
%TO.P,Q1,5,G*%
%TO.N,BME_3V3*%
X-33353333Y-17000000D03*
%TO.P,Q1,6,D*%
%TO.N,/GPIO6{slash}SCL5*%
X-33353333Y-16350000D03*
%TD*%
D24*
%TO.P,U3,1,IN+*%
%TO.N,/INA+*%
X7530000Y-14100000D03*
%TO.P,U3,2,IN-*%
%TO.N,Net-(U3-IN-)*%
X7530000Y-14750000D03*
%TO.P,U3,3,GND*%
%TO.N,GND*%
X7530000Y-15400000D03*
%TO.P,U3,4,VS*%
%TO.N,+5V*%
X7530000Y-16050000D03*
%TO.P,U3,5,SCL*%
%TO.N,/GPIO24{slash}SCL4*%
X9805000Y-16050000D03*
%TO.P,U3,6,SDA*%
%TO.N,/GPIO23{slash}SDA4*%
X9805000Y-15400000D03*
%TO.P,U3,7,A0*%
%TO.N,/INA_ADD0*%
X9805000Y-14750000D03*
%TO.P,U3,8,A1*%
%TO.N,/INA_ADD1*%
X9805000Y-14100000D03*
%TD*%
D17*
%TO.P,J2,1,Pin_1*%
%TO.N,GND*%
X-30500000Y-24489000D03*
%TO.P,J2,2,Pin_2*%
%TO.N,+3V3*%
X-31500000Y-24489000D03*
%TO.P,J2,3,Pin_3*%
%TO.N,/GPIO5{slash}SDA5*%
X-32500000Y-24489000D03*
%TO.P,J2,4,Pin_4*%
%TO.N,/GPIO6{slash}SCL5*%
X-33500000Y-24489000D03*
D18*
%TO.P,J2,NC1,NC*%
%TO.N,unconnected-(J2-NC-PadNC1)*%
X-29200000Y-26914000D03*
%TO.P,J2,NC2,NC*%
%TO.N,unconnected-(J2-NC-PadNC2)*%
X-34800000Y-26914000D03*
%TD*%
D25*
%TO.P,R5,1*%
%TO.N,/GPIO23{slash}SDA4*%
X22100000Y-13800000D03*
D26*
%TO.P,R5,2*%
%TO.N,+5V*%
X22100000Y-14600000D03*
%TO.P,R5,3*%
%TO.N,/GPIO24{slash}SCL4*%
X22100000Y-15400000D03*
D25*
%TO.P,R5,4*%
%TO.N,+5V*%
X22100000Y-16200000D03*
%TO.P,R5,5*%
%TO.N,/INA_ADD0*%
X23900000Y-16200000D03*
D26*
%TO.P,R5,6*%
%TO.N,GND*%
X23900000Y-15400000D03*
%TO.P,R5,7*%
X23900000Y-14600000D03*
D25*
%TO.P,R5,8*%
%TO.N,/INA_ADD1*%
X23900000Y-13800000D03*
%TD*%
D27*
%TO.P,J5,1,1*%
%TO.N,GND*%
X-34920000Y13980000D03*
D28*
%TO.P,J5,2,2*%
%TO.N,unconnected-(J5-Pad2)*%
X-34920000Y16520000D03*
%TO.P,J5,3,3*%
%TO.N,+3V3*%
X-37460000Y13980000D03*
%TO.P,J5,4,4*%
%TO.N,GND*%
X-37460000Y16520000D03*
%TO.P,J5,5,5*%
%TO.N,/GPIO14{slash}TXD0*%
X-40000000Y13980000D03*
%TO.P,J5,6,6*%
%TO.N,GND*%
X-40000000Y16520000D03*
%TO.P,J5,7,7*%
%TO.N,/GPIO15{slash}RXD0*%
X-42540000Y13980000D03*
%TO.P,J5,8,8*%
%TO.N,unconnected-(J5-Pad8)*%
X-42540000Y16520000D03*
%TO.P,J5,9,9*%
%TO.N,unconnected-(J5-Pad9)*%
X-45080000Y13980000D03*
%TO.P,J5,10,10*%
%TO.N,unconnected-(J5-Pad10)*%
X-45080000Y16520000D03*
%TD*%
D29*
%TO.P,S1,1,1*%
%TO.N,/5V_BUS_USB*%
X10000000Y35000000D03*
%TO.P,S1,2,2*%
%TO.N,unconnected-(S1-Pad2)*%
X10000000Y40080000D03*
%TO.P,S1,3,3*%
%TO.N,+5V*%
X4920000Y35000000D03*
%TO.P,S1,4,4*%
%TO.N,unconnected-(S1-Pad4)*%
X4920000Y40080000D03*
%TD*%
D30*
%TO.P,JP1,1,A*%
%TO.N,GND*%
X-22406400Y-17000000D03*
%TO.P,JP1,2,B*%
%TO.N,/BME_ADD*%
X-21593600Y-17000000D03*
%TD*%
D29*
%TO.P,IC1,1,HEATER_1*%
%TO.N,GND*%
X-8200000Y-25000000D03*
%TO.P,IC1,2,SENSOR_ELECTRODE_(-)*%
%TO.N,/INA+*%
X-8200000Y-21400000D03*
%TO.P,IC1,3,SENSOR_ELECTRODE_(+)*%
%TO.N,+5V*%
X-11800000Y-21400000D03*
%TO.P,IC1,4,HEATER_2*%
X-11800000Y-25000000D03*
%TD*%
D31*
%TO.P,D1,1,VDD*%
%TO.N,+5V*%
X-7423000Y8400000D03*
%TO.P,D1,2,DOUT*%
%TO.N,unconnected-(D1-DOUT-Pad2)*%
X-7423000Y11600000D03*
%TO.P,D1,3,VSS*%
%TO.N,GND*%
X-12577000Y11600000D03*
%TO.P,D1,4,DIN*%
%TO.N,Net-(D1-DIN)*%
X-12577000Y8400000D03*
%TD*%
D13*
%TO.P,JP2,1,A*%
%TO.N,/INA_ADD0*%
X-5613600Y-15406400D03*
%TO.P,JP2,2,B*%
%TO.N,+5V*%
X-5613600Y-14593600D03*
%TD*%
D17*
%TO.P,J9,1,Pin_1*%
%TO.N,GND*%
X27500000Y25511000D03*
%TO.P,J9,2,Pin_2*%
%TO.N,+3V3*%
X26500000Y25511000D03*
%TO.P,J9,3,Pin_3*%
%TO.N,/GPIO2{slash}SDA1*%
X25500000Y25511000D03*
%TO.P,J9,4,Pin_4*%
%TO.N,/GPIO3{slash}SCL1*%
X24500000Y25511000D03*
D18*
%TO.P,J9,NC1,NC*%
%TO.N,unconnected-(J9-NC-PadNC1)*%
X28800000Y23086000D03*
%TO.P,J9,NC2,NC*%
%TO.N,unconnected-(J9-NC-PadNC2)*%
X23200000Y23086000D03*
%TD*%
D25*
%TO.P,R1,1*%
%TO.N,/GPIO6{slash}SCL5*%
X-40226667Y-15800000D03*
D26*
%TO.P,R1,2*%
%TO.N,+3V3*%
X-40226667Y-16600000D03*
%TO.P,R1,3*%
%TO.N,/GPIO5{slash}SDA5*%
X-40226667Y-17400000D03*
D25*
%TO.P,R1,4*%
%TO.N,+3V3*%
X-40226667Y-18200000D03*
%TO.P,R1,5*%
%TO.N,/BME_SCL*%
X-38426667Y-18200000D03*
D26*
%TO.P,R1,6*%
%TO.N,BME_3V3*%
X-38426667Y-17400000D03*
%TO.P,R1,7*%
X-38426667Y-16600000D03*
D25*
%TO.P,R1,8*%
%TO.N,/BME_SDA*%
X-38426667Y-15800000D03*
%TD*%
D32*
%TO.P,R8,1*%
%TO.N,Net-(D1-DIN)*%
X-5000000Y9530000D03*
%TO.P,R8,2*%
%TO.N,/GPIO18{slash}PCM.CLK*%
X-5000000Y11000000D03*
%TD*%
D22*
%TO.P,C2,1*%
%TO.N,+3V3*%
X-26000000Y-21100000D03*
%TO.P,C2,2*%
%TO.N,GND*%
X-26000000Y-23000000D03*
%TD*%
%TO.P,C3,1*%
%TO.N,BME_3V3*%
X-22000000Y-21050000D03*
%TO.P,C3,2*%
%TO.N,GND*%
X-22000000Y-22950000D03*
%TD*%
D33*
%TO.P,R4,1*%
%TO.N,/INA+*%
X-8945000Y-15000000D03*
%TO.P,R4,2*%
%TO.N,Net-(U3-IN-)*%
X-15055000Y-15000000D03*
%TD*%
D34*
%TO.P,C5,1*%
%TO.N,+5V*%
X14085000Y-14225000D03*
%TO.P,C5,2*%
%TO.N,GND*%
X14085000Y-15775000D03*
%TD*%
D19*
%TO.P,R3,1*%
%TO.N,GND*%
X18182500Y-15825000D03*
%TO.P,R3,2*%
%TO.N,/INA+*%
X18182500Y-14175000D03*
%TD*%
D17*
%TO.P,J6,1,Pin_1*%
%TO.N,GND*%
X-44500000Y25511000D03*
%TO.P,J6,2,Pin_2*%
%TO.N,+3V3*%
X-45500000Y25511000D03*
%TO.P,J6,3,Pin_3*%
%TO.N,/GPIO14{slash}TXD0*%
X-46500000Y25511000D03*
%TO.P,J6,4,Pin_4*%
%TO.N,/GPIO15{slash}RXD0*%
X-47500000Y25511000D03*
D18*
%TO.P,J6,NC1,NC*%
%TO.N,unconnected-(J6-NC-PadNC1)*%
X-43200000Y23086000D03*
%TO.P,J6,NC2,NC*%
%TO.N,unconnected-(J6-NC-PadNC2)*%
X-48800000Y23086000D03*
%TD*%
D35*
%TO.P,C7,N*%
%TO.N,GND*%
X-7505000Y17000000D03*
%TO.P,C7,P*%
%TO.N,+5V*%
X-12495000Y17000000D03*
%TD*%
D16*
%TO.P,C1,1*%
%TO.N,BME_3V3*%
X-26000000Y-27775000D03*
%TO.P,C1,2*%
%TO.N,GND*%
X-26000000Y-26225000D03*
%TD*%
D17*
%TO.P,J8,1,Pin_1*%
%TO.N,GND*%
X-2500000Y-7489000D03*
%TO.P,J8,2,Pin_2*%
%TO.N,+5V*%
X-3500000Y-7489000D03*
%TO.P,J8,3,Pin_3*%
%TO.N,/GPIO23{slash}SDA4*%
X-4500000Y-7489000D03*
%TO.P,J8,4,Pin_4*%
%TO.N,/GPIO24{slash}SCL4*%
X-5500000Y-7489000D03*
D18*
%TO.P,J8,NC1,NC*%
%TO.N,unconnected-(J8-NC-PadNC1)*%
X-1200000Y-9914000D03*
%TO.P,J8,NC2,NC*%
%TO.N,unconnected-(J8-NC-PadNC2)*%
X-6800000Y-9914000D03*
%TD*%
D36*
%TO.P,J1,1,Pin_1*%
%TO.N,+3V3*%
X-34100000Y23000000D03*
D37*
%TO.P,J1,2,Pin_2*%
%TO.N,+5V*%
X-34100000Y25540000D03*
%TO.P,J1,3,Pin_3*%
%TO.N,/GPIO2{slash}SDA1*%
X-31560000Y23000000D03*
%TO.P,J1,4,Pin_4*%
%TO.N,+5V*%
X-31560000Y25540000D03*
%TO.P,J1,5,Pin_5*%
%TO.N,/GPIO3{slash}SCL1*%
X-29020000Y23000000D03*
%TO.P,J1,6,Pin_6*%
%TO.N,GND*%
X-29020000Y25540000D03*
%TO.P,J1,7,Pin_7*%
%TO.N,/GPIO4{slash}GPCLK0*%
X-26480000Y23000000D03*
%TO.P,J1,8,Pin_8*%
%TO.N,/GPIO14{slash}TXD0*%
X-26480000Y25540000D03*
%TO.P,J1,9,Pin_9*%
%TO.N,GND*%
X-23940000Y23000000D03*
%TO.P,J1,10,Pin_10*%
%TO.N,/GPIO15{slash}RXD0*%
X-23940000Y25540000D03*
%TO.P,J1,11,Pin_11*%
%TO.N,/GPIO17*%
X-21400000Y23000000D03*
%TO.P,J1,12,Pin_12*%
%TO.N,/GPIO18{slash}PCM.CLK*%
X-21400000Y25540000D03*
%TO.P,J1,13,Pin_13*%
%TO.N,/GPIO27{slash}SDA3*%
X-18860000Y23000000D03*
%TO.P,J1,14,Pin_14*%
%TO.N,GND*%
X-18860000Y25540000D03*
%TO.P,J1,15,Pin_15*%
%TO.N,/GPIO22{slash}SCL3*%
X-16320000Y23000000D03*
%TO.P,J1,16,Pin_16*%
%TO.N,/GPIO23{slash}SDA4*%
X-16320000Y25540000D03*
%TO.P,J1,17,Pin_17*%
%TO.N,+3V3*%
X-13780000Y23000000D03*
%TO.P,J1,18,Pin_18*%
%TO.N,/GPIO24{slash}SCL4*%
X-13780000Y25540000D03*
%TO.P,J1,19,Pin_19*%
%TO.N,/GPIO10{slash}SPI0.MOSI*%
X-11240000Y23000000D03*
%TO.P,J1,20,Pin_20*%
%TO.N,GND*%
X-11240000Y25540000D03*
%TO.P,J1,21,Pin_21*%
%TO.N,/GPIO9{slash}SPI0.MISO*%
X-8700000Y23000000D03*
%TO.P,J1,22,Pin_22*%
%TO.N,/GPIO25{slash}SDA6*%
X-8700000Y25540000D03*
%TO.P,J1,23,Pin_23*%
%TO.N,/GPIO11{slash}SPI0.SCLK*%
X-6160000Y23000000D03*
%TO.P,J1,24,Pin_24*%
%TO.N,/GPIO8{slash}SPI0.CE0*%
X-6160000Y25540000D03*
%TO.P,J1,25,Pin_25*%
%TO.N,GND*%
X-3620000Y23000000D03*
%TO.P,J1,26,Pin_26*%
%TO.N,/GPIO7{slash}SPI0.CE1*%
X-3620000Y25540000D03*
%TO.P,J1,27,Pin_27*%
%TO.N,/ID_SDA*%
X-1080000Y23000000D03*
%TO.P,J1,28,Pin_28*%
%TO.N,/ID_SCL*%
X-1080000Y25540000D03*
%TO.P,J1,29,Pin_29*%
%TO.N,/GPIO5{slash}SDA5*%
X1460000Y23000000D03*
%TO.P,J1,30,Pin_30*%
%TO.N,GND*%
X1460000Y25540000D03*
%TO.P,J1,31,Pin_31*%
%TO.N,/GPIO6{slash}SCL5*%
X4000000Y23000000D03*
%TO.P,J1,32,Pin_32*%
%TO.N,/GPIO12{slash}PWM0*%
X4000000Y25540000D03*
%TO.P,J1,33,Pin_33*%
%TO.N,/GPIO13{slash}PWM1*%
X6540000Y23000000D03*
%TO.P,J1,34,Pin_34*%
%TO.N,GND*%
X6540000Y25540000D03*
%TO.P,J1,35,Pin_35*%
%TO.N,/GPIO19{slash}PCM.FS*%
X9080000Y23000000D03*
%TO.P,J1,36,Pin_36*%
%TO.N,/GPIO16*%
X9080000Y25540000D03*
%TO.P,J1,37,Pin_37*%
%TO.N,/GPIO26{slash}SCL6*%
X11620000Y23000000D03*
%TO.P,J1,38,Pin_38*%
%TO.N,/GPIO20{slash}PCM.DIN*%
X11620000Y25540000D03*
%TO.P,J1,39,Pin_39*%
%TO.N,GND*%
X14160000Y23000000D03*
%TO.P,J1,40,Pin_40*%
%TO.N,/GPIO21{slash}PCM.DOUT*%
X14160000Y25540000D03*
%TD*%
D38*
%TO.P,J11,7,SHIELD__6*%
%TO.N,GND*%
X-7600000Y2150000D03*
%TO.P,J11,8,SHIELD__7*%
X-12400000Y2150000D03*
%TO.P,J11,9,SHIELD__8*%
X-7600000Y-2150000D03*
%TO.P,J11,10,SHIELD__9*%
X-12400000Y-2150000D03*
%TD*%
D39*
%TO.N,GND*%
X1524000Y-10922000D03*
X-41656000Y21336000D03*
X27432000Y21336000D03*
X-889000Y-13300000D03*
X508000Y-14986000D03*
%TO.N,/GPIO2{slash}SDA1*%
X-22331Y6118331D03*
X-31496000Y13208000D03*
X8890000Y2540000D03*
%TO.N,/GPIO3{slash}SCL1*%
X-29020000Y15812000D03*
X-1270000Y6846000D03*
X8890000Y3810000D03*
%TO.N,/GPIO15{slash}RXD0*%
X-42540000Y10038000D03*
%TO.N,/GPIO18{slash}PCM.CLK*%
X-18288000Y16256000D03*
%TO.N,/GPIO22{slash}SCL3*%
X6096000Y-21590000D03*
X16560800Y-21590000D03*
%TO.N,/GPIO5{slash}SDA5*%
X-34290000Y-19050000D03*
X-28448000Y-15875000D03*
%TO.N,/GPIO24{slash}SCL4*%
X-22148800Y5715000D03*
X20980400Y-15341600D03*
X-15290800Y20320000D03*
X-5500000Y-12686400D03*
X8842499Y-16173110D03*
%TO.N,/GPIO27{slash}SDA3*%
X7518400Y-20066000D03*
X17526000Y-20320000D03*
%TO.N,/GPIO23{slash}SDA4*%
X19304000Y-17030000D03*
X12204000Y-17030000D03*
X-17475200Y18745200D03*
X-4572000Y-11799000D03*
X-20828000Y5715000D03*
X22113981Y-12688000D03*
%TO.N,/GPIO8{slash}SPI0.CE0*%
X-3810000Y34798000D03*
%TO.N,/GPIO6{slash}SCL5*%
X-27432000Y-9398000D03*
X-36830000Y-20320000D03*
X-41910000Y-15875000D03*
%TO.N,+5V*%
X-2336800Y-2946400D03*
X-2387600Y1219200D03*
X-2540000Y8636000D03*
X22100000Y-19050000D03*
X-2387600Y-5283200D03*
X9000000Y-19050000D03*
%TO.N,+3V3*%
X26466800Y20167600D03*
%TO.N,/BME_SCL*%
X-37338000Y-18046000D03*
X-20066000Y-24892000D03*
X-35458400Y-15189200D03*
%TO.N,/BME_SDA*%
X-21575000Y-24892000D03*
X-33274000Y-20320000D03*
X-36413992Y-16250000D03*
%TO.N,/INA+*%
X5994400Y-14000000D03*
%TO.N,/INA_ADD0*%
X-3556000Y-17780000D03*
X23726669Y-17030000D03*
X11368027Y-14850000D03*
%TO.N,/INA_ADD1*%
X12446000Y-14071600D03*
X-1981200Y-17780000D03*
X25146000Y-13850000D03*
D40*
%TO.N,/5V_BUS_USB*%
X-7113024Y4998D03*
%TO.N,Net-(J11-CC1)*%
X-3962400Y-3505200D03*
X-9245600Y0D03*
%TO.N,Net-(J11-CC2)*%
X-10718800Y0D03*
X-15951200Y711200D03*
%TD*%
D41*
%TO.N,GND*%
X-26000000Y-25054000D02*
X-26565000Y-24489000D01*
X-15240000Y16002000D02*
X-15240000Y18288000D01*
X-1178000Y-13300000D02*
X-2500000Y-11978000D01*
X27500000Y21404000D02*
X27432000Y21336000D01*
X25400000Y-11938000D02*
X21780500Y-11938000D01*
X3000000Y-15950000D02*
X4320000Y-17270000D01*
X-2500000Y-11978000D02*
X-2500000Y-11430000D01*
X-15240000Y18288000D02*
X-14986000Y18542000D01*
X21780500Y-11938000D02*
X18182500Y-15536000D01*
X13208000Y-18542000D02*
X14085000Y-17665000D01*
X3000000Y-24950000D02*
X4500000Y-24950000D01*
X-30500000Y-26436000D02*
X-33020000Y-28956000D01*
X-22406400Y-17000000D02*
X-22406400Y-16165000D01*
X-26000000Y-23924000D02*
X-26000000Y-23000000D01*
X-30500000Y-24489000D02*
X-30500000Y-26436000D01*
X-48006000Y-17780000D02*
X-47226000Y-17000000D01*
X-7505000Y18415000D02*
X-7505000Y17000000D01*
X1524000Y-10922000D02*
X1016000Y-11430000D01*
X2950000Y-25000000D02*
X3000000Y-24950000D01*
X-9769000Y-26569000D02*
X-18542000Y-26569000D01*
X-21989400Y-15748000D02*
X-18796000Y-15748000D01*
X26416000Y-13716000D02*
X26416000Y-12954000D01*
X-3620000Y23000000D02*
X-7505000Y19115000D01*
X-22975000Y-26352000D02*
X-22975000Y-25975000D01*
X-26565000Y-24489000D02*
X-26000000Y-23924000D01*
X-8200000Y-25000000D02*
X-9769000Y-26569000D01*
X4500000Y-24950000D02*
X4500000Y-17450000D01*
X16256000Y-13462000D02*
X15494000Y-12700000D01*
X-2500000Y-11430000D02*
X-2500000Y-7489000D01*
X4500000Y-26400000D02*
X7310000Y-29210000D01*
X15494000Y-12700000D02*
X9398000Y-12700000D01*
X27500000Y25511000D02*
X27500000Y21404000D01*
X23900000Y-15400000D02*
X23900000Y-14600000D01*
X-41656000Y21336000D02*
X-43942000Y21336000D01*
X-26000000Y-26225000D02*
X-26000000Y-25054000D01*
X13208000Y-28702000D02*
X13208000Y-18542000D01*
X-22050000Y-23000000D02*
X-22000000Y-22950000D01*
X26416000Y-12954000D02*
X25400000Y-11938000D01*
X8192499Y-15400000D02*
X7530000Y-15400000D01*
X3000000Y-15950000D02*
X1472000Y-15950000D01*
X-8200000Y-25000000D02*
X2950000Y-25000000D01*
X9398000Y-12700000D02*
X8493500Y-13604500D01*
X-7505000Y17000000D02*
X-4511050Y17000000D01*
X-12577000Y11600000D02*
X-12577000Y13339000D01*
X-22975000Y-25975000D02*
X-25750000Y-25975000D01*
X-44500000Y21894000D02*
X-44500000Y25511000D01*
X-22325000Y-27002000D02*
X-22975000Y-26352000D01*
X-42418000Y-28956000D02*
X-48006000Y-23368000D01*
X-26776000Y-27001000D02*
X-26000000Y-26225000D01*
X4500000Y-24950000D02*
X4500000Y-26400000D01*
X-22406400Y-16165000D02*
X-21989400Y-15748000D01*
X-19685000Y-15748000D02*
X-18796000Y-15748000D01*
X1472000Y-15950000D02*
X508000Y-14986000D01*
X18182500Y-15825000D02*
X17857000Y-15825000D01*
X14705000Y-15775000D02*
X16256000Y-14224000D01*
X14085000Y-17665000D02*
X14085000Y-15775000D01*
X-43942000Y21336000D02*
X-44500000Y21894000D01*
X-11240000Y25540000D02*
X-11240000Y28258000D01*
X19500000Y-24489000D02*
X19500000Y-19097500D01*
X7310000Y-29210000D02*
X12700000Y-29210000D01*
X23900000Y-14600000D02*
X25532000Y-14600000D01*
X-12577000Y13339000D02*
X-15240000Y16002000D01*
X-21076000Y-29103000D02*
X-25897110Y-29103000D01*
X-26776000Y-28224110D02*
X-26776000Y-27001000D01*
X-889000Y-13300000D02*
X-1178000Y-13300000D01*
X25532000Y-14600000D02*
X26416000Y-13716000D01*
X4500000Y-17450000D02*
X4320000Y-17270000D01*
X-25750000Y-25975000D02*
X-26000000Y-26225000D01*
X-14986000Y18542000D02*
X-7632000Y18542000D01*
X-26565000Y-24489000D02*
X-27489000Y-24489000D01*
X17857000Y-15825000D02*
X17807000Y-15775000D01*
X-47226000Y-17000000D02*
X-46137500Y-17000000D01*
X16256000Y-14224000D02*
X16256000Y-13462000D01*
X-30500000Y-24489000D02*
X-27489000Y-24489000D01*
X18182500Y-17780000D02*
X18182500Y-15825000D01*
X12700000Y-29210000D02*
X13208000Y-28702000D01*
X-12500000Y29518000D02*
X-12500000Y34000000D01*
X-48006000Y-23368000D02*
X-48006000Y-17780000D01*
X-18542000Y-26569000D02*
X-21076000Y-29103000D01*
X-18542000Y-16002000D02*
X-18542000Y-26569000D01*
X8493500Y-13604500D02*
X8493500Y-15098999D01*
X8493500Y-15098999D02*
X8192499Y-15400000D01*
X-22325000Y-28025000D02*
X-22325000Y-27002000D01*
X-7632000Y18542000D02*
X-7505000Y18415000D01*
X-26000000Y-23000000D02*
X-22050000Y-23000000D01*
X17807000Y-15775000D02*
X14085000Y-15775000D01*
X-25897110Y-29103000D02*
X-26776000Y-28224110D01*
X19500000Y-19097500D02*
X18182500Y-17780000D01*
X-18796000Y-15748000D02*
X-18542000Y-16002000D01*
X1016000Y-11430000D02*
X-2500000Y-11430000D01*
X-11240000Y28258000D02*
X-12500000Y29518000D01*
X-4511050Y17000000D02*
X-4000000Y16488950D01*
X-7505000Y19115000D02*
X-7505000Y18415000D01*
X18182500Y-15536000D02*
X18182500Y-15825000D01*
X-33020000Y-28956000D02*
X-42418000Y-28956000D01*
X14085000Y-15775000D02*
X14705000Y-15775000D01*
%TO.N,/GPIO2{slash}SDA1*%
X-22352000Y4064000D02*
X-15748000Y4064000D01*
X-31496000Y13208000D02*
X-22352000Y4064000D01*
X-15748000Y4064000D02*
X-13716000Y6096000D01*
X20828000Y2540000D02*
X25500000Y7212000D01*
X0Y6096000D02*
X-22331Y6118331D01*
X25500000Y7212000D02*
X25500000Y25511000D01*
X8890000Y2540000D02*
X20828000Y2540000D01*
X-13716000Y6096000D02*
X0Y6096000D01*
%TO.N,/GPIO3{slash}SCL1*%
X-13999550Y6604000D02*
X-1270000Y6604000D01*
X-16031550Y4572000D02*
X-13999550Y6604000D01*
X-28956000Y11430000D02*
X-22098000Y4572000D01*
X-28956000Y15748000D02*
X-28956000Y11430000D01*
X-1270000Y6604000D02*
X-1270000Y6846000D01*
X21060000Y3810000D02*
X24500000Y7250000D01*
X24500000Y7250000D02*
X24500000Y25511000D01*
X-29020000Y15812000D02*
X-28956000Y15748000D01*
X8890000Y3810000D02*
X21060000Y3810000D01*
X-22098000Y4572000D02*
X-16031550Y4572000D01*
%TO.N,/GPIO14{slash}TXD0*%
X-47752000Y12446000D02*
X-46482000Y11176000D01*
X-47752000Y19304000D02*
X-47752000Y12446000D01*
X-46500000Y25511000D02*
X-46500000Y20556000D01*
X-46482000Y11176000D02*
X-42804000Y11176000D01*
X-42804000Y11176000D02*
X-40000000Y13980000D01*
X-46500000Y20556000D02*
X-47752000Y19304000D01*
%TO.N,/GPIO15{slash}RXD0*%
X-48768000Y19812000D02*
X-47500000Y21080000D01*
X-47500000Y21080000D02*
X-47500000Y25511000D01*
X-46736000Y9906000D02*
X-48768000Y11938000D01*
X-48768000Y11938000D02*
X-48768000Y19812000D01*
X-42540000Y10038000D02*
X-42672000Y9906000D01*
X-42672000Y9906000D02*
X-46736000Y9906000D01*
%TO.N,/GPIO18{slash}PCM.CLK*%
X-15494000Y11684000D02*
X-15494000Y13462000D01*
X-6350000Y10160000D02*
X-13970000Y10160000D01*
X-15494000Y13462000D02*
X-18288000Y16256000D01*
X-5000000Y11000000D02*
X-5510000Y11000000D01*
X-13970000Y10160000D02*
X-15494000Y11684000D01*
X-5510000Y11000000D02*
X-6350000Y10160000D01*
%TO.N,BME_3V3*%
X-31750000Y-17000000D02*
X-30825000Y-17000000D01*
X-32727333Y-17381130D02*
X-32959463Y-17149000D01*
X-22975000Y-28563000D02*
X-23114000Y-28702000D01*
X-21886075Y-24141000D02*
X-21093000Y-24141000D01*
X-22325000Y-26423000D02*
X-22325000Y-25975000D01*
X-21675000Y-28279000D02*
X-21675000Y-28025000D01*
X-31750000Y-17000000D02*
X-31750000Y-12954000D01*
X-21093000Y-24141000D02*
X-20574000Y-23622000D01*
X-22000000Y-21050000D02*
X-23238000Y-19812000D01*
X-22325000Y-25204075D02*
X-22326000Y-25203075D01*
X-38026667Y-17000000D02*
X-35253333Y-17000000D01*
X-30734000Y-19812000D02*
X-32727333Y-17818667D01*
X-22326000Y-24580925D02*
X-21886075Y-24141000D01*
X-32727333Y-17818667D02*
X-32727333Y-17381130D01*
X-31750000Y-12954000D02*
X-32512000Y-12192000D01*
X-20574000Y-23622000D02*
X-20574000Y-22476000D01*
X-40004500Y-12192000D02*
X-43862500Y-16050000D01*
X-35253333Y-17000000D02*
X-33353333Y-17000000D01*
X-23238000Y-19812000D02*
X-30734000Y-19812000D01*
X-22975000Y-28025000D02*
X-22975000Y-28563000D01*
X-22326000Y-25203075D02*
X-22326000Y-24580925D01*
X-32512000Y-12192000D02*
X-40004500Y-12192000D01*
X-23114000Y-28702000D02*
X-25073000Y-28702000D01*
X-38426667Y-17400000D02*
X-38026667Y-17000000D01*
X-22975000Y-28563000D02*
X-22962000Y-28576000D01*
X-20574000Y-22476000D02*
X-22000000Y-21050000D01*
X-21675000Y-27073000D02*
X-22325000Y-26423000D01*
X-22962000Y-28576000D02*
X-21972000Y-28576000D01*
X-25073000Y-28702000D02*
X-26000000Y-27775000D01*
X-38426667Y-17400000D02*
X-38426667Y-16600000D01*
X-22325000Y-25975000D02*
X-22325000Y-25204075D01*
X-33353333Y-17000000D02*
X-31750000Y-17000000D01*
X-30825000Y-17000000D02*
X-30000000Y-16175000D01*
X-21675000Y-28025000D02*
X-21675000Y-27073000D01*
X-21972000Y-28576000D02*
X-21675000Y-28279000D01*
%TO.N,/GPIO22{slash}SCL3*%
X16500000Y-24489000D02*
X16500000Y-21650800D01*
X6096000Y-24854000D02*
X6000000Y-24950000D01*
X6096000Y-21590000D02*
X6096000Y-24854000D01*
X16500000Y-21650800D02*
X16560800Y-21590000D01*
%TO.N,/GPIO5{slash}SDA5*%
X1460000Y6540000D02*
X254000Y5334000D01*
X-35253333Y-17650000D02*
X-36399333Y-18796000D01*
X1460000Y23000000D02*
X1460000Y6540000D01*
X1524000Y22936000D02*
X1460000Y23000000D01*
X-32500000Y-24489000D02*
X-32500000Y-22695333D01*
D42*
X-39550667Y-17526000D02*
X-39676667Y-17400000D01*
D41*
X-28448000Y-9351925D02*
X-28448000Y-15875000D01*
X-36399333Y-18796000D02*
X-39082667Y-18796000D01*
D42*
X-39676667Y-17400000D02*
X-40226667Y-17400000D01*
D41*
X-34290000Y-18613333D02*
X-35253333Y-17650000D01*
D42*
X-39550667Y-18328001D02*
X-39550667Y-17526000D01*
D41*
X-34290000Y-19050000D02*
X-34290000Y-18613333D01*
D42*
X-39082667Y-18796000D02*
X-39550667Y-18328001D01*
D41*
X-32500000Y-22695333D02*
X-36399333Y-18796000D01*
X-13762075Y5334000D02*
X-28448000Y-9351925D01*
X254000Y5334000D02*
X-13762075Y5334000D01*
%TO.N,/GPIO24{slash}SCL4*%
X-16052800Y19558000D02*
X-15290800Y20320000D01*
X-19812000Y19558000D02*
X-16052800Y19558000D01*
X-5500000Y-12686400D02*
X-5500000Y-7489000D01*
X22041600Y-15341600D02*
X22100000Y-15400000D01*
X-22148800Y17221200D02*
X-19812000Y19558000D01*
X8965609Y-16050000D02*
X8842499Y-16173110D01*
X9805000Y-16050000D02*
X8965609Y-16050000D01*
X20980400Y-15341600D02*
X22041600Y-15341600D01*
X-22148800Y5715000D02*
X-22148800Y17221200D01*
%TO.N,/GPIO27{slash}SDA3*%
X7500000Y-20084400D02*
X7518400Y-20066000D01*
X17500000Y-24489000D02*
X17500000Y-20346000D01*
X17500000Y-20346000D02*
X17526000Y-20320000D01*
X7500000Y-24950000D02*
X7500000Y-20084400D01*
X17526000Y-20320000D02*
X17322800Y-20523200D01*
%TO.N,/GPIO10{slash}SPI0.MOSI*%
X-10499999Y33025300D02*
X-10499999Y34000000D01*
X-11240000Y23000000D02*
X-10089000Y24151000D01*
X-10089000Y24151000D02*
X-10089000Y32614301D01*
X-10089000Y32614301D02*
X-10499999Y33025300D01*
%TO.N,/GPIO9{slash}SPI0.MISO*%
X-9500001Y30074001D02*
X-9500001Y34000000D01*
X-8700000Y23000000D02*
X-7549000Y24151000D01*
X-7549000Y24151000D02*
X-7549000Y28123000D01*
X-7549000Y28123000D02*
X-9500001Y30074001D01*
%TO.N,/GPIO23{slash}SDA4*%
X21252000Y-13800000D02*
X22100000Y-13800000D01*
X22100000Y-12701981D02*
X22113981Y-12688000D01*
X20229400Y-14822600D02*
X20229400Y-16104600D01*
X20229400Y-16104600D02*
X19304000Y-17030000D01*
X10574000Y-15400000D02*
X12204000Y-17030000D01*
X9805000Y-15400000D02*
X10574000Y-15400000D01*
X22100000Y-13800000D02*
X22100000Y-12701981D01*
X20229400Y-14822600D02*
X21252000Y-13800000D01*
X-4500000Y-11727000D02*
X-4500000Y-7489000D01*
X-4572000Y-11799000D02*
X-4500000Y-11727000D01*
X-20828000Y5715000D02*
X-20828000Y15392400D01*
X-20828000Y15392400D02*
X-17475200Y18745200D01*
%TO.N,/GPIO11{slash}SPI0.SCLK*%
X-5009000Y28377000D02*
X-6350000Y29718000D01*
X-7366000Y29718000D02*
X-8500000Y30852000D01*
X-6350000Y29718000D02*
X-7366000Y29718000D01*
X-6160000Y23000000D02*
X-5009000Y24151000D01*
X-5009000Y24151000D02*
X-5009000Y28377000D01*
X-8500000Y30852000D02*
X-8500000Y34000000D01*
%TO.N,/GPIO8{slash}SPI0.CE0*%
X-3810000Y34798000D02*
X-5842000Y36830000D01*
X-9906000Y36830000D02*
X-11500000Y35236000D01*
X-5842000Y36830000D02*
X-9906000Y36830000D01*
X-11500000Y35236000D02*
X-11500000Y34000000D01*
%TO.N,/GPIO6{slash}SCL5*%
X-33500000Y-23650000D02*
X-36830000Y-20320000D01*
X762000Y4572000D02*
X-13462000Y4572000D01*
X-13462000Y4572000D02*
X-27432000Y-9398000D01*
X-40226667Y-15800000D02*
X-41835000Y-15800000D01*
X-33500000Y-24489000D02*
X-33500000Y-23650000D01*
X4000000Y23000000D02*
X4000000Y7810000D01*
X-34075800Y-14438200D02*
X-38864867Y-14438200D01*
X-41835000Y-15800000D02*
X-41910000Y-15875000D01*
X-33353333Y-15160667D02*
X-34075800Y-14438200D01*
X-38864867Y-14438200D02*
X-40226667Y-15800000D01*
X-33353333Y-16350000D02*
X-33353333Y-15160667D01*
X4000000Y7810000D02*
X762000Y4572000D01*
%TO.N,+5V*%
X-4000000Y14938950D02*
X254000Y19192950D01*
D43*
X-31560000Y26742081D02*
X-31560000Y25540000D01*
X-1270000Y38100000D02*
X-20202081Y38100000D01*
X4920000Y35000000D02*
X1820000Y38100000D01*
D41*
X19558000Y-29210000D02*
X20957500Y-29210000D01*
X-3500000Y-7489000D02*
X-3500000Y-6395600D01*
X-5613600Y-14593600D02*
X-6448600Y-14593600D01*
X22100000Y-19050000D02*
X22100000Y-16200000D01*
X-10160000Y-23368000D02*
X-11800000Y-21728000D01*
X9000000Y-17520000D02*
X7530000Y-16050000D01*
X254000Y19192950D02*
X254000Y29159314D01*
X9000000Y-24950000D02*
X9000000Y-19050000D01*
X20957500Y-29210000D02*
X22100000Y-28067500D01*
X-11800000Y-21728000D02*
X-11800000Y-21400000D01*
X9000000Y-19050000D02*
X9000000Y-18415000D01*
X-1456400Y-14050000D02*
X-2000000Y-14593600D01*
X22662000Y-16200000D02*
X22860000Y-16002000D01*
X7530000Y-16050000D02*
X5000000Y-16050000D01*
X-10168000Y-23368000D02*
X-11800000Y-25000000D01*
X-7112000Y-22352000D02*
X-8128000Y-23368000D01*
X254000Y29159314D02*
X-3606686Y33020000D01*
X9762000Y-18288000D02*
X9000000Y-19050000D01*
X-3606686Y33020000D02*
X-6520000Y33020000D01*
X-2000000Y-14593600D02*
X-3500000Y-13093600D01*
X-10481000Y14986000D02*
X-5927050Y14986000D01*
X-2540000Y8636000D02*
X-2540000Y11598950D01*
X22100000Y-16200000D02*
X22662000Y-16200000D01*
X-7112000Y-15257000D02*
X-7112000Y-22352000D01*
X-5550000Y14938950D02*
X-4000000Y14938950D01*
X22860000Y-16002000D02*
X22860000Y-14760000D01*
X-7151000Y8128000D02*
X-7423000Y8400000D01*
D43*
X-20202081Y38100000D02*
X-31560000Y26742081D01*
D41*
X22700000Y-14600000D02*
X22100000Y-14600000D01*
X14085000Y-14225000D02*
X13715000Y-14225000D01*
X-3048000Y8128000D02*
X-7151000Y8128000D01*
X-3500000Y-13093600D02*
X-3500000Y-7489000D01*
X-5927050Y14986000D02*
X-5715000Y14773950D01*
X-2336800Y-2946400D02*
X-2336800Y1168400D01*
X-9832000Y-23368000D02*
X-10160000Y-23368000D01*
X13715000Y-14225000D02*
X12954000Y-14986000D01*
X18500000Y-24489000D02*
X18500000Y-28152000D01*
X-6448600Y-14593600D02*
X-7112000Y-15257000D01*
X-8128000Y-23368000D02*
X-9832000Y-23368000D01*
X3000000Y-14050000D02*
X-1456400Y-14050000D01*
X-9832000Y-23368000D02*
X-10168000Y-23368000D01*
X-12495000Y17000000D02*
X-10481000Y14986000D01*
X-2540000Y11598950D02*
X-5715000Y14773950D01*
X-1270000Y35356686D02*
X-3606686Y33020000D01*
X22860000Y-14760000D02*
X22700000Y-14600000D01*
X-6520000Y33020000D02*
X-7500000Y34000000D01*
X-2540000Y8636000D02*
X-3048000Y8128000D01*
X-5715000Y14773950D02*
X-5550000Y14938950D01*
X18500000Y-28152000D02*
X19558000Y-29210000D01*
D43*
X1820000Y38100000D02*
X-1270000Y38100000D01*
D41*
X-3500000Y-6395600D02*
X-2387600Y-5283200D01*
X9000000Y-18415000D02*
X9000000Y-17520000D01*
X12700000Y-18288000D02*
X9762000Y-18288000D01*
D43*
X-31560000Y25540000D02*
X-34100000Y25540000D01*
D41*
X-2336800Y1168400D02*
X-2387600Y1219200D01*
X-1270000Y38100000D02*
X-1270000Y35356686D01*
X22100000Y-28067500D02*
X22100000Y-19050000D01*
X12954000Y-14986000D02*
X12954000Y-18034000D01*
X5000000Y-16050000D02*
X3000000Y-14050000D01*
X-5613600Y-14593600D02*
X-2000000Y-14593600D01*
X12954000Y-18034000D02*
X12700000Y-18288000D01*
D10*
%TO.N,+3V3*%
X-40977667Y-17950333D02*
X-40977667Y-17027667D01*
X-40226667Y-21431833D02*
X-40005000Y-21653500D01*
X-31420000Y20320000D02*
X-34290000Y20320000D01*
D41*
X-34100000Y20510000D02*
X-34290000Y20320000D01*
D10*
X-34100000Y23000000D02*
X-34100000Y20510000D01*
D41*
X-45475001Y-17950000D02*
X-45174000Y-17648999D01*
D10*
X-42434000Y-21653500D02*
X-46137500Y-17950000D01*
X-34290000Y20320000D02*
X-44450000Y20320000D01*
X-39433500Y-21653500D02*
X-40005000Y-21653500D01*
X-32385000Y20320000D02*
X-31420000Y20320000D01*
X-41910000Y1778000D02*
X-32385000Y11303000D01*
X-16460000Y20320000D02*
X-31420000Y20320000D01*
X-45500000Y21370000D02*
X-45500000Y25511000D01*
D41*
X-31500000Y-24489000D02*
X-31500000Y-25166000D01*
X-45174000Y-16351001D02*
X-45475001Y-16050000D01*
D10*
X-41910000Y-11822500D02*
X-41910000Y1778000D01*
X-39433500Y-21653500D02*
X-42434000Y-21653500D01*
D41*
X-31500000Y-24489000D02*
X-31500000Y-23514000D01*
D10*
X-40226667Y-18200000D02*
X-40226667Y-21431833D01*
D41*
X-30558638Y-21100000D02*
X-26000000Y-21100000D01*
D10*
X-32385000Y11303000D02*
X-32385000Y20320000D01*
X-16460000Y20320000D02*
X-13780000Y23000000D01*
X-35021638Y-25563000D02*
X-35524000Y-25563000D01*
X-40728000Y-18200000D02*
X-40977667Y-17950333D01*
D41*
X-46137500Y-17950000D02*
X-45475001Y-17950000D01*
D10*
X-40977667Y-17027667D02*
X-40550000Y-16600000D01*
X-31899000Y-25565000D02*
X-35522000Y-25565000D01*
D41*
X-45475001Y-16050000D02*
X-46137500Y-16050000D01*
D10*
X26466800Y20167600D02*
X26500000Y20200800D01*
X-31500000Y-25166000D02*
X-31899000Y-25565000D01*
X-35524000Y-25563000D02*
X-39433500Y-21653500D01*
D41*
X-45174000Y-17648999D02*
X-45174000Y-16351001D01*
D10*
X-40550000Y-16600000D02*
X-40226667Y-16600000D01*
X-44450000Y20320000D02*
X-45500000Y21370000D01*
D41*
X-35522000Y-25565000D02*
X-35524000Y-25563000D01*
X-31500000Y-22041362D02*
X-31500000Y-23514000D01*
D10*
X-40226667Y-18200000D02*
X-40728000Y-18200000D01*
X-46137500Y-16050000D02*
X-41910000Y-11822500D01*
D41*
X-31500000Y-22041362D02*
X-30558638Y-21100000D01*
D10*
X26500000Y20200800D02*
X26500000Y25511000D01*
D41*
%TO.N,/BME_ADD*%
X-29283000Y-18542000D02*
X-22352000Y-18542000D01*
X-21025000Y-28025000D02*
X-19304000Y-26304000D01*
X-30000000Y-17825000D02*
X-29283000Y-18542000D01*
X-19304000Y-26304000D02*
X-19304000Y-19289600D01*
X-19304000Y-19289600D02*
X-21593600Y-17000000D01*
X-22352000Y-18542000D02*
X-21593600Y-17783600D01*
X-21593600Y-17783600D02*
X-21593600Y-17000000D01*
%TO.N,/BME_SCL*%
X-35458400Y-16144933D02*
X-35253333Y-16350000D01*
X-38845567Y-14986000D02*
X-39127667Y-15268100D01*
X-37338000Y-18046000D02*
X-37492000Y-18200000D01*
X-39127667Y-15268100D02*
X-39127667Y-17901000D01*
X-21025000Y-25851000D02*
X-20066000Y-24892000D01*
X-35458400Y-15189200D02*
X-35458400Y-16144933D01*
X-36617333Y-14986000D02*
X-38845567Y-14986000D01*
X-38828667Y-18200000D02*
X-38426667Y-18200000D01*
X-35253333Y-16350000D02*
X-36617333Y-14986000D01*
X-37492000Y-18200000D02*
X-38426667Y-18200000D01*
X-39127667Y-17901000D02*
X-38828667Y-18200000D01*
X-21025000Y-25975000D02*
X-21025000Y-25851000D01*
%TO.N,/BME_SDA*%
X-33274000Y-20320000D02*
X-33324800Y-20269200D01*
X-38351667Y-15875000D02*
X-38426667Y-15800000D01*
X-21675000Y-24992000D02*
X-21575000Y-24892000D01*
X-33324800Y-20269200D02*
X-33324800Y-17678533D01*
X-21675000Y-25975000D02*
X-21675000Y-24992000D01*
X-36788992Y-15875000D02*
X-38351667Y-15875000D01*
X-33324800Y-17678533D02*
X-33353333Y-17650000D01*
X-36413992Y-16250000D02*
X-36788992Y-15875000D01*
%TO.N,/INA+*%
X6094400Y-14100000D02*
X5994400Y-14000000D01*
X15691500Y-11684000D02*
X9144000Y-11684000D01*
X7530000Y-14100000D02*
X6094400Y-14100000D01*
X-7874000Y-21074000D02*
X-7874000Y-16071000D01*
X-8200000Y-21400000D02*
X-7874000Y-21074000D01*
X-7874000Y-16071000D02*
X-8945000Y-15000000D01*
X9144000Y-11684000D02*
X7530000Y-13298000D01*
X7530000Y-13298000D02*
X7530000Y-14100000D01*
X18182500Y-14175000D02*
X15691500Y-11684000D01*
%TO.N,/INA_ADD0*%
X-5613600Y-16078000D02*
X-5613600Y-15406400D01*
X23726669Y-17030000D02*
X23726669Y-16373331D01*
X-4673600Y-17018000D02*
X-5613600Y-16078000D01*
X11294000Y-14850000D02*
X11194000Y-14750000D01*
X-3556000Y-17526000D02*
X-4064000Y-17018000D01*
X-4064000Y-17018000D02*
X-4673600Y-17018000D01*
X-3556000Y-17780000D02*
X-3556000Y-17526000D01*
X11368027Y-14850000D02*
X11294000Y-14850000D01*
X11194000Y-14750000D02*
X9805000Y-14750000D01*
X23726669Y-16373331D02*
X23900000Y-16200000D01*
%TO.N,/INA_ADD1*%
X24763338Y-13800000D02*
X23900000Y-13800000D01*
X25146000Y-13850000D02*
X24813338Y-13850000D01*
X9805000Y-14100000D02*
X12417600Y-14100000D01*
X12417600Y-14100000D02*
X12446000Y-14071600D01*
X-2000000Y-17761200D02*
X-1981200Y-17780000D01*
X-2000000Y-15406400D02*
X-2000000Y-17761200D01*
X24813338Y-13850000D02*
X24763338Y-13800000D01*
%TO.N,Net-(U3-IN-)*%
X5606000Y-14750000D02*
X4318000Y-13462000D01*
X4318000Y-8382000D02*
X0Y-4064000D01*
X-15055000Y-10483000D02*
X-15055000Y-12261000D01*
X-8636000Y-4064000D02*
X-15055000Y-10483000D01*
X7530000Y-14750000D02*
X5606000Y-14750000D01*
X-15055000Y-15000000D02*
X-15055000Y-12261000D01*
X4318000Y-13462000D02*
X4318000Y-8382000D01*
X0Y-4064000D02*
X-8636000Y-4064000D01*
D43*
%TO.N,/5V_BUS_USB*%
X14022000Y35000000D02*
X21590000Y27432000D01*
X21590000Y19304000D02*
X5334000Y3048000D01*
D41*
X10000000Y34999999D02*
X10000000Y35000000D01*
D44*
X21590000Y26162000D02*
X21590000Y19304000D01*
D45*
X-4070022Y3048000D02*
X-7113024Y4998D01*
D44*
X21590000Y27432000D02*
X21590000Y26162000D01*
D43*
X10000000Y35000000D02*
X14022000Y35000000D01*
X5334000Y3048000D02*
X-4070022Y3048000D01*
D41*
%TO.N,Net-(D1-DIN)*%
X-11447000Y9530000D02*
X-5000000Y9530000D01*
X-12577000Y8400000D02*
X-11447000Y9530000D01*
%TO.N,Net-(J11-CC1)*%
X-8890000Y-3556000D02*
X-9245600Y-3200400D01*
X-9245600Y-3200400D02*
X-9245600Y0D01*
X-4013200Y-3556000D02*
X-8890000Y-3556000D01*
X-3962400Y-3505200D02*
X-4013200Y-3556000D01*
%TO.N,Net-(J11-CC2)*%
X-11176000Y3302000D02*
X-13360400Y3302000D01*
X-13360400Y3302000D02*
X-15951200Y711200D01*
X-10718800Y0D02*
X-10718800Y2844800D01*
X-10718800Y2844800D02*
X-11176000Y3302000D01*
%TD*%
M02*
