%TF.GenerationSoftware,KiCad,Pcbnew,9.0.2*%
%TF.CreationDate,2025-09-25T16:22:03-05:00*%
%TF.ProjectId,dreamV1_0,64726561-6d56-4315-9f30-2e6b69636164,1*%
%TF.SameCoordinates,Original*%
%TF.FileFunction,Legend,Bot*%
%TF.FilePolarity,Positive*%
%FSLAX46Y46*%
G04 Gerber Fmt 4.6, Leading zero omitted, Abs format (unit mm)*
G04 Created by KiCad (PCBNEW 9.0.2) date 2025-09-25 16:22:03*
%MOMM*%
%LPD*%
G01*
G04 APERTURE LIST*
G04 Aperture macros list*
%AMRoundRect*
0 Rectangle with rounded corners*
0 $1 Rounding radius*
0 $2 $3 $4 $5 $6 $7 $8 $9 X,Y pos of 4 corners*
0 Add a 4 corners polygon primitive as box body*
4,1,4,$2,$3,$4,$5,$6,$7,$8,$9,$2,$3,0*
0 Add four circle primitives for the rounded corners*
1,1,$1+$1,$2,$3*
1,1,$1+$1,$4,$5*
1,1,$1+$1,$6,$7*
1,1,$1+$1,$8,$9*
0 Add four rect primitives between the rounded corners*
20,1,$1+$1,$2,$3,$4,$5,0*
20,1,$1+$1,$4,$5,$6,$7,0*
20,1,$1+$1,$6,$7,$8,$9,0*
20,1,$1+$1,$8,$9,$2,$3,0*%
G04 Aperture macros list end*
%ADD10C,0.150000*%
%ADD11C,0.508000*%
%ADD12C,0.120000*%
%ADD13C,0.127000*%
%ADD14C,0.200000*%
%ADD15RoundRect,0.102000X-0.754000X-0.754000X0.754000X-0.754000X0.754000X0.754000X-0.754000X0.754000X0*%
%ADD16C,1.712000*%
%ADD17C,1.300000*%
%ADD18R,1.700000X1.700000*%
%ADD19O,1.700000X1.700000*%
%ADD20R,0.762000X0.558800*%
%ADD21C,0.660000*%
%ADD22C,0.580000*%
%ADD23RoundRect,0.102000X0.410000X0.275000X-0.410000X0.275000X-0.410000X-0.275000X0.410000X-0.275000X0*%
%ADD24C,1.304000*%
%ADD25RoundRect,0.102000X0.557560X-0.129814X-0.242900X0.518386X-0.557560X0.129814X0.242900X-0.518386X0*%
%ADD26RoundRect,0.102000X0.242900X0.518386X-0.557560X-0.129814X-0.242900X-0.518386X0.557560X0.129814X0*%
%ADD27RoundRect,0.102000X0.150000X0.425000X-0.150000X0.425000X-0.150000X-0.425000X0.150000X-0.425000X0*%
G04 APERTURE END LIST*
D10*
X-7619049Y8130181D02*
X-7952382Y7130181D01*
X-7952382Y7130181D02*
X-8285715Y8130181D01*
X-8619049Y7130181D02*
X-8619049Y8130181D01*
X-9095239Y7130181D02*
X-9095239Y8130181D01*
X-9095239Y8130181D02*
X-9666667Y7130181D01*
X-9666667Y7130181D02*
X-9666667Y8130181D01*
X-11380953Y8130181D02*
X-10904763Y8130181D01*
X-10904763Y8130181D02*
X-10857144Y7653991D01*
X-10857144Y7653991D02*
X-10904763Y7701610D01*
X-10904763Y7701610D02*
X-11000001Y7749229D01*
X-11000001Y7749229D02*
X-11238096Y7749229D01*
X-11238096Y7749229D02*
X-11333334Y7701610D01*
X-11333334Y7701610D02*
X-11380953Y7653991D01*
X-11380953Y7653991D02*
X-11428572Y7558753D01*
X-11428572Y7558753D02*
X-11428572Y7320658D01*
X-11428572Y7320658D02*
X-11380953Y7225420D01*
X-11380953Y7225420D02*
X-11333334Y7177800D01*
X-11333334Y7177800D02*
X-11238096Y7130181D01*
X-11238096Y7130181D02*
X-11000001Y7130181D01*
X-11000001Y7130181D02*
X-10904763Y7177800D01*
X-10904763Y7177800D02*
X-10857144Y7225420D01*
X-11714287Y8130181D02*
X-12047620Y7130181D01*
X-12047620Y7130181D02*
X-12380953Y8130181D01*
X-33766667Y21045181D02*
X-33766667Y20330896D01*
X-33766667Y20330896D02*
X-33719048Y20188039D01*
X-33719048Y20188039D02*
X-33623810Y20092800D01*
X-33623810Y20092800D02*
X-33480953Y20045181D01*
X-33480953Y20045181D02*
X-33385715Y20045181D01*
X-34766667Y20045181D02*
X-34195239Y20045181D01*
X-34480953Y20045181D02*
X-34480953Y21045181D01*
X-34480953Y21045181D02*
X-34385715Y20902324D01*
X-34385715Y20902324D02*
X-34290477Y20807086D01*
X-34290477Y20807086D02*
X-34195239Y20759467D01*
X-3545181Y-833333D02*
X-4021372Y-500000D01*
X-3545181Y-261905D02*
X-4545181Y-261905D01*
X-4545181Y-261905D02*
X-4545181Y-642857D01*
X-4545181Y-642857D02*
X-4497562Y-738095D01*
X-4497562Y-738095D02*
X-4449943Y-785714D01*
X-4449943Y-785714D02*
X-4354705Y-833333D01*
X-4354705Y-833333D02*
X-4211848Y-833333D01*
X-4211848Y-833333D02*
X-4116610Y-785714D01*
X-4116610Y-785714D02*
X-4068991Y-738095D01*
X-4068991Y-738095D02*
X-4021372Y-642857D01*
X-4021372Y-642857D02*
X-4021372Y-261905D01*
X-4545181Y-1166667D02*
X-4545181Y-1833333D01*
X-4545181Y-1833333D02*
X-3545181Y-1404762D01*
X-16454820Y-1166666D02*
X-15978629Y-1499999D01*
X-16454820Y-1738094D02*
X-15454820Y-1738094D01*
X-15454820Y-1738094D02*
X-15454820Y-1357142D01*
X-15454820Y-1357142D02*
X-15502439Y-1261904D01*
X-15502439Y-1261904D02*
X-15550058Y-1214285D01*
X-15550058Y-1214285D02*
X-15645296Y-1166666D01*
X-15645296Y-1166666D02*
X-15788153Y-1166666D01*
X-15788153Y-1166666D02*
X-15883391Y-1214285D01*
X-15883391Y-1214285D02*
X-15931010Y-1261904D01*
X-15931010Y-1261904D02*
X-15978629Y-1357142D01*
X-15978629Y-1357142D02*
X-15978629Y-1738094D01*
X-15454820Y-309523D02*
X-15454820Y-499999D01*
X-15454820Y-499999D02*
X-15502439Y-595237D01*
X-15502439Y-595237D02*
X-15550058Y-642856D01*
X-15550058Y-642856D02*
X-15692915Y-738094D01*
X-15692915Y-738094D02*
X-15883391Y-785713D01*
X-15883391Y-785713D02*
X-16264343Y-785713D01*
X-16264343Y-785713D02*
X-16359581Y-738094D01*
X-16359581Y-738094D02*
X-16407200Y-690475D01*
X-16407200Y-690475D02*
X-16454820Y-595237D01*
X-16454820Y-595237D02*
X-16454820Y-404761D01*
X-16454820Y-404761D02*
X-16407200Y-309523D01*
X-16407200Y-309523D02*
X-16359581Y-261904D01*
X-16359581Y-261904D02*
X-16264343Y-214285D01*
X-16264343Y-214285D02*
X-16026248Y-214285D01*
X-16026248Y-214285D02*
X-15931010Y-261904D01*
X-15931010Y-261904D02*
X-15883391Y-309523D01*
X-15883391Y-309523D02*
X-15835772Y-404761D01*
X-15835772Y-404761D02*
X-15835772Y-595237D01*
X-15835772Y-595237D02*
X-15883391Y-690475D01*
X-15883391Y-690475D02*
X-15931010Y-738094D01*
X-15931010Y-738094D02*
X-16026248Y-785713D01*
X-15152381Y2837705D02*
X-15152381Y2266277D01*
X-15152381Y2266277D02*
X-15114286Y2151991D01*
X-15114286Y2151991D02*
X-15038095Y2075800D01*
X-15038095Y2075800D02*
X-14923810Y2037705D01*
X-14923810Y2037705D02*
X-14847619Y2037705D01*
X-15952381Y2037705D02*
X-15495238Y2037705D01*
X-15723810Y2037705D02*
X-15723810Y2837705D01*
X-15723810Y2837705D02*
X-15647619Y2723420D01*
X-15647619Y2723420D02*
X-15571429Y2647229D01*
X-15571429Y2647229D02*
X-15495238Y2609134D01*
X-16714286Y2037705D02*
X-16257143Y2037705D01*
X-16485715Y2037705D02*
X-16485715Y2837705D01*
X-16485715Y2837705D02*
X-16409524Y2723420D01*
X-16409524Y2723420D02*
X-16333334Y2647229D01*
X-16333334Y2647229D02*
X-16257143Y2609134D01*
D11*
%TO.C,J7*%
X-4856500Y34000000D02*
G75*
G02*
X-5618500Y34000000I-381000J0D01*
G01*
X-5618500Y34000000D02*
G75*
G02*
X-4856500Y34000000I381000J0D01*
G01*
D12*
%TO.C,J1*%
X-35430000Y26870000D02*
X-35430000Y24270000D01*
X-35430000Y26870000D02*
X15490000Y26870000D01*
X-35430000Y24270000D02*
X-32830000Y24270000D01*
X-35430000Y23000000D02*
X-35430000Y21670000D01*
X-35430000Y21670000D02*
X-34100000Y21670000D01*
X-32830000Y24270000D02*
X-32830000Y21670000D01*
X-32830000Y21670000D02*
X15490000Y21670000D01*
X15490000Y26870000D02*
X15490000Y21670000D01*
D13*
%TO.C,J11*%
X-14370000Y1480000D02*
X-14090000Y1480000D01*
X-14370000Y1250000D02*
X-14370000Y1480000D01*
X-14370000Y-410000D02*
X-14370000Y410000D01*
X-14370000Y-1250000D02*
X-14370000Y-1480000D01*
X-14370000Y-1480000D02*
X-14090000Y-1480000D01*
X-5910000Y1480000D02*
X-5630000Y1480000D01*
X-5630000Y1480000D02*
X-5630000Y1250000D01*
X-5630000Y410000D02*
X-5630000Y-410000D01*
X-5630000Y-1250000D02*
X-5630000Y-1480000D01*
X-5630000Y-1480000D02*
X-5910000Y-1480000D01*
D14*
X-6600000Y3300000D02*
G75*
G02*
X-6800000Y3300000I-100000J0D01*
G01*
X-6800000Y3300000D02*
G75*
G02*
X-6600000Y3300000I100000J0D01*
G01*
%TD*%
%LPC*%
D15*
%TO.C,J5*%
X-34920000Y13980000D03*
D16*
X-34920000Y16520000D03*
X-37460000Y13980000D03*
X-37460000Y16520000D03*
X-40000000Y13980000D03*
X-40000000Y16520000D03*
X-42540000Y13980000D03*
X-42540000Y16520000D03*
X-45080000Y13980000D03*
X-45080000Y16520000D03*
%TD*%
D17*
%TO.C,S1*%
X10000000Y35000000D03*
X10000000Y40080000D03*
X4920000Y35000000D03*
X4920000Y40080000D03*
%TD*%
%TO.C,IC1*%
X-8200000Y-25000000D03*
X-8200000Y-21400000D03*
X-11800000Y-21400000D03*
X-11800000Y-25000000D03*
%TD*%
D18*
%TO.C,J1*%
X-34100000Y23000000D03*
D19*
X-34100000Y25540000D03*
X-31560000Y23000000D03*
X-31560000Y25540000D03*
X-29020000Y23000000D03*
X-29020000Y25540000D03*
X-26480000Y23000000D03*
X-26480000Y25540000D03*
X-23940000Y23000000D03*
X-23940000Y25540000D03*
X-21400000Y23000000D03*
X-21400000Y25540000D03*
X-18860000Y23000000D03*
X-18860000Y25540000D03*
X-16320000Y23000000D03*
X-16320000Y25540000D03*
X-13780000Y23000000D03*
X-13780000Y25540000D03*
X-11240000Y23000000D03*
X-11240000Y25540000D03*
X-8700000Y23000000D03*
X-8700000Y25540000D03*
X-6160000Y23000000D03*
X-6160000Y25540000D03*
X-3620000Y23000000D03*
X-3620000Y25540000D03*
X-1080000Y23000000D03*
X-1080000Y25540000D03*
X1460000Y23000000D03*
X1460000Y25540000D03*
X4000000Y23000000D03*
X4000000Y25540000D03*
X6540000Y23000000D03*
X6540000Y25540000D03*
X9080000Y23000000D03*
X9080000Y25540000D03*
X11620000Y23000000D03*
X11620000Y25540000D03*
X14160000Y23000000D03*
X14160000Y25540000D03*
%TD*%
D20*
%TO.C,R7*%
X-4000000Y-326900D03*
X-4000000Y-1673100D03*
%TD*%
%TO.C,R6*%
X-16000000Y-1673100D03*
X-16000000Y-326900D03*
%TD*%
D21*
%TO.C,J11*%
X-6250000Y0D03*
D22*
X-13750000Y0D03*
D23*
X-8800000Y2150000D03*
X-10000000Y2150000D03*
X-11200000Y2150000D03*
X-8800000Y-2150000D03*
X-10000000Y-2150000D03*
X-11200000Y-2150000D03*
D24*
X-7600000Y2150000D03*
X-12400000Y2150000D03*
X-7600000Y-2150000D03*
X-12400000Y-2150000D03*
D25*
X-6230000Y1000000D03*
D26*
X-13770000Y1000000D03*
X-6230000Y-1000000D03*
D25*
X-13770000Y-1000000D03*
D27*
X-7250000Y830000D03*
X-7750000Y830000D03*
X-8250000Y830000D03*
X-8750000Y830000D03*
X-9250000Y830000D03*
X-9750000Y830000D03*
X-10250000Y830000D03*
X-10750000Y830000D03*
X-11250000Y830000D03*
X-11750000Y830000D03*
X-12250000Y830000D03*
X-12750000Y830000D03*
X-12750000Y-830000D03*
X-12250000Y-830000D03*
X-11750000Y-830000D03*
X-11250000Y-830000D03*
X-10750000Y-830000D03*
X-10250000Y-830000D03*
X-9750000Y-830000D03*
X-9250000Y-830000D03*
X-8750000Y-830000D03*
X-8250000Y-830000D03*
X-7750000Y-830000D03*
X-7250000Y-830000D03*
%TD*%
%LPD*%
M02*
