%TF.GenerationSoftware,KiCad,Pcbnew,9.0.2*%
%TF.CreationDate,2025-09-25T16:22:03-05:00*%
%TF.ProjectId,dreamV1_0,64726561-6d56-4315-9f30-2e6b69636164,1*%
%TF.SameCoordinates,Original*%
%TF.FileFunction,Soldermask,Bot*%
%TF.FilePolarity,Negative*%
%FSLAX46Y46*%
G04 Gerber Fmt 4.6, Leading zero omitted, Abs format (unit mm)*
G04 Created by KiCad (PCBNEW 9.0.2) date 2025-09-25 16:22:03*
%MOMM*%
%LPD*%
G01*
G04 APERTURE LIST*
G04 Aperture macros list*
%AMRoundRect*
0 Rectangle with rounded corners*
0 $1 Rounding radius*
0 $2 $3 $4 $5 $6 $7 $8 $9 X,Y pos of 4 corners*
0 Add a 4 corners polygon primitive as box body*
4,1,4,$2,$3,$4,$5,$6,$7,$8,$9,$2,$3,0*
0 Add four circle primitives for the rounded corners*
1,1,$1+$1,$2,$3*
1,1,$1+$1,$4,$5*
1,1,$1+$1,$6,$7*
1,1,$1+$1,$8,$9*
0 Add four rect primitives between the rounded corners*
20,1,$1+$1,$2,$3,$4,$5,0*
20,1,$1+$1,$4,$5,$6,$7,0*
20,1,$1+$1,$6,$7,$8,$9,0*
20,1,$1+$1,$8,$9,$2,$3,0*%
G04 Aperture macros list end*
%ADD10RoundRect,0.102000X-0.754000X-0.754000X0.754000X-0.754000X0.754000X0.754000X-0.754000X0.754000X0*%
%ADD11C,1.712000*%
%ADD12C,1.300000*%
%ADD13R,1.700000X1.700000*%
%ADD14O,1.700000X1.700000*%
%ADD15R,0.762000X0.558800*%
%ADD16C,0.660000*%
%ADD17C,0.580000*%
%ADD18RoundRect,0.102000X0.410000X0.275000X-0.410000X0.275000X-0.410000X-0.275000X0.410000X-0.275000X0*%
%ADD19C,1.304000*%
%ADD20RoundRect,0.102000X0.557560X-0.129814X-0.242900X0.518386X-0.557560X0.129814X0.242900X-0.518386X0*%
%ADD21RoundRect,0.102000X0.242900X0.518386X-0.557560X-0.129814X-0.242900X-0.518386X0.557560X0.129814X0*%
%ADD22RoundRect,0.102000X0.150000X0.425000X-0.150000X0.425000X-0.150000X-0.425000X0.150000X-0.425000X0*%
G04 APERTURE END LIST*
D10*
%TO.C,J5*%
X-34920000Y13980000D03*
D11*
X-34920000Y16520000D03*
X-37460000Y13980000D03*
X-37460000Y16520000D03*
X-40000000Y13980000D03*
X-40000000Y16520000D03*
X-42540000Y13980000D03*
X-42540000Y16520000D03*
X-45080000Y13980000D03*
X-45080000Y16520000D03*
%TD*%
D12*
%TO.C,S1*%
X10000000Y35000000D03*
X10000000Y40080000D03*
X4920000Y35000000D03*
X4920000Y40080000D03*
%TD*%
%TO.C,IC1*%
X-8200000Y-25000000D03*
X-8200000Y-21400000D03*
X-11800000Y-21400000D03*
X-11800000Y-25000000D03*
%TD*%
D13*
%TO.C,J1*%
X-34100000Y23000000D03*
D14*
X-34100000Y25540000D03*
X-31560000Y23000000D03*
X-31560000Y25540000D03*
X-29020000Y23000000D03*
X-29020000Y25540000D03*
X-26480000Y23000000D03*
X-26480000Y25540000D03*
X-23940000Y23000000D03*
X-23940000Y25540000D03*
X-21400000Y23000000D03*
X-21400000Y25540000D03*
X-18860000Y23000000D03*
X-18860000Y25540000D03*
X-16320000Y23000000D03*
X-16320000Y25540000D03*
X-13780000Y23000000D03*
X-13780000Y25540000D03*
X-11240000Y23000000D03*
X-11240000Y25540000D03*
X-8700000Y23000000D03*
X-8700000Y25540000D03*
X-6160000Y23000000D03*
X-6160000Y25540000D03*
X-3620000Y23000000D03*
X-3620000Y25540000D03*
X-1080000Y23000000D03*
X-1080000Y25540000D03*
X1460000Y23000000D03*
X1460000Y25540000D03*
X4000000Y23000000D03*
X4000000Y25540000D03*
X6540000Y23000000D03*
X6540000Y25540000D03*
X9080000Y23000000D03*
X9080000Y25540000D03*
X11620000Y23000000D03*
X11620000Y25540000D03*
X14160000Y23000000D03*
X14160000Y25540000D03*
%TD*%
D15*
%TO.C,R7*%
X-4000000Y-326900D03*
X-4000000Y-1673100D03*
%TD*%
%TO.C,R6*%
X-16000000Y-1673100D03*
X-16000000Y-326900D03*
%TD*%
D16*
%TO.C,J11*%
X-6250000Y0D03*
D17*
X-13750000Y0D03*
D18*
X-8800000Y2150000D03*
X-10000000Y2150000D03*
X-11200000Y2150000D03*
X-8800000Y-2150000D03*
X-10000000Y-2150000D03*
X-11200000Y-2150000D03*
D19*
X-7600000Y2150000D03*
X-12400000Y2150000D03*
X-7600000Y-2150000D03*
X-12400000Y-2150000D03*
D20*
X-6230000Y1000000D03*
D21*
X-13770000Y1000000D03*
X-6230000Y-1000000D03*
D20*
X-13770000Y-1000000D03*
D22*
X-7250000Y830000D03*
X-7750000Y830000D03*
X-8250000Y830000D03*
X-8750000Y830000D03*
X-9250000Y830000D03*
X-9750000Y830000D03*
X-10250000Y830000D03*
X-10750000Y830000D03*
X-11250000Y830000D03*
X-11750000Y830000D03*
X-12250000Y830000D03*
X-12750000Y830000D03*
X-12750000Y-830000D03*
X-12250000Y-830000D03*
X-11750000Y-830000D03*
X-11250000Y-830000D03*
X-10750000Y-830000D03*
X-10250000Y-830000D03*
X-9750000Y-830000D03*
X-9250000Y-830000D03*
X-8750000Y-830000D03*
X-8250000Y-830000D03*
X-7750000Y-830000D03*
X-7250000Y-830000D03*
%TD*%
M02*
