G04 EAGLE Gerber RS-274X export*
G75*
%MOMM*%
%FSLAX34Y34*%
%LPD*%
%INSilkscreen Top*%
%IPPOS*%
%AMOC8*
5,1,8,0,0,1.08239X$1,22.5*%
G01*
%ADD10C,0.152400*%
%ADD11C,0.101600*%
%ADD12C,0.203200*%
%ADD13C,0.304800*%
%ADD14R,0.127000X0.762000*%
%ADD15C,0.127000*%
%ADD16C,0.200000*%

G36*
X30998Y142753D02*
X30998Y142753D01*
X31027Y142750D01*
X31119Y142770D01*
X31212Y142783D01*
X31239Y142796D01*
X31268Y142802D01*
X31348Y142850D01*
X31432Y142892D01*
X31453Y142913D01*
X31479Y142928D01*
X31540Y143000D01*
X31606Y143066D01*
X31619Y143092D01*
X31639Y143115D01*
X31674Y143202D01*
X31716Y143286D01*
X31720Y143316D01*
X31731Y143343D01*
X31749Y143510D01*
X31749Y148590D01*
X31744Y148619D01*
X31747Y148649D01*
X31725Y148740D01*
X31710Y148833D01*
X31696Y148859D01*
X31689Y148888D01*
X31638Y148967D01*
X31594Y149050D01*
X31573Y149071D01*
X31557Y149096D01*
X31484Y149155D01*
X31416Y149220D01*
X31389Y149232D01*
X31366Y149251D01*
X31278Y149284D01*
X31193Y149323D01*
X31163Y149326D01*
X31136Y149337D01*
X31042Y149340D01*
X30949Y149350D01*
X30919Y149344D01*
X30890Y149345D01*
X30800Y149318D01*
X30708Y149298D01*
X30683Y149283D01*
X30654Y149274D01*
X30512Y149184D01*
X27337Y146644D01*
X27268Y146567D01*
X27195Y146494D01*
X27186Y146477D01*
X27173Y146462D01*
X27131Y146366D01*
X27085Y146274D01*
X27083Y146254D01*
X27075Y146236D01*
X27066Y146133D01*
X27052Y146030D01*
X27056Y146011D01*
X27054Y145991D01*
X27079Y145890D01*
X27098Y145788D01*
X27108Y145771D01*
X27112Y145752D01*
X27168Y145665D01*
X27219Y145574D01*
X27236Y145557D01*
X27244Y145544D01*
X27269Y145524D01*
X27337Y145456D01*
X30512Y142916D01*
X30538Y142901D01*
X30560Y142881D01*
X30645Y142841D01*
X30727Y142795D01*
X30756Y142789D01*
X30783Y142777D01*
X30876Y142767D01*
X30968Y142749D01*
X30998Y142753D01*
G37*
D10*
X74422Y8382D02*
X74422Y24652D01*
X79845Y19229D01*
X85269Y24652D01*
X85269Y8382D01*
X90794Y8382D02*
X96217Y8382D01*
X93505Y8382D02*
X93505Y24652D01*
X90794Y24652D02*
X96217Y24652D01*
X101708Y24652D02*
X101708Y8382D01*
X112555Y8382D02*
X101708Y24652D01*
X112555Y24652D02*
X112555Y8382D01*
X123503Y8382D02*
X123503Y24652D01*
X118080Y24652D02*
X128926Y24652D01*
X142586Y24652D02*
X145298Y21940D01*
X142586Y24652D02*
X137163Y24652D01*
X134451Y21940D01*
X134451Y19229D01*
X137163Y16517D01*
X142586Y16517D01*
X145298Y13805D01*
X145298Y11094D01*
X142586Y8382D01*
X137163Y8382D01*
X134451Y11094D01*
X150823Y16517D02*
X161669Y16517D01*
X167194Y19229D02*
X167194Y8382D01*
X167194Y19229D02*
X172617Y24652D01*
X178041Y19229D01*
X178041Y8382D01*
X178041Y16517D02*
X167194Y16517D01*
X183566Y8382D02*
X188989Y8382D01*
X186277Y8382D02*
X186277Y24652D01*
X183566Y24652D02*
X188989Y24652D01*
D11*
X72986Y279908D02*
X72986Y291602D01*
X69088Y291602D02*
X76884Y291602D01*
X86629Y291602D02*
X88578Y289653D01*
X86629Y291602D02*
X82731Y291602D01*
X80782Y289653D01*
X80782Y281857D01*
X82731Y279908D01*
X86629Y279908D01*
X88578Y281857D01*
X88578Y285755D01*
X84680Y285755D01*
X98323Y291602D02*
X100272Y289653D01*
X98323Y291602D02*
X94425Y291602D01*
X92476Y289653D01*
X92476Y287704D01*
X94425Y285755D01*
X98323Y285755D01*
X100272Y283806D01*
X100272Y281857D01*
X98323Y279908D01*
X94425Y279908D01*
X92476Y281857D01*
X104170Y279908D02*
X111966Y279908D01*
X104170Y279908D02*
X111966Y287704D01*
X111966Y289653D01*
X110017Y291602D01*
X106119Y291602D01*
X104170Y289653D01*
X119762Y289653D02*
X123660Y291602D01*
X119762Y289653D02*
X115864Y285755D01*
X115864Y281857D01*
X117813Y279908D01*
X121711Y279908D01*
X123660Y281857D01*
X123660Y283806D01*
X121711Y285755D01*
X115864Y285755D01*
X127558Y287704D02*
X131456Y291602D01*
X131456Y279908D01*
X127558Y279908D02*
X135354Y279908D01*
X139252Y287704D02*
X143150Y291602D01*
X143150Y279908D01*
X139252Y279908D02*
X147048Y279908D01*
X150946Y285755D02*
X158742Y285755D01*
X168487Y291602D02*
X170436Y289653D01*
X168487Y291602D02*
X164589Y291602D01*
X162640Y289653D01*
X162640Y281857D01*
X164589Y279908D01*
X168487Y279908D01*
X170436Y281857D01*
X176283Y291602D02*
X180181Y291602D01*
X176283Y291602D02*
X174334Y289653D01*
X174334Y281857D01*
X176283Y279908D01*
X180181Y279908D01*
X182130Y281857D01*
X182130Y289653D01*
X180181Y291602D01*
X187977Y291602D02*
X191875Y291602D01*
X187977Y291602D02*
X186028Y289653D01*
X186028Y281857D01*
X187977Y279908D01*
X191875Y279908D01*
X193824Y281857D01*
X193824Y289653D01*
X191875Y291602D01*
D10*
X228600Y0D02*
X25400Y0D01*
X0Y25400D02*
X0Y279400D01*
X25400Y304800D02*
X228600Y304800D01*
X254000Y279400D02*
X254000Y25400D01*
D12*
X144230Y74350D02*
X144232Y74413D01*
X144238Y74475D01*
X144248Y74537D01*
X144261Y74599D01*
X144279Y74659D01*
X144300Y74718D01*
X144325Y74776D01*
X144354Y74832D01*
X144386Y74886D01*
X144421Y74938D01*
X144459Y74987D01*
X144501Y75035D01*
X144545Y75079D01*
X144593Y75121D01*
X144642Y75159D01*
X144694Y75194D01*
X144748Y75226D01*
X144804Y75255D01*
X144862Y75280D01*
X144921Y75301D01*
X144981Y75319D01*
X145043Y75332D01*
X145105Y75342D01*
X145167Y75348D01*
X145230Y75350D01*
X145293Y75348D01*
X145355Y75342D01*
X145417Y75332D01*
X145479Y75319D01*
X145539Y75301D01*
X145598Y75280D01*
X145656Y75255D01*
X145712Y75226D01*
X145766Y75194D01*
X145818Y75159D01*
X145867Y75121D01*
X145915Y75079D01*
X145959Y75035D01*
X146001Y74987D01*
X146039Y74938D01*
X146074Y74886D01*
X146106Y74832D01*
X146135Y74776D01*
X146160Y74718D01*
X146181Y74659D01*
X146199Y74599D01*
X146212Y74537D01*
X146222Y74475D01*
X146228Y74413D01*
X146230Y74350D01*
X146228Y74287D01*
X146222Y74225D01*
X146212Y74163D01*
X146199Y74101D01*
X146181Y74041D01*
X146160Y73982D01*
X146135Y73924D01*
X146106Y73868D01*
X146074Y73814D01*
X146039Y73762D01*
X146001Y73713D01*
X145959Y73665D01*
X145915Y73621D01*
X145867Y73579D01*
X145818Y73541D01*
X145766Y73506D01*
X145712Y73474D01*
X145656Y73445D01*
X145598Y73420D01*
X145539Y73399D01*
X145479Y73381D01*
X145417Y73368D01*
X145355Y73358D01*
X145293Y73352D01*
X145230Y73350D01*
X145167Y73352D01*
X145105Y73358D01*
X145043Y73368D01*
X144981Y73381D01*
X144921Y73399D01*
X144862Y73420D01*
X144804Y73445D01*
X144748Y73474D01*
X144694Y73506D01*
X144642Y73541D01*
X144593Y73579D01*
X144545Y73621D01*
X144501Y73665D01*
X144459Y73713D01*
X144421Y73762D01*
X144386Y73814D01*
X144354Y73868D01*
X144325Y73924D01*
X144300Y73982D01*
X144279Y74041D01*
X144261Y74101D01*
X144248Y74163D01*
X144238Y74225D01*
X144232Y74287D01*
X144230Y74350D01*
X141730Y60850D02*
X139730Y60850D01*
X141730Y60850D02*
X141730Y78850D01*
X139730Y78850D01*
X111730Y60850D02*
X109730Y60850D01*
X109730Y78850D01*
X111730Y78850D01*
D10*
X90014Y67824D02*
X90014Y62316D01*
X91115Y61214D01*
X93319Y61214D01*
X94420Y62316D01*
X94420Y67824D01*
X97498Y65620D02*
X99701Y67824D01*
X99701Y61214D01*
X97498Y61214D02*
X101904Y61214D01*
D13*
X104330Y71120D02*
X96330Y71120D01*
D10*
X100918Y41000D02*
X99816Y39899D01*
X99816Y37695D01*
X100918Y36594D01*
X105324Y36594D01*
X106426Y37695D01*
X106426Y39899D01*
X105324Y41000D01*
X102020Y44078D02*
X99816Y46281D01*
X106426Y46281D01*
X106426Y44078D02*
X106426Y48484D01*
X144272Y182372D02*
X144272Y188982D01*
X147577Y188982D01*
X148678Y187880D01*
X148678Y185677D01*
X147577Y184575D01*
X144272Y184575D01*
X146475Y184575D02*
X148678Y182372D01*
X151756Y188982D02*
X156163Y188982D01*
X151756Y188982D02*
X151756Y185677D01*
X153959Y186778D01*
X155061Y186778D01*
X156163Y185677D01*
X156163Y183474D01*
X155061Y182372D01*
X152858Y182372D01*
X151756Y183474D01*
D13*
X87630Y71120D02*
X77470Y71120D01*
D10*
X79269Y51314D02*
X80370Y50212D01*
X79269Y51314D02*
X77065Y51314D01*
X75964Y50212D01*
X75964Y45806D01*
X77065Y44704D01*
X79269Y44704D01*
X80370Y45806D01*
X83448Y44704D02*
X87854Y44704D01*
X83448Y44704D02*
X87854Y49110D01*
X87854Y50212D01*
X86753Y51314D01*
X84549Y51314D01*
X83448Y50212D01*
D12*
X149830Y50850D02*
X177830Y50850D01*
X177830Y88850D02*
X149830Y88850D01*
D10*
X180586Y71644D02*
X187196Y71644D01*
X180586Y71644D02*
X180586Y74949D01*
X181688Y76050D01*
X183891Y76050D01*
X184993Y74949D01*
X184993Y71644D01*
X184993Y73847D02*
X187196Y76050D01*
X181688Y81331D02*
X180586Y83534D01*
X181688Y81331D02*
X183891Y79128D01*
X186094Y79128D01*
X187196Y80229D01*
X187196Y82433D01*
X186094Y83534D01*
X184993Y83534D01*
X183891Y82433D01*
X183891Y79128D01*
D12*
X5400Y279400D02*
X5406Y279891D01*
X5424Y280381D01*
X5454Y280871D01*
X5496Y281360D01*
X5550Y281848D01*
X5616Y282335D01*
X5694Y282819D01*
X5784Y283302D01*
X5886Y283782D01*
X5999Y284260D01*
X6124Y284734D01*
X6261Y285206D01*
X6409Y285674D01*
X6569Y286138D01*
X6740Y286598D01*
X6922Y287054D01*
X7116Y287505D01*
X7320Y287951D01*
X7536Y288392D01*
X7762Y288828D01*
X7998Y289258D01*
X8245Y289682D01*
X8503Y290100D01*
X8771Y290511D01*
X9048Y290916D01*
X9336Y291314D01*
X9633Y291705D01*
X9940Y292088D01*
X10256Y292463D01*
X10581Y292831D01*
X10915Y293191D01*
X11258Y293542D01*
X11609Y293885D01*
X11969Y294219D01*
X12337Y294544D01*
X12712Y294860D01*
X13095Y295167D01*
X13486Y295464D01*
X13884Y295752D01*
X14289Y296029D01*
X14700Y296297D01*
X15118Y296555D01*
X15542Y296802D01*
X15972Y297038D01*
X16408Y297264D01*
X16849Y297480D01*
X17295Y297684D01*
X17746Y297878D01*
X18202Y298060D01*
X18662Y298231D01*
X19126Y298391D01*
X19594Y298539D01*
X20066Y298676D01*
X20540Y298801D01*
X21018Y298914D01*
X21498Y299016D01*
X21981Y299106D01*
X22465Y299184D01*
X22952Y299250D01*
X23440Y299304D01*
X23929Y299346D01*
X24419Y299376D01*
X24909Y299394D01*
X25400Y299400D01*
X25891Y299394D01*
X26381Y299376D01*
X26871Y299346D01*
X27360Y299304D01*
X27848Y299250D01*
X28335Y299184D01*
X28819Y299106D01*
X29302Y299016D01*
X29782Y298914D01*
X30260Y298801D01*
X30734Y298676D01*
X31206Y298539D01*
X31674Y298391D01*
X32138Y298231D01*
X32598Y298060D01*
X33054Y297878D01*
X33505Y297684D01*
X33951Y297480D01*
X34392Y297264D01*
X34828Y297038D01*
X35258Y296802D01*
X35682Y296555D01*
X36100Y296297D01*
X36511Y296029D01*
X36916Y295752D01*
X37314Y295464D01*
X37705Y295167D01*
X38088Y294860D01*
X38463Y294544D01*
X38831Y294219D01*
X39191Y293885D01*
X39542Y293542D01*
X39885Y293191D01*
X40219Y292831D01*
X40544Y292463D01*
X40860Y292088D01*
X41167Y291705D01*
X41464Y291314D01*
X41752Y290916D01*
X42029Y290511D01*
X42297Y290100D01*
X42555Y289682D01*
X42802Y289258D01*
X43038Y288828D01*
X43264Y288392D01*
X43480Y287951D01*
X43684Y287505D01*
X43878Y287054D01*
X44060Y286598D01*
X44231Y286138D01*
X44391Y285674D01*
X44539Y285206D01*
X44676Y284734D01*
X44801Y284260D01*
X44914Y283782D01*
X45016Y283302D01*
X45106Y282819D01*
X45184Y282335D01*
X45250Y281848D01*
X45304Y281360D01*
X45346Y280871D01*
X45376Y280381D01*
X45394Y279891D01*
X45400Y279400D01*
X45394Y278909D01*
X45376Y278419D01*
X45346Y277929D01*
X45304Y277440D01*
X45250Y276952D01*
X45184Y276465D01*
X45106Y275981D01*
X45016Y275498D01*
X44914Y275018D01*
X44801Y274540D01*
X44676Y274066D01*
X44539Y273594D01*
X44391Y273126D01*
X44231Y272662D01*
X44060Y272202D01*
X43878Y271746D01*
X43684Y271295D01*
X43480Y270849D01*
X43264Y270408D01*
X43038Y269972D01*
X42802Y269542D01*
X42555Y269118D01*
X42297Y268700D01*
X42029Y268289D01*
X41752Y267884D01*
X41464Y267486D01*
X41167Y267095D01*
X40860Y266712D01*
X40544Y266337D01*
X40219Y265969D01*
X39885Y265609D01*
X39542Y265258D01*
X39191Y264915D01*
X38831Y264581D01*
X38463Y264256D01*
X38088Y263940D01*
X37705Y263633D01*
X37314Y263336D01*
X36916Y263048D01*
X36511Y262771D01*
X36100Y262503D01*
X35682Y262245D01*
X35258Y261998D01*
X34828Y261762D01*
X34392Y261536D01*
X33951Y261320D01*
X33505Y261116D01*
X33054Y260922D01*
X32598Y260740D01*
X32138Y260569D01*
X31674Y260409D01*
X31206Y260261D01*
X30734Y260124D01*
X30260Y259999D01*
X29782Y259886D01*
X29302Y259784D01*
X28819Y259694D01*
X28335Y259616D01*
X27848Y259550D01*
X27360Y259496D01*
X26871Y259454D01*
X26381Y259424D01*
X25891Y259406D01*
X25400Y259400D01*
X24909Y259406D01*
X24419Y259424D01*
X23929Y259454D01*
X23440Y259496D01*
X22952Y259550D01*
X22465Y259616D01*
X21981Y259694D01*
X21498Y259784D01*
X21018Y259886D01*
X20540Y259999D01*
X20066Y260124D01*
X19594Y260261D01*
X19126Y260409D01*
X18662Y260569D01*
X18202Y260740D01*
X17746Y260922D01*
X17295Y261116D01*
X16849Y261320D01*
X16408Y261536D01*
X15972Y261762D01*
X15542Y261998D01*
X15118Y262245D01*
X14700Y262503D01*
X14289Y262771D01*
X13884Y263048D01*
X13486Y263336D01*
X13095Y263633D01*
X12712Y263940D01*
X12337Y264256D01*
X11969Y264581D01*
X11609Y264915D01*
X11258Y265258D01*
X10915Y265609D01*
X10581Y265969D01*
X10256Y266337D01*
X9940Y266712D01*
X9633Y267095D01*
X9336Y267486D01*
X9048Y267884D01*
X8771Y268289D01*
X8503Y268700D01*
X8245Y269118D01*
X7998Y269542D01*
X7762Y269972D01*
X7536Y270408D01*
X7320Y270849D01*
X7116Y271295D01*
X6922Y271746D01*
X6740Y272202D01*
X6569Y272662D01*
X6409Y273126D01*
X6261Y273594D01*
X6124Y274066D01*
X5999Y274540D01*
X5886Y275018D01*
X5784Y275498D01*
X5694Y275981D01*
X5616Y276465D01*
X5550Y276952D01*
X5496Y277440D01*
X5454Y277929D01*
X5424Y278419D01*
X5406Y278909D01*
X5400Y279400D01*
X208600Y279400D02*
X208606Y279891D01*
X208624Y280381D01*
X208654Y280871D01*
X208696Y281360D01*
X208750Y281848D01*
X208816Y282335D01*
X208894Y282819D01*
X208984Y283302D01*
X209086Y283782D01*
X209199Y284260D01*
X209324Y284734D01*
X209461Y285206D01*
X209609Y285674D01*
X209769Y286138D01*
X209940Y286598D01*
X210122Y287054D01*
X210316Y287505D01*
X210520Y287951D01*
X210736Y288392D01*
X210962Y288828D01*
X211198Y289258D01*
X211445Y289682D01*
X211703Y290100D01*
X211971Y290511D01*
X212248Y290916D01*
X212536Y291314D01*
X212833Y291705D01*
X213140Y292088D01*
X213456Y292463D01*
X213781Y292831D01*
X214115Y293191D01*
X214458Y293542D01*
X214809Y293885D01*
X215169Y294219D01*
X215537Y294544D01*
X215912Y294860D01*
X216295Y295167D01*
X216686Y295464D01*
X217084Y295752D01*
X217489Y296029D01*
X217900Y296297D01*
X218318Y296555D01*
X218742Y296802D01*
X219172Y297038D01*
X219608Y297264D01*
X220049Y297480D01*
X220495Y297684D01*
X220946Y297878D01*
X221402Y298060D01*
X221862Y298231D01*
X222326Y298391D01*
X222794Y298539D01*
X223266Y298676D01*
X223740Y298801D01*
X224218Y298914D01*
X224698Y299016D01*
X225181Y299106D01*
X225665Y299184D01*
X226152Y299250D01*
X226640Y299304D01*
X227129Y299346D01*
X227619Y299376D01*
X228109Y299394D01*
X228600Y299400D01*
X229091Y299394D01*
X229581Y299376D01*
X230071Y299346D01*
X230560Y299304D01*
X231048Y299250D01*
X231535Y299184D01*
X232019Y299106D01*
X232502Y299016D01*
X232982Y298914D01*
X233460Y298801D01*
X233934Y298676D01*
X234406Y298539D01*
X234874Y298391D01*
X235338Y298231D01*
X235798Y298060D01*
X236254Y297878D01*
X236705Y297684D01*
X237151Y297480D01*
X237592Y297264D01*
X238028Y297038D01*
X238458Y296802D01*
X238882Y296555D01*
X239300Y296297D01*
X239711Y296029D01*
X240116Y295752D01*
X240514Y295464D01*
X240905Y295167D01*
X241288Y294860D01*
X241663Y294544D01*
X242031Y294219D01*
X242391Y293885D01*
X242742Y293542D01*
X243085Y293191D01*
X243419Y292831D01*
X243744Y292463D01*
X244060Y292088D01*
X244367Y291705D01*
X244664Y291314D01*
X244952Y290916D01*
X245229Y290511D01*
X245497Y290100D01*
X245755Y289682D01*
X246002Y289258D01*
X246238Y288828D01*
X246464Y288392D01*
X246680Y287951D01*
X246884Y287505D01*
X247078Y287054D01*
X247260Y286598D01*
X247431Y286138D01*
X247591Y285674D01*
X247739Y285206D01*
X247876Y284734D01*
X248001Y284260D01*
X248114Y283782D01*
X248216Y283302D01*
X248306Y282819D01*
X248384Y282335D01*
X248450Y281848D01*
X248504Y281360D01*
X248546Y280871D01*
X248576Y280381D01*
X248594Y279891D01*
X248600Y279400D01*
X248594Y278909D01*
X248576Y278419D01*
X248546Y277929D01*
X248504Y277440D01*
X248450Y276952D01*
X248384Y276465D01*
X248306Y275981D01*
X248216Y275498D01*
X248114Y275018D01*
X248001Y274540D01*
X247876Y274066D01*
X247739Y273594D01*
X247591Y273126D01*
X247431Y272662D01*
X247260Y272202D01*
X247078Y271746D01*
X246884Y271295D01*
X246680Y270849D01*
X246464Y270408D01*
X246238Y269972D01*
X246002Y269542D01*
X245755Y269118D01*
X245497Y268700D01*
X245229Y268289D01*
X244952Y267884D01*
X244664Y267486D01*
X244367Y267095D01*
X244060Y266712D01*
X243744Y266337D01*
X243419Y265969D01*
X243085Y265609D01*
X242742Y265258D01*
X242391Y264915D01*
X242031Y264581D01*
X241663Y264256D01*
X241288Y263940D01*
X240905Y263633D01*
X240514Y263336D01*
X240116Y263048D01*
X239711Y262771D01*
X239300Y262503D01*
X238882Y262245D01*
X238458Y261998D01*
X238028Y261762D01*
X237592Y261536D01*
X237151Y261320D01*
X236705Y261116D01*
X236254Y260922D01*
X235798Y260740D01*
X235338Y260569D01*
X234874Y260409D01*
X234406Y260261D01*
X233934Y260124D01*
X233460Y259999D01*
X232982Y259886D01*
X232502Y259784D01*
X232019Y259694D01*
X231535Y259616D01*
X231048Y259550D01*
X230560Y259496D01*
X230071Y259454D01*
X229581Y259424D01*
X229091Y259406D01*
X228600Y259400D01*
X228109Y259406D01*
X227619Y259424D01*
X227129Y259454D01*
X226640Y259496D01*
X226152Y259550D01*
X225665Y259616D01*
X225181Y259694D01*
X224698Y259784D01*
X224218Y259886D01*
X223740Y259999D01*
X223266Y260124D01*
X222794Y260261D01*
X222326Y260409D01*
X221862Y260569D01*
X221402Y260740D01*
X220946Y260922D01*
X220495Y261116D01*
X220049Y261320D01*
X219608Y261536D01*
X219172Y261762D01*
X218742Y261998D01*
X218318Y262245D01*
X217900Y262503D01*
X217489Y262771D01*
X217084Y263048D01*
X216686Y263336D01*
X216295Y263633D01*
X215912Y263940D01*
X215537Y264256D01*
X215169Y264581D01*
X214809Y264915D01*
X214458Y265258D01*
X214115Y265609D01*
X213781Y265969D01*
X213456Y266337D01*
X213140Y266712D01*
X212833Y267095D01*
X212536Y267486D01*
X212248Y267884D01*
X211971Y268289D01*
X211703Y268700D01*
X211445Y269118D01*
X211198Y269542D01*
X210962Y269972D01*
X210736Y270408D01*
X210520Y270849D01*
X210316Y271295D01*
X210122Y271746D01*
X209940Y272202D01*
X209769Y272662D01*
X209609Y273126D01*
X209461Y273594D01*
X209324Y274066D01*
X209199Y274540D01*
X209086Y275018D01*
X208984Y275498D01*
X208894Y275981D01*
X208816Y276465D01*
X208750Y276952D01*
X208696Y277440D01*
X208654Y277929D01*
X208624Y278419D01*
X208606Y278909D01*
X208600Y279400D01*
D10*
X205190Y71600D02*
X231190Y71600D01*
X205190Y71600D02*
X205190Y82600D01*
X205190Y120600D02*
X205190Y132600D01*
X231190Y132600D01*
X248190Y122600D02*
X248190Y80600D01*
X154010Y67209D02*
X151298Y64497D01*
X151298Y59074D01*
X154010Y56362D01*
X164856Y56362D01*
X167568Y59074D01*
X167568Y64497D01*
X164856Y67209D01*
X151298Y75445D02*
X151298Y80869D01*
X151298Y75445D02*
X154010Y72734D01*
X164856Y72734D01*
X167568Y75445D01*
X167568Y80869D01*
X164856Y83580D01*
X154010Y83580D01*
X151298Y80869D01*
X151298Y89105D02*
X167568Y89105D01*
X167568Y99952D02*
X151298Y89105D01*
X151298Y99952D02*
X167568Y99952D01*
X167568Y105477D02*
X151298Y105477D01*
X167568Y116323D01*
X151298Y116323D01*
X154010Y121848D02*
X151298Y124560D01*
X151298Y129983D01*
X154010Y132695D01*
X156721Y132695D01*
X159433Y129983D01*
X159433Y127272D01*
X159433Y129983D02*
X162145Y132695D01*
X164856Y132695D01*
X167568Y129983D01*
X167568Y124560D01*
X164856Y121848D01*
X48810Y131600D02*
X22810Y131600D01*
X48810Y131600D02*
X48810Y120600D01*
X48810Y82600D02*
X48810Y70600D01*
X22810Y70600D01*
X5810Y80600D02*
X5810Y122600D01*
X86418Y74639D02*
X89130Y77351D01*
X86418Y74639D02*
X86418Y69216D01*
X89130Y66504D01*
X99976Y66504D01*
X102688Y69216D01*
X102688Y74639D01*
X99976Y77351D01*
X86418Y85587D02*
X86418Y91011D01*
X86418Y85587D02*
X89130Y82876D01*
X99976Y82876D01*
X102688Y85587D01*
X102688Y91011D01*
X99976Y93722D01*
X89130Y93722D01*
X86418Y91011D01*
X86418Y99247D02*
X102688Y99247D01*
X102688Y110094D02*
X86418Y99247D01*
X86418Y110094D02*
X102688Y110094D01*
X102688Y115619D02*
X86418Y115619D01*
X102688Y126465D01*
X86418Y126465D01*
X86418Y140125D02*
X102688Y140125D01*
X94553Y131990D02*
X86418Y140125D01*
X94553Y142837D02*
X94553Y131990D01*
D12*
X5400Y25400D02*
X5406Y25891D01*
X5424Y26381D01*
X5454Y26871D01*
X5496Y27360D01*
X5550Y27848D01*
X5616Y28335D01*
X5694Y28819D01*
X5784Y29302D01*
X5886Y29782D01*
X5999Y30260D01*
X6124Y30734D01*
X6261Y31206D01*
X6409Y31674D01*
X6569Y32138D01*
X6740Y32598D01*
X6922Y33054D01*
X7116Y33505D01*
X7320Y33951D01*
X7536Y34392D01*
X7762Y34828D01*
X7998Y35258D01*
X8245Y35682D01*
X8503Y36100D01*
X8771Y36511D01*
X9048Y36916D01*
X9336Y37314D01*
X9633Y37705D01*
X9940Y38088D01*
X10256Y38463D01*
X10581Y38831D01*
X10915Y39191D01*
X11258Y39542D01*
X11609Y39885D01*
X11969Y40219D01*
X12337Y40544D01*
X12712Y40860D01*
X13095Y41167D01*
X13486Y41464D01*
X13884Y41752D01*
X14289Y42029D01*
X14700Y42297D01*
X15118Y42555D01*
X15542Y42802D01*
X15972Y43038D01*
X16408Y43264D01*
X16849Y43480D01*
X17295Y43684D01*
X17746Y43878D01*
X18202Y44060D01*
X18662Y44231D01*
X19126Y44391D01*
X19594Y44539D01*
X20066Y44676D01*
X20540Y44801D01*
X21018Y44914D01*
X21498Y45016D01*
X21981Y45106D01*
X22465Y45184D01*
X22952Y45250D01*
X23440Y45304D01*
X23929Y45346D01*
X24419Y45376D01*
X24909Y45394D01*
X25400Y45400D01*
X25891Y45394D01*
X26381Y45376D01*
X26871Y45346D01*
X27360Y45304D01*
X27848Y45250D01*
X28335Y45184D01*
X28819Y45106D01*
X29302Y45016D01*
X29782Y44914D01*
X30260Y44801D01*
X30734Y44676D01*
X31206Y44539D01*
X31674Y44391D01*
X32138Y44231D01*
X32598Y44060D01*
X33054Y43878D01*
X33505Y43684D01*
X33951Y43480D01*
X34392Y43264D01*
X34828Y43038D01*
X35258Y42802D01*
X35682Y42555D01*
X36100Y42297D01*
X36511Y42029D01*
X36916Y41752D01*
X37314Y41464D01*
X37705Y41167D01*
X38088Y40860D01*
X38463Y40544D01*
X38831Y40219D01*
X39191Y39885D01*
X39542Y39542D01*
X39885Y39191D01*
X40219Y38831D01*
X40544Y38463D01*
X40860Y38088D01*
X41167Y37705D01*
X41464Y37314D01*
X41752Y36916D01*
X42029Y36511D01*
X42297Y36100D01*
X42555Y35682D01*
X42802Y35258D01*
X43038Y34828D01*
X43264Y34392D01*
X43480Y33951D01*
X43684Y33505D01*
X43878Y33054D01*
X44060Y32598D01*
X44231Y32138D01*
X44391Y31674D01*
X44539Y31206D01*
X44676Y30734D01*
X44801Y30260D01*
X44914Y29782D01*
X45016Y29302D01*
X45106Y28819D01*
X45184Y28335D01*
X45250Y27848D01*
X45304Y27360D01*
X45346Y26871D01*
X45376Y26381D01*
X45394Y25891D01*
X45400Y25400D01*
X45394Y24909D01*
X45376Y24419D01*
X45346Y23929D01*
X45304Y23440D01*
X45250Y22952D01*
X45184Y22465D01*
X45106Y21981D01*
X45016Y21498D01*
X44914Y21018D01*
X44801Y20540D01*
X44676Y20066D01*
X44539Y19594D01*
X44391Y19126D01*
X44231Y18662D01*
X44060Y18202D01*
X43878Y17746D01*
X43684Y17295D01*
X43480Y16849D01*
X43264Y16408D01*
X43038Y15972D01*
X42802Y15542D01*
X42555Y15118D01*
X42297Y14700D01*
X42029Y14289D01*
X41752Y13884D01*
X41464Y13486D01*
X41167Y13095D01*
X40860Y12712D01*
X40544Y12337D01*
X40219Y11969D01*
X39885Y11609D01*
X39542Y11258D01*
X39191Y10915D01*
X38831Y10581D01*
X38463Y10256D01*
X38088Y9940D01*
X37705Y9633D01*
X37314Y9336D01*
X36916Y9048D01*
X36511Y8771D01*
X36100Y8503D01*
X35682Y8245D01*
X35258Y7998D01*
X34828Y7762D01*
X34392Y7536D01*
X33951Y7320D01*
X33505Y7116D01*
X33054Y6922D01*
X32598Y6740D01*
X32138Y6569D01*
X31674Y6409D01*
X31206Y6261D01*
X30734Y6124D01*
X30260Y5999D01*
X29782Y5886D01*
X29302Y5784D01*
X28819Y5694D01*
X28335Y5616D01*
X27848Y5550D01*
X27360Y5496D01*
X26871Y5454D01*
X26381Y5424D01*
X25891Y5406D01*
X25400Y5400D01*
X24909Y5406D01*
X24419Y5424D01*
X23929Y5454D01*
X23440Y5496D01*
X22952Y5550D01*
X22465Y5616D01*
X21981Y5694D01*
X21498Y5784D01*
X21018Y5886D01*
X20540Y5999D01*
X20066Y6124D01*
X19594Y6261D01*
X19126Y6409D01*
X18662Y6569D01*
X18202Y6740D01*
X17746Y6922D01*
X17295Y7116D01*
X16849Y7320D01*
X16408Y7536D01*
X15972Y7762D01*
X15542Y7998D01*
X15118Y8245D01*
X14700Y8503D01*
X14289Y8771D01*
X13884Y9048D01*
X13486Y9336D01*
X13095Y9633D01*
X12712Y9940D01*
X12337Y10256D01*
X11969Y10581D01*
X11609Y10915D01*
X11258Y11258D01*
X10915Y11609D01*
X10581Y11969D01*
X10256Y12337D01*
X9940Y12712D01*
X9633Y13095D01*
X9336Y13486D01*
X9048Y13884D01*
X8771Y14289D01*
X8503Y14700D01*
X8245Y15118D01*
X7998Y15542D01*
X7762Y15972D01*
X7536Y16408D01*
X7320Y16849D01*
X7116Y17295D01*
X6922Y17746D01*
X6740Y18202D01*
X6569Y18662D01*
X6409Y19126D01*
X6261Y19594D01*
X6124Y20066D01*
X5999Y20540D01*
X5886Y21018D01*
X5784Y21498D01*
X5694Y21981D01*
X5616Y22465D01*
X5550Y22952D01*
X5496Y23440D01*
X5454Y23929D01*
X5424Y24419D01*
X5406Y24909D01*
X5400Y25400D01*
X208600Y25400D02*
X208606Y25891D01*
X208624Y26381D01*
X208654Y26871D01*
X208696Y27360D01*
X208750Y27848D01*
X208816Y28335D01*
X208894Y28819D01*
X208984Y29302D01*
X209086Y29782D01*
X209199Y30260D01*
X209324Y30734D01*
X209461Y31206D01*
X209609Y31674D01*
X209769Y32138D01*
X209940Y32598D01*
X210122Y33054D01*
X210316Y33505D01*
X210520Y33951D01*
X210736Y34392D01*
X210962Y34828D01*
X211198Y35258D01*
X211445Y35682D01*
X211703Y36100D01*
X211971Y36511D01*
X212248Y36916D01*
X212536Y37314D01*
X212833Y37705D01*
X213140Y38088D01*
X213456Y38463D01*
X213781Y38831D01*
X214115Y39191D01*
X214458Y39542D01*
X214809Y39885D01*
X215169Y40219D01*
X215537Y40544D01*
X215912Y40860D01*
X216295Y41167D01*
X216686Y41464D01*
X217084Y41752D01*
X217489Y42029D01*
X217900Y42297D01*
X218318Y42555D01*
X218742Y42802D01*
X219172Y43038D01*
X219608Y43264D01*
X220049Y43480D01*
X220495Y43684D01*
X220946Y43878D01*
X221402Y44060D01*
X221862Y44231D01*
X222326Y44391D01*
X222794Y44539D01*
X223266Y44676D01*
X223740Y44801D01*
X224218Y44914D01*
X224698Y45016D01*
X225181Y45106D01*
X225665Y45184D01*
X226152Y45250D01*
X226640Y45304D01*
X227129Y45346D01*
X227619Y45376D01*
X228109Y45394D01*
X228600Y45400D01*
X229091Y45394D01*
X229581Y45376D01*
X230071Y45346D01*
X230560Y45304D01*
X231048Y45250D01*
X231535Y45184D01*
X232019Y45106D01*
X232502Y45016D01*
X232982Y44914D01*
X233460Y44801D01*
X233934Y44676D01*
X234406Y44539D01*
X234874Y44391D01*
X235338Y44231D01*
X235798Y44060D01*
X236254Y43878D01*
X236705Y43684D01*
X237151Y43480D01*
X237592Y43264D01*
X238028Y43038D01*
X238458Y42802D01*
X238882Y42555D01*
X239300Y42297D01*
X239711Y42029D01*
X240116Y41752D01*
X240514Y41464D01*
X240905Y41167D01*
X241288Y40860D01*
X241663Y40544D01*
X242031Y40219D01*
X242391Y39885D01*
X242742Y39542D01*
X243085Y39191D01*
X243419Y38831D01*
X243744Y38463D01*
X244060Y38088D01*
X244367Y37705D01*
X244664Y37314D01*
X244952Y36916D01*
X245229Y36511D01*
X245497Y36100D01*
X245755Y35682D01*
X246002Y35258D01*
X246238Y34828D01*
X246464Y34392D01*
X246680Y33951D01*
X246884Y33505D01*
X247078Y33054D01*
X247260Y32598D01*
X247431Y32138D01*
X247591Y31674D01*
X247739Y31206D01*
X247876Y30734D01*
X248001Y30260D01*
X248114Y29782D01*
X248216Y29302D01*
X248306Y28819D01*
X248384Y28335D01*
X248450Y27848D01*
X248504Y27360D01*
X248546Y26871D01*
X248576Y26381D01*
X248594Y25891D01*
X248600Y25400D01*
X248594Y24909D01*
X248576Y24419D01*
X248546Y23929D01*
X248504Y23440D01*
X248450Y22952D01*
X248384Y22465D01*
X248306Y21981D01*
X248216Y21498D01*
X248114Y21018D01*
X248001Y20540D01*
X247876Y20066D01*
X247739Y19594D01*
X247591Y19126D01*
X247431Y18662D01*
X247260Y18202D01*
X247078Y17746D01*
X246884Y17295D01*
X246680Y16849D01*
X246464Y16408D01*
X246238Y15972D01*
X246002Y15542D01*
X245755Y15118D01*
X245497Y14700D01*
X245229Y14289D01*
X244952Y13884D01*
X244664Y13486D01*
X244367Y13095D01*
X244060Y12712D01*
X243744Y12337D01*
X243419Y11969D01*
X243085Y11609D01*
X242742Y11258D01*
X242391Y10915D01*
X242031Y10581D01*
X241663Y10256D01*
X241288Y9940D01*
X240905Y9633D01*
X240514Y9336D01*
X240116Y9048D01*
X239711Y8771D01*
X239300Y8503D01*
X238882Y8245D01*
X238458Y7998D01*
X238028Y7762D01*
X237592Y7536D01*
X237151Y7320D01*
X236705Y7116D01*
X236254Y6922D01*
X235798Y6740D01*
X235338Y6569D01*
X234874Y6409D01*
X234406Y6261D01*
X233934Y6124D01*
X233460Y5999D01*
X232982Y5886D01*
X232502Y5784D01*
X232019Y5694D01*
X231535Y5616D01*
X231048Y5550D01*
X230560Y5496D01*
X230071Y5454D01*
X229581Y5424D01*
X229091Y5406D01*
X228600Y5400D01*
X228109Y5406D01*
X227619Y5424D01*
X227129Y5454D01*
X226640Y5496D01*
X226152Y5550D01*
X225665Y5616D01*
X225181Y5694D01*
X224698Y5784D01*
X224218Y5886D01*
X223740Y5999D01*
X223266Y6124D01*
X222794Y6261D01*
X222326Y6409D01*
X221862Y6569D01*
X221402Y6740D01*
X220946Y6922D01*
X220495Y7116D01*
X220049Y7320D01*
X219608Y7536D01*
X219172Y7762D01*
X218742Y7998D01*
X218318Y8245D01*
X217900Y8503D01*
X217489Y8771D01*
X217084Y9048D01*
X216686Y9336D01*
X216295Y9633D01*
X215912Y9940D01*
X215537Y10256D01*
X215169Y10581D01*
X214809Y10915D01*
X214458Y11258D01*
X214115Y11609D01*
X213781Y11969D01*
X213456Y12337D01*
X213140Y12712D01*
X212833Y13095D01*
X212536Y13486D01*
X212248Y13884D01*
X211971Y14289D01*
X211703Y14700D01*
X211445Y15118D01*
X211198Y15542D01*
X210962Y15972D01*
X210736Y16408D01*
X210520Y16849D01*
X210316Y17295D01*
X210122Y17746D01*
X209940Y18202D01*
X209769Y18662D01*
X209609Y19126D01*
X209461Y19594D01*
X209324Y20066D01*
X209199Y20540D01*
X209086Y21018D01*
X208984Y21498D01*
X208894Y21981D01*
X208816Y22465D01*
X208750Y22952D01*
X208696Y23440D01*
X208654Y23929D01*
X208624Y24419D01*
X208606Y24909D01*
X208600Y25400D01*
D14*
X27178Y146050D03*
D10*
X27704Y137674D02*
X27704Y131064D01*
X31009Y131064D01*
X32110Y132166D01*
X32110Y136572D01*
X31009Y137674D01*
X27704Y137674D01*
X35188Y135470D02*
X37391Y137674D01*
X37391Y131064D01*
X35188Y131064D02*
X39594Y131064D01*
D13*
X50610Y137160D02*
X58610Y137160D01*
D10*
X55118Y155702D02*
X48508Y155702D01*
X48508Y159007D01*
X49610Y160108D01*
X51813Y160108D01*
X52915Y159007D01*
X52915Y155702D01*
X52915Y157905D02*
X55118Y160108D01*
X48508Y163186D02*
X48508Y167593D01*
X49610Y167593D01*
X54016Y163186D01*
X55118Y163186D01*
D15*
X5070Y205740D02*
X5084Y206893D01*
X5127Y208046D01*
X5197Y209198D01*
X5296Y210347D01*
X5423Y211493D01*
X5579Y212636D01*
X5762Y213775D01*
X5973Y214909D01*
X6212Y216038D01*
X6479Y217160D01*
X6773Y218275D01*
X7094Y219383D01*
X7442Y220483D01*
X7817Y221574D01*
X8219Y222655D01*
X8648Y223726D01*
X9102Y224786D01*
X9583Y225835D01*
X10088Y226872D01*
X10620Y227896D01*
X11176Y228906D01*
X11757Y229903D01*
X12362Y230885D01*
X12991Y231852D01*
X13644Y232803D01*
X14319Y233738D01*
X15018Y234656D01*
X15739Y235556D01*
X16481Y236439D01*
X17245Y237303D01*
X18030Y238148D01*
X18836Y238974D01*
X19662Y239780D01*
X20507Y240565D01*
X21371Y241329D01*
X22254Y242071D01*
X23154Y242792D01*
X24072Y243491D01*
X25007Y244166D01*
X25958Y244819D01*
X26925Y245448D01*
X27907Y246053D01*
X28904Y246634D01*
X29914Y247190D01*
X30938Y247722D01*
X31975Y248227D01*
X33024Y248708D01*
X34084Y249162D01*
X35155Y249591D01*
X36236Y249993D01*
X37327Y250368D01*
X38427Y250716D01*
X39535Y251037D01*
X40650Y251331D01*
X41772Y251598D01*
X42901Y251837D01*
X44035Y252048D01*
X45174Y252231D01*
X46317Y252387D01*
X47463Y252514D01*
X48612Y252613D01*
X49764Y252683D01*
X50917Y252726D01*
X52070Y252740D01*
X53223Y252726D01*
X54376Y252683D01*
X55528Y252613D01*
X56677Y252514D01*
X57823Y252387D01*
X58966Y252231D01*
X60105Y252048D01*
X61239Y251837D01*
X62368Y251598D01*
X63490Y251331D01*
X64605Y251037D01*
X65713Y250716D01*
X66813Y250368D01*
X67904Y249993D01*
X68985Y249591D01*
X70056Y249162D01*
X71116Y248708D01*
X72165Y248227D01*
X73202Y247722D01*
X74226Y247190D01*
X75236Y246634D01*
X76233Y246053D01*
X77215Y245448D01*
X78182Y244819D01*
X79133Y244166D01*
X80068Y243491D01*
X80986Y242792D01*
X81886Y242071D01*
X82769Y241329D01*
X83633Y240565D01*
X84478Y239780D01*
X85304Y238974D01*
X86110Y238148D01*
X86895Y237303D01*
X87659Y236439D01*
X88401Y235556D01*
X89122Y234656D01*
X89821Y233738D01*
X90496Y232803D01*
X91149Y231852D01*
X91778Y230885D01*
X92383Y229903D01*
X92964Y228906D01*
X93520Y227896D01*
X94052Y226872D01*
X94557Y225835D01*
X95038Y224786D01*
X95492Y223726D01*
X95921Y222655D01*
X96323Y221574D01*
X96698Y220483D01*
X97046Y219383D01*
X97367Y218275D01*
X97661Y217160D01*
X97928Y216038D01*
X98167Y214909D01*
X98378Y213775D01*
X98561Y212636D01*
X98717Y211493D01*
X98844Y210347D01*
X98943Y209198D01*
X99013Y208046D01*
X99056Y206893D01*
X99070Y205740D01*
X99056Y204587D01*
X99013Y203434D01*
X98943Y202282D01*
X98844Y201133D01*
X98717Y199987D01*
X98561Y198844D01*
X98378Y197705D01*
X98167Y196571D01*
X97928Y195442D01*
X97661Y194320D01*
X97367Y193205D01*
X97046Y192097D01*
X96698Y190997D01*
X96323Y189906D01*
X95921Y188825D01*
X95492Y187754D01*
X95038Y186694D01*
X94557Y185645D01*
X94052Y184608D01*
X93520Y183584D01*
X92964Y182574D01*
X92383Y181577D01*
X91778Y180595D01*
X91149Y179628D01*
X90496Y178677D01*
X89821Y177742D01*
X89122Y176824D01*
X88401Y175924D01*
X87659Y175041D01*
X86895Y174177D01*
X86110Y173332D01*
X85304Y172506D01*
X84478Y171700D01*
X83633Y170915D01*
X82769Y170151D01*
X81886Y169409D01*
X80986Y168688D01*
X80068Y167989D01*
X79133Y167314D01*
X78182Y166661D01*
X77215Y166032D01*
X76233Y165427D01*
X75236Y164846D01*
X74226Y164290D01*
X73202Y163758D01*
X72165Y163253D01*
X71116Y162772D01*
X70056Y162318D01*
X68985Y161889D01*
X67904Y161487D01*
X66813Y161112D01*
X65713Y160764D01*
X64605Y160443D01*
X63490Y160149D01*
X62368Y159882D01*
X61239Y159643D01*
X60105Y159432D01*
X58966Y159249D01*
X57823Y159093D01*
X56677Y158966D01*
X55528Y158867D01*
X54376Y158797D01*
X53223Y158754D01*
X52070Y158740D01*
X50917Y158754D01*
X49764Y158797D01*
X48612Y158867D01*
X47463Y158966D01*
X46317Y159093D01*
X45174Y159249D01*
X44035Y159432D01*
X42901Y159643D01*
X41772Y159882D01*
X40650Y160149D01*
X39535Y160443D01*
X38427Y160764D01*
X37327Y161112D01*
X36236Y161487D01*
X35155Y161889D01*
X34084Y162318D01*
X33024Y162772D01*
X31975Y163253D01*
X30938Y163758D01*
X29914Y164290D01*
X28904Y164846D01*
X27907Y165427D01*
X26925Y166032D01*
X25958Y166661D01*
X25007Y167314D01*
X24072Y167989D01*
X23154Y168688D01*
X22254Y169409D01*
X21371Y170151D01*
X20507Y170915D01*
X19662Y171700D01*
X18836Y172506D01*
X18030Y173332D01*
X17245Y174177D01*
X16481Y175041D01*
X15739Y175924D01*
X15018Y176824D01*
X14319Y177742D01*
X13644Y178677D01*
X12991Y179628D01*
X12362Y180595D01*
X11757Y181577D01*
X11176Y182574D01*
X10620Y183584D01*
X10088Y184608D01*
X9583Y185645D01*
X9102Y186694D01*
X8648Y187754D01*
X8219Y188825D01*
X7817Y189906D01*
X7442Y190997D01*
X7094Y192097D01*
X6773Y193205D01*
X6479Y194320D01*
X6212Y195442D01*
X5973Y196571D01*
X5762Y197705D01*
X5579Y198844D01*
X5423Y199987D01*
X5296Y201133D01*
X5197Y202282D01*
X5127Y203434D01*
X5084Y204587D01*
X5070Y205740D01*
X10570Y205740D02*
X10582Y206758D01*
X10620Y207776D01*
X10682Y208793D01*
X10770Y209808D01*
X10882Y210820D01*
X11019Y211829D01*
X11181Y212835D01*
X11367Y213836D01*
X11578Y214833D01*
X11814Y215824D01*
X12073Y216809D01*
X12357Y217787D01*
X12665Y218758D01*
X12996Y219721D01*
X13351Y220676D01*
X13729Y221621D01*
X14130Y222558D01*
X14554Y223484D01*
X15001Y224399D01*
X15470Y225303D01*
X15961Y226195D01*
X16474Y227075D01*
X17009Y227942D01*
X17564Y228796D01*
X18140Y229636D01*
X18737Y230462D01*
X19354Y231272D01*
X19990Y232067D01*
X20646Y232847D01*
X21321Y233610D01*
X22014Y234356D01*
X22725Y235085D01*
X23454Y235796D01*
X24200Y236489D01*
X24963Y237164D01*
X25743Y237820D01*
X26538Y238456D01*
X27348Y239073D01*
X28174Y239670D01*
X29014Y240246D01*
X29868Y240801D01*
X30735Y241336D01*
X31615Y241849D01*
X32507Y242340D01*
X33411Y242809D01*
X34326Y243256D01*
X35252Y243680D01*
X36189Y244081D01*
X37134Y244459D01*
X38089Y244814D01*
X39052Y245145D01*
X40023Y245453D01*
X41001Y245737D01*
X41986Y245996D01*
X42977Y246232D01*
X43974Y246443D01*
X44975Y246629D01*
X45981Y246791D01*
X46990Y246928D01*
X48002Y247040D01*
X49017Y247128D01*
X50034Y247190D01*
X51052Y247228D01*
X52070Y247240D01*
X53088Y247228D01*
X54106Y247190D01*
X55123Y247128D01*
X56138Y247040D01*
X57150Y246928D01*
X58159Y246791D01*
X59165Y246629D01*
X60166Y246443D01*
X61163Y246232D01*
X62154Y245996D01*
X63139Y245737D01*
X64117Y245453D01*
X65088Y245145D01*
X66051Y244814D01*
X67006Y244459D01*
X67951Y244081D01*
X68888Y243680D01*
X69814Y243256D01*
X70729Y242809D01*
X71633Y242340D01*
X72525Y241849D01*
X73405Y241336D01*
X74272Y240801D01*
X75126Y240246D01*
X75966Y239670D01*
X76792Y239073D01*
X77602Y238456D01*
X78397Y237820D01*
X79177Y237164D01*
X79940Y236489D01*
X80686Y235796D01*
X81415Y235085D01*
X82126Y234356D01*
X82819Y233610D01*
X83494Y232847D01*
X84150Y232067D01*
X84786Y231272D01*
X85403Y230462D01*
X86000Y229636D01*
X86576Y228796D01*
X87131Y227942D01*
X87666Y227075D01*
X88179Y226195D01*
X88670Y225303D01*
X89139Y224399D01*
X89586Y223484D01*
X90010Y222558D01*
X90411Y221621D01*
X90789Y220676D01*
X91144Y219721D01*
X91475Y218758D01*
X91783Y217787D01*
X92067Y216809D01*
X92326Y215824D01*
X92562Y214833D01*
X92773Y213836D01*
X92959Y212835D01*
X93121Y211829D01*
X93258Y210820D01*
X93370Y209808D01*
X93458Y208793D01*
X93520Y207776D01*
X93558Y206758D01*
X93570Y205740D01*
X93558Y204722D01*
X93520Y203704D01*
X93458Y202687D01*
X93370Y201672D01*
X93258Y200660D01*
X93121Y199651D01*
X92959Y198645D01*
X92773Y197644D01*
X92562Y196647D01*
X92326Y195656D01*
X92067Y194671D01*
X91783Y193693D01*
X91475Y192722D01*
X91144Y191759D01*
X90789Y190804D01*
X90411Y189859D01*
X90010Y188922D01*
X89586Y187996D01*
X89139Y187081D01*
X88670Y186177D01*
X88179Y185285D01*
X87666Y184405D01*
X87131Y183538D01*
X86576Y182684D01*
X86000Y181844D01*
X85403Y181018D01*
X84786Y180208D01*
X84150Y179413D01*
X83494Y178633D01*
X82819Y177870D01*
X82126Y177124D01*
X81415Y176395D01*
X80686Y175684D01*
X79940Y174991D01*
X79177Y174316D01*
X78397Y173660D01*
X77602Y173024D01*
X76792Y172407D01*
X75966Y171810D01*
X75126Y171234D01*
X74272Y170679D01*
X73405Y170144D01*
X72525Y169631D01*
X71633Y169140D01*
X70729Y168671D01*
X69814Y168224D01*
X68888Y167800D01*
X67951Y167399D01*
X67006Y167021D01*
X66051Y166666D01*
X65088Y166335D01*
X64117Y166027D01*
X63139Y165743D01*
X62154Y165484D01*
X61163Y165248D01*
X60166Y165037D01*
X59165Y164851D01*
X58159Y164689D01*
X57150Y164552D01*
X56138Y164440D01*
X55123Y164352D01*
X54106Y164290D01*
X53088Y164252D01*
X52070Y164240D01*
X51052Y164252D01*
X50034Y164290D01*
X49017Y164352D01*
X48002Y164440D01*
X46990Y164552D01*
X45981Y164689D01*
X44975Y164851D01*
X43974Y165037D01*
X42977Y165248D01*
X41986Y165484D01*
X41001Y165743D01*
X40023Y166027D01*
X39052Y166335D01*
X38089Y166666D01*
X37134Y167021D01*
X36189Y167399D01*
X35252Y167800D01*
X34326Y168224D01*
X33411Y168671D01*
X32507Y169140D01*
X31615Y169631D01*
X30735Y170144D01*
X29868Y170679D01*
X29014Y171234D01*
X28174Y171810D01*
X27348Y172407D01*
X26538Y173024D01*
X25743Y173660D01*
X24963Y174316D01*
X24200Y174991D01*
X23454Y175684D01*
X22725Y176395D01*
X22014Y177124D01*
X21321Y177870D01*
X20646Y178633D01*
X19990Y179413D01*
X19354Y180208D01*
X18737Y181018D01*
X18140Y181844D01*
X17564Y182684D01*
X17009Y183538D01*
X16474Y184405D01*
X15961Y185285D01*
X15470Y186177D01*
X15001Y187081D01*
X14554Y187996D01*
X14130Y188922D01*
X13729Y189859D01*
X13351Y190804D01*
X12996Y191759D01*
X12665Y192722D01*
X12357Y193693D01*
X12073Y194671D01*
X11814Y195656D01*
X11578Y196647D01*
X11367Y197644D01*
X11181Y198645D01*
X11019Y199651D01*
X10882Y200660D01*
X10770Y201672D01*
X10682Y202687D01*
X10620Y203704D01*
X10582Y204722D01*
X10570Y205740D01*
D11*
X61193Y138471D02*
X63143Y136521D01*
X65093Y136521D01*
X67043Y138471D01*
X67043Y148220D01*
X65093Y148220D02*
X68993Y148220D01*
X72892Y144320D02*
X76792Y148220D01*
X76792Y136521D01*
X80691Y136521D02*
X72892Y136521D01*
D15*
X120650Y198120D02*
X120650Y248920D01*
X146050Y248920D01*
X146050Y198120D01*
X120650Y198120D01*
D16*
X132350Y192520D02*
X132352Y192583D01*
X132358Y192645D01*
X132368Y192707D01*
X132381Y192769D01*
X132399Y192829D01*
X132420Y192888D01*
X132445Y192946D01*
X132474Y193002D01*
X132506Y193056D01*
X132541Y193108D01*
X132579Y193157D01*
X132621Y193205D01*
X132665Y193249D01*
X132713Y193291D01*
X132762Y193329D01*
X132814Y193364D01*
X132868Y193396D01*
X132924Y193425D01*
X132982Y193450D01*
X133041Y193471D01*
X133101Y193489D01*
X133163Y193502D01*
X133225Y193512D01*
X133287Y193518D01*
X133350Y193520D01*
X133413Y193518D01*
X133475Y193512D01*
X133537Y193502D01*
X133599Y193489D01*
X133659Y193471D01*
X133718Y193450D01*
X133776Y193425D01*
X133832Y193396D01*
X133886Y193364D01*
X133938Y193329D01*
X133987Y193291D01*
X134035Y193249D01*
X134079Y193205D01*
X134121Y193157D01*
X134159Y193108D01*
X134194Y193056D01*
X134226Y193002D01*
X134255Y192946D01*
X134280Y192888D01*
X134301Y192829D01*
X134319Y192769D01*
X134332Y192707D01*
X134342Y192645D01*
X134348Y192583D01*
X134350Y192520D01*
X134348Y192457D01*
X134342Y192395D01*
X134332Y192333D01*
X134319Y192271D01*
X134301Y192211D01*
X134280Y192152D01*
X134255Y192094D01*
X134226Y192038D01*
X134194Y191984D01*
X134159Y191932D01*
X134121Y191883D01*
X134079Y191835D01*
X134035Y191791D01*
X133987Y191749D01*
X133938Y191711D01*
X133886Y191676D01*
X133832Y191644D01*
X133776Y191615D01*
X133718Y191590D01*
X133659Y191569D01*
X133599Y191551D01*
X133537Y191538D01*
X133475Y191528D01*
X133413Y191522D01*
X133350Y191520D01*
X133287Y191522D01*
X133225Y191528D01*
X133163Y191538D01*
X133101Y191551D01*
X133041Y191569D01*
X132982Y191590D01*
X132924Y191615D01*
X132868Y191644D01*
X132814Y191676D01*
X132762Y191711D01*
X132713Y191749D01*
X132665Y191791D01*
X132621Y191835D01*
X132579Y191883D01*
X132541Y191932D01*
X132506Y191984D01*
X132474Y192038D01*
X132445Y192094D01*
X132420Y192152D01*
X132399Y192211D01*
X132381Y192271D01*
X132368Y192333D01*
X132358Y192395D01*
X132352Y192457D01*
X132350Y192520D01*
D11*
X115342Y198477D02*
X113393Y196528D01*
X115342Y198477D02*
X115342Y200426D01*
X113393Y202375D01*
X103648Y202375D01*
X103648Y200426D02*
X103648Y204324D01*
X115342Y208222D02*
X115342Y216018D01*
X115342Y208222D02*
X107546Y216018D01*
X105597Y216018D01*
X103648Y214069D01*
X103648Y210171D01*
X105597Y208222D01*
D15*
X223520Y198120D02*
X223520Y248920D01*
X248920Y248920D01*
X248920Y198120D01*
X223520Y198120D01*
D16*
X235220Y192520D02*
X235222Y192583D01*
X235228Y192645D01*
X235238Y192707D01*
X235251Y192769D01*
X235269Y192829D01*
X235290Y192888D01*
X235315Y192946D01*
X235344Y193002D01*
X235376Y193056D01*
X235411Y193108D01*
X235449Y193157D01*
X235491Y193205D01*
X235535Y193249D01*
X235583Y193291D01*
X235632Y193329D01*
X235684Y193364D01*
X235738Y193396D01*
X235794Y193425D01*
X235852Y193450D01*
X235911Y193471D01*
X235971Y193489D01*
X236033Y193502D01*
X236095Y193512D01*
X236157Y193518D01*
X236220Y193520D01*
X236283Y193518D01*
X236345Y193512D01*
X236407Y193502D01*
X236469Y193489D01*
X236529Y193471D01*
X236588Y193450D01*
X236646Y193425D01*
X236702Y193396D01*
X236756Y193364D01*
X236808Y193329D01*
X236857Y193291D01*
X236905Y193249D01*
X236949Y193205D01*
X236991Y193157D01*
X237029Y193108D01*
X237064Y193056D01*
X237096Y193002D01*
X237125Y192946D01*
X237150Y192888D01*
X237171Y192829D01*
X237189Y192769D01*
X237202Y192707D01*
X237212Y192645D01*
X237218Y192583D01*
X237220Y192520D01*
X237218Y192457D01*
X237212Y192395D01*
X237202Y192333D01*
X237189Y192271D01*
X237171Y192211D01*
X237150Y192152D01*
X237125Y192094D01*
X237096Y192038D01*
X237064Y191984D01*
X237029Y191932D01*
X236991Y191883D01*
X236949Y191835D01*
X236905Y191791D01*
X236857Y191749D01*
X236808Y191711D01*
X236756Y191676D01*
X236702Y191644D01*
X236646Y191615D01*
X236588Y191590D01*
X236529Y191569D01*
X236469Y191551D01*
X236407Y191538D01*
X236345Y191528D01*
X236283Y191522D01*
X236220Y191520D01*
X236157Y191522D01*
X236095Y191528D01*
X236033Y191538D01*
X235971Y191551D01*
X235911Y191569D01*
X235852Y191590D01*
X235794Y191615D01*
X235738Y191644D01*
X235684Y191676D01*
X235632Y191711D01*
X235583Y191749D01*
X235535Y191791D01*
X235491Y191835D01*
X235449Y191883D01*
X235411Y191932D01*
X235376Y191984D01*
X235344Y192038D01*
X235315Y192094D01*
X235290Y192152D01*
X235269Y192211D01*
X235251Y192271D01*
X235238Y192333D01*
X235228Y192395D01*
X235222Y192457D01*
X235220Y192520D01*
D11*
X218212Y198477D02*
X216263Y196528D01*
X218212Y198477D02*
X218212Y200426D01*
X216263Y202375D01*
X206518Y202375D01*
X206518Y200426D02*
X206518Y204324D01*
X208467Y208222D02*
X206518Y210171D01*
X206518Y214069D01*
X208467Y216018D01*
X210416Y216018D01*
X212365Y214069D01*
X212365Y212120D01*
X212365Y214069D02*
X214314Y216018D01*
X216263Y216018D01*
X218212Y214069D01*
X218212Y210171D01*
X216263Y208222D01*
M02*
