G04 EAGLE Gerber RS-274X export*
G75*
%MOMM*%
%FSLAX34Y34*%
%LPD*%
%INSoldermask Top*%
%IPPOS*%
%AMOC8*
5,1,8,0,0,1.08239X$1,22.5*%
G01*
%ADD10R,0.501600X1.301600*%
%ADD11R,1.101600X1.176600*%
%ADD12R,1.901600X3.301600*%
%ADD13R,1.601600X1.341600*%
%ADD14R,1.001600X0.551600*%
%ADD15C,3.617600*%
%ADD16R,1.651600X0.701600*%
%ADD17R,1.901600X1.301600*%
%ADD18R,0.901600X0.901600*%
%ADD19R,1.409600X1.409600*%
%ADD20C,1.409600*%
%ADD21R,1.706600X1.706600*%
%ADD22C,1.706600*%


D10*
X135480Y82850D03*
X135480Y56850D03*
X128980Y82850D03*
X122480Y82850D03*
X115980Y82850D03*
X115980Y56850D03*
X122480Y56850D03*
X128980Y56850D03*
D11*
X100330Y79620D03*
X100330Y62620D03*
D12*
X152340Y162560D03*
X208340Y162560D03*
D13*
X82550Y80620D03*
X82550Y61620D03*
D14*
X172330Y82850D03*
X155330Y82850D03*
X172330Y73850D03*
X172330Y65850D03*
X172330Y56850D03*
X155330Y56850D03*
X155330Y73850D03*
X155330Y65850D03*
D15*
X25400Y279400D03*
X228600Y279400D03*
D16*
X202190Y96600D03*
X202190Y106600D03*
X202190Y86600D03*
X202190Y116600D03*
D17*
X241190Y73600D03*
X241190Y129600D03*
D16*
X51810Y106600D03*
X51810Y96600D03*
X51810Y116600D03*
X51810Y86600D03*
D17*
X12810Y129600D03*
X12810Y73600D03*
D15*
X25400Y25400D03*
X228600Y25400D03*
D18*
X21710Y146050D03*
X36710Y146050D03*
D11*
X54610Y128660D03*
X54610Y145660D03*
D19*
X70070Y187740D03*
D20*
X70070Y223740D03*
X34070Y223740D03*
X34070Y187740D03*
D21*
X133350Y210820D03*
D22*
X133350Y236220D03*
D21*
X236220Y210820D03*
D22*
X236220Y236220D03*
M02*
