G04 EAGLE Gerber RS-274X export*
G75*
%MOMM*%
%FSLAX34Y34*%
%LPD*%
%INSilkscreen Top*%
%IPPOS*%
%AMOC8*
5,1,8,0,0,1.08239X$1,22.5*%
G01*
%ADD10C,0.203200*%
%ADD11C,0.152400*%
%ADD12R,0.127000X0.762000*%
%ADD13C,0.200000*%
%ADD14C,0.127000*%
%ADD15C,0.101600*%

G36*
X11948Y108463D02*
X11948Y108463D01*
X11977Y108460D01*
X12069Y108480D01*
X12162Y108493D01*
X12189Y108506D01*
X12218Y108512D01*
X12298Y108560D01*
X12382Y108602D01*
X12403Y108623D01*
X12429Y108638D01*
X12490Y108710D01*
X12556Y108776D01*
X12569Y108802D01*
X12589Y108825D01*
X12624Y108912D01*
X12666Y108996D01*
X12670Y109026D01*
X12681Y109053D01*
X12699Y109220D01*
X12699Y114300D01*
X12694Y114329D01*
X12697Y114359D01*
X12675Y114450D01*
X12660Y114543D01*
X12646Y114569D01*
X12639Y114598D01*
X12588Y114677D01*
X12544Y114760D01*
X12523Y114781D01*
X12507Y114806D01*
X12434Y114865D01*
X12366Y114930D01*
X12339Y114942D01*
X12316Y114961D01*
X12228Y114994D01*
X12143Y115033D01*
X12113Y115036D01*
X12086Y115047D01*
X11992Y115050D01*
X11899Y115060D01*
X11869Y115054D01*
X11840Y115055D01*
X11750Y115028D01*
X11658Y115008D01*
X11633Y114993D01*
X11604Y114984D01*
X11462Y114894D01*
X8287Y112354D01*
X8218Y112277D01*
X8145Y112204D01*
X8136Y112187D01*
X8123Y112172D01*
X8081Y112076D01*
X8035Y111984D01*
X8033Y111964D01*
X8025Y111946D01*
X8016Y111843D01*
X8002Y111740D01*
X8006Y111721D01*
X8004Y111701D01*
X8029Y111600D01*
X8048Y111498D01*
X8058Y111481D01*
X8062Y111462D01*
X8118Y111375D01*
X8169Y111284D01*
X8186Y111267D01*
X8194Y111254D01*
X8219Y111234D01*
X8287Y111166D01*
X11462Y108626D01*
X11488Y108611D01*
X11510Y108591D01*
X11595Y108551D01*
X11677Y108505D01*
X11706Y108499D01*
X11733Y108487D01*
X11826Y108477D01*
X11918Y108459D01*
X11948Y108463D01*
G37*
D10*
X145500Y74350D02*
X145502Y74413D01*
X145508Y74475D01*
X145518Y74537D01*
X145531Y74599D01*
X145549Y74659D01*
X145570Y74718D01*
X145595Y74776D01*
X145624Y74832D01*
X145656Y74886D01*
X145691Y74938D01*
X145729Y74987D01*
X145771Y75035D01*
X145815Y75079D01*
X145863Y75121D01*
X145912Y75159D01*
X145964Y75194D01*
X146018Y75226D01*
X146074Y75255D01*
X146132Y75280D01*
X146191Y75301D01*
X146251Y75319D01*
X146313Y75332D01*
X146375Y75342D01*
X146437Y75348D01*
X146500Y75350D01*
X146563Y75348D01*
X146625Y75342D01*
X146687Y75332D01*
X146749Y75319D01*
X146809Y75301D01*
X146868Y75280D01*
X146926Y75255D01*
X146982Y75226D01*
X147036Y75194D01*
X147088Y75159D01*
X147137Y75121D01*
X147185Y75079D01*
X147229Y75035D01*
X147271Y74987D01*
X147309Y74938D01*
X147344Y74886D01*
X147376Y74832D01*
X147405Y74776D01*
X147430Y74718D01*
X147451Y74659D01*
X147469Y74599D01*
X147482Y74537D01*
X147492Y74475D01*
X147498Y74413D01*
X147500Y74350D01*
X147498Y74287D01*
X147492Y74225D01*
X147482Y74163D01*
X147469Y74101D01*
X147451Y74041D01*
X147430Y73982D01*
X147405Y73924D01*
X147376Y73868D01*
X147344Y73814D01*
X147309Y73762D01*
X147271Y73713D01*
X147229Y73665D01*
X147185Y73621D01*
X147137Y73579D01*
X147088Y73541D01*
X147036Y73506D01*
X146982Y73474D01*
X146926Y73445D01*
X146868Y73420D01*
X146809Y73399D01*
X146749Y73381D01*
X146687Y73368D01*
X146625Y73358D01*
X146563Y73352D01*
X146500Y73350D01*
X146437Y73352D01*
X146375Y73358D01*
X146313Y73368D01*
X146251Y73381D01*
X146191Y73399D01*
X146132Y73420D01*
X146074Y73445D01*
X146018Y73474D01*
X145964Y73506D01*
X145912Y73541D01*
X145863Y73579D01*
X145815Y73621D01*
X145771Y73665D01*
X145729Y73713D01*
X145691Y73762D01*
X145656Y73814D01*
X145624Y73868D01*
X145595Y73924D01*
X145570Y73982D01*
X145549Y74041D01*
X145531Y74101D01*
X145518Y74163D01*
X145508Y74225D01*
X145502Y74287D01*
X145500Y74350D01*
X143000Y60850D02*
X141000Y60850D01*
X143000Y60850D02*
X143000Y78850D01*
X141000Y78850D01*
X113000Y60850D02*
X111000Y60850D01*
X111000Y78850D01*
X113000Y78850D01*
D11*
X91284Y67824D02*
X91284Y62316D01*
X92385Y61214D01*
X94589Y61214D01*
X95690Y62316D01*
X95690Y67824D01*
X98768Y65620D02*
X100971Y67824D01*
X100971Y61214D01*
X98768Y61214D02*
X103174Y61214D01*
D10*
X108600Y55120D02*
X108600Y87120D01*
X108600Y55120D02*
X94600Y55120D01*
X94600Y87120D01*
X108600Y87120D01*
D11*
X102188Y41000D02*
X101086Y39899D01*
X101086Y37695D01*
X102188Y36594D01*
X106594Y36594D01*
X107696Y37695D01*
X107696Y39899D01*
X106594Y41000D01*
X103290Y44078D02*
X101086Y46281D01*
X107696Y46281D01*
X107696Y44078D02*
X107696Y48484D01*
X90932Y131572D02*
X90932Y138182D01*
X94237Y138182D01*
X95338Y137080D01*
X95338Y134877D01*
X94237Y133775D01*
X90932Y133775D01*
X93135Y133775D02*
X95338Y131572D01*
X98416Y138182D02*
X102823Y138182D01*
X98416Y138182D02*
X98416Y134877D01*
X100619Y135978D01*
X101721Y135978D01*
X102823Y134877D01*
X102823Y132674D01*
X101721Y131572D01*
X99518Y131572D01*
X98416Y132674D01*
D10*
X88900Y71120D02*
X78740Y71120D01*
D11*
X80539Y51314D02*
X81640Y50212D01*
X80539Y51314D02*
X78335Y51314D01*
X77234Y50212D01*
X77234Y45806D01*
X78335Y44704D01*
X80539Y44704D01*
X81640Y45806D01*
X84718Y44704D02*
X89124Y44704D01*
X84718Y44704D02*
X89124Y49110D01*
X89124Y50212D01*
X88023Y51314D01*
X85819Y51314D01*
X84718Y50212D01*
D10*
X179100Y50850D02*
X179100Y88850D01*
X179100Y50850D02*
X151100Y50850D01*
X151100Y88850D01*
X179100Y88850D01*
D11*
X181856Y71644D02*
X188466Y71644D01*
X181856Y71644D02*
X181856Y74949D01*
X182958Y76050D01*
X185161Y76050D01*
X186263Y74949D01*
X186263Y71644D01*
X186263Y73847D02*
X188466Y76050D01*
X182958Y81331D02*
X181856Y83534D01*
X182958Y81331D02*
X185161Y79128D01*
X187364Y79128D01*
X188466Y80229D01*
X188466Y82433D01*
X187364Y83534D01*
X186263Y83534D01*
X185161Y82433D01*
X185161Y79128D01*
X206460Y71600D02*
X232460Y71600D01*
X206460Y71600D02*
X206460Y82600D01*
X206460Y120600D02*
X206460Y132600D01*
X232460Y132600D01*
X249460Y122600D02*
X249460Y80600D01*
X155280Y67209D02*
X152568Y64497D01*
X152568Y59074D01*
X155280Y56362D01*
X166126Y56362D01*
X168838Y59074D01*
X168838Y64497D01*
X166126Y67209D01*
X152568Y75445D02*
X152568Y80869D01*
X152568Y75445D02*
X155280Y72734D01*
X166126Y72734D01*
X168838Y75445D01*
X168838Y80869D01*
X166126Y83580D01*
X155280Y83580D01*
X152568Y80869D01*
X152568Y89105D02*
X168838Y89105D01*
X168838Y99952D02*
X152568Y89105D01*
X152568Y99952D02*
X168838Y99952D01*
X168838Y105477D02*
X152568Y105477D01*
X168838Y116323D01*
X152568Y116323D01*
X155280Y121848D02*
X152568Y124560D01*
X152568Y129983D01*
X155280Y132695D01*
X157991Y132695D01*
X160703Y129983D01*
X160703Y127272D01*
X160703Y129983D02*
X163415Y132695D01*
X166126Y132695D01*
X168838Y129983D01*
X168838Y124560D01*
X166126Y121848D01*
X36140Y94770D02*
X10140Y94770D01*
X36140Y94770D02*
X36140Y83770D01*
X36140Y45770D02*
X36140Y33770D01*
X10140Y33770D01*
X-6860Y43770D02*
X-6860Y85770D01*
X73748Y37809D02*
X76460Y40521D01*
X73748Y37809D02*
X73748Y32386D01*
X76460Y29674D01*
X87306Y29674D01*
X90018Y32386D01*
X90018Y37809D01*
X87306Y40521D01*
X73748Y48757D02*
X73748Y54181D01*
X73748Y48757D02*
X76460Y46046D01*
X87306Y46046D01*
X90018Y48757D01*
X90018Y54181D01*
X87306Y56892D01*
X76460Y56892D01*
X73748Y54181D01*
X73748Y62417D02*
X90018Y62417D01*
X90018Y73264D02*
X73748Y62417D01*
X73748Y73264D02*
X90018Y73264D01*
X90018Y78789D02*
X73748Y78789D01*
X90018Y89635D01*
X73748Y89635D01*
X73748Y103295D02*
X90018Y103295D01*
X81883Y95160D02*
X73748Y103295D01*
X81883Y106007D02*
X81883Y95160D01*
D12*
X8128Y111760D03*
D11*
X8654Y103384D02*
X8654Y96774D01*
X11959Y96774D01*
X13060Y97876D01*
X13060Y102282D01*
X11959Y103384D01*
X8654Y103384D01*
X16138Y101180D02*
X18341Y103384D01*
X18341Y96774D01*
X16138Y96774D02*
X20544Y96774D01*
D10*
X43180Y107950D02*
X43180Y113030D01*
D11*
X11194Y111004D02*
X11194Y104394D01*
X11194Y111004D02*
X14499Y111004D01*
X15600Y109902D01*
X15600Y107699D01*
X14499Y106597D01*
X11194Y106597D01*
X13397Y106597D02*
X15600Y104394D01*
X18678Y111004D02*
X23084Y111004D01*
X23084Y109902D01*
X18678Y105496D01*
X18678Y104394D01*
D13*
X66425Y2337D02*
X66427Y2400D01*
X66433Y2462D01*
X66443Y2524D01*
X66456Y2586D01*
X66474Y2646D01*
X66495Y2705D01*
X66520Y2763D01*
X66549Y2819D01*
X66581Y2873D01*
X66616Y2925D01*
X66654Y2974D01*
X66696Y3022D01*
X66740Y3066D01*
X66788Y3108D01*
X66837Y3146D01*
X66889Y3181D01*
X66943Y3213D01*
X66999Y3242D01*
X67057Y3267D01*
X67116Y3288D01*
X67176Y3306D01*
X67238Y3319D01*
X67300Y3329D01*
X67362Y3335D01*
X67425Y3337D01*
X67488Y3335D01*
X67550Y3329D01*
X67612Y3319D01*
X67674Y3306D01*
X67734Y3288D01*
X67793Y3267D01*
X67851Y3242D01*
X67907Y3213D01*
X67961Y3181D01*
X68013Y3146D01*
X68062Y3108D01*
X68110Y3066D01*
X68154Y3022D01*
X68196Y2974D01*
X68234Y2925D01*
X68269Y2873D01*
X68301Y2819D01*
X68330Y2763D01*
X68355Y2705D01*
X68376Y2646D01*
X68394Y2586D01*
X68407Y2524D01*
X68417Y2462D01*
X68423Y2400D01*
X68425Y2337D01*
X68423Y2274D01*
X68417Y2212D01*
X68407Y2150D01*
X68394Y2088D01*
X68376Y2028D01*
X68355Y1969D01*
X68330Y1911D01*
X68301Y1855D01*
X68269Y1801D01*
X68234Y1749D01*
X68196Y1700D01*
X68154Y1652D01*
X68110Y1608D01*
X68062Y1566D01*
X68013Y1528D01*
X67961Y1493D01*
X67907Y1461D01*
X67851Y1432D01*
X67793Y1407D01*
X67734Y1386D01*
X67674Y1368D01*
X67612Y1355D01*
X67550Y1345D01*
X67488Y1339D01*
X67425Y1337D01*
X67362Y1339D01*
X67300Y1345D01*
X67238Y1355D01*
X67176Y1368D01*
X67116Y1386D01*
X67057Y1407D01*
X66999Y1432D01*
X66943Y1461D01*
X66889Y1493D01*
X66837Y1528D01*
X66788Y1566D01*
X66740Y1608D01*
X66696Y1652D01*
X66654Y1700D01*
X66616Y1749D01*
X66581Y1801D01*
X66549Y1855D01*
X66520Y1911D01*
X66495Y1969D01*
X66474Y2028D01*
X66456Y2088D01*
X66443Y2150D01*
X66433Y2212D01*
X66427Y2274D01*
X66425Y2337D01*
D14*
X73025Y40437D02*
X149225Y40437D01*
X149225Y-10363D01*
X73025Y-10363D01*
X73025Y40437D01*
D15*
X75882Y45545D02*
X73933Y47494D01*
X75882Y45545D02*
X77831Y45545D01*
X79780Y47494D01*
X79780Y57239D01*
X77831Y57239D02*
X81729Y57239D01*
X85627Y45545D02*
X93423Y45545D01*
X85627Y45545D02*
X93423Y53341D01*
X93423Y55290D01*
X91474Y57239D01*
X87576Y57239D01*
X85627Y55290D01*
D14*
X15230Y163830D02*
X15244Y164983D01*
X15287Y166136D01*
X15357Y167288D01*
X15456Y168437D01*
X15583Y169583D01*
X15739Y170726D01*
X15922Y171865D01*
X16133Y172999D01*
X16372Y174128D01*
X16639Y175250D01*
X16933Y176365D01*
X17254Y177473D01*
X17602Y178573D01*
X17977Y179664D01*
X18379Y180745D01*
X18808Y181816D01*
X19262Y182876D01*
X19743Y183925D01*
X20248Y184962D01*
X20780Y185986D01*
X21336Y186996D01*
X21917Y187993D01*
X22522Y188975D01*
X23151Y189942D01*
X23804Y190893D01*
X24479Y191828D01*
X25178Y192746D01*
X25899Y193646D01*
X26641Y194529D01*
X27405Y195393D01*
X28190Y196238D01*
X28996Y197064D01*
X29822Y197870D01*
X30667Y198655D01*
X31531Y199419D01*
X32414Y200161D01*
X33314Y200882D01*
X34232Y201581D01*
X35167Y202256D01*
X36118Y202909D01*
X37085Y203538D01*
X38067Y204143D01*
X39064Y204724D01*
X40074Y205280D01*
X41098Y205812D01*
X42135Y206317D01*
X43184Y206798D01*
X44244Y207252D01*
X45315Y207681D01*
X46396Y208083D01*
X47487Y208458D01*
X48587Y208806D01*
X49695Y209127D01*
X50810Y209421D01*
X51932Y209688D01*
X53061Y209927D01*
X54195Y210138D01*
X55334Y210321D01*
X56477Y210477D01*
X57623Y210604D01*
X58772Y210703D01*
X59924Y210773D01*
X61077Y210816D01*
X62230Y210830D01*
X63383Y210816D01*
X64536Y210773D01*
X65688Y210703D01*
X66837Y210604D01*
X67983Y210477D01*
X69126Y210321D01*
X70265Y210138D01*
X71399Y209927D01*
X72528Y209688D01*
X73650Y209421D01*
X74765Y209127D01*
X75873Y208806D01*
X76973Y208458D01*
X78064Y208083D01*
X79145Y207681D01*
X80216Y207252D01*
X81276Y206798D01*
X82325Y206317D01*
X83362Y205812D01*
X84386Y205280D01*
X85396Y204724D01*
X86393Y204143D01*
X87375Y203538D01*
X88342Y202909D01*
X89293Y202256D01*
X90228Y201581D01*
X91146Y200882D01*
X92046Y200161D01*
X92929Y199419D01*
X93793Y198655D01*
X94638Y197870D01*
X95464Y197064D01*
X96270Y196238D01*
X97055Y195393D01*
X97819Y194529D01*
X98561Y193646D01*
X99282Y192746D01*
X99981Y191828D01*
X100656Y190893D01*
X101309Y189942D01*
X101938Y188975D01*
X102543Y187993D01*
X103124Y186996D01*
X103680Y185986D01*
X104212Y184962D01*
X104717Y183925D01*
X105198Y182876D01*
X105652Y181816D01*
X106081Y180745D01*
X106483Y179664D01*
X106858Y178573D01*
X107206Y177473D01*
X107527Y176365D01*
X107821Y175250D01*
X108088Y174128D01*
X108327Y172999D01*
X108538Y171865D01*
X108721Y170726D01*
X108877Y169583D01*
X109004Y168437D01*
X109103Y167288D01*
X109173Y166136D01*
X109216Y164983D01*
X109230Y163830D01*
X109216Y162677D01*
X109173Y161524D01*
X109103Y160372D01*
X109004Y159223D01*
X108877Y158077D01*
X108721Y156934D01*
X108538Y155795D01*
X108327Y154661D01*
X108088Y153532D01*
X107821Y152410D01*
X107527Y151295D01*
X107206Y150187D01*
X106858Y149087D01*
X106483Y147996D01*
X106081Y146915D01*
X105652Y145844D01*
X105198Y144784D01*
X104717Y143735D01*
X104212Y142698D01*
X103680Y141674D01*
X103124Y140664D01*
X102543Y139667D01*
X101938Y138685D01*
X101309Y137718D01*
X100656Y136767D01*
X99981Y135832D01*
X99282Y134914D01*
X98561Y134014D01*
X97819Y133131D01*
X97055Y132267D01*
X96270Y131422D01*
X95464Y130596D01*
X94638Y129790D01*
X93793Y129005D01*
X92929Y128241D01*
X92046Y127499D01*
X91146Y126778D01*
X90228Y126079D01*
X89293Y125404D01*
X88342Y124751D01*
X87375Y124122D01*
X86393Y123517D01*
X85396Y122936D01*
X84386Y122380D01*
X83362Y121848D01*
X82325Y121343D01*
X81276Y120862D01*
X80216Y120408D01*
X79145Y119979D01*
X78064Y119577D01*
X76973Y119202D01*
X75873Y118854D01*
X74765Y118533D01*
X73650Y118239D01*
X72528Y117972D01*
X71399Y117733D01*
X70265Y117522D01*
X69126Y117339D01*
X67983Y117183D01*
X66837Y117056D01*
X65688Y116957D01*
X64536Y116887D01*
X63383Y116844D01*
X62230Y116830D01*
X61077Y116844D01*
X59924Y116887D01*
X58772Y116957D01*
X57623Y117056D01*
X56477Y117183D01*
X55334Y117339D01*
X54195Y117522D01*
X53061Y117733D01*
X51932Y117972D01*
X50810Y118239D01*
X49695Y118533D01*
X48587Y118854D01*
X47487Y119202D01*
X46396Y119577D01*
X45315Y119979D01*
X44244Y120408D01*
X43184Y120862D01*
X42135Y121343D01*
X41098Y121848D01*
X40074Y122380D01*
X39064Y122936D01*
X38067Y123517D01*
X37085Y124122D01*
X36118Y124751D01*
X35167Y125404D01*
X34232Y126079D01*
X33314Y126778D01*
X32414Y127499D01*
X31531Y128241D01*
X30667Y129005D01*
X29822Y129790D01*
X28996Y130596D01*
X28190Y131422D01*
X27405Y132267D01*
X26641Y133131D01*
X25899Y134014D01*
X25178Y134914D01*
X24479Y135832D01*
X23804Y136767D01*
X23151Y137718D01*
X22522Y138685D01*
X21917Y139667D01*
X21336Y140664D01*
X20780Y141674D01*
X20248Y142698D01*
X19743Y143735D01*
X19262Y144784D01*
X18808Y145844D01*
X18379Y146915D01*
X17977Y147996D01*
X17602Y149087D01*
X17254Y150187D01*
X16933Y151295D01*
X16639Y152410D01*
X16372Y153532D01*
X16133Y154661D01*
X15922Y155795D01*
X15739Y156934D01*
X15583Y158077D01*
X15456Y159223D01*
X15357Y160372D01*
X15287Y161524D01*
X15244Y162677D01*
X15230Y163830D01*
X20730Y163830D02*
X20742Y164848D01*
X20780Y165866D01*
X20842Y166883D01*
X20930Y167898D01*
X21042Y168910D01*
X21179Y169919D01*
X21341Y170925D01*
X21527Y171926D01*
X21738Y172923D01*
X21974Y173914D01*
X22233Y174899D01*
X22517Y175877D01*
X22825Y176848D01*
X23156Y177811D01*
X23511Y178766D01*
X23889Y179711D01*
X24290Y180648D01*
X24714Y181574D01*
X25161Y182489D01*
X25630Y183393D01*
X26121Y184285D01*
X26634Y185165D01*
X27169Y186032D01*
X27724Y186886D01*
X28300Y187726D01*
X28897Y188552D01*
X29514Y189362D01*
X30150Y190157D01*
X30806Y190937D01*
X31481Y191700D01*
X32174Y192446D01*
X32885Y193175D01*
X33614Y193886D01*
X34360Y194579D01*
X35123Y195254D01*
X35903Y195910D01*
X36698Y196546D01*
X37508Y197163D01*
X38334Y197760D01*
X39174Y198336D01*
X40028Y198891D01*
X40895Y199426D01*
X41775Y199939D01*
X42667Y200430D01*
X43571Y200899D01*
X44486Y201346D01*
X45412Y201770D01*
X46349Y202171D01*
X47294Y202549D01*
X48249Y202904D01*
X49212Y203235D01*
X50183Y203543D01*
X51161Y203827D01*
X52146Y204086D01*
X53137Y204322D01*
X54134Y204533D01*
X55135Y204719D01*
X56141Y204881D01*
X57150Y205018D01*
X58162Y205130D01*
X59177Y205218D01*
X60194Y205280D01*
X61212Y205318D01*
X62230Y205330D01*
X63248Y205318D01*
X64266Y205280D01*
X65283Y205218D01*
X66298Y205130D01*
X67310Y205018D01*
X68319Y204881D01*
X69325Y204719D01*
X70326Y204533D01*
X71323Y204322D01*
X72314Y204086D01*
X73299Y203827D01*
X74277Y203543D01*
X75248Y203235D01*
X76211Y202904D01*
X77166Y202549D01*
X78111Y202171D01*
X79048Y201770D01*
X79974Y201346D01*
X80889Y200899D01*
X81793Y200430D01*
X82685Y199939D01*
X83565Y199426D01*
X84432Y198891D01*
X85286Y198336D01*
X86126Y197760D01*
X86952Y197163D01*
X87762Y196546D01*
X88557Y195910D01*
X89337Y195254D01*
X90100Y194579D01*
X90846Y193886D01*
X91575Y193175D01*
X92286Y192446D01*
X92979Y191700D01*
X93654Y190937D01*
X94310Y190157D01*
X94946Y189362D01*
X95563Y188552D01*
X96160Y187726D01*
X96736Y186886D01*
X97291Y186032D01*
X97826Y185165D01*
X98339Y184285D01*
X98830Y183393D01*
X99299Y182489D01*
X99746Y181574D01*
X100170Y180648D01*
X100571Y179711D01*
X100949Y178766D01*
X101304Y177811D01*
X101635Y176848D01*
X101943Y175877D01*
X102227Y174899D01*
X102486Y173914D01*
X102722Y172923D01*
X102933Y171926D01*
X103119Y170925D01*
X103281Y169919D01*
X103418Y168910D01*
X103530Y167898D01*
X103618Y166883D01*
X103680Y165866D01*
X103718Y164848D01*
X103730Y163830D01*
X103718Y162812D01*
X103680Y161794D01*
X103618Y160777D01*
X103530Y159762D01*
X103418Y158750D01*
X103281Y157741D01*
X103119Y156735D01*
X102933Y155734D01*
X102722Y154737D01*
X102486Y153746D01*
X102227Y152761D01*
X101943Y151783D01*
X101635Y150812D01*
X101304Y149849D01*
X100949Y148894D01*
X100571Y147949D01*
X100170Y147012D01*
X99746Y146086D01*
X99299Y145171D01*
X98830Y144267D01*
X98339Y143375D01*
X97826Y142495D01*
X97291Y141628D01*
X96736Y140774D01*
X96160Y139934D01*
X95563Y139108D01*
X94946Y138298D01*
X94310Y137503D01*
X93654Y136723D01*
X92979Y135960D01*
X92286Y135214D01*
X91575Y134485D01*
X90846Y133774D01*
X90100Y133081D01*
X89337Y132406D01*
X88557Y131750D01*
X87762Y131114D01*
X86952Y130497D01*
X86126Y129900D01*
X85286Y129324D01*
X84432Y128769D01*
X83565Y128234D01*
X82685Y127721D01*
X81793Y127230D01*
X80889Y126761D01*
X79974Y126314D01*
X79048Y125890D01*
X78111Y125489D01*
X77166Y125111D01*
X76211Y124756D01*
X75248Y124425D01*
X74277Y124117D01*
X73299Y123833D01*
X72314Y123574D01*
X71323Y123338D01*
X70326Y123127D01*
X69325Y122941D01*
X68319Y122779D01*
X67310Y122642D01*
X66298Y122530D01*
X65283Y122442D01*
X64266Y122380D01*
X63248Y122342D01*
X62230Y122330D01*
X61212Y122342D01*
X60194Y122380D01*
X59177Y122442D01*
X58162Y122530D01*
X57150Y122642D01*
X56141Y122779D01*
X55135Y122941D01*
X54134Y123127D01*
X53137Y123338D01*
X52146Y123574D01*
X51161Y123833D01*
X50183Y124117D01*
X49212Y124425D01*
X48249Y124756D01*
X47294Y125111D01*
X46349Y125489D01*
X45412Y125890D01*
X44486Y126314D01*
X43571Y126761D01*
X42667Y127230D01*
X41775Y127721D01*
X40895Y128234D01*
X40028Y128769D01*
X39174Y129324D01*
X38334Y129900D01*
X37508Y130497D01*
X36698Y131114D01*
X35903Y131750D01*
X35123Y132406D01*
X34360Y133081D01*
X33614Y133774D01*
X32885Y134485D01*
X32174Y135214D01*
X31481Y135960D01*
X30806Y136723D01*
X30150Y137503D01*
X29514Y138298D01*
X28897Y139108D01*
X28300Y139934D01*
X27724Y140774D01*
X27169Y141628D01*
X26634Y142495D01*
X26121Y143375D01*
X25630Y144267D01*
X25161Y145171D01*
X24714Y146086D01*
X24290Y147012D01*
X23889Y147949D01*
X23511Y148894D01*
X23156Y149849D01*
X22825Y150812D01*
X22517Y151783D01*
X22233Y152761D01*
X21974Y153746D01*
X21738Y154737D01*
X21527Y155734D01*
X21341Y156735D01*
X21179Y157741D01*
X21042Y158750D01*
X20930Y159762D01*
X20842Y160777D01*
X20780Y161794D01*
X20742Y162812D01*
X20730Y163830D01*
D15*
X32675Y221360D02*
X30726Y223310D01*
X32675Y221360D02*
X34625Y221360D01*
X36575Y223310D01*
X36575Y233059D01*
X34625Y233059D02*
X38525Y233059D01*
X42424Y231109D02*
X44374Y233059D01*
X48274Y233059D01*
X50223Y231109D01*
X50223Y229160D01*
X48274Y227210D01*
X46324Y227210D01*
X48274Y227210D02*
X50223Y225260D01*
X50223Y223310D01*
X48274Y221360D01*
X44374Y221360D01*
X42424Y223310D01*
D10*
X172697Y169941D02*
X204697Y169941D01*
X204697Y155941D01*
X172697Y155941D01*
X172697Y169941D01*
D11*
X207239Y169043D02*
X207239Y162433D01*
X207239Y169043D02*
X210543Y169043D01*
X211645Y167941D01*
X211645Y165738D01*
X210543Y164636D01*
X207239Y164636D01*
X209442Y164636D02*
X211645Y162433D01*
X214723Y166839D02*
X216926Y169043D01*
X216926Y162433D01*
X214723Y162433D02*
X219129Y162433D01*
D10*
X-17500Y0D02*
X-17495Y429D01*
X-17479Y859D01*
X-17453Y1287D01*
X-17416Y1715D01*
X-17368Y2142D01*
X-17311Y2568D01*
X-17242Y2992D01*
X-17164Y3414D01*
X-17075Y3834D01*
X-16976Y4252D01*
X-16866Y4667D01*
X-16746Y5080D01*
X-16617Y5489D01*
X-16477Y5896D01*
X-16327Y6298D01*
X-16168Y6697D01*
X-15999Y7092D01*
X-15820Y7482D01*
X-15631Y7868D01*
X-15434Y8249D01*
X-15227Y8626D01*
X-15010Y8997D01*
X-14785Y9362D01*
X-14551Y9722D01*
X-14308Y10077D01*
X-14056Y10425D01*
X-13796Y10767D01*
X-13528Y11102D01*
X-13251Y11431D01*
X-12967Y11752D01*
X-12674Y12067D01*
X-12374Y12374D01*
X-12067Y12674D01*
X-11752Y12967D01*
X-11431Y13251D01*
X-11102Y13528D01*
X-10767Y13796D01*
X-10425Y14056D01*
X-10077Y14308D01*
X-9722Y14551D01*
X-9362Y14785D01*
X-8997Y15010D01*
X-8626Y15227D01*
X-8249Y15434D01*
X-7868Y15631D01*
X-7482Y15820D01*
X-7092Y15999D01*
X-6697Y16168D01*
X-6298Y16327D01*
X-5896Y16477D01*
X-5489Y16617D01*
X-5080Y16746D01*
X-4667Y16866D01*
X-4252Y16976D01*
X-3834Y17075D01*
X-3414Y17164D01*
X-2992Y17242D01*
X-2568Y17311D01*
X-2142Y17368D01*
X-1715Y17416D01*
X-1287Y17453D01*
X-859Y17479D01*
X-429Y17495D01*
X0Y17500D01*
X429Y17495D01*
X859Y17479D01*
X1287Y17453D01*
X1715Y17416D01*
X2142Y17368D01*
X2568Y17311D01*
X2992Y17242D01*
X3414Y17164D01*
X3834Y17075D01*
X4252Y16976D01*
X4667Y16866D01*
X5080Y16746D01*
X5489Y16617D01*
X5896Y16477D01*
X6298Y16327D01*
X6697Y16168D01*
X7092Y15999D01*
X7482Y15820D01*
X7868Y15631D01*
X8249Y15434D01*
X8626Y15227D01*
X8997Y15010D01*
X9362Y14785D01*
X9722Y14551D01*
X10077Y14308D01*
X10425Y14056D01*
X10767Y13796D01*
X11102Y13528D01*
X11431Y13251D01*
X11752Y12967D01*
X12067Y12674D01*
X12374Y12374D01*
X12674Y12067D01*
X12967Y11752D01*
X13251Y11431D01*
X13528Y11102D01*
X13796Y10767D01*
X14056Y10425D01*
X14308Y10077D01*
X14551Y9722D01*
X14785Y9362D01*
X15010Y8997D01*
X15227Y8626D01*
X15434Y8249D01*
X15631Y7868D01*
X15820Y7482D01*
X15999Y7092D01*
X16168Y6697D01*
X16327Y6298D01*
X16477Y5896D01*
X16617Y5489D01*
X16746Y5080D01*
X16866Y4667D01*
X16976Y4252D01*
X17075Y3834D01*
X17164Y3414D01*
X17242Y2992D01*
X17311Y2568D01*
X17368Y2142D01*
X17416Y1715D01*
X17453Y1287D01*
X17479Y859D01*
X17495Y429D01*
X17500Y0D01*
X17495Y-429D01*
X17479Y-859D01*
X17453Y-1287D01*
X17416Y-1715D01*
X17368Y-2142D01*
X17311Y-2568D01*
X17242Y-2992D01*
X17164Y-3414D01*
X17075Y-3834D01*
X16976Y-4252D01*
X16866Y-4667D01*
X16746Y-5080D01*
X16617Y-5489D01*
X16477Y-5896D01*
X16327Y-6298D01*
X16168Y-6697D01*
X15999Y-7092D01*
X15820Y-7482D01*
X15631Y-7868D01*
X15434Y-8249D01*
X15227Y-8626D01*
X15010Y-8997D01*
X14785Y-9362D01*
X14551Y-9722D01*
X14308Y-10077D01*
X14056Y-10425D01*
X13796Y-10767D01*
X13528Y-11102D01*
X13251Y-11431D01*
X12967Y-11752D01*
X12674Y-12067D01*
X12374Y-12374D01*
X12067Y-12674D01*
X11752Y-12967D01*
X11431Y-13251D01*
X11102Y-13528D01*
X10767Y-13796D01*
X10425Y-14056D01*
X10077Y-14308D01*
X9722Y-14551D01*
X9362Y-14785D01*
X8997Y-15010D01*
X8626Y-15227D01*
X8249Y-15434D01*
X7868Y-15631D01*
X7482Y-15820D01*
X7092Y-15999D01*
X6697Y-16168D01*
X6298Y-16327D01*
X5896Y-16477D01*
X5489Y-16617D01*
X5080Y-16746D01*
X4667Y-16866D01*
X4252Y-16976D01*
X3834Y-17075D01*
X3414Y-17164D01*
X2992Y-17242D01*
X2568Y-17311D01*
X2142Y-17368D01*
X1715Y-17416D01*
X1287Y-17453D01*
X859Y-17479D01*
X429Y-17495D01*
X0Y-17500D01*
X-429Y-17495D01*
X-859Y-17479D01*
X-1287Y-17453D01*
X-1715Y-17416D01*
X-2142Y-17368D01*
X-2568Y-17311D01*
X-2992Y-17242D01*
X-3414Y-17164D01*
X-3834Y-17075D01*
X-4252Y-16976D01*
X-4667Y-16866D01*
X-5080Y-16746D01*
X-5489Y-16617D01*
X-5896Y-16477D01*
X-6298Y-16327D01*
X-6697Y-16168D01*
X-7092Y-15999D01*
X-7482Y-15820D01*
X-7868Y-15631D01*
X-8249Y-15434D01*
X-8626Y-15227D01*
X-8997Y-15010D01*
X-9362Y-14785D01*
X-9722Y-14551D01*
X-10077Y-14308D01*
X-10425Y-14056D01*
X-10767Y-13796D01*
X-11102Y-13528D01*
X-11431Y-13251D01*
X-11752Y-12967D01*
X-12067Y-12674D01*
X-12374Y-12374D01*
X-12674Y-12067D01*
X-12967Y-11752D01*
X-13251Y-11431D01*
X-13528Y-11102D01*
X-13796Y-10767D01*
X-14056Y-10425D01*
X-14308Y-10077D01*
X-14551Y-9722D01*
X-14785Y-9362D01*
X-15010Y-8997D01*
X-15227Y-8626D01*
X-15434Y-8249D01*
X-15631Y-7868D01*
X-15820Y-7482D01*
X-15999Y-7092D01*
X-16168Y-6697D01*
X-16327Y-6298D01*
X-16477Y-5896D01*
X-16617Y-5489D01*
X-16746Y-5080D01*
X-16866Y-4667D01*
X-16976Y-4252D01*
X-17075Y-3834D01*
X-17164Y-3414D01*
X-17242Y-2992D01*
X-17311Y-2568D01*
X-17368Y-2142D01*
X-17416Y-1715D01*
X-17453Y-1287D01*
X-17479Y-859D01*
X-17495Y-429D01*
X-17500Y0D01*
X222500Y0D02*
X222505Y429D01*
X222521Y859D01*
X222547Y1287D01*
X222584Y1715D01*
X222632Y2142D01*
X222689Y2568D01*
X222758Y2992D01*
X222836Y3414D01*
X222925Y3834D01*
X223024Y4252D01*
X223134Y4667D01*
X223254Y5080D01*
X223383Y5489D01*
X223523Y5896D01*
X223673Y6298D01*
X223832Y6697D01*
X224001Y7092D01*
X224180Y7482D01*
X224369Y7868D01*
X224566Y8249D01*
X224773Y8626D01*
X224990Y8997D01*
X225215Y9362D01*
X225449Y9722D01*
X225692Y10077D01*
X225944Y10425D01*
X226204Y10767D01*
X226472Y11102D01*
X226749Y11431D01*
X227033Y11752D01*
X227326Y12067D01*
X227626Y12374D01*
X227933Y12674D01*
X228248Y12967D01*
X228569Y13251D01*
X228898Y13528D01*
X229233Y13796D01*
X229575Y14056D01*
X229923Y14308D01*
X230278Y14551D01*
X230638Y14785D01*
X231003Y15010D01*
X231374Y15227D01*
X231751Y15434D01*
X232132Y15631D01*
X232518Y15820D01*
X232908Y15999D01*
X233303Y16168D01*
X233702Y16327D01*
X234104Y16477D01*
X234511Y16617D01*
X234920Y16746D01*
X235333Y16866D01*
X235748Y16976D01*
X236166Y17075D01*
X236586Y17164D01*
X237008Y17242D01*
X237432Y17311D01*
X237858Y17368D01*
X238285Y17416D01*
X238713Y17453D01*
X239141Y17479D01*
X239571Y17495D01*
X240000Y17500D01*
X240429Y17495D01*
X240859Y17479D01*
X241287Y17453D01*
X241715Y17416D01*
X242142Y17368D01*
X242568Y17311D01*
X242992Y17242D01*
X243414Y17164D01*
X243834Y17075D01*
X244252Y16976D01*
X244667Y16866D01*
X245080Y16746D01*
X245489Y16617D01*
X245896Y16477D01*
X246298Y16327D01*
X246697Y16168D01*
X247092Y15999D01*
X247482Y15820D01*
X247868Y15631D01*
X248249Y15434D01*
X248626Y15227D01*
X248997Y15010D01*
X249362Y14785D01*
X249722Y14551D01*
X250077Y14308D01*
X250425Y14056D01*
X250767Y13796D01*
X251102Y13528D01*
X251431Y13251D01*
X251752Y12967D01*
X252067Y12674D01*
X252374Y12374D01*
X252674Y12067D01*
X252967Y11752D01*
X253251Y11431D01*
X253528Y11102D01*
X253796Y10767D01*
X254056Y10425D01*
X254308Y10077D01*
X254551Y9722D01*
X254785Y9362D01*
X255010Y8997D01*
X255227Y8626D01*
X255434Y8249D01*
X255631Y7868D01*
X255820Y7482D01*
X255999Y7092D01*
X256168Y6697D01*
X256327Y6298D01*
X256477Y5896D01*
X256617Y5489D01*
X256746Y5080D01*
X256866Y4667D01*
X256976Y4252D01*
X257075Y3834D01*
X257164Y3414D01*
X257242Y2992D01*
X257311Y2568D01*
X257368Y2142D01*
X257416Y1715D01*
X257453Y1287D01*
X257479Y859D01*
X257495Y429D01*
X257500Y0D01*
X257495Y-429D01*
X257479Y-859D01*
X257453Y-1287D01*
X257416Y-1715D01*
X257368Y-2142D01*
X257311Y-2568D01*
X257242Y-2992D01*
X257164Y-3414D01*
X257075Y-3834D01*
X256976Y-4252D01*
X256866Y-4667D01*
X256746Y-5080D01*
X256617Y-5489D01*
X256477Y-5896D01*
X256327Y-6298D01*
X256168Y-6697D01*
X255999Y-7092D01*
X255820Y-7482D01*
X255631Y-7868D01*
X255434Y-8249D01*
X255227Y-8626D01*
X255010Y-8997D01*
X254785Y-9362D01*
X254551Y-9722D01*
X254308Y-10077D01*
X254056Y-10425D01*
X253796Y-10767D01*
X253528Y-11102D01*
X253251Y-11431D01*
X252967Y-11752D01*
X252674Y-12067D01*
X252374Y-12374D01*
X252067Y-12674D01*
X251752Y-12967D01*
X251431Y-13251D01*
X251102Y-13528D01*
X250767Y-13796D01*
X250425Y-14056D01*
X250077Y-14308D01*
X249722Y-14551D01*
X249362Y-14785D01*
X248997Y-15010D01*
X248626Y-15227D01*
X248249Y-15434D01*
X247868Y-15631D01*
X247482Y-15820D01*
X247092Y-15999D01*
X246697Y-16168D01*
X246298Y-16327D01*
X245896Y-16477D01*
X245489Y-16617D01*
X245080Y-16746D01*
X244667Y-16866D01*
X244252Y-16976D01*
X243834Y-17075D01*
X243414Y-17164D01*
X242992Y-17242D01*
X242568Y-17311D01*
X242142Y-17368D01*
X241715Y-17416D01*
X241287Y-17453D01*
X240859Y-17479D01*
X240429Y-17495D01*
X240000Y-17500D01*
X239571Y-17495D01*
X239141Y-17479D01*
X238713Y-17453D01*
X238285Y-17416D01*
X237858Y-17368D01*
X237432Y-17311D01*
X237008Y-17242D01*
X236586Y-17164D01*
X236166Y-17075D01*
X235748Y-16976D01*
X235333Y-16866D01*
X234920Y-16746D01*
X234511Y-16617D01*
X234104Y-16477D01*
X233702Y-16327D01*
X233303Y-16168D01*
X232908Y-15999D01*
X232518Y-15820D01*
X232132Y-15631D01*
X231751Y-15434D01*
X231374Y-15227D01*
X231003Y-15010D01*
X230638Y-14785D01*
X230278Y-14551D01*
X229923Y-14308D01*
X229575Y-14056D01*
X229233Y-13796D01*
X228898Y-13528D01*
X228569Y-13251D01*
X228248Y-12967D01*
X227933Y-12674D01*
X227626Y-12374D01*
X227326Y-12067D01*
X227033Y-11752D01*
X226749Y-11431D01*
X226472Y-11102D01*
X226204Y-10767D01*
X225944Y-10425D01*
X225692Y-10077D01*
X225449Y-9722D01*
X225215Y-9362D01*
X224990Y-8997D01*
X224773Y-8626D01*
X224566Y-8249D01*
X224369Y-7868D01*
X224180Y-7482D01*
X224001Y-7092D01*
X223832Y-6697D01*
X223673Y-6298D01*
X223523Y-5896D01*
X223383Y-5489D01*
X223254Y-5080D01*
X223134Y-4667D01*
X223024Y-4252D01*
X222925Y-3834D01*
X222836Y-3414D01*
X222758Y-2992D01*
X222689Y-2568D01*
X222632Y-2142D01*
X222584Y-1715D01*
X222547Y-1287D01*
X222521Y-859D01*
X222505Y-429D01*
X222500Y0D01*
X-17500Y200000D02*
X-17495Y200429D01*
X-17479Y200859D01*
X-17453Y201287D01*
X-17416Y201715D01*
X-17368Y202142D01*
X-17311Y202568D01*
X-17242Y202992D01*
X-17164Y203414D01*
X-17075Y203834D01*
X-16976Y204252D01*
X-16866Y204667D01*
X-16746Y205080D01*
X-16617Y205489D01*
X-16477Y205896D01*
X-16327Y206298D01*
X-16168Y206697D01*
X-15999Y207092D01*
X-15820Y207482D01*
X-15631Y207868D01*
X-15434Y208249D01*
X-15227Y208626D01*
X-15010Y208997D01*
X-14785Y209362D01*
X-14551Y209722D01*
X-14308Y210077D01*
X-14056Y210425D01*
X-13796Y210767D01*
X-13528Y211102D01*
X-13251Y211431D01*
X-12967Y211752D01*
X-12674Y212067D01*
X-12374Y212374D01*
X-12067Y212674D01*
X-11752Y212967D01*
X-11431Y213251D01*
X-11102Y213528D01*
X-10767Y213796D01*
X-10425Y214056D01*
X-10077Y214308D01*
X-9722Y214551D01*
X-9362Y214785D01*
X-8997Y215010D01*
X-8626Y215227D01*
X-8249Y215434D01*
X-7868Y215631D01*
X-7482Y215820D01*
X-7092Y215999D01*
X-6697Y216168D01*
X-6298Y216327D01*
X-5896Y216477D01*
X-5489Y216617D01*
X-5080Y216746D01*
X-4667Y216866D01*
X-4252Y216976D01*
X-3834Y217075D01*
X-3414Y217164D01*
X-2992Y217242D01*
X-2568Y217311D01*
X-2142Y217368D01*
X-1715Y217416D01*
X-1287Y217453D01*
X-859Y217479D01*
X-429Y217495D01*
X0Y217500D01*
X429Y217495D01*
X859Y217479D01*
X1287Y217453D01*
X1715Y217416D01*
X2142Y217368D01*
X2568Y217311D01*
X2992Y217242D01*
X3414Y217164D01*
X3834Y217075D01*
X4252Y216976D01*
X4667Y216866D01*
X5080Y216746D01*
X5489Y216617D01*
X5896Y216477D01*
X6298Y216327D01*
X6697Y216168D01*
X7092Y215999D01*
X7482Y215820D01*
X7868Y215631D01*
X8249Y215434D01*
X8626Y215227D01*
X8997Y215010D01*
X9362Y214785D01*
X9722Y214551D01*
X10077Y214308D01*
X10425Y214056D01*
X10767Y213796D01*
X11102Y213528D01*
X11431Y213251D01*
X11752Y212967D01*
X12067Y212674D01*
X12374Y212374D01*
X12674Y212067D01*
X12967Y211752D01*
X13251Y211431D01*
X13528Y211102D01*
X13796Y210767D01*
X14056Y210425D01*
X14308Y210077D01*
X14551Y209722D01*
X14785Y209362D01*
X15010Y208997D01*
X15227Y208626D01*
X15434Y208249D01*
X15631Y207868D01*
X15820Y207482D01*
X15999Y207092D01*
X16168Y206697D01*
X16327Y206298D01*
X16477Y205896D01*
X16617Y205489D01*
X16746Y205080D01*
X16866Y204667D01*
X16976Y204252D01*
X17075Y203834D01*
X17164Y203414D01*
X17242Y202992D01*
X17311Y202568D01*
X17368Y202142D01*
X17416Y201715D01*
X17453Y201287D01*
X17479Y200859D01*
X17495Y200429D01*
X17500Y200000D01*
X17495Y199571D01*
X17479Y199141D01*
X17453Y198713D01*
X17416Y198285D01*
X17368Y197858D01*
X17311Y197432D01*
X17242Y197008D01*
X17164Y196586D01*
X17075Y196166D01*
X16976Y195748D01*
X16866Y195333D01*
X16746Y194920D01*
X16617Y194511D01*
X16477Y194104D01*
X16327Y193702D01*
X16168Y193303D01*
X15999Y192908D01*
X15820Y192518D01*
X15631Y192132D01*
X15434Y191751D01*
X15227Y191374D01*
X15010Y191003D01*
X14785Y190638D01*
X14551Y190278D01*
X14308Y189923D01*
X14056Y189575D01*
X13796Y189233D01*
X13528Y188898D01*
X13251Y188569D01*
X12967Y188248D01*
X12674Y187933D01*
X12374Y187626D01*
X12067Y187326D01*
X11752Y187033D01*
X11431Y186749D01*
X11102Y186472D01*
X10767Y186204D01*
X10425Y185944D01*
X10077Y185692D01*
X9722Y185449D01*
X9362Y185215D01*
X8997Y184990D01*
X8626Y184773D01*
X8249Y184566D01*
X7868Y184369D01*
X7482Y184180D01*
X7092Y184001D01*
X6697Y183832D01*
X6298Y183673D01*
X5896Y183523D01*
X5489Y183383D01*
X5080Y183254D01*
X4667Y183134D01*
X4252Y183024D01*
X3834Y182925D01*
X3414Y182836D01*
X2992Y182758D01*
X2568Y182689D01*
X2142Y182632D01*
X1715Y182584D01*
X1287Y182547D01*
X859Y182521D01*
X429Y182505D01*
X0Y182500D01*
X-429Y182505D01*
X-859Y182521D01*
X-1287Y182547D01*
X-1715Y182584D01*
X-2142Y182632D01*
X-2568Y182689D01*
X-2992Y182758D01*
X-3414Y182836D01*
X-3834Y182925D01*
X-4252Y183024D01*
X-4667Y183134D01*
X-5080Y183254D01*
X-5489Y183383D01*
X-5896Y183523D01*
X-6298Y183673D01*
X-6697Y183832D01*
X-7092Y184001D01*
X-7482Y184180D01*
X-7868Y184369D01*
X-8249Y184566D01*
X-8626Y184773D01*
X-8997Y184990D01*
X-9362Y185215D01*
X-9722Y185449D01*
X-10077Y185692D01*
X-10425Y185944D01*
X-10767Y186204D01*
X-11102Y186472D01*
X-11431Y186749D01*
X-11752Y187033D01*
X-12067Y187326D01*
X-12374Y187626D01*
X-12674Y187933D01*
X-12967Y188248D01*
X-13251Y188569D01*
X-13528Y188898D01*
X-13796Y189233D01*
X-14056Y189575D01*
X-14308Y189923D01*
X-14551Y190278D01*
X-14785Y190638D01*
X-15010Y191003D01*
X-15227Y191374D01*
X-15434Y191751D01*
X-15631Y192132D01*
X-15820Y192518D01*
X-15999Y192908D01*
X-16168Y193303D01*
X-16327Y193702D01*
X-16477Y194104D01*
X-16617Y194511D01*
X-16746Y194920D01*
X-16866Y195333D01*
X-16976Y195748D01*
X-17075Y196166D01*
X-17164Y196586D01*
X-17242Y197008D01*
X-17311Y197432D01*
X-17368Y197858D01*
X-17416Y198285D01*
X-17453Y198713D01*
X-17479Y199141D01*
X-17495Y199571D01*
X-17500Y200000D01*
X222500Y200000D02*
X222505Y200429D01*
X222521Y200859D01*
X222547Y201287D01*
X222584Y201715D01*
X222632Y202142D01*
X222689Y202568D01*
X222758Y202992D01*
X222836Y203414D01*
X222925Y203834D01*
X223024Y204252D01*
X223134Y204667D01*
X223254Y205080D01*
X223383Y205489D01*
X223523Y205896D01*
X223673Y206298D01*
X223832Y206697D01*
X224001Y207092D01*
X224180Y207482D01*
X224369Y207868D01*
X224566Y208249D01*
X224773Y208626D01*
X224990Y208997D01*
X225215Y209362D01*
X225449Y209722D01*
X225692Y210077D01*
X225944Y210425D01*
X226204Y210767D01*
X226472Y211102D01*
X226749Y211431D01*
X227033Y211752D01*
X227326Y212067D01*
X227626Y212374D01*
X227933Y212674D01*
X228248Y212967D01*
X228569Y213251D01*
X228898Y213528D01*
X229233Y213796D01*
X229575Y214056D01*
X229923Y214308D01*
X230278Y214551D01*
X230638Y214785D01*
X231003Y215010D01*
X231374Y215227D01*
X231751Y215434D01*
X232132Y215631D01*
X232518Y215820D01*
X232908Y215999D01*
X233303Y216168D01*
X233702Y216327D01*
X234104Y216477D01*
X234511Y216617D01*
X234920Y216746D01*
X235333Y216866D01*
X235748Y216976D01*
X236166Y217075D01*
X236586Y217164D01*
X237008Y217242D01*
X237432Y217311D01*
X237858Y217368D01*
X238285Y217416D01*
X238713Y217453D01*
X239141Y217479D01*
X239571Y217495D01*
X240000Y217500D01*
X240429Y217495D01*
X240859Y217479D01*
X241287Y217453D01*
X241715Y217416D01*
X242142Y217368D01*
X242568Y217311D01*
X242992Y217242D01*
X243414Y217164D01*
X243834Y217075D01*
X244252Y216976D01*
X244667Y216866D01*
X245080Y216746D01*
X245489Y216617D01*
X245896Y216477D01*
X246298Y216327D01*
X246697Y216168D01*
X247092Y215999D01*
X247482Y215820D01*
X247868Y215631D01*
X248249Y215434D01*
X248626Y215227D01*
X248997Y215010D01*
X249362Y214785D01*
X249722Y214551D01*
X250077Y214308D01*
X250425Y214056D01*
X250767Y213796D01*
X251102Y213528D01*
X251431Y213251D01*
X251752Y212967D01*
X252067Y212674D01*
X252374Y212374D01*
X252674Y212067D01*
X252967Y211752D01*
X253251Y211431D01*
X253528Y211102D01*
X253796Y210767D01*
X254056Y210425D01*
X254308Y210077D01*
X254551Y209722D01*
X254785Y209362D01*
X255010Y208997D01*
X255227Y208626D01*
X255434Y208249D01*
X255631Y207868D01*
X255820Y207482D01*
X255999Y207092D01*
X256168Y206697D01*
X256327Y206298D01*
X256477Y205896D01*
X256617Y205489D01*
X256746Y205080D01*
X256866Y204667D01*
X256976Y204252D01*
X257075Y203834D01*
X257164Y203414D01*
X257242Y202992D01*
X257311Y202568D01*
X257368Y202142D01*
X257416Y201715D01*
X257453Y201287D01*
X257479Y200859D01*
X257495Y200429D01*
X257500Y200000D01*
X257495Y199571D01*
X257479Y199141D01*
X257453Y198713D01*
X257416Y198285D01*
X257368Y197858D01*
X257311Y197432D01*
X257242Y197008D01*
X257164Y196586D01*
X257075Y196166D01*
X256976Y195748D01*
X256866Y195333D01*
X256746Y194920D01*
X256617Y194511D01*
X256477Y194104D01*
X256327Y193702D01*
X256168Y193303D01*
X255999Y192908D01*
X255820Y192518D01*
X255631Y192132D01*
X255434Y191751D01*
X255227Y191374D01*
X255010Y191003D01*
X254785Y190638D01*
X254551Y190278D01*
X254308Y189923D01*
X254056Y189575D01*
X253796Y189233D01*
X253528Y188898D01*
X253251Y188569D01*
X252967Y188248D01*
X252674Y187933D01*
X252374Y187626D01*
X252067Y187326D01*
X251752Y187033D01*
X251431Y186749D01*
X251102Y186472D01*
X250767Y186204D01*
X250425Y185944D01*
X250077Y185692D01*
X249722Y185449D01*
X249362Y185215D01*
X248997Y184990D01*
X248626Y184773D01*
X248249Y184566D01*
X247868Y184369D01*
X247482Y184180D01*
X247092Y184001D01*
X246697Y183832D01*
X246298Y183673D01*
X245896Y183523D01*
X245489Y183383D01*
X245080Y183254D01*
X244667Y183134D01*
X244252Y183024D01*
X243834Y182925D01*
X243414Y182836D01*
X242992Y182758D01*
X242568Y182689D01*
X242142Y182632D01*
X241715Y182584D01*
X241287Y182547D01*
X240859Y182521D01*
X240429Y182505D01*
X240000Y182500D01*
X239571Y182505D01*
X239141Y182521D01*
X238713Y182547D01*
X238285Y182584D01*
X237858Y182632D01*
X237432Y182689D01*
X237008Y182758D01*
X236586Y182836D01*
X236166Y182925D01*
X235748Y183024D01*
X235333Y183134D01*
X234920Y183254D01*
X234511Y183383D01*
X234104Y183523D01*
X233702Y183673D01*
X233303Y183832D01*
X232908Y184001D01*
X232518Y184180D01*
X232132Y184369D01*
X231751Y184566D01*
X231374Y184773D01*
X231003Y184990D01*
X230638Y185215D01*
X230278Y185449D01*
X229923Y185692D01*
X229575Y185944D01*
X229233Y186204D01*
X228898Y186472D01*
X228569Y186749D01*
X228248Y187033D01*
X227933Y187326D01*
X227626Y187626D01*
X227326Y187933D01*
X227033Y188248D01*
X226749Y188569D01*
X226472Y188898D01*
X226204Y189233D01*
X225944Y189575D01*
X225692Y189923D01*
X225449Y190278D01*
X225215Y190638D01*
X224990Y191003D01*
X224773Y191374D01*
X224566Y191751D01*
X224369Y192132D01*
X224180Y192518D01*
X224001Y192908D01*
X223832Y193303D01*
X223673Y193702D01*
X223523Y194104D01*
X223383Y194511D01*
X223254Y194920D01*
X223134Y195333D01*
X223024Y195748D01*
X222925Y196166D01*
X222836Y196586D01*
X222758Y197008D01*
X222689Y197432D01*
X222632Y197858D01*
X222584Y198285D01*
X222547Y198713D01*
X222521Y199141D01*
X222505Y199571D01*
X222500Y200000D01*
M02*
