G04 EAGLE Gerber RS-274X export*
G75*
%MOMM*%
%FSLAX34Y34*%
%LPD*%
%INSilkscreen Bottom*%
%IPPOS*%
%AMOC8*
5,1,8,0,0,1.08239X$1,22.5*%
G01*
%ADD10C,0.203200*%
%ADD11C,0.152400*%


D10*
X195580Y46990D02*
X223520Y46990D01*
X195580Y67310D02*
X195480Y67308D01*
X195381Y67302D01*
X195281Y67292D01*
X195183Y67279D01*
X195084Y67261D01*
X194987Y67240D01*
X194891Y67215D01*
X194795Y67186D01*
X194701Y67153D01*
X194608Y67117D01*
X194517Y67077D01*
X194427Y67033D01*
X194339Y66986D01*
X194253Y66936D01*
X194169Y66882D01*
X194087Y66825D01*
X194008Y66765D01*
X193930Y66701D01*
X193856Y66635D01*
X193784Y66566D01*
X193715Y66494D01*
X193649Y66420D01*
X193585Y66342D01*
X193525Y66263D01*
X193468Y66181D01*
X193414Y66097D01*
X193364Y66011D01*
X193317Y65923D01*
X193273Y65833D01*
X193233Y65742D01*
X193197Y65649D01*
X193164Y65555D01*
X193135Y65459D01*
X193110Y65363D01*
X193089Y65266D01*
X193071Y65167D01*
X193058Y65069D01*
X193048Y64969D01*
X193042Y64870D01*
X193040Y64770D01*
X223520Y67310D02*
X223620Y67308D01*
X223719Y67302D01*
X223819Y67292D01*
X223917Y67279D01*
X224016Y67261D01*
X224113Y67240D01*
X224209Y67215D01*
X224305Y67186D01*
X224399Y67153D01*
X224492Y67117D01*
X224583Y67077D01*
X224673Y67033D01*
X224761Y66986D01*
X224847Y66936D01*
X224931Y66882D01*
X225013Y66825D01*
X225092Y66765D01*
X225170Y66701D01*
X225244Y66635D01*
X225316Y66566D01*
X225385Y66494D01*
X225451Y66420D01*
X225515Y66342D01*
X225575Y66263D01*
X225632Y66181D01*
X225686Y66097D01*
X225736Y66011D01*
X225783Y65923D01*
X225827Y65833D01*
X225867Y65742D01*
X225903Y65649D01*
X225936Y65555D01*
X225965Y65459D01*
X225990Y65363D01*
X226011Y65266D01*
X226029Y65167D01*
X226042Y65069D01*
X226052Y64969D01*
X226058Y64870D01*
X226060Y64770D01*
X226060Y49530D02*
X226058Y49430D01*
X226052Y49331D01*
X226042Y49231D01*
X226029Y49133D01*
X226011Y49034D01*
X225990Y48937D01*
X225965Y48841D01*
X225936Y48745D01*
X225903Y48651D01*
X225867Y48558D01*
X225827Y48467D01*
X225783Y48377D01*
X225736Y48289D01*
X225686Y48203D01*
X225632Y48119D01*
X225575Y48037D01*
X225515Y47958D01*
X225451Y47880D01*
X225385Y47806D01*
X225316Y47734D01*
X225244Y47665D01*
X225170Y47599D01*
X225092Y47535D01*
X225013Y47475D01*
X224931Y47418D01*
X224847Y47364D01*
X224761Y47314D01*
X224673Y47267D01*
X224583Y47223D01*
X224492Y47183D01*
X224399Y47147D01*
X224305Y47114D01*
X224209Y47085D01*
X224113Y47060D01*
X224016Y47039D01*
X223917Y47021D01*
X223819Y47008D01*
X223719Y46998D01*
X223620Y46992D01*
X223520Y46990D01*
X195580Y46990D02*
X195480Y46992D01*
X195381Y46998D01*
X195281Y47008D01*
X195183Y47021D01*
X195084Y47039D01*
X194987Y47060D01*
X194891Y47085D01*
X194795Y47114D01*
X194701Y47147D01*
X194608Y47183D01*
X194517Y47223D01*
X194427Y47267D01*
X194339Y47314D01*
X194253Y47364D01*
X194169Y47418D01*
X194087Y47475D01*
X194008Y47535D01*
X193930Y47599D01*
X193856Y47665D01*
X193784Y47734D01*
X193715Y47806D01*
X193649Y47880D01*
X193585Y47958D01*
X193525Y48037D01*
X193468Y48119D01*
X193414Y48203D01*
X193364Y48289D01*
X193317Y48377D01*
X193273Y48467D01*
X193233Y48558D01*
X193197Y48651D01*
X193164Y48745D01*
X193135Y48841D01*
X193110Y48937D01*
X193089Y49034D01*
X193071Y49133D01*
X193058Y49231D01*
X193048Y49331D01*
X193042Y49430D01*
X193040Y49530D01*
X193040Y64770D01*
X226060Y64770D02*
X226060Y49530D01*
X223520Y67310D02*
X195580Y67310D01*
D11*
X225298Y70612D02*
X225298Y75018D01*
X223095Y77222D01*
X220892Y75018D01*
X220892Y70612D01*
X220892Y73917D02*
X225298Y73917D01*
X217814Y71714D02*
X217814Y76120D01*
X216712Y77222D01*
X214509Y77222D01*
X213407Y76120D01*
X213407Y71714D01*
X214509Y70612D01*
X216712Y70612D01*
X217814Y71714D01*
X213407Y76120D01*
D10*
X223520Y68580D02*
X195580Y68580D01*
X193040Y86360D02*
X193042Y86460D01*
X193048Y86559D01*
X193058Y86659D01*
X193071Y86757D01*
X193089Y86856D01*
X193110Y86953D01*
X193135Y87049D01*
X193164Y87145D01*
X193197Y87239D01*
X193233Y87332D01*
X193273Y87423D01*
X193317Y87513D01*
X193364Y87601D01*
X193414Y87687D01*
X193468Y87771D01*
X193525Y87853D01*
X193585Y87932D01*
X193649Y88010D01*
X193715Y88084D01*
X193784Y88156D01*
X193856Y88225D01*
X193930Y88291D01*
X194008Y88355D01*
X194087Y88415D01*
X194169Y88472D01*
X194253Y88526D01*
X194339Y88576D01*
X194427Y88623D01*
X194517Y88667D01*
X194608Y88707D01*
X194701Y88743D01*
X194795Y88776D01*
X194891Y88805D01*
X194987Y88830D01*
X195084Y88851D01*
X195183Y88869D01*
X195281Y88882D01*
X195381Y88892D01*
X195480Y88898D01*
X195580Y88900D01*
X223520Y88900D02*
X223620Y88898D01*
X223719Y88892D01*
X223819Y88882D01*
X223917Y88869D01*
X224016Y88851D01*
X224113Y88830D01*
X224209Y88805D01*
X224305Y88776D01*
X224399Y88743D01*
X224492Y88707D01*
X224583Y88667D01*
X224673Y88623D01*
X224761Y88576D01*
X224847Y88526D01*
X224931Y88472D01*
X225013Y88415D01*
X225092Y88355D01*
X225170Y88291D01*
X225244Y88225D01*
X225316Y88156D01*
X225385Y88084D01*
X225451Y88010D01*
X225515Y87932D01*
X225575Y87853D01*
X225632Y87771D01*
X225686Y87687D01*
X225736Y87601D01*
X225783Y87513D01*
X225827Y87423D01*
X225867Y87332D01*
X225903Y87239D01*
X225936Y87145D01*
X225965Y87049D01*
X225990Y86953D01*
X226011Y86856D01*
X226029Y86757D01*
X226042Y86659D01*
X226052Y86559D01*
X226058Y86460D01*
X226060Y86360D01*
X226060Y71120D02*
X226058Y71020D01*
X226052Y70921D01*
X226042Y70821D01*
X226029Y70723D01*
X226011Y70624D01*
X225990Y70527D01*
X225965Y70431D01*
X225936Y70335D01*
X225903Y70241D01*
X225867Y70148D01*
X225827Y70057D01*
X225783Y69967D01*
X225736Y69879D01*
X225686Y69793D01*
X225632Y69709D01*
X225575Y69627D01*
X225515Y69548D01*
X225451Y69470D01*
X225385Y69396D01*
X225316Y69324D01*
X225244Y69255D01*
X225170Y69189D01*
X225092Y69125D01*
X225013Y69065D01*
X224931Y69008D01*
X224847Y68954D01*
X224761Y68904D01*
X224673Y68857D01*
X224583Y68813D01*
X224492Y68773D01*
X224399Y68737D01*
X224305Y68704D01*
X224209Y68675D01*
X224113Y68650D01*
X224016Y68629D01*
X223917Y68611D01*
X223819Y68598D01*
X223719Y68588D01*
X223620Y68582D01*
X223520Y68580D01*
X195580Y68580D02*
X195480Y68582D01*
X195381Y68588D01*
X195281Y68598D01*
X195183Y68611D01*
X195084Y68629D01*
X194987Y68650D01*
X194891Y68675D01*
X194795Y68704D01*
X194701Y68737D01*
X194608Y68773D01*
X194517Y68813D01*
X194427Y68857D01*
X194339Y68904D01*
X194253Y68954D01*
X194169Y69008D01*
X194087Y69065D01*
X194008Y69125D01*
X193930Y69189D01*
X193856Y69255D01*
X193784Y69324D01*
X193715Y69396D01*
X193649Y69470D01*
X193585Y69548D01*
X193525Y69627D01*
X193468Y69709D01*
X193414Y69793D01*
X193364Y69879D01*
X193317Y69967D01*
X193273Y70057D01*
X193233Y70148D01*
X193197Y70241D01*
X193164Y70335D01*
X193135Y70431D01*
X193110Y70527D01*
X193089Y70624D01*
X193071Y70723D01*
X193058Y70821D01*
X193048Y70921D01*
X193042Y71020D01*
X193040Y71120D01*
X193040Y86360D01*
X226060Y86360D02*
X226060Y71120D01*
X223520Y88900D02*
X195580Y88900D01*
D11*
X225298Y92202D02*
X225298Y96608D01*
X223095Y98812D01*
X220892Y96608D01*
X220892Y92202D01*
X220892Y95507D02*
X225298Y95507D01*
X217814Y96608D02*
X215611Y98812D01*
X215611Y92202D01*
X217814Y92202D02*
X213407Y92202D01*
M02*
