G04 EAGLE Gerber RS-274X export*
G75*
%MOMM*%
%FSLAX34Y34*%
%LPD*%
%INSoldermask Top*%
%IPPOS*%
%AMOC8*
5,1,8,0,0,1.08239X$1,22.5*%
G01*
%ADD10R,0.501600X1.301600*%
%ADD11R,1.101600X1.201600*%
%ADD12R,1.901600X3.301600*%
%ADD13R,1.401600X1.301600*%
%ADD14R,0.901600X0.751600*%
%ADD15R,0.901600X0.601600*%
%ADD16R,1.651600X0.701600*%
%ADD17R,1.901600X1.301600*%
%ADD18R,0.901600X0.901600*%
%ADD19R,1.706600X1.706600*%
%ADD20C,1.706600*%
%ADD21R,1.409600X1.409600*%
%ADD22C,1.409600*%
%ADD23R,1.201600X1.101600*%
%ADD24C,3.617600*%


D10*
X136750Y82850D03*
X136750Y56850D03*
X130250Y82850D03*
X123750Y82850D03*
X117250Y82850D03*
X117250Y56850D03*
X123750Y56850D03*
X130250Y56850D03*
D11*
X101600Y79620D03*
X101600Y62620D03*
D12*
X99000Y111760D03*
X155000Y111760D03*
D13*
X83820Y81280D03*
X83820Y60960D03*
D14*
X172600Y82850D03*
X157600Y82850D03*
D15*
X172600Y73850D03*
X172600Y65850D03*
D14*
X172600Y56850D03*
X157600Y56850D03*
D15*
X157600Y73850D03*
X157600Y65850D03*
D16*
X203460Y96600D03*
X203460Y106600D03*
X203460Y86600D03*
X203460Y116600D03*
D17*
X242460Y73600D03*
X242460Y129600D03*
D16*
X39140Y69770D03*
X39140Y59770D03*
X39140Y79770D03*
X39140Y49770D03*
D17*
X140Y92770D03*
X140Y36770D03*
D18*
X2660Y111760D03*
X17660Y111760D03*
X50800Y110490D03*
X35560Y110490D03*
D19*
X85725Y2337D03*
D20*
X85725Y27737D03*
X111125Y2337D03*
X111125Y27737D03*
X136525Y2337D03*
X136525Y27737D03*
D21*
X44230Y181830D03*
D22*
X44230Y145830D03*
X80230Y145830D03*
X80230Y181830D03*
D23*
X180197Y162941D03*
X197197Y162941D03*
D24*
X0Y0D03*
X240000Y0D03*
X0Y200000D03*
X240000Y200000D03*
M02*
