%TF.GenerationSoftware,KiCad,Pcbnew,9.0.7*%
%TF.CreationDate,2026-01-09T12:44:47-06:00*%
%TF.ProjectId,dreamV1_0,64726561-6d56-4315-9f30-2e6b69636164,1*%
%TF.SameCoordinates,Original*%
%TF.FileFunction,Profile,NP*%
%FSLAX46Y46*%
G04 Gerber Fmt 4.6, Leading zero omitted, Abs format (unit mm)*
G04 Created by KiCad (PCBNEW 9.0.7) date 2026-01-09 12:44:47*
%MOMM*%
%LPD*%
G01*
G04 APERTURE LIST*
%TA.AperFunction,Profile*%
%ADD10C,0.050000*%
%TD*%
%TA.AperFunction,Profile*%
%ADD11C,0.010000*%
%TD*%
G04 APERTURE END LIST*
D10*
X120700000Y-75750000D02*
G75*
G02*
X117500000Y-75750000I-1600000J0D01*
G01*
X117500000Y-75750000D02*
G75*
G02*
X120700000Y-75750000I1600000J0D01*
G01*
X128600000Y-127000000D02*
G75*
G02*
X125400000Y-127000000I-1600000J0D01*
G01*
X125400000Y-127000000D02*
G75*
G02*
X128600000Y-127000000I1600000J0D01*
G01*
X120700000Y-52750000D02*
G75*
G02*
X117500000Y-52750000I-1600000J0D01*
G01*
X117500000Y-52750000D02*
G75*
G02*
X120700000Y-52750000I1600000J0D01*
G01*
X104100000Y-119100000D02*
G75*
G02*
X101900000Y-119100000I-1100000J0D01*
G01*
X101900000Y-119100000D02*
G75*
G02*
X104100000Y-119100000I1100000J0D01*
G01*
X61600000Y-125500000D02*
G75*
G02*
X58400000Y-125500000I-1600000J0D01*
G01*
X58400000Y-125500000D02*
G75*
G02*
X61600000Y-125500000I1600000J0D01*
G01*
X54600000Y-53000000D02*
G75*
G02*
X51400000Y-53000000I-1600000J0D01*
G01*
X51400000Y-53000000D02*
G75*
G02*
X54600000Y-53000000I1600000J0D01*
G01*
X62650000Y-52750000D02*
G75*
G02*
X59450000Y-52750000I-1600000J0D01*
G01*
X59450000Y-52750000D02*
G75*
G02*
X62650000Y-52750000I1600000J0D01*
G01*
X62650000Y-75750000D02*
G75*
G02*
X59450000Y-75750000I-1600000J0D01*
G01*
X59450000Y-75750000D02*
G75*
G02*
X62650000Y-75750000I1600000J0D01*
G01*
X54600000Y-127000000D02*
G75*
G02*
X51400000Y-127000000I-1600000J0D01*
G01*
X51400000Y-127000000D02*
G75*
G02*
X54600000Y-127000000I1600000J0D01*
G01*
X128600000Y-53000000D02*
G75*
G02*
X125400000Y-53000000I-1600000J0D01*
G01*
X125400000Y-53000000D02*
G75*
G02*
X128600000Y-53000000I1600000J0D01*
G01*
X83300000Y-88000000D02*
G75*
G02*
X80100000Y-88000000I-1600000J0D01*
G01*
X80100000Y-88000000D02*
G75*
G02*
X83300000Y-88000000I1600000J0D01*
G01*
X50500000Y-50500000D02*
X129500000Y-50500000D01*
X129500000Y-129400000D01*
X50500000Y-129400000D01*
X50500000Y-50500000D01*
D11*
%TO.C,J11*%
X85820000Y-56300000D02*
X86240000Y-56300000D01*
D10*
X86300000Y-56300000D02*
G75*
G02*
X85760000Y-56300000I-270000J0D01*
G01*
X85760000Y-56300000D02*
G75*
G02*
X86300000Y-56300000I270000J0D01*
G01*
%TD*%
M02*
